G04 #@! TF.GenerationSoftware,KiCad,Pcbnew,(5.1.2-1)-1*
G04 #@! TF.CreationDate,2020-03-21T09:14:12-05:00*
G04 #@! TF.ProjectId,therick48_top_plate,74686572-6963-46b3-9438-5f746f705f70,rev?*
G04 #@! TF.SameCoordinates,Original*
G04 #@! TF.FileFunction,Soldermask,Top*
G04 #@! TF.FilePolarity,Negative*
%FSLAX46Y46*%
G04 Gerber Fmt 4.6, Leading zero omitted, Abs format (unit mm)*
G04 Created by KiCad (PCBNEW (5.1.2-1)-1) date 2020-03-21 09:14:12*
%MOMM*%
%LPD*%
G04 APERTURE LIST*
%ADD10C,0.100000*%
G04 APERTURE END LIST*
D10*
G36*
X217505331Y-89848211D02*
G01*
X217833092Y-89983974D01*
X218128070Y-90181072D01*
X218378928Y-90431930D01*
X218576026Y-90726908D01*
X218711789Y-91054669D01*
X218781000Y-91402616D01*
X218781000Y-91757384D01*
X218711789Y-92105331D01*
X218576026Y-92433092D01*
X218378928Y-92728070D01*
X218128070Y-92978928D01*
X217833092Y-93176026D01*
X217505331Y-93311789D01*
X217157384Y-93381000D01*
X216802616Y-93381000D01*
X216454669Y-93311789D01*
X216126908Y-93176026D01*
X215831930Y-92978928D01*
X215581072Y-92728070D01*
X215383974Y-92433092D01*
X215248211Y-92105331D01*
X215179000Y-91757384D01*
X215179000Y-91402616D01*
X215248211Y-91054669D01*
X215383974Y-90726908D01*
X215581072Y-90431930D01*
X215831930Y-90181072D01*
X216126908Y-89983974D01*
X216454669Y-89848211D01*
X216802616Y-89779000D01*
X217157384Y-89779000D01*
X217505331Y-89848211D01*
X217505331Y-89848211D01*
G37*
G36*
X103505331Y-89848211D02*
G01*
X103833092Y-89983974D01*
X104128070Y-90181072D01*
X104378928Y-90431930D01*
X104576026Y-90726908D01*
X104711789Y-91054669D01*
X104781000Y-91402616D01*
X104781000Y-91757384D01*
X104711789Y-92105331D01*
X104576026Y-92433092D01*
X104378928Y-92728070D01*
X104128070Y-92978928D01*
X103833092Y-93176026D01*
X103505331Y-93311789D01*
X103157384Y-93381000D01*
X102802616Y-93381000D01*
X102454669Y-93311789D01*
X102126908Y-93176026D01*
X101831930Y-92978928D01*
X101581072Y-92728070D01*
X101383974Y-92433092D01*
X101248211Y-92105331D01*
X101179000Y-91757384D01*
X101179000Y-91402616D01*
X101248211Y-91054669D01*
X101383974Y-90726908D01*
X101581072Y-90431930D01*
X101831930Y-90181072D01*
X102126908Y-89983974D01*
X102454669Y-89848211D01*
X102802616Y-89779000D01*
X103157384Y-89779000D01*
X103505331Y-89848211D01*
X103505331Y-89848211D01*
G37*
G36*
X255505331Y-70848211D02*
G01*
X255833092Y-70983974D01*
X256128070Y-71181072D01*
X256378928Y-71431930D01*
X256576026Y-71726908D01*
X256711789Y-72054669D01*
X256781000Y-72402616D01*
X256781000Y-72757384D01*
X256711789Y-73105331D01*
X256576026Y-73433092D01*
X256378928Y-73728070D01*
X256128070Y-73978928D01*
X255833092Y-74176026D01*
X255505331Y-74311789D01*
X255157384Y-74381000D01*
X254802616Y-74381000D01*
X254454669Y-74311789D01*
X254126908Y-74176026D01*
X253831930Y-73978928D01*
X253581072Y-73728070D01*
X253383974Y-73433092D01*
X253248211Y-73105331D01*
X253179000Y-72757384D01*
X253179000Y-72402616D01*
X253248211Y-72054669D01*
X253383974Y-71726908D01*
X253581072Y-71431930D01*
X253831930Y-71181072D01*
X254126908Y-70983974D01*
X254454669Y-70848211D01*
X254802616Y-70779000D01*
X255157384Y-70779000D01*
X255505331Y-70848211D01*
X255505331Y-70848211D01*
G37*
G36*
X65454531Y-70848211D02*
G01*
X65782292Y-70983974D01*
X66077270Y-71181072D01*
X66328128Y-71431930D01*
X66525226Y-71726908D01*
X66660989Y-72054669D01*
X66730200Y-72402616D01*
X66730200Y-72757384D01*
X66660989Y-73105331D01*
X66525226Y-73433092D01*
X66328128Y-73728070D01*
X66077270Y-73978928D01*
X65782292Y-74176026D01*
X65454531Y-74311789D01*
X65106584Y-74381000D01*
X64751816Y-74381000D01*
X64403869Y-74311789D01*
X64076108Y-74176026D01*
X63781130Y-73978928D01*
X63530272Y-73728070D01*
X63333174Y-73433092D01*
X63197411Y-73105331D01*
X63128200Y-72757384D01*
X63128200Y-72402616D01*
X63197411Y-72054669D01*
X63333174Y-71726908D01*
X63530272Y-71431930D01*
X63781130Y-71181072D01*
X64076108Y-70983974D01*
X64403869Y-70848211D01*
X64751816Y-70779000D01*
X65106584Y-70779000D01*
X65454531Y-70848211D01*
X65454531Y-70848211D01*
G37*
G36*
X217505331Y-51848211D02*
G01*
X217833092Y-51983974D01*
X218128070Y-52181072D01*
X218378928Y-52431930D01*
X218576026Y-52726908D01*
X218711789Y-53054669D01*
X218781000Y-53402616D01*
X218781000Y-53757384D01*
X218711789Y-54105331D01*
X218576026Y-54433092D01*
X218378928Y-54728070D01*
X218128070Y-54978928D01*
X217833092Y-55176026D01*
X217505331Y-55311789D01*
X217157384Y-55381000D01*
X216802616Y-55381000D01*
X216454669Y-55311789D01*
X216126908Y-55176026D01*
X215831930Y-54978928D01*
X215581072Y-54728070D01*
X215383974Y-54433092D01*
X215248211Y-54105331D01*
X215179000Y-53757384D01*
X215179000Y-53402616D01*
X215248211Y-53054669D01*
X215383974Y-52726908D01*
X215581072Y-52431930D01*
X215831930Y-52181072D01*
X216126908Y-51983974D01*
X216454669Y-51848211D01*
X216802616Y-51779000D01*
X217157384Y-51779000D01*
X217505331Y-51848211D01*
X217505331Y-51848211D01*
G37*
G36*
X103505331Y-51848211D02*
G01*
X103833092Y-51983974D01*
X104128070Y-52181072D01*
X104378928Y-52431930D01*
X104576026Y-52726908D01*
X104711789Y-53054669D01*
X104781000Y-53402616D01*
X104781000Y-53757384D01*
X104711789Y-54105331D01*
X104576026Y-54433092D01*
X104378928Y-54728070D01*
X104128070Y-54978928D01*
X103833092Y-55176026D01*
X103505331Y-55311789D01*
X103157384Y-55381000D01*
X102802616Y-55381000D01*
X102454669Y-55311789D01*
X102126908Y-55176026D01*
X101831930Y-54978928D01*
X101581072Y-54728070D01*
X101383974Y-54433092D01*
X101248211Y-54105331D01*
X101179000Y-53757384D01*
X101179000Y-53402616D01*
X101248211Y-53054669D01*
X101383974Y-52726908D01*
X101581072Y-52431930D01*
X101831930Y-52181072D01*
X102126908Y-51983974D01*
X102454669Y-51848211D01*
X102802616Y-51779000D01*
X103157384Y-51779000D01*
X103505331Y-51848211D01*
X103505331Y-51848211D01*
G37*
M02*
