G04 #@! TF.GenerationSoftware,KiCad,Pcbnew,(5.1.2-1)-1*
G04 #@! TF.CreationDate,2020-05-17T11:39:59-05:00*
G04 #@! TF.ProjectId,therick48_top_plate,74686572-6963-46b3-9438-5f746f705f70,rev?*
G04 #@! TF.SameCoordinates,Original*
G04 #@! TF.FileFunction,Legend,Bot*
G04 #@! TF.FilePolarity,Positive*
%FSLAX46Y46*%
G04 Gerber Fmt 4.6, Leading zero omitted, Abs format (unit mm)*
G04 Created by KiCad (PCBNEW (5.1.2-1)-1) date 2020-05-17 11:39:59*
%MOMM*%
%LPD*%
G04 APERTURE LIST*
%ADD10C,0.200000*%
%ADD11C,0.150000*%
G04 APERTURE END LIST*
D10*
X248260000Y-91258571D02*
X247688571Y-91258571D01*
X248045714Y-90758571D02*
X248045714Y-92044285D01*
X247974285Y-92187142D01*
X247831428Y-92258571D01*
X247688571Y-92258571D01*
X247188571Y-92258571D02*
X247188571Y-90758571D01*
X246545714Y-92258571D02*
X246545714Y-91472857D01*
X246617142Y-91330000D01*
X246760000Y-91258571D01*
X246974285Y-91258571D01*
X247117142Y-91330000D01*
X247188571Y-91401428D01*
X245260000Y-92187142D02*
X245402857Y-92258571D01*
X245688571Y-92258571D01*
X245831428Y-92187142D01*
X245902857Y-92044285D01*
X245902857Y-91472857D01*
X245831428Y-91330000D01*
X245688571Y-91258571D01*
X245402857Y-91258571D01*
X245260000Y-91330000D01*
X245188571Y-91472857D01*
X245188571Y-91615714D01*
X245902857Y-91758571D01*
X244545714Y-92258571D02*
X244545714Y-91258571D01*
X244545714Y-91544285D02*
X244474285Y-91401428D01*
X244402857Y-91330000D01*
X244260000Y-91258571D01*
X244117142Y-91258571D01*
X243617142Y-92258571D02*
X243617142Y-91258571D01*
X243617142Y-90758571D02*
X243688571Y-90830000D01*
X243617142Y-90901428D01*
X243545714Y-90830000D01*
X243617142Y-90758571D01*
X243617142Y-90901428D01*
X242260000Y-92187142D02*
X242402857Y-92258571D01*
X242688571Y-92258571D01*
X242831428Y-92187142D01*
X242902857Y-92115714D01*
X242974285Y-91972857D01*
X242974285Y-91544285D01*
X242902857Y-91401428D01*
X242831428Y-91330000D01*
X242688571Y-91258571D01*
X242402857Y-91258571D01*
X242260000Y-91330000D01*
X241617142Y-92258571D02*
X241617142Y-90758571D01*
X241474285Y-91687142D02*
X241045714Y-92258571D01*
X241045714Y-91258571D02*
X241617142Y-91830000D01*
X239760000Y-91258571D02*
X239760000Y-92258571D01*
X240117142Y-90687142D02*
X240474285Y-91758571D01*
X239545714Y-91758571D01*
X238760000Y-91401428D02*
X238902857Y-91330000D01*
X238974285Y-91258571D01*
X239045714Y-91115714D01*
X239045714Y-91044285D01*
X238974285Y-90901428D01*
X238902857Y-90830000D01*
X238760000Y-90758571D01*
X238474285Y-90758571D01*
X238331428Y-90830000D01*
X238260000Y-90901428D01*
X238188571Y-91044285D01*
X238188571Y-91115714D01*
X238260000Y-91258571D01*
X238331428Y-91330000D01*
X238474285Y-91401428D01*
X238760000Y-91401428D01*
X238902857Y-91472857D01*
X238974285Y-91544285D01*
X239045714Y-91687142D01*
X239045714Y-91972857D01*
X238974285Y-92115714D01*
X238902857Y-92187142D01*
X238760000Y-92258571D01*
X238474285Y-92258571D01*
X238331428Y-92187142D01*
X238260000Y-92115714D01*
X238188571Y-91972857D01*
X238188571Y-91687142D01*
X238260000Y-91544285D01*
X238331428Y-91472857D01*
X238474285Y-91401428D01*
X235545714Y-92258571D02*
X236045714Y-91544285D01*
X236402857Y-92258571D02*
X236402857Y-90758571D01*
X235831428Y-90758571D01*
X235688571Y-90830000D01*
X235617142Y-90901428D01*
X235545714Y-91044285D01*
X235545714Y-91258571D01*
X235617142Y-91401428D01*
X235688571Y-91472857D01*
X235831428Y-91544285D01*
X236402857Y-91544285D01*
X234331428Y-92187142D02*
X234474285Y-92258571D01*
X234760000Y-92258571D01*
X234902857Y-92187142D01*
X234974285Y-92044285D01*
X234974285Y-91472857D01*
X234902857Y-91330000D01*
X234760000Y-91258571D01*
X234474285Y-91258571D01*
X234331428Y-91330000D01*
X234260000Y-91472857D01*
X234260000Y-91615714D01*
X234974285Y-91758571D01*
X233760000Y-91258571D02*
X233402857Y-92258571D01*
X233045714Y-91258571D01*
X230545714Y-92258571D02*
X231402857Y-92258571D01*
X230974285Y-92258571D02*
X230974285Y-90758571D01*
X231117142Y-90972857D01*
X231260000Y-91115714D01*
X231402857Y-91187142D01*
X229902857Y-92115714D02*
X229831428Y-92187142D01*
X229902857Y-92258571D01*
X229974285Y-92187142D01*
X229902857Y-92115714D01*
X229902857Y-92258571D01*
X228402857Y-92258571D02*
X229260000Y-92258571D01*
X228831428Y-92258571D02*
X228831428Y-90758571D01*
X228974285Y-90972857D01*
X229117142Y-91115714D01*
X229260000Y-91187142D01*
D11*
X80999047Y-91032380D02*
X80999047Y-91746666D01*
X81046666Y-91889523D01*
X81141904Y-91984761D01*
X81284761Y-92032380D01*
X81380000Y-92032380D01*
X80046666Y-92032380D02*
X80522857Y-92032380D01*
X80522857Y-91032380D01*
X79141904Y-91937142D02*
X79189523Y-91984761D01*
X79332380Y-92032380D01*
X79427619Y-92032380D01*
X79570476Y-91984761D01*
X79665714Y-91889523D01*
X79713333Y-91794285D01*
X79760952Y-91603809D01*
X79760952Y-91460952D01*
X79713333Y-91270476D01*
X79665714Y-91175238D01*
X79570476Y-91080000D01*
X79427619Y-91032380D01*
X79332380Y-91032380D01*
X79189523Y-91080000D01*
X79141904Y-91127619D01*
X78427619Y-91032380D02*
X78427619Y-91746666D01*
X78475238Y-91889523D01*
X78570476Y-91984761D01*
X78713333Y-92032380D01*
X78808571Y-92032380D01*
X77475238Y-92032380D02*
X77951428Y-92032380D01*
X77951428Y-91032380D01*
X76570476Y-91937142D02*
X76618095Y-91984761D01*
X76760952Y-92032380D01*
X76856190Y-92032380D01*
X76999047Y-91984761D01*
X77094285Y-91889523D01*
X77141904Y-91794285D01*
X77189523Y-91603809D01*
X77189523Y-91460952D01*
X77141904Y-91270476D01*
X77094285Y-91175238D01*
X76999047Y-91080000D01*
X76856190Y-91032380D01*
X76760952Y-91032380D01*
X76618095Y-91080000D01*
X76570476Y-91127619D01*
X75856190Y-91032380D02*
X75856190Y-91746666D01*
X75903809Y-91889523D01*
X75999047Y-91984761D01*
X76141904Y-92032380D01*
X76237142Y-92032380D01*
X74903809Y-92032380D02*
X75380000Y-92032380D01*
X75380000Y-91032380D01*
X73999047Y-91937142D02*
X74046666Y-91984761D01*
X74189523Y-92032380D01*
X74284761Y-92032380D01*
X74427619Y-91984761D01*
X74522857Y-91889523D01*
X74570476Y-91794285D01*
X74618095Y-91603809D01*
X74618095Y-91460952D01*
X74570476Y-91270476D01*
X74522857Y-91175238D01*
X74427619Y-91080000D01*
X74284761Y-91032380D01*
X74189523Y-91032380D01*
X74046666Y-91080000D01*
X73999047Y-91127619D01*
X73284761Y-91032380D02*
X73284761Y-91746666D01*
X73332380Y-91889523D01*
X73427619Y-91984761D01*
X73570476Y-92032380D01*
X73665714Y-92032380D01*
X72332380Y-92032380D02*
X72808571Y-92032380D01*
X72808571Y-91032380D01*
X71427619Y-91937142D02*
X71475238Y-91984761D01*
X71618095Y-92032380D01*
X71713333Y-92032380D01*
X71856190Y-91984761D01*
X71951428Y-91889523D01*
X71999047Y-91794285D01*
X72046666Y-91603809D01*
X72046666Y-91460952D01*
X71999047Y-91270476D01*
X71951428Y-91175238D01*
X71856190Y-91080000D01*
X71713333Y-91032380D01*
X71618095Y-91032380D01*
X71475238Y-91080000D01*
X71427619Y-91127619D01*
M02*
