G04 #@! TF.GenerationSoftware,KiCad,Pcbnew,(5.1.2-1)-1*
G04 #@! TF.CreationDate,2020-02-21T07:14:38-06:00*
G04 #@! TF.ProjectId,therick48_top_plate,74686572-6963-46b3-9438-5f746f705f70,rev?*
G04 #@! TF.SameCoordinates,Original*
G04 #@! TF.FileFunction,Profile,NP*
%FSLAX46Y46*%
G04 Gerber Fmt 4.6, Leading zero omitted, Abs format (unit mm)*
G04 Created by KiCad (PCBNEW (5.1.2-1)-1) date 2020-02-21 07:14:38*
%MOMM*%
%LPD*%
G04 APERTURE LIST*
%ADD10C,0.050000*%
%ADD11C,0.100000*%
G04 APERTURE END LIST*
D10*
X273600000Y-38380000D02*
X273600000Y-106780000D01*
X270180000Y-110200000D02*
X49780000Y-110200000D01*
X49780000Y-34960000D02*
X270180000Y-34960000D01*
X46360000Y-106780000D02*
X46360000Y-38380000D01*
X49780000Y-110200000D02*
G75*
G02X46360000Y-106780000I0J3420000D01*
G01*
X46360000Y-38380000D02*
G75*
G02X49780000Y-34960000I3420000J0D01*
G01*
X270180000Y-34960000D02*
G75*
G02X273600000Y-38380000I0J-3420000D01*
G01*
X273600000Y-106780000D02*
G75*
G02X270180000Y-110200000I-3420000J0D01*
G01*
D11*
X271180000Y-70080000D02*
X257780000Y-70080000D01*
X257780000Y-70080000D02*
G75*
G02X257480000Y-69780000I0J300000D01*
G01*
X257480000Y-69780000D02*
X257480000Y-69380000D01*
X257480000Y-56380000D02*
G75*
G02X257780000Y-56080000I300000J0D01*
G01*
X271180000Y-56080000D02*
X257780000Y-56080000D01*
X257480000Y-60480000D02*
X257480000Y-65680000D01*
X257480000Y-56780000D02*
X257480000Y-56380000D01*
X271480000Y-69380000D02*
X271480000Y-69780000D01*
X271180000Y-56080000D02*
G75*
G02X271480000Y-56380000I0J-300000D01*
G01*
X272480000Y-59980000D02*
G75*
G02X272280000Y-60180000I-200000J0D01*
G01*
X271480000Y-60480000D02*
G75*
G02X271780000Y-60180000I300000J0D01*
G01*
X271780000Y-57080000D02*
X272180000Y-57080000D01*
X272480000Y-59980000D02*
X272480000Y-57380000D01*
X272280000Y-60180000D02*
X271780000Y-60180000D01*
X271480000Y-65680000D02*
X271480000Y-60480000D01*
X271480000Y-69780000D02*
G75*
G02X271180000Y-70080000I-300000J0D01*
G01*
X271780000Y-57080000D02*
G75*
G02X271480000Y-56780000I0J300000D01*
G01*
X272180000Y-57080000D02*
G75*
G02X272480000Y-57380000I0J-300000D01*
G01*
X271480000Y-56380000D02*
X271480000Y-56780000D01*
X271780000Y-65980000D02*
G75*
G02X271480000Y-65680000I0J300000D01*
G01*
X272180000Y-65980000D02*
G75*
G02X272480000Y-66280000I0J-300000D01*
G01*
X272280000Y-69080000D02*
X271780000Y-69080000D01*
X272480000Y-68880000D02*
X272480000Y-66280000D01*
X271780000Y-65980000D02*
X272180000Y-65980000D01*
X271480000Y-69380000D02*
G75*
G02X271780000Y-69080000I300000J0D01*
G01*
X272480000Y-68880000D02*
G75*
G02X272280000Y-69080000I-200000J0D01*
G01*
X256480000Y-66180000D02*
G75*
G02X256680000Y-65980000I200000J0D01*
G01*
X257480000Y-65680000D02*
G75*
G02X257180000Y-65980000I-300000J0D01*
G01*
X257180000Y-69080000D02*
X256780000Y-69080000D01*
X256480000Y-66180000D02*
X256480000Y-68780000D01*
X256680000Y-65980000D02*
X257180000Y-65980000D01*
X256780000Y-69080000D02*
G75*
G02X256480000Y-68780000I0J300000D01*
G01*
X257180000Y-69080000D02*
G75*
G02X257480000Y-69380000I0J-300000D01*
G01*
X256680000Y-57080000D02*
X257180000Y-57080000D01*
X257180000Y-60180000D02*
X256780000Y-60180000D01*
X256480000Y-57280000D02*
X256480000Y-59880000D01*
X257480000Y-56780000D02*
G75*
G02X257180000Y-57080000I-300000J0D01*
G01*
X257180000Y-60180000D02*
G75*
G02X257480000Y-60480000I0J-300000D01*
G01*
X256780000Y-60180000D02*
G75*
G02X256480000Y-59880000I0J300000D01*
G01*
X256480000Y-57280000D02*
G75*
G02X256680000Y-57080000I200000J0D01*
G01*
X271180000Y-89080000D02*
X257780000Y-89080000D01*
X257780000Y-89080000D02*
G75*
G02X257480000Y-88780000I0J300000D01*
G01*
X257480000Y-88780000D02*
X257480000Y-88380000D01*
X257480000Y-75380000D02*
G75*
G02X257780000Y-75080000I300000J0D01*
G01*
X271180000Y-75080000D02*
X257780000Y-75080000D01*
X257480000Y-79480000D02*
X257480000Y-84680000D01*
X257480000Y-75780000D02*
X257480000Y-75380000D01*
X271480000Y-88380000D02*
X271480000Y-88780000D01*
X271180000Y-75080000D02*
G75*
G02X271480000Y-75380000I0J-300000D01*
G01*
X272480000Y-78980000D02*
G75*
G02X272280000Y-79180000I-200000J0D01*
G01*
X271480000Y-79480000D02*
G75*
G02X271780000Y-79180000I300000J0D01*
G01*
X271780000Y-76080000D02*
X272180000Y-76080000D01*
X272480000Y-78980000D02*
X272480000Y-76380000D01*
X272280000Y-79180000D02*
X271780000Y-79180000D01*
X271480000Y-84680000D02*
X271480000Y-79480000D01*
X271480000Y-88780000D02*
G75*
G02X271180000Y-89080000I-300000J0D01*
G01*
X271780000Y-76080000D02*
G75*
G02X271480000Y-75780000I0J300000D01*
G01*
X272180000Y-76080000D02*
G75*
G02X272480000Y-76380000I0J-300000D01*
G01*
X271480000Y-75380000D02*
X271480000Y-75780000D01*
X271780000Y-84980000D02*
G75*
G02X271480000Y-84680000I0J300000D01*
G01*
X272180000Y-84980000D02*
G75*
G02X272480000Y-85280000I0J-300000D01*
G01*
X272280000Y-88080000D02*
X271780000Y-88080000D01*
X272480000Y-87880000D02*
X272480000Y-85280000D01*
X271780000Y-84980000D02*
X272180000Y-84980000D01*
X271480000Y-88380000D02*
G75*
G02X271780000Y-88080000I300000J0D01*
G01*
X272480000Y-87880000D02*
G75*
G02X272280000Y-88080000I-200000J0D01*
G01*
X256480000Y-85180000D02*
G75*
G02X256680000Y-84980000I200000J0D01*
G01*
X257480000Y-84680000D02*
G75*
G02X257180000Y-84980000I-300000J0D01*
G01*
X257180000Y-88080000D02*
X256780000Y-88080000D01*
X256480000Y-85180000D02*
X256480000Y-87780000D01*
X256680000Y-84980000D02*
X257180000Y-84980000D01*
X256780000Y-88080000D02*
G75*
G02X256480000Y-87780000I0J300000D01*
G01*
X257180000Y-88080000D02*
G75*
G02X257480000Y-88380000I0J-300000D01*
G01*
X256680000Y-76080000D02*
X257180000Y-76080000D01*
X257180000Y-79180000D02*
X256780000Y-79180000D01*
X256480000Y-76280000D02*
X256480000Y-78880000D01*
X257480000Y-75780000D02*
G75*
G02X257180000Y-76080000I-300000J0D01*
G01*
X257180000Y-79180000D02*
G75*
G02X257480000Y-79480000I0J-300000D01*
G01*
X256780000Y-79180000D02*
G75*
G02X256480000Y-78880000I0J300000D01*
G01*
X256480000Y-76280000D02*
G75*
G02X256680000Y-76080000I200000J0D01*
G01*
X271180000Y-51080000D02*
X257780000Y-51080000D01*
X257780000Y-51080000D02*
G75*
G02X257480000Y-50780000I0J300000D01*
G01*
X257480000Y-50780000D02*
X257480000Y-50380000D01*
X257480000Y-37380000D02*
G75*
G02X257780000Y-37080000I300000J0D01*
G01*
X271180000Y-37080000D02*
X257780000Y-37080000D01*
X257480000Y-41480000D02*
X257480000Y-46680000D01*
X257480000Y-37780000D02*
X257480000Y-37380000D01*
X271480000Y-50380000D02*
X271480000Y-50780000D01*
X271180000Y-37080000D02*
G75*
G02X271480000Y-37380000I0J-300000D01*
G01*
X272480000Y-40980000D02*
G75*
G02X272280000Y-41180000I-200000J0D01*
G01*
X271480000Y-41480000D02*
G75*
G02X271780000Y-41180000I300000J0D01*
G01*
X271780000Y-38080000D02*
X272180000Y-38080000D01*
X272480000Y-40980000D02*
X272480000Y-38380000D01*
X272280000Y-41180000D02*
X271780000Y-41180000D01*
X271480000Y-46680000D02*
X271480000Y-41480000D01*
X271480000Y-50780000D02*
G75*
G02X271180000Y-51080000I-300000J0D01*
G01*
X271780000Y-38080000D02*
G75*
G02X271480000Y-37780000I0J300000D01*
G01*
X272180000Y-38080000D02*
G75*
G02X272480000Y-38380000I0J-300000D01*
G01*
X271480000Y-37380000D02*
X271480000Y-37780000D01*
X271780000Y-46980000D02*
G75*
G02X271480000Y-46680000I0J300000D01*
G01*
X272180000Y-46980000D02*
G75*
G02X272480000Y-47280000I0J-300000D01*
G01*
X272280000Y-50080000D02*
X271780000Y-50080000D01*
X272480000Y-49880000D02*
X272480000Y-47280000D01*
X271780000Y-46980000D02*
X272180000Y-46980000D01*
X271480000Y-50380000D02*
G75*
G02X271780000Y-50080000I300000J0D01*
G01*
X272480000Y-49880000D02*
G75*
G02X272280000Y-50080000I-200000J0D01*
G01*
X256480000Y-47180000D02*
G75*
G02X256680000Y-46980000I200000J0D01*
G01*
X257480000Y-46680000D02*
G75*
G02X257180000Y-46980000I-300000J0D01*
G01*
X257180000Y-50080000D02*
X256780000Y-50080000D01*
X256480000Y-47180000D02*
X256480000Y-49780000D01*
X256680000Y-46980000D02*
X257180000Y-46980000D01*
X256780000Y-50080000D02*
G75*
G02X256480000Y-49780000I0J300000D01*
G01*
X257180000Y-50080000D02*
G75*
G02X257480000Y-50380000I0J-300000D01*
G01*
X256680000Y-38080000D02*
X257180000Y-38080000D01*
X257180000Y-41180000D02*
X256780000Y-41180000D01*
X256480000Y-38280000D02*
X256480000Y-40880000D01*
X257480000Y-37780000D02*
G75*
G02X257180000Y-38080000I-300000J0D01*
G01*
X257180000Y-41180000D02*
G75*
G02X257480000Y-41480000I0J-300000D01*
G01*
X256780000Y-41180000D02*
G75*
G02X256480000Y-40880000I0J300000D01*
G01*
X256480000Y-38280000D02*
G75*
G02X256680000Y-38080000I200000J0D01*
G01*
X62180000Y-51080000D02*
X48780000Y-51080000D01*
X48780000Y-51080000D02*
G75*
G02X48480000Y-50780000I0J300000D01*
G01*
X48480000Y-50780000D02*
X48480000Y-50380000D01*
X48480000Y-37380000D02*
G75*
G02X48780000Y-37080000I300000J0D01*
G01*
X62180000Y-37080000D02*
X48780000Y-37080000D01*
X48480000Y-41480000D02*
X48480000Y-46680000D01*
X48480000Y-37780000D02*
X48480000Y-37380000D01*
X62480000Y-50380000D02*
X62480000Y-50780000D01*
X62180000Y-37080000D02*
G75*
G02X62480000Y-37380000I0J-300000D01*
G01*
X63480000Y-40980000D02*
G75*
G02X63280000Y-41180000I-200000J0D01*
G01*
X62480000Y-41480000D02*
G75*
G02X62780000Y-41180000I300000J0D01*
G01*
X62780000Y-38080000D02*
X63180000Y-38080000D01*
X63480000Y-40980000D02*
X63480000Y-38380000D01*
X63280000Y-41180000D02*
X62780000Y-41180000D01*
X62480000Y-46680000D02*
X62480000Y-41480000D01*
X62480000Y-50780000D02*
G75*
G02X62180000Y-51080000I-300000J0D01*
G01*
X62780000Y-38080000D02*
G75*
G02X62480000Y-37780000I0J300000D01*
G01*
X63180000Y-38080000D02*
G75*
G02X63480000Y-38380000I0J-300000D01*
G01*
X62480000Y-37380000D02*
X62480000Y-37780000D01*
X62780000Y-46980000D02*
G75*
G02X62480000Y-46680000I0J300000D01*
G01*
X63180000Y-46980000D02*
G75*
G02X63480000Y-47280000I0J-300000D01*
G01*
X63280000Y-50080000D02*
X62780000Y-50080000D01*
X63480000Y-49880000D02*
X63480000Y-47280000D01*
X62780000Y-46980000D02*
X63180000Y-46980000D01*
X62480000Y-50380000D02*
G75*
G02X62780000Y-50080000I300000J0D01*
G01*
X63480000Y-49880000D02*
G75*
G02X63280000Y-50080000I-200000J0D01*
G01*
X47480000Y-47180000D02*
G75*
G02X47680000Y-46980000I200000J0D01*
G01*
X48480000Y-46680000D02*
G75*
G02X48180000Y-46980000I-300000J0D01*
G01*
X48180000Y-50080000D02*
X47780000Y-50080000D01*
X47480000Y-47180000D02*
X47480000Y-49780000D01*
X47680000Y-46980000D02*
X48180000Y-46980000D01*
X47780000Y-50080000D02*
G75*
G02X47480000Y-49780000I0J300000D01*
G01*
X48180000Y-50080000D02*
G75*
G02X48480000Y-50380000I0J-300000D01*
G01*
X47680000Y-38080000D02*
X48180000Y-38080000D01*
X48180000Y-41180000D02*
X47780000Y-41180000D01*
X47480000Y-38280000D02*
X47480000Y-40880000D01*
X48480000Y-37780000D02*
G75*
G02X48180000Y-38080000I-300000J0D01*
G01*
X48180000Y-41180000D02*
G75*
G02X48480000Y-41480000I0J-300000D01*
G01*
X47780000Y-41180000D02*
G75*
G02X47480000Y-40880000I0J300000D01*
G01*
X47480000Y-38280000D02*
G75*
G02X47680000Y-38080000I200000J0D01*
G01*
X81180000Y-51080000D02*
X67780000Y-51080000D01*
X67780000Y-51080000D02*
G75*
G02X67480000Y-50780000I0J300000D01*
G01*
X67480000Y-50780000D02*
X67480000Y-50380000D01*
X67480000Y-37380000D02*
G75*
G02X67780000Y-37080000I300000J0D01*
G01*
X81180000Y-37080000D02*
X67780000Y-37080000D01*
X67480000Y-41480000D02*
X67480000Y-46680000D01*
X67480000Y-37780000D02*
X67480000Y-37380000D01*
X81480000Y-50380000D02*
X81480000Y-50780000D01*
X81180000Y-37080000D02*
G75*
G02X81480000Y-37380000I0J-300000D01*
G01*
X82480000Y-40980000D02*
G75*
G02X82280000Y-41180000I-200000J0D01*
G01*
X81480000Y-41480000D02*
G75*
G02X81780000Y-41180000I300000J0D01*
G01*
X81780000Y-38080000D02*
X82180000Y-38080000D01*
X82480000Y-40980000D02*
X82480000Y-38380000D01*
X82280000Y-41180000D02*
X81780000Y-41180000D01*
X81480000Y-46680000D02*
X81480000Y-41480000D01*
X81480000Y-50780000D02*
G75*
G02X81180000Y-51080000I-300000J0D01*
G01*
X81780000Y-38080000D02*
G75*
G02X81480000Y-37780000I0J300000D01*
G01*
X82180000Y-38080000D02*
G75*
G02X82480000Y-38380000I0J-300000D01*
G01*
X81480000Y-37380000D02*
X81480000Y-37780000D01*
X81780000Y-46980000D02*
G75*
G02X81480000Y-46680000I0J300000D01*
G01*
X82180000Y-46980000D02*
G75*
G02X82480000Y-47280000I0J-300000D01*
G01*
X82280000Y-50080000D02*
X81780000Y-50080000D01*
X82480000Y-49880000D02*
X82480000Y-47280000D01*
X81780000Y-46980000D02*
X82180000Y-46980000D01*
X81480000Y-50380000D02*
G75*
G02X81780000Y-50080000I300000J0D01*
G01*
X82480000Y-49880000D02*
G75*
G02X82280000Y-50080000I-200000J0D01*
G01*
X66480000Y-47180000D02*
G75*
G02X66680000Y-46980000I200000J0D01*
G01*
X67480000Y-46680000D02*
G75*
G02X67180000Y-46980000I-300000J0D01*
G01*
X67180000Y-50080000D02*
X66780000Y-50080000D01*
X66480000Y-47180000D02*
X66480000Y-49780000D01*
X66680000Y-46980000D02*
X67180000Y-46980000D01*
X66780000Y-50080000D02*
G75*
G02X66480000Y-49780000I0J300000D01*
G01*
X67180000Y-50080000D02*
G75*
G02X67480000Y-50380000I0J-300000D01*
G01*
X66680000Y-38080000D02*
X67180000Y-38080000D01*
X67180000Y-41180000D02*
X66780000Y-41180000D01*
X66480000Y-38280000D02*
X66480000Y-40880000D01*
X67480000Y-37780000D02*
G75*
G02X67180000Y-38080000I-300000J0D01*
G01*
X67180000Y-41180000D02*
G75*
G02X67480000Y-41480000I0J-300000D01*
G01*
X66780000Y-41180000D02*
G75*
G02X66480000Y-40880000I0J300000D01*
G01*
X66480000Y-38280000D02*
G75*
G02X66680000Y-38080000I200000J0D01*
G01*
X100180000Y-51080000D02*
X86780000Y-51080000D01*
X86780000Y-51080000D02*
G75*
G02X86480000Y-50780000I0J300000D01*
G01*
X86480000Y-50780000D02*
X86480000Y-50380000D01*
X86480000Y-37380000D02*
G75*
G02X86780000Y-37080000I300000J0D01*
G01*
X100180000Y-37080000D02*
X86780000Y-37080000D01*
X86480000Y-41480000D02*
X86480000Y-46680000D01*
X86480000Y-37780000D02*
X86480000Y-37380000D01*
X100480000Y-50380000D02*
X100480000Y-50780000D01*
X100180000Y-37080000D02*
G75*
G02X100480000Y-37380000I0J-300000D01*
G01*
X101480000Y-40980000D02*
G75*
G02X101280000Y-41180000I-200000J0D01*
G01*
X100480000Y-41480000D02*
G75*
G02X100780000Y-41180000I300000J0D01*
G01*
X100780000Y-38080000D02*
X101180000Y-38080000D01*
X101480000Y-40980000D02*
X101480000Y-38380000D01*
X101280000Y-41180000D02*
X100780000Y-41180000D01*
X100480000Y-46680000D02*
X100480000Y-41480000D01*
X100480000Y-50780000D02*
G75*
G02X100180000Y-51080000I-300000J0D01*
G01*
X100780000Y-38080000D02*
G75*
G02X100480000Y-37780000I0J300000D01*
G01*
X101180000Y-38080000D02*
G75*
G02X101480000Y-38380000I0J-300000D01*
G01*
X100480000Y-37380000D02*
X100480000Y-37780000D01*
X100780000Y-46980000D02*
G75*
G02X100480000Y-46680000I0J300000D01*
G01*
X101180000Y-46980000D02*
G75*
G02X101480000Y-47280000I0J-300000D01*
G01*
X101280000Y-50080000D02*
X100780000Y-50080000D01*
X101480000Y-49880000D02*
X101480000Y-47280000D01*
X100780000Y-46980000D02*
X101180000Y-46980000D01*
X100480000Y-50380000D02*
G75*
G02X100780000Y-50080000I300000J0D01*
G01*
X101480000Y-49880000D02*
G75*
G02X101280000Y-50080000I-200000J0D01*
G01*
X85480000Y-47180000D02*
G75*
G02X85680000Y-46980000I200000J0D01*
G01*
X86480000Y-46680000D02*
G75*
G02X86180000Y-46980000I-300000J0D01*
G01*
X86180000Y-50080000D02*
X85780000Y-50080000D01*
X85480000Y-47180000D02*
X85480000Y-49780000D01*
X85680000Y-46980000D02*
X86180000Y-46980000D01*
X85780000Y-50080000D02*
G75*
G02X85480000Y-49780000I0J300000D01*
G01*
X86180000Y-50080000D02*
G75*
G02X86480000Y-50380000I0J-300000D01*
G01*
X85680000Y-38080000D02*
X86180000Y-38080000D01*
X86180000Y-41180000D02*
X85780000Y-41180000D01*
X85480000Y-38280000D02*
X85480000Y-40880000D01*
X86480000Y-37780000D02*
G75*
G02X86180000Y-38080000I-300000J0D01*
G01*
X86180000Y-41180000D02*
G75*
G02X86480000Y-41480000I0J-300000D01*
G01*
X85780000Y-41180000D02*
G75*
G02X85480000Y-40880000I0J300000D01*
G01*
X85480000Y-38280000D02*
G75*
G02X85680000Y-38080000I200000J0D01*
G01*
X119180000Y-51080000D02*
X105780000Y-51080000D01*
X105780000Y-51080000D02*
G75*
G02X105480000Y-50780000I0J300000D01*
G01*
X105480000Y-50780000D02*
X105480000Y-50380000D01*
X105480000Y-37380000D02*
G75*
G02X105780000Y-37080000I300000J0D01*
G01*
X119180000Y-37080000D02*
X105780000Y-37080000D01*
X105480000Y-41480000D02*
X105480000Y-46680000D01*
X105480000Y-37780000D02*
X105480000Y-37380000D01*
X119480000Y-50380000D02*
X119480000Y-50780000D01*
X119180000Y-37080000D02*
G75*
G02X119480000Y-37380000I0J-300000D01*
G01*
X120480000Y-40980000D02*
G75*
G02X120280000Y-41180000I-200000J0D01*
G01*
X119480000Y-41480000D02*
G75*
G02X119780000Y-41180000I300000J0D01*
G01*
X119780000Y-38080000D02*
X120180000Y-38080000D01*
X120480000Y-40980000D02*
X120480000Y-38380000D01*
X120280000Y-41180000D02*
X119780000Y-41180000D01*
X119480000Y-46680000D02*
X119480000Y-41480000D01*
X119480000Y-50780000D02*
G75*
G02X119180000Y-51080000I-300000J0D01*
G01*
X119780000Y-38080000D02*
G75*
G02X119480000Y-37780000I0J300000D01*
G01*
X120180000Y-38080000D02*
G75*
G02X120480000Y-38380000I0J-300000D01*
G01*
X119480000Y-37380000D02*
X119480000Y-37780000D01*
X119780000Y-46980000D02*
G75*
G02X119480000Y-46680000I0J300000D01*
G01*
X120180000Y-46980000D02*
G75*
G02X120480000Y-47280000I0J-300000D01*
G01*
X120280000Y-50080000D02*
X119780000Y-50080000D01*
X120480000Y-49880000D02*
X120480000Y-47280000D01*
X119780000Y-46980000D02*
X120180000Y-46980000D01*
X119480000Y-50380000D02*
G75*
G02X119780000Y-50080000I300000J0D01*
G01*
X120480000Y-49880000D02*
G75*
G02X120280000Y-50080000I-200000J0D01*
G01*
X104480000Y-47180000D02*
G75*
G02X104680000Y-46980000I200000J0D01*
G01*
X105480000Y-46680000D02*
G75*
G02X105180000Y-46980000I-300000J0D01*
G01*
X105180000Y-50080000D02*
X104780000Y-50080000D01*
X104480000Y-47180000D02*
X104480000Y-49780000D01*
X104680000Y-46980000D02*
X105180000Y-46980000D01*
X104780000Y-50080000D02*
G75*
G02X104480000Y-49780000I0J300000D01*
G01*
X105180000Y-50080000D02*
G75*
G02X105480000Y-50380000I0J-300000D01*
G01*
X104680000Y-38080000D02*
X105180000Y-38080000D01*
X105180000Y-41180000D02*
X104780000Y-41180000D01*
X104480000Y-38280000D02*
X104480000Y-40880000D01*
X105480000Y-37780000D02*
G75*
G02X105180000Y-38080000I-300000J0D01*
G01*
X105180000Y-41180000D02*
G75*
G02X105480000Y-41480000I0J-300000D01*
G01*
X104780000Y-41180000D02*
G75*
G02X104480000Y-40880000I0J300000D01*
G01*
X104480000Y-38280000D02*
G75*
G02X104680000Y-38080000I200000J0D01*
G01*
X138180000Y-51080000D02*
X124780000Y-51080000D01*
X124780000Y-51080000D02*
G75*
G02X124480000Y-50780000I0J300000D01*
G01*
X124480000Y-50780000D02*
X124480000Y-50380000D01*
X124480000Y-37380000D02*
G75*
G02X124780000Y-37080000I300000J0D01*
G01*
X138180000Y-37080000D02*
X124780000Y-37080000D01*
X124480000Y-41480000D02*
X124480000Y-46680000D01*
X124480000Y-37780000D02*
X124480000Y-37380000D01*
X138480000Y-50380000D02*
X138480000Y-50780000D01*
X138180000Y-37080000D02*
G75*
G02X138480000Y-37380000I0J-300000D01*
G01*
X139480000Y-40980000D02*
G75*
G02X139280000Y-41180000I-200000J0D01*
G01*
X138480000Y-41480000D02*
G75*
G02X138780000Y-41180000I300000J0D01*
G01*
X138780000Y-38080000D02*
X139180000Y-38080000D01*
X139480000Y-40980000D02*
X139480000Y-38380000D01*
X139280000Y-41180000D02*
X138780000Y-41180000D01*
X138480000Y-46680000D02*
X138480000Y-41480000D01*
X138480000Y-50780000D02*
G75*
G02X138180000Y-51080000I-300000J0D01*
G01*
X138780000Y-38080000D02*
G75*
G02X138480000Y-37780000I0J300000D01*
G01*
X139180000Y-38080000D02*
G75*
G02X139480000Y-38380000I0J-300000D01*
G01*
X138480000Y-37380000D02*
X138480000Y-37780000D01*
X138780000Y-46980000D02*
G75*
G02X138480000Y-46680000I0J300000D01*
G01*
X139180000Y-46980000D02*
G75*
G02X139480000Y-47280000I0J-300000D01*
G01*
X139280000Y-50080000D02*
X138780000Y-50080000D01*
X139480000Y-49880000D02*
X139480000Y-47280000D01*
X138780000Y-46980000D02*
X139180000Y-46980000D01*
X138480000Y-50380000D02*
G75*
G02X138780000Y-50080000I300000J0D01*
G01*
X139480000Y-49880000D02*
G75*
G02X139280000Y-50080000I-200000J0D01*
G01*
X123480000Y-47180000D02*
G75*
G02X123680000Y-46980000I200000J0D01*
G01*
X124480000Y-46680000D02*
G75*
G02X124180000Y-46980000I-300000J0D01*
G01*
X124180000Y-50080000D02*
X123780000Y-50080000D01*
X123480000Y-47180000D02*
X123480000Y-49780000D01*
X123680000Y-46980000D02*
X124180000Y-46980000D01*
X123780000Y-50080000D02*
G75*
G02X123480000Y-49780000I0J300000D01*
G01*
X124180000Y-50080000D02*
G75*
G02X124480000Y-50380000I0J-300000D01*
G01*
X123680000Y-38080000D02*
X124180000Y-38080000D01*
X124180000Y-41180000D02*
X123780000Y-41180000D01*
X123480000Y-38280000D02*
X123480000Y-40880000D01*
X124480000Y-37780000D02*
G75*
G02X124180000Y-38080000I-300000J0D01*
G01*
X124180000Y-41180000D02*
G75*
G02X124480000Y-41480000I0J-300000D01*
G01*
X123780000Y-41180000D02*
G75*
G02X123480000Y-40880000I0J300000D01*
G01*
X123480000Y-38280000D02*
G75*
G02X123680000Y-38080000I200000J0D01*
G01*
X157180000Y-51080000D02*
X143780000Y-51080000D01*
X143780000Y-51080000D02*
G75*
G02X143480000Y-50780000I0J300000D01*
G01*
X143480000Y-50780000D02*
X143480000Y-50380000D01*
X143480000Y-37380000D02*
G75*
G02X143780000Y-37080000I300000J0D01*
G01*
X157180000Y-37080000D02*
X143780000Y-37080000D01*
X143480000Y-41480000D02*
X143480000Y-46680000D01*
X143480000Y-37780000D02*
X143480000Y-37380000D01*
X157480000Y-50380000D02*
X157480000Y-50780000D01*
X157180000Y-37080000D02*
G75*
G02X157480000Y-37380000I0J-300000D01*
G01*
X158480000Y-40980000D02*
G75*
G02X158280000Y-41180000I-200000J0D01*
G01*
X157480000Y-41480000D02*
G75*
G02X157780000Y-41180000I300000J0D01*
G01*
X157780000Y-38080000D02*
X158180000Y-38080000D01*
X158480000Y-40980000D02*
X158480000Y-38380000D01*
X158280000Y-41180000D02*
X157780000Y-41180000D01*
X157480000Y-46680000D02*
X157480000Y-41480000D01*
X157480000Y-50780000D02*
G75*
G02X157180000Y-51080000I-300000J0D01*
G01*
X157780000Y-38080000D02*
G75*
G02X157480000Y-37780000I0J300000D01*
G01*
X158180000Y-38080000D02*
G75*
G02X158480000Y-38380000I0J-300000D01*
G01*
X157480000Y-37380000D02*
X157480000Y-37780000D01*
X157780000Y-46980000D02*
G75*
G02X157480000Y-46680000I0J300000D01*
G01*
X158180000Y-46980000D02*
G75*
G02X158480000Y-47280000I0J-300000D01*
G01*
X158280000Y-50080000D02*
X157780000Y-50080000D01*
X158480000Y-49880000D02*
X158480000Y-47280000D01*
X157780000Y-46980000D02*
X158180000Y-46980000D01*
X157480000Y-50380000D02*
G75*
G02X157780000Y-50080000I300000J0D01*
G01*
X158480000Y-49880000D02*
G75*
G02X158280000Y-50080000I-200000J0D01*
G01*
X142480000Y-47180000D02*
G75*
G02X142680000Y-46980000I200000J0D01*
G01*
X143480000Y-46680000D02*
G75*
G02X143180000Y-46980000I-300000J0D01*
G01*
X143180000Y-50080000D02*
X142780000Y-50080000D01*
X142480000Y-47180000D02*
X142480000Y-49780000D01*
X142680000Y-46980000D02*
X143180000Y-46980000D01*
X142780000Y-50080000D02*
G75*
G02X142480000Y-49780000I0J300000D01*
G01*
X143180000Y-50080000D02*
G75*
G02X143480000Y-50380000I0J-300000D01*
G01*
X142680000Y-38080000D02*
X143180000Y-38080000D01*
X143180000Y-41180000D02*
X142780000Y-41180000D01*
X142480000Y-38280000D02*
X142480000Y-40880000D01*
X143480000Y-37780000D02*
G75*
G02X143180000Y-38080000I-300000J0D01*
G01*
X143180000Y-41180000D02*
G75*
G02X143480000Y-41480000I0J-300000D01*
G01*
X142780000Y-41180000D02*
G75*
G02X142480000Y-40880000I0J300000D01*
G01*
X142480000Y-38280000D02*
G75*
G02X142680000Y-38080000I200000J0D01*
G01*
X176180000Y-51080000D02*
X162780000Y-51080000D01*
X162780000Y-51080000D02*
G75*
G02X162480000Y-50780000I0J300000D01*
G01*
X162480000Y-50780000D02*
X162480000Y-50380000D01*
X162480000Y-37380000D02*
G75*
G02X162780000Y-37080000I300000J0D01*
G01*
X176180000Y-37080000D02*
X162780000Y-37080000D01*
X162480000Y-41480000D02*
X162480000Y-46680000D01*
X162480000Y-37780000D02*
X162480000Y-37380000D01*
X176480000Y-50380000D02*
X176480000Y-50780000D01*
X176180000Y-37080000D02*
G75*
G02X176480000Y-37380000I0J-300000D01*
G01*
X177480000Y-40980000D02*
G75*
G02X177280000Y-41180000I-200000J0D01*
G01*
X176480000Y-41480000D02*
G75*
G02X176780000Y-41180000I300000J0D01*
G01*
X176780000Y-38080000D02*
X177180000Y-38080000D01*
X177480000Y-40980000D02*
X177480000Y-38380000D01*
X177280000Y-41180000D02*
X176780000Y-41180000D01*
X176480000Y-46680000D02*
X176480000Y-41480000D01*
X176480000Y-50780000D02*
G75*
G02X176180000Y-51080000I-300000J0D01*
G01*
X176780000Y-38080000D02*
G75*
G02X176480000Y-37780000I0J300000D01*
G01*
X177180000Y-38080000D02*
G75*
G02X177480000Y-38380000I0J-300000D01*
G01*
X176480000Y-37380000D02*
X176480000Y-37780000D01*
X176780000Y-46980000D02*
G75*
G02X176480000Y-46680000I0J300000D01*
G01*
X177180000Y-46980000D02*
G75*
G02X177480000Y-47280000I0J-300000D01*
G01*
X177280000Y-50080000D02*
X176780000Y-50080000D01*
X177480000Y-49880000D02*
X177480000Y-47280000D01*
X176780000Y-46980000D02*
X177180000Y-46980000D01*
X176480000Y-50380000D02*
G75*
G02X176780000Y-50080000I300000J0D01*
G01*
X177480000Y-49880000D02*
G75*
G02X177280000Y-50080000I-200000J0D01*
G01*
X161480000Y-47180000D02*
G75*
G02X161680000Y-46980000I200000J0D01*
G01*
X162480000Y-46680000D02*
G75*
G02X162180000Y-46980000I-300000J0D01*
G01*
X162180000Y-50080000D02*
X161780000Y-50080000D01*
X161480000Y-47180000D02*
X161480000Y-49780000D01*
X161680000Y-46980000D02*
X162180000Y-46980000D01*
X161780000Y-50080000D02*
G75*
G02X161480000Y-49780000I0J300000D01*
G01*
X162180000Y-50080000D02*
G75*
G02X162480000Y-50380000I0J-300000D01*
G01*
X161680000Y-38080000D02*
X162180000Y-38080000D01*
X162180000Y-41180000D02*
X161780000Y-41180000D01*
X161480000Y-38280000D02*
X161480000Y-40880000D01*
X162480000Y-37780000D02*
G75*
G02X162180000Y-38080000I-300000J0D01*
G01*
X162180000Y-41180000D02*
G75*
G02X162480000Y-41480000I0J-300000D01*
G01*
X161780000Y-41180000D02*
G75*
G02X161480000Y-40880000I0J300000D01*
G01*
X161480000Y-38280000D02*
G75*
G02X161680000Y-38080000I200000J0D01*
G01*
X195180000Y-51080000D02*
X181780000Y-51080000D01*
X181780000Y-51080000D02*
G75*
G02X181480000Y-50780000I0J300000D01*
G01*
X181480000Y-50780000D02*
X181480000Y-50380000D01*
X181480000Y-37380000D02*
G75*
G02X181780000Y-37080000I300000J0D01*
G01*
X195180000Y-37080000D02*
X181780000Y-37080000D01*
X181480000Y-41480000D02*
X181480000Y-46680000D01*
X181480000Y-37780000D02*
X181480000Y-37380000D01*
X195480000Y-50380000D02*
X195480000Y-50780000D01*
X195180000Y-37080000D02*
G75*
G02X195480000Y-37380000I0J-300000D01*
G01*
X196480000Y-40980000D02*
G75*
G02X196280000Y-41180000I-200000J0D01*
G01*
X195480000Y-41480000D02*
G75*
G02X195780000Y-41180000I300000J0D01*
G01*
X195780000Y-38080000D02*
X196180000Y-38080000D01*
X196480000Y-40980000D02*
X196480000Y-38380000D01*
X196280000Y-41180000D02*
X195780000Y-41180000D01*
X195480000Y-46680000D02*
X195480000Y-41480000D01*
X195480000Y-50780000D02*
G75*
G02X195180000Y-51080000I-300000J0D01*
G01*
X195780000Y-38080000D02*
G75*
G02X195480000Y-37780000I0J300000D01*
G01*
X196180000Y-38080000D02*
G75*
G02X196480000Y-38380000I0J-300000D01*
G01*
X195480000Y-37380000D02*
X195480000Y-37780000D01*
X195780000Y-46980000D02*
G75*
G02X195480000Y-46680000I0J300000D01*
G01*
X196180000Y-46980000D02*
G75*
G02X196480000Y-47280000I0J-300000D01*
G01*
X196280000Y-50080000D02*
X195780000Y-50080000D01*
X196480000Y-49880000D02*
X196480000Y-47280000D01*
X195780000Y-46980000D02*
X196180000Y-46980000D01*
X195480000Y-50380000D02*
G75*
G02X195780000Y-50080000I300000J0D01*
G01*
X196480000Y-49880000D02*
G75*
G02X196280000Y-50080000I-200000J0D01*
G01*
X180480000Y-47180000D02*
G75*
G02X180680000Y-46980000I200000J0D01*
G01*
X181480000Y-46680000D02*
G75*
G02X181180000Y-46980000I-300000J0D01*
G01*
X181180000Y-50080000D02*
X180780000Y-50080000D01*
X180480000Y-47180000D02*
X180480000Y-49780000D01*
X180680000Y-46980000D02*
X181180000Y-46980000D01*
X180780000Y-50080000D02*
G75*
G02X180480000Y-49780000I0J300000D01*
G01*
X181180000Y-50080000D02*
G75*
G02X181480000Y-50380000I0J-300000D01*
G01*
X180680000Y-38080000D02*
X181180000Y-38080000D01*
X181180000Y-41180000D02*
X180780000Y-41180000D01*
X180480000Y-38280000D02*
X180480000Y-40880000D01*
X181480000Y-37780000D02*
G75*
G02X181180000Y-38080000I-300000J0D01*
G01*
X181180000Y-41180000D02*
G75*
G02X181480000Y-41480000I0J-300000D01*
G01*
X180780000Y-41180000D02*
G75*
G02X180480000Y-40880000I0J300000D01*
G01*
X180480000Y-38280000D02*
G75*
G02X180680000Y-38080000I200000J0D01*
G01*
X214180000Y-51080000D02*
X200780000Y-51080000D01*
X200780000Y-51080000D02*
G75*
G02X200480000Y-50780000I0J300000D01*
G01*
X200480000Y-50780000D02*
X200480000Y-50380000D01*
X200480000Y-37380000D02*
G75*
G02X200780000Y-37080000I300000J0D01*
G01*
X214180000Y-37080000D02*
X200780000Y-37080000D01*
X200480000Y-41480000D02*
X200480000Y-46680000D01*
X200480000Y-37780000D02*
X200480000Y-37380000D01*
X214480000Y-50380000D02*
X214480000Y-50780000D01*
X214180000Y-37080000D02*
G75*
G02X214480000Y-37380000I0J-300000D01*
G01*
X215480000Y-40980000D02*
G75*
G02X215280000Y-41180000I-200000J0D01*
G01*
X214480000Y-41480000D02*
G75*
G02X214780000Y-41180000I300000J0D01*
G01*
X214780000Y-38080000D02*
X215180000Y-38080000D01*
X215480000Y-40980000D02*
X215480000Y-38380000D01*
X215280000Y-41180000D02*
X214780000Y-41180000D01*
X214480000Y-46680000D02*
X214480000Y-41480000D01*
X214480000Y-50780000D02*
G75*
G02X214180000Y-51080000I-300000J0D01*
G01*
X214780000Y-38080000D02*
G75*
G02X214480000Y-37780000I0J300000D01*
G01*
X215180000Y-38080000D02*
G75*
G02X215480000Y-38380000I0J-300000D01*
G01*
X214480000Y-37380000D02*
X214480000Y-37780000D01*
X214780000Y-46980000D02*
G75*
G02X214480000Y-46680000I0J300000D01*
G01*
X215180000Y-46980000D02*
G75*
G02X215480000Y-47280000I0J-300000D01*
G01*
X215280000Y-50080000D02*
X214780000Y-50080000D01*
X215480000Y-49880000D02*
X215480000Y-47280000D01*
X214780000Y-46980000D02*
X215180000Y-46980000D01*
X214480000Y-50380000D02*
G75*
G02X214780000Y-50080000I300000J0D01*
G01*
X215480000Y-49880000D02*
G75*
G02X215280000Y-50080000I-200000J0D01*
G01*
X199480000Y-47180000D02*
G75*
G02X199680000Y-46980000I200000J0D01*
G01*
X200480000Y-46680000D02*
G75*
G02X200180000Y-46980000I-300000J0D01*
G01*
X200180000Y-50080000D02*
X199780000Y-50080000D01*
X199480000Y-47180000D02*
X199480000Y-49780000D01*
X199680000Y-46980000D02*
X200180000Y-46980000D01*
X199780000Y-50080000D02*
G75*
G02X199480000Y-49780000I0J300000D01*
G01*
X200180000Y-50080000D02*
G75*
G02X200480000Y-50380000I0J-300000D01*
G01*
X199680000Y-38080000D02*
X200180000Y-38080000D01*
X200180000Y-41180000D02*
X199780000Y-41180000D01*
X199480000Y-38280000D02*
X199480000Y-40880000D01*
X200480000Y-37780000D02*
G75*
G02X200180000Y-38080000I-300000J0D01*
G01*
X200180000Y-41180000D02*
G75*
G02X200480000Y-41480000I0J-300000D01*
G01*
X199780000Y-41180000D02*
G75*
G02X199480000Y-40880000I0J300000D01*
G01*
X199480000Y-38280000D02*
G75*
G02X199680000Y-38080000I200000J0D01*
G01*
X233180000Y-51080000D02*
X219780000Y-51080000D01*
X219780000Y-51080000D02*
G75*
G02X219480000Y-50780000I0J300000D01*
G01*
X219480000Y-50780000D02*
X219480000Y-50380000D01*
X219480000Y-37380000D02*
G75*
G02X219780000Y-37080000I300000J0D01*
G01*
X233180000Y-37080000D02*
X219780000Y-37080000D01*
X219480000Y-41480000D02*
X219480000Y-46680000D01*
X219480000Y-37780000D02*
X219480000Y-37380000D01*
X233480000Y-50380000D02*
X233480000Y-50780000D01*
X233180000Y-37080000D02*
G75*
G02X233480000Y-37380000I0J-300000D01*
G01*
X234480000Y-40980000D02*
G75*
G02X234280000Y-41180000I-200000J0D01*
G01*
X233480000Y-41480000D02*
G75*
G02X233780000Y-41180000I300000J0D01*
G01*
X233780000Y-38080000D02*
X234180000Y-38080000D01*
X234480000Y-40980000D02*
X234480000Y-38380000D01*
X234280000Y-41180000D02*
X233780000Y-41180000D01*
X233480000Y-46680000D02*
X233480000Y-41480000D01*
X233480000Y-50780000D02*
G75*
G02X233180000Y-51080000I-300000J0D01*
G01*
X233780000Y-38080000D02*
G75*
G02X233480000Y-37780000I0J300000D01*
G01*
X234180000Y-38080000D02*
G75*
G02X234480000Y-38380000I0J-300000D01*
G01*
X233480000Y-37380000D02*
X233480000Y-37780000D01*
X233780000Y-46980000D02*
G75*
G02X233480000Y-46680000I0J300000D01*
G01*
X234180000Y-46980000D02*
G75*
G02X234480000Y-47280000I0J-300000D01*
G01*
X234280000Y-50080000D02*
X233780000Y-50080000D01*
X234480000Y-49880000D02*
X234480000Y-47280000D01*
X233780000Y-46980000D02*
X234180000Y-46980000D01*
X233480000Y-50380000D02*
G75*
G02X233780000Y-50080000I300000J0D01*
G01*
X234480000Y-49880000D02*
G75*
G02X234280000Y-50080000I-200000J0D01*
G01*
X218480000Y-47180000D02*
G75*
G02X218680000Y-46980000I200000J0D01*
G01*
X219480000Y-46680000D02*
G75*
G02X219180000Y-46980000I-300000J0D01*
G01*
X219180000Y-50080000D02*
X218780000Y-50080000D01*
X218480000Y-47180000D02*
X218480000Y-49780000D01*
X218680000Y-46980000D02*
X219180000Y-46980000D01*
X218780000Y-50080000D02*
G75*
G02X218480000Y-49780000I0J300000D01*
G01*
X219180000Y-50080000D02*
G75*
G02X219480000Y-50380000I0J-300000D01*
G01*
X218680000Y-38080000D02*
X219180000Y-38080000D01*
X219180000Y-41180000D02*
X218780000Y-41180000D01*
X218480000Y-38280000D02*
X218480000Y-40880000D01*
X219480000Y-37780000D02*
G75*
G02X219180000Y-38080000I-300000J0D01*
G01*
X219180000Y-41180000D02*
G75*
G02X219480000Y-41480000I0J-300000D01*
G01*
X218780000Y-41180000D02*
G75*
G02X218480000Y-40880000I0J300000D01*
G01*
X218480000Y-38280000D02*
G75*
G02X218680000Y-38080000I200000J0D01*
G01*
X252180000Y-51080000D02*
X238780000Y-51080000D01*
X238780000Y-51080000D02*
G75*
G02X238480000Y-50780000I0J300000D01*
G01*
X238480000Y-50780000D02*
X238480000Y-50380000D01*
X238480000Y-37380000D02*
G75*
G02X238780000Y-37080000I300000J0D01*
G01*
X252180000Y-37080000D02*
X238780000Y-37080000D01*
X238480000Y-41480000D02*
X238480000Y-46680000D01*
X238480000Y-37780000D02*
X238480000Y-37380000D01*
X252480000Y-50380000D02*
X252480000Y-50780000D01*
X252180000Y-37080000D02*
G75*
G02X252480000Y-37380000I0J-300000D01*
G01*
X253480000Y-40980000D02*
G75*
G02X253280000Y-41180000I-200000J0D01*
G01*
X252480000Y-41480000D02*
G75*
G02X252780000Y-41180000I300000J0D01*
G01*
X252780000Y-38080000D02*
X253180000Y-38080000D01*
X253480000Y-40980000D02*
X253480000Y-38380000D01*
X253280000Y-41180000D02*
X252780000Y-41180000D01*
X252480000Y-46680000D02*
X252480000Y-41480000D01*
X252480000Y-50780000D02*
G75*
G02X252180000Y-51080000I-300000J0D01*
G01*
X252780000Y-38080000D02*
G75*
G02X252480000Y-37780000I0J300000D01*
G01*
X253180000Y-38080000D02*
G75*
G02X253480000Y-38380000I0J-300000D01*
G01*
X252480000Y-37380000D02*
X252480000Y-37780000D01*
X252780000Y-46980000D02*
G75*
G02X252480000Y-46680000I0J300000D01*
G01*
X253180000Y-46980000D02*
G75*
G02X253480000Y-47280000I0J-300000D01*
G01*
X253280000Y-50080000D02*
X252780000Y-50080000D01*
X253480000Y-49880000D02*
X253480000Y-47280000D01*
X252780000Y-46980000D02*
X253180000Y-46980000D01*
X252480000Y-50380000D02*
G75*
G02X252780000Y-50080000I300000J0D01*
G01*
X253480000Y-49880000D02*
G75*
G02X253280000Y-50080000I-200000J0D01*
G01*
X237480000Y-47180000D02*
G75*
G02X237680000Y-46980000I200000J0D01*
G01*
X238480000Y-46680000D02*
G75*
G02X238180000Y-46980000I-300000J0D01*
G01*
X238180000Y-50080000D02*
X237780000Y-50080000D01*
X237480000Y-47180000D02*
X237480000Y-49780000D01*
X237680000Y-46980000D02*
X238180000Y-46980000D01*
X237780000Y-50080000D02*
G75*
G02X237480000Y-49780000I0J300000D01*
G01*
X238180000Y-50080000D02*
G75*
G02X238480000Y-50380000I0J-300000D01*
G01*
X237680000Y-38080000D02*
X238180000Y-38080000D01*
X238180000Y-41180000D02*
X237780000Y-41180000D01*
X237480000Y-38280000D02*
X237480000Y-40880000D01*
X238480000Y-37780000D02*
G75*
G02X238180000Y-38080000I-300000J0D01*
G01*
X238180000Y-41180000D02*
G75*
G02X238480000Y-41480000I0J-300000D01*
G01*
X237780000Y-41180000D02*
G75*
G02X237480000Y-40880000I0J300000D01*
G01*
X237480000Y-38280000D02*
G75*
G02X237680000Y-38080000I200000J0D01*
G01*
X62180000Y-70080000D02*
X48780000Y-70080000D01*
X48780000Y-70080000D02*
G75*
G02X48480000Y-69780000I0J300000D01*
G01*
X48480000Y-69780000D02*
X48480000Y-69380000D01*
X48480000Y-56380000D02*
G75*
G02X48780000Y-56080000I300000J0D01*
G01*
X62180000Y-56080000D02*
X48780000Y-56080000D01*
X48480000Y-60480000D02*
X48480000Y-65680000D01*
X48480000Y-56780000D02*
X48480000Y-56380000D01*
X62480000Y-69380000D02*
X62480000Y-69780000D01*
X62180000Y-56080000D02*
G75*
G02X62480000Y-56380000I0J-300000D01*
G01*
X63480000Y-59980000D02*
G75*
G02X63280000Y-60180000I-200000J0D01*
G01*
X62480000Y-60480000D02*
G75*
G02X62780000Y-60180000I300000J0D01*
G01*
X62780000Y-57080000D02*
X63180000Y-57080000D01*
X63480000Y-59980000D02*
X63480000Y-57380000D01*
X63280000Y-60180000D02*
X62780000Y-60180000D01*
X62480000Y-65680000D02*
X62480000Y-60480000D01*
X62480000Y-69780000D02*
G75*
G02X62180000Y-70080000I-300000J0D01*
G01*
X62780000Y-57080000D02*
G75*
G02X62480000Y-56780000I0J300000D01*
G01*
X63180000Y-57080000D02*
G75*
G02X63480000Y-57380000I0J-300000D01*
G01*
X62480000Y-56380000D02*
X62480000Y-56780000D01*
X62780000Y-65980000D02*
G75*
G02X62480000Y-65680000I0J300000D01*
G01*
X63180000Y-65980000D02*
G75*
G02X63480000Y-66280000I0J-300000D01*
G01*
X63280000Y-69080000D02*
X62780000Y-69080000D01*
X63480000Y-68880000D02*
X63480000Y-66280000D01*
X62780000Y-65980000D02*
X63180000Y-65980000D01*
X62480000Y-69380000D02*
G75*
G02X62780000Y-69080000I300000J0D01*
G01*
X63480000Y-68880000D02*
G75*
G02X63280000Y-69080000I-200000J0D01*
G01*
X47480000Y-66180000D02*
G75*
G02X47680000Y-65980000I200000J0D01*
G01*
X48480000Y-65680000D02*
G75*
G02X48180000Y-65980000I-300000J0D01*
G01*
X48180000Y-69080000D02*
X47780000Y-69080000D01*
X47480000Y-66180000D02*
X47480000Y-68780000D01*
X47680000Y-65980000D02*
X48180000Y-65980000D01*
X47780000Y-69080000D02*
G75*
G02X47480000Y-68780000I0J300000D01*
G01*
X48180000Y-69080000D02*
G75*
G02X48480000Y-69380000I0J-300000D01*
G01*
X47680000Y-57080000D02*
X48180000Y-57080000D01*
X48180000Y-60180000D02*
X47780000Y-60180000D01*
X47480000Y-57280000D02*
X47480000Y-59880000D01*
X48480000Y-56780000D02*
G75*
G02X48180000Y-57080000I-300000J0D01*
G01*
X48180000Y-60180000D02*
G75*
G02X48480000Y-60480000I0J-300000D01*
G01*
X47780000Y-60180000D02*
G75*
G02X47480000Y-59880000I0J300000D01*
G01*
X47480000Y-57280000D02*
G75*
G02X47680000Y-57080000I200000J0D01*
G01*
X81180000Y-70080000D02*
X67780000Y-70080000D01*
X67780000Y-70080000D02*
G75*
G02X67480000Y-69780000I0J300000D01*
G01*
X67480000Y-69780000D02*
X67480000Y-69380000D01*
X67480000Y-56380000D02*
G75*
G02X67780000Y-56080000I300000J0D01*
G01*
X81180000Y-56080000D02*
X67780000Y-56080000D01*
X67480000Y-60480000D02*
X67480000Y-65680000D01*
X67480000Y-56780000D02*
X67480000Y-56380000D01*
X81480000Y-69380000D02*
X81480000Y-69780000D01*
X81180000Y-56080000D02*
G75*
G02X81480000Y-56380000I0J-300000D01*
G01*
X82480000Y-59980000D02*
G75*
G02X82280000Y-60180000I-200000J0D01*
G01*
X81480000Y-60480000D02*
G75*
G02X81780000Y-60180000I300000J0D01*
G01*
X81780000Y-57080000D02*
X82180000Y-57080000D01*
X82480000Y-59980000D02*
X82480000Y-57380000D01*
X82280000Y-60180000D02*
X81780000Y-60180000D01*
X81480000Y-65680000D02*
X81480000Y-60480000D01*
X81480000Y-69780000D02*
G75*
G02X81180000Y-70080000I-300000J0D01*
G01*
X81780000Y-57080000D02*
G75*
G02X81480000Y-56780000I0J300000D01*
G01*
X82180000Y-57080000D02*
G75*
G02X82480000Y-57380000I0J-300000D01*
G01*
X81480000Y-56380000D02*
X81480000Y-56780000D01*
X81780000Y-65980000D02*
G75*
G02X81480000Y-65680000I0J300000D01*
G01*
X82180000Y-65980000D02*
G75*
G02X82480000Y-66280000I0J-300000D01*
G01*
X82280000Y-69080000D02*
X81780000Y-69080000D01*
X82480000Y-68880000D02*
X82480000Y-66280000D01*
X81780000Y-65980000D02*
X82180000Y-65980000D01*
X81480000Y-69380000D02*
G75*
G02X81780000Y-69080000I300000J0D01*
G01*
X82480000Y-68880000D02*
G75*
G02X82280000Y-69080000I-200000J0D01*
G01*
X66480000Y-66180000D02*
G75*
G02X66680000Y-65980000I200000J0D01*
G01*
X67480000Y-65680000D02*
G75*
G02X67180000Y-65980000I-300000J0D01*
G01*
X67180000Y-69080000D02*
X66780000Y-69080000D01*
X66480000Y-66180000D02*
X66480000Y-68780000D01*
X66680000Y-65980000D02*
X67180000Y-65980000D01*
X66780000Y-69080000D02*
G75*
G02X66480000Y-68780000I0J300000D01*
G01*
X67180000Y-69080000D02*
G75*
G02X67480000Y-69380000I0J-300000D01*
G01*
X66680000Y-57080000D02*
X67180000Y-57080000D01*
X67180000Y-60180000D02*
X66780000Y-60180000D01*
X66480000Y-57280000D02*
X66480000Y-59880000D01*
X67480000Y-56780000D02*
G75*
G02X67180000Y-57080000I-300000J0D01*
G01*
X67180000Y-60180000D02*
G75*
G02X67480000Y-60480000I0J-300000D01*
G01*
X66780000Y-60180000D02*
G75*
G02X66480000Y-59880000I0J300000D01*
G01*
X66480000Y-57280000D02*
G75*
G02X66680000Y-57080000I200000J0D01*
G01*
X100180000Y-70080000D02*
X86780000Y-70080000D01*
X86780000Y-70080000D02*
G75*
G02X86480000Y-69780000I0J300000D01*
G01*
X86480000Y-69780000D02*
X86480000Y-69380000D01*
X86480000Y-56380000D02*
G75*
G02X86780000Y-56080000I300000J0D01*
G01*
X100180000Y-56080000D02*
X86780000Y-56080000D01*
X86480000Y-60480000D02*
X86480000Y-65680000D01*
X86480000Y-56780000D02*
X86480000Y-56380000D01*
X100480000Y-69380000D02*
X100480000Y-69780000D01*
X100180000Y-56080000D02*
G75*
G02X100480000Y-56380000I0J-300000D01*
G01*
X101480000Y-59980000D02*
G75*
G02X101280000Y-60180000I-200000J0D01*
G01*
X100480000Y-60480000D02*
G75*
G02X100780000Y-60180000I300000J0D01*
G01*
X100780000Y-57080000D02*
X101180000Y-57080000D01*
X101480000Y-59980000D02*
X101480000Y-57380000D01*
X101280000Y-60180000D02*
X100780000Y-60180000D01*
X100480000Y-65680000D02*
X100480000Y-60480000D01*
X100480000Y-69780000D02*
G75*
G02X100180000Y-70080000I-300000J0D01*
G01*
X100780000Y-57080000D02*
G75*
G02X100480000Y-56780000I0J300000D01*
G01*
X101180000Y-57080000D02*
G75*
G02X101480000Y-57380000I0J-300000D01*
G01*
X100480000Y-56380000D02*
X100480000Y-56780000D01*
X100780000Y-65980000D02*
G75*
G02X100480000Y-65680000I0J300000D01*
G01*
X101180000Y-65980000D02*
G75*
G02X101480000Y-66280000I0J-300000D01*
G01*
X101280000Y-69080000D02*
X100780000Y-69080000D01*
X101480000Y-68880000D02*
X101480000Y-66280000D01*
X100780000Y-65980000D02*
X101180000Y-65980000D01*
X100480000Y-69380000D02*
G75*
G02X100780000Y-69080000I300000J0D01*
G01*
X101480000Y-68880000D02*
G75*
G02X101280000Y-69080000I-200000J0D01*
G01*
X85480000Y-66180000D02*
G75*
G02X85680000Y-65980000I200000J0D01*
G01*
X86480000Y-65680000D02*
G75*
G02X86180000Y-65980000I-300000J0D01*
G01*
X86180000Y-69080000D02*
X85780000Y-69080000D01*
X85480000Y-66180000D02*
X85480000Y-68780000D01*
X85680000Y-65980000D02*
X86180000Y-65980000D01*
X85780000Y-69080000D02*
G75*
G02X85480000Y-68780000I0J300000D01*
G01*
X86180000Y-69080000D02*
G75*
G02X86480000Y-69380000I0J-300000D01*
G01*
X85680000Y-57080000D02*
X86180000Y-57080000D01*
X86180000Y-60180000D02*
X85780000Y-60180000D01*
X85480000Y-57280000D02*
X85480000Y-59880000D01*
X86480000Y-56780000D02*
G75*
G02X86180000Y-57080000I-300000J0D01*
G01*
X86180000Y-60180000D02*
G75*
G02X86480000Y-60480000I0J-300000D01*
G01*
X85780000Y-60180000D02*
G75*
G02X85480000Y-59880000I0J300000D01*
G01*
X85480000Y-57280000D02*
G75*
G02X85680000Y-57080000I200000J0D01*
G01*
X119180000Y-70080000D02*
X105780000Y-70080000D01*
X105780000Y-70080000D02*
G75*
G02X105480000Y-69780000I0J300000D01*
G01*
X105480000Y-69780000D02*
X105480000Y-69380000D01*
X105480000Y-56380000D02*
G75*
G02X105780000Y-56080000I300000J0D01*
G01*
X119180000Y-56080000D02*
X105780000Y-56080000D01*
X105480000Y-60480000D02*
X105480000Y-65680000D01*
X105480000Y-56780000D02*
X105480000Y-56380000D01*
X119480000Y-69380000D02*
X119480000Y-69780000D01*
X119180000Y-56080000D02*
G75*
G02X119480000Y-56380000I0J-300000D01*
G01*
X120480000Y-59980000D02*
G75*
G02X120280000Y-60180000I-200000J0D01*
G01*
X119480000Y-60480000D02*
G75*
G02X119780000Y-60180000I300000J0D01*
G01*
X119780000Y-57080000D02*
X120180000Y-57080000D01*
X120480000Y-59980000D02*
X120480000Y-57380000D01*
X120280000Y-60180000D02*
X119780000Y-60180000D01*
X119480000Y-65680000D02*
X119480000Y-60480000D01*
X119480000Y-69780000D02*
G75*
G02X119180000Y-70080000I-300000J0D01*
G01*
X119780000Y-57080000D02*
G75*
G02X119480000Y-56780000I0J300000D01*
G01*
X120180000Y-57080000D02*
G75*
G02X120480000Y-57380000I0J-300000D01*
G01*
X119480000Y-56380000D02*
X119480000Y-56780000D01*
X119780000Y-65980000D02*
G75*
G02X119480000Y-65680000I0J300000D01*
G01*
X120180000Y-65980000D02*
G75*
G02X120480000Y-66280000I0J-300000D01*
G01*
X120280000Y-69080000D02*
X119780000Y-69080000D01*
X120480000Y-68880000D02*
X120480000Y-66280000D01*
X119780000Y-65980000D02*
X120180000Y-65980000D01*
X119480000Y-69380000D02*
G75*
G02X119780000Y-69080000I300000J0D01*
G01*
X120480000Y-68880000D02*
G75*
G02X120280000Y-69080000I-200000J0D01*
G01*
X104480000Y-66180000D02*
G75*
G02X104680000Y-65980000I200000J0D01*
G01*
X105480000Y-65680000D02*
G75*
G02X105180000Y-65980000I-300000J0D01*
G01*
X105180000Y-69080000D02*
X104780000Y-69080000D01*
X104480000Y-66180000D02*
X104480000Y-68780000D01*
X104680000Y-65980000D02*
X105180000Y-65980000D01*
X104780000Y-69080000D02*
G75*
G02X104480000Y-68780000I0J300000D01*
G01*
X105180000Y-69080000D02*
G75*
G02X105480000Y-69380000I0J-300000D01*
G01*
X104680000Y-57080000D02*
X105180000Y-57080000D01*
X105180000Y-60180000D02*
X104780000Y-60180000D01*
X104480000Y-57280000D02*
X104480000Y-59880000D01*
X105480000Y-56780000D02*
G75*
G02X105180000Y-57080000I-300000J0D01*
G01*
X105180000Y-60180000D02*
G75*
G02X105480000Y-60480000I0J-300000D01*
G01*
X104780000Y-60180000D02*
G75*
G02X104480000Y-59880000I0J300000D01*
G01*
X104480000Y-57280000D02*
G75*
G02X104680000Y-57080000I200000J0D01*
G01*
X138180000Y-70080000D02*
X124780000Y-70080000D01*
X124780000Y-70080000D02*
G75*
G02X124480000Y-69780000I0J300000D01*
G01*
X124480000Y-69780000D02*
X124480000Y-69380000D01*
X124480000Y-56380000D02*
G75*
G02X124780000Y-56080000I300000J0D01*
G01*
X138180000Y-56080000D02*
X124780000Y-56080000D01*
X124480000Y-60480000D02*
X124480000Y-65680000D01*
X124480000Y-56780000D02*
X124480000Y-56380000D01*
X138480000Y-69380000D02*
X138480000Y-69780000D01*
X138180000Y-56080000D02*
G75*
G02X138480000Y-56380000I0J-300000D01*
G01*
X139480000Y-59980000D02*
G75*
G02X139280000Y-60180000I-200000J0D01*
G01*
X138480000Y-60480000D02*
G75*
G02X138780000Y-60180000I300000J0D01*
G01*
X138780000Y-57080000D02*
X139180000Y-57080000D01*
X139480000Y-59980000D02*
X139480000Y-57380000D01*
X139280000Y-60180000D02*
X138780000Y-60180000D01*
X138480000Y-65680000D02*
X138480000Y-60480000D01*
X138480000Y-69780000D02*
G75*
G02X138180000Y-70080000I-300000J0D01*
G01*
X138780000Y-57080000D02*
G75*
G02X138480000Y-56780000I0J300000D01*
G01*
X139180000Y-57080000D02*
G75*
G02X139480000Y-57380000I0J-300000D01*
G01*
X138480000Y-56380000D02*
X138480000Y-56780000D01*
X138780000Y-65980000D02*
G75*
G02X138480000Y-65680000I0J300000D01*
G01*
X139180000Y-65980000D02*
G75*
G02X139480000Y-66280000I0J-300000D01*
G01*
X139280000Y-69080000D02*
X138780000Y-69080000D01*
X139480000Y-68880000D02*
X139480000Y-66280000D01*
X138780000Y-65980000D02*
X139180000Y-65980000D01*
X138480000Y-69380000D02*
G75*
G02X138780000Y-69080000I300000J0D01*
G01*
X139480000Y-68880000D02*
G75*
G02X139280000Y-69080000I-200000J0D01*
G01*
X123480000Y-66180000D02*
G75*
G02X123680000Y-65980000I200000J0D01*
G01*
X124480000Y-65680000D02*
G75*
G02X124180000Y-65980000I-300000J0D01*
G01*
X124180000Y-69080000D02*
X123780000Y-69080000D01*
X123480000Y-66180000D02*
X123480000Y-68780000D01*
X123680000Y-65980000D02*
X124180000Y-65980000D01*
X123780000Y-69080000D02*
G75*
G02X123480000Y-68780000I0J300000D01*
G01*
X124180000Y-69080000D02*
G75*
G02X124480000Y-69380000I0J-300000D01*
G01*
X123680000Y-57080000D02*
X124180000Y-57080000D01*
X124180000Y-60180000D02*
X123780000Y-60180000D01*
X123480000Y-57280000D02*
X123480000Y-59880000D01*
X124480000Y-56780000D02*
G75*
G02X124180000Y-57080000I-300000J0D01*
G01*
X124180000Y-60180000D02*
G75*
G02X124480000Y-60480000I0J-300000D01*
G01*
X123780000Y-60180000D02*
G75*
G02X123480000Y-59880000I0J300000D01*
G01*
X123480000Y-57280000D02*
G75*
G02X123680000Y-57080000I200000J0D01*
G01*
X157180000Y-70080000D02*
X143780000Y-70080000D01*
X143780000Y-70080000D02*
G75*
G02X143480000Y-69780000I0J300000D01*
G01*
X143480000Y-69780000D02*
X143480000Y-69380000D01*
X143480000Y-56380000D02*
G75*
G02X143780000Y-56080000I300000J0D01*
G01*
X157180000Y-56080000D02*
X143780000Y-56080000D01*
X143480000Y-60480000D02*
X143480000Y-65680000D01*
X143480000Y-56780000D02*
X143480000Y-56380000D01*
X157480000Y-69380000D02*
X157480000Y-69780000D01*
X157180000Y-56080000D02*
G75*
G02X157480000Y-56380000I0J-300000D01*
G01*
X158480000Y-59980000D02*
G75*
G02X158280000Y-60180000I-200000J0D01*
G01*
X157480000Y-60480000D02*
G75*
G02X157780000Y-60180000I300000J0D01*
G01*
X157780000Y-57080000D02*
X158180000Y-57080000D01*
X158480000Y-59980000D02*
X158480000Y-57380000D01*
X158280000Y-60180000D02*
X157780000Y-60180000D01*
X157480000Y-65680000D02*
X157480000Y-60480000D01*
X157480000Y-69780000D02*
G75*
G02X157180000Y-70080000I-300000J0D01*
G01*
X157780000Y-57080000D02*
G75*
G02X157480000Y-56780000I0J300000D01*
G01*
X158180000Y-57080000D02*
G75*
G02X158480000Y-57380000I0J-300000D01*
G01*
X157480000Y-56380000D02*
X157480000Y-56780000D01*
X157780000Y-65980000D02*
G75*
G02X157480000Y-65680000I0J300000D01*
G01*
X158180000Y-65980000D02*
G75*
G02X158480000Y-66280000I0J-300000D01*
G01*
X158280000Y-69080000D02*
X157780000Y-69080000D01*
X158480000Y-68880000D02*
X158480000Y-66280000D01*
X157780000Y-65980000D02*
X158180000Y-65980000D01*
X157480000Y-69380000D02*
G75*
G02X157780000Y-69080000I300000J0D01*
G01*
X158480000Y-68880000D02*
G75*
G02X158280000Y-69080000I-200000J0D01*
G01*
X142480000Y-66180000D02*
G75*
G02X142680000Y-65980000I200000J0D01*
G01*
X143480000Y-65680000D02*
G75*
G02X143180000Y-65980000I-300000J0D01*
G01*
X143180000Y-69080000D02*
X142780000Y-69080000D01*
X142480000Y-66180000D02*
X142480000Y-68780000D01*
X142680000Y-65980000D02*
X143180000Y-65980000D01*
X142780000Y-69080000D02*
G75*
G02X142480000Y-68780000I0J300000D01*
G01*
X143180000Y-69080000D02*
G75*
G02X143480000Y-69380000I0J-300000D01*
G01*
X142680000Y-57080000D02*
X143180000Y-57080000D01*
X143180000Y-60180000D02*
X142780000Y-60180000D01*
X142480000Y-57280000D02*
X142480000Y-59880000D01*
X143480000Y-56780000D02*
G75*
G02X143180000Y-57080000I-300000J0D01*
G01*
X143180000Y-60180000D02*
G75*
G02X143480000Y-60480000I0J-300000D01*
G01*
X142780000Y-60180000D02*
G75*
G02X142480000Y-59880000I0J300000D01*
G01*
X142480000Y-57280000D02*
G75*
G02X142680000Y-57080000I200000J0D01*
G01*
X176180000Y-70080000D02*
X162780000Y-70080000D01*
X162780000Y-70080000D02*
G75*
G02X162480000Y-69780000I0J300000D01*
G01*
X162480000Y-69780000D02*
X162480000Y-69380000D01*
X162480000Y-56380000D02*
G75*
G02X162780000Y-56080000I300000J0D01*
G01*
X176180000Y-56080000D02*
X162780000Y-56080000D01*
X162480000Y-60480000D02*
X162480000Y-65680000D01*
X162480000Y-56780000D02*
X162480000Y-56380000D01*
X176480000Y-69380000D02*
X176480000Y-69780000D01*
X176180000Y-56080000D02*
G75*
G02X176480000Y-56380000I0J-300000D01*
G01*
X177480000Y-59980000D02*
G75*
G02X177280000Y-60180000I-200000J0D01*
G01*
X176480000Y-60480000D02*
G75*
G02X176780000Y-60180000I300000J0D01*
G01*
X176780000Y-57080000D02*
X177180000Y-57080000D01*
X177480000Y-59980000D02*
X177480000Y-57380000D01*
X177280000Y-60180000D02*
X176780000Y-60180000D01*
X176480000Y-65680000D02*
X176480000Y-60480000D01*
X176480000Y-69780000D02*
G75*
G02X176180000Y-70080000I-300000J0D01*
G01*
X176780000Y-57080000D02*
G75*
G02X176480000Y-56780000I0J300000D01*
G01*
X177180000Y-57080000D02*
G75*
G02X177480000Y-57380000I0J-300000D01*
G01*
X176480000Y-56380000D02*
X176480000Y-56780000D01*
X176780000Y-65980000D02*
G75*
G02X176480000Y-65680000I0J300000D01*
G01*
X177180000Y-65980000D02*
G75*
G02X177480000Y-66280000I0J-300000D01*
G01*
X177280000Y-69080000D02*
X176780000Y-69080000D01*
X177480000Y-68880000D02*
X177480000Y-66280000D01*
X176780000Y-65980000D02*
X177180000Y-65980000D01*
X176480000Y-69380000D02*
G75*
G02X176780000Y-69080000I300000J0D01*
G01*
X177480000Y-68880000D02*
G75*
G02X177280000Y-69080000I-200000J0D01*
G01*
X161480000Y-66180000D02*
G75*
G02X161680000Y-65980000I200000J0D01*
G01*
X162480000Y-65680000D02*
G75*
G02X162180000Y-65980000I-300000J0D01*
G01*
X162180000Y-69080000D02*
X161780000Y-69080000D01*
X161480000Y-66180000D02*
X161480000Y-68780000D01*
X161680000Y-65980000D02*
X162180000Y-65980000D01*
X161780000Y-69080000D02*
G75*
G02X161480000Y-68780000I0J300000D01*
G01*
X162180000Y-69080000D02*
G75*
G02X162480000Y-69380000I0J-300000D01*
G01*
X161680000Y-57080000D02*
X162180000Y-57080000D01*
X162180000Y-60180000D02*
X161780000Y-60180000D01*
X161480000Y-57280000D02*
X161480000Y-59880000D01*
X162480000Y-56780000D02*
G75*
G02X162180000Y-57080000I-300000J0D01*
G01*
X162180000Y-60180000D02*
G75*
G02X162480000Y-60480000I0J-300000D01*
G01*
X161780000Y-60180000D02*
G75*
G02X161480000Y-59880000I0J300000D01*
G01*
X161480000Y-57280000D02*
G75*
G02X161680000Y-57080000I200000J0D01*
G01*
X195180000Y-70080000D02*
X181780000Y-70080000D01*
X181780000Y-70080000D02*
G75*
G02X181480000Y-69780000I0J300000D01*
G01*
X181480000Y-69780000D02*
X181480000Y-69380000D01*
X181480000Y-56380000D02*
G75*
G02X181780000Y-56080000I300000J0D01*
G01*
X195180000Y-56080000D02*
X181780000Y-56080000D01*
X181480000Y-60480000D02*
X181480000Y-65680000D01*
X181480000Y-56780000D02*
X181480000Y-56380000D01*
X195480000Y-69380000D02*
X195480000Y-69780000D01*
X195180000Y-56080000D02*
G75*
G02X195480000Y-56380000I0J-300000D01*
G01*
X196480000Y-59980000D02*
G75*
G02X196280000Y-60180000I-200000J0D01*
G01*
X195480000Y-60480000D02*
G75*
G02X195780000Y-60180000I300000J0D01*
G01*
X195780000Y-57080000D02*
X196180000Y-57080000D01*
X196480000Y-59980000D02*
X196480000Y-57380000D01*
X196280000Y-60180000D02*
X195780000Y-60180000D01*
X195480000Y-65680000D02*
X195480000Y-60480000D01*
X195480000Y-69780000D02*
G75*
G02X195180000Y-70080000I-300000J0D01*
G01*
X195780000Y-57080000D02*
G75*
G02X195480000Y-56780000I0J300000D01*
G01*
X196180000Y-57080000D02*
G75*
G02X196480000Y-57380000I0J-300000D01*
G01*
X195480000Y-56380000D02*
X195480000Y-56780000D01*
X195780000Y-65980000D02*
G75*
G02X195480000Y-65680000I0J300000D01*
G01*
X196180000Y-65980000D02*
G75*
G02X196480000Y-66280000I0J-300000D01*
G01*
X196280000Y-69080000D02*
X195780000Y-69080000D01*
X196480000Y-68880000D02*
X196480000Y-66280000D01*
X195780000Y-65980000D02*
X196180000Y-65980000D01*
X195480000Y-69380000D02*
G75*
G02X195780000Y-69080000I300000J0D01*
G01*
X196480000Y-68880000D02*
G75*
G02X196280000Y-69080000I-200000J0D01*
G01*
X180480000Y-66180000D02*
G75*
G02X180680000Y-65980000I200000J0D01*
G01*
X181480000Y-65680000D02*
G75*
G02X181180000Y-65980000I-300000J0D01*
G01*
X181180000Y-69080000D02*
X180780000Y-69080000D01*
X180480000Y-66180000D02*
X180480000Y-68780000D01*
X180680000Y-65980000D02*
X181180000Y-65980000D01*
X180780000Y-69080000D02*
G75*
G02X180480000Y-68780000I0J300000D01*
G01*
X181180000Y-69080000D02*
G75*
G02X181480000Y-69380000I0J-300000D01*
G01*
X180680000Y-57080000D02*
X181180000Y-57080000D01*
X181180000Y-60180000D02*
X180780000Y-60180000D01*
X180480000Y-57280000D02*
X180480000Y-59880000D01*
X181480000Y-56780000D02*
G75*
G02X181180000Y-57080000I-300000J0D01*
G01*
X181180000Y-60180000D02*
G75*
G02X181480000Y-60480000I0J-300000D01*
G01*
X180780000Y-60180000D02*
G75*
G02X180480000Y-59880000I0J300000D01*
G01*
X180480000Y-57280000D02*
G75*
G02X180680000Y-57080000I200000J0D01*
G01*
X214180000Y-70080000D02*
X200780000Y-70080000D01*
X200780000Y-70080000D02*
G75*
G02X200480000Y-69780000I0J300000D01*
G01*
X200480000Y-69780000D02*
X200480000Y-69380000D01*
X200480000Y-56380000D02*
G75*
G02X200780000Y-56080000I300000J0D01*
G01*
X214180000Y-56080000D02*
X200780000Y-56080000D01*
X200480000Y-60480000D02*
X200480000Y-65680000D01*
X200480000Y-56780000D02*
X200480000Y-56380000D01*
X214480000Y-69380000D02*
X214480000Y-69780000D01*
X214180000Y-56080000D02*
G75*
G02X214480000Y-56380000I0J-300000D01*
G01*
X215480000Y-59980000D02*
G75*
G02X215280000Y-60180000I-200000J0D01*
G01*
X214480000Y-60480000D02*
G75*
G02X214780000Y-60180000I300000J0D01*
G01*
X214780000Y-57080000D02*
X215180000Y-57080000D01*
X215480000Y-59980000D02*
X215480000Y-57380000D01*
X215280000Y-60180000D02*
X214780000Y-60180000D01*
X214480000Y-65680000D02*
X214480000Y-60480000D01*
X214480000Y-69780000D02*
G75*
G02X214180000Y-70080000I-300000J0D01*
G01*
X214780000Y-57080000D02*
G75*
G02X214480000Y-56780000I0J300000D01*
G01*
X215180000Y-57080000D02*
G75*
G02X215480000Y-57380000I0J-300000D01*
G01*
X214480000Y-56380000D02*
X214480000Y-56780000D01*
X214780000Y-65980000D02*
G75*
G02X214480000Y-65680000I0J300000D01*
G01*
X215180000Y-65980000D02*
G75*
G02X215480000Y-66280000I0J-300000D01*
G01*
X215280000Y-69080000D02*
X214780000Y-69080000D01*
X215480000Y-68880000D02*
X215480000Y-66280000D01*
X214780000Y-65980000D02*
X215180000Y-65980000D01*
X214480000Y-69380000D02*
G75*
G02X214780000Y-69080000I300000J0D01*
G01*
X215480000Y-68880000D02*
G75*
G02X215280000Y-69080000I-200000J0D01*
G01*
X199480000Y-66180000D02*
G75*
G02X199680000Y-65980000I200000J0D01*
G01*
X200480000Y-65680000D02*
G75*
G02X200180000Y-65980000I-300000J0D01*
G01*
X200180000Y-69080000D02*
X199780000Y-69080000D01*
X199480000Y-66180000D02*
X199480000Y-68780000D01*
X199680000Y-65980000D02*
X200180000Y-65980000D01*
X199780000Y-69080000D02*
G75*
G02X199480000Y-68780000I0J300000D01*
G01*
X200180000Y-69080000D02*
G75*
G02X200480000Y-69380000I0J-300000D01*
G01*
X199680000Y-57080000D02*
X200180000Y-57080000D01*
X200180000Y-60180000D02*
X199780000Y-60180000D01*
X199480000Y-57280000D02*
X199480000Y-59880000D01*
X200480000Y-56780000D02*
G75*
G02X200180000Y-57080000I-300000J0D01*
G01*
X200180000Y-60180000D02*
G75*
G02X200480000Y-60480000I0J-300000D01*
G01*
X199780000Y-60180000D02*
G75*
G02X199480000Y-59880000I0J300000D01*
G01*
X199480000Y-57280000D02*
G75*
G02X199680000Y-57080000I200000J0D01*
G01*
X233180000Y-70080000D02*
X219780000Y-70080000D01*
X219780000Y-70080000D02*
G75*
G02X219480000Y-69780000I0J300000D01*
G01*
X219480000Y-69780000D02*
X219480000Y-69380000D01*
X219480000Y-56380000D02*
G75*
G02X219780000Y-56080000I300000J0D01*
G01*
X233180000Y-56080000D02*
X219780000Y-56080000D01*
X219480000Y-60480000D02*
X219480000Y-65680000D01*
X219480000Y-56780000D02*
X219480000Y-56380000D01*
X233480000Y-69380000D02*
X233480000Y-69780000D01*
X233180000Y-56080000D02*
G75*
G02X233480000Y-56380000I0J-300000D01*
G01*
X234480000Y-59980000D02*
G75*
G02X234280000Y-60180000I-200000J0D01*
G01*
X233480000Y-60480000D02*
G75*
G02X233780000Y-60180000I300000J0D01*
G01*
X233780000Y-57080000D02*
X234180000Y-57080000D01*
X234480000Y-59980000D02*
X234480000Y-57380000D01*
X234280000Y-60180000D02*
X233780000Y-60180000D01*
X233480000Y-65680000D02*
X233480000Y-60480000D01*
X233480000Y-69780000D02*
G75*
G02X233180000Y-70080000I-300000J0D01*
G01*
X233780000Y-57080000D02*
G75*
G02X233480000Y-56780000I0J300000D01*
G01*
X234180000Y-57080000D02*
G75*
G02X234480000Y-57380000I0J-300000D01*
G01*
X233480000Y-56380000D02*
X233480000Y-56780000D01*
X233780000Y-65980000D02*
G75*
G02X233480000Y-65680000I0J300000D01*
G01*
X234180000Y-65980000D02*
G75*
G02X234480000Y-66280000I0J-300000D01*
G01*
X234280000Y-69080000D02*
X233780000Y-69080000D01*
X234480000Y-68880000D02*
X234480000Y-66280000D01*
X233780000Y-65980000D02*
X234180000Y-65980000D01*
X233480000Y-69380000D02*
G75*
G02X233780000Y-69080000I300000J0D01*
G01*
X234480000Y-68880000D02*
G75*
G02X234280000Y-69080000I-200000J0D01*
G01*
X218480000Y-66180000D02*
G75*
G02X218680000Y-65980000I200000J0D01*
G01*
X219480000Y-65680000D02*
G75*
G02X219180000Y-65980000I-300000J0D01*
G01*
X219180000Y-69080000D02*
X218780000Y-69080000D01*
X218480000Y-66180000D02*
X218480000Y-68780000D01*
X218680000Y-65980000D02*
X219180000Y-65980000D01*
X218780000Y-69080000D02*
G75*
G02X218480000Y-68780000I0J300000D01*
G01*
X219180000Y-69080000D02*
G75*
G02X219480000Y-69380000I0J-300000D01*
G01*
X218680000Y-57080000D02*
X219180000Y-57080000D01*
X219180000Y-60180000D02*
X218780000Y-60180000D01*
X218480000Y-57280000D02*
X218480000Y-59880000D01*
X219480000Y-56780000D02*
G75*
G02X219180000Y-57080000I-300000J0D01*
G01*
X219180000Y-60180000D02*
G75*
G02X219480000Y-60480000I0J-300000D01*
G01*
X218780000Y-60180000D02*
G75*
G02X218480000Y-59880000I0J300000D01*
G01*
X218480000Y-57280000D02*
G75*
G02X218680000Y-57080000I200000J0D01*
G01*
X252180000Y-70080000D02*
X238780000Y-70080000D01*
X238780000Y-70080000D02*
G75*
G02X238480000Y-69780000I0J300000D01*
G01*
X238480000Y-69780000D02*
X238480000Y-69380000D01*
X238480000Y-56380000D02*
G75*
G02X238780000Y-56080000I300000J0D01*
G01*
X252180000Y-56080000D02*
X238780000Y-56080000D01*
X238480000Y-60480000D02*
X238480000Y-65680000D01*
X238480000Y-56780000D02*
X238480000Y-56380000D01*
X252480000Y-69380000D02*
X252480000Y-69780000D01*
X252180000Y-56080000D02*
G75*
G02X252480000Y-56380000I0J-300000D01*
G01*
X253480000Y-59980000D02*
G75*
G02X253280000Y-60180000I-200000J0D01*
G01*
X252480000Y-60480000D02*
G75*
G02X252780000Y-60180000I300000J0D01*
G01*
X252780000Y-57080000D02*
X253180000Y-57080000D01*
X253480000Y-59980000D02*
X253480000Y-57380000D01*
X253280000Y-60180000D02*
X252780000Y-60180000D01*
X252480000Y-65680000D02*
X252480000Y-60480000D01*
X252480000Y-69780000D02*
G75*
G02X252180000Y-70080000I-300000J0D01*
G01*
X252780000Y-57080000D02*
G75*
G02X252480000Y-56780000I0J300000D01*
G01*
X253180000Y-57080000D02*
G75*
G02X253480000Y-57380000I0J-300000D01*
G01*
X252480000Y-56380000D02*
X252480000Y-56780000D01*
X252780000Y-65980000D02*
G75*
G02X252480000Y-65680000I0J300000D01*
G01*
X253180000Y-65980000D02*
G75*
G02X253480000Y-66280000I0J-300000D01*
G01*
X253280000Y-69080000D02*
X252780000Y-69080000D01*
X253480000Y-68880000D02*
X253480000Y-66280000D01*
X252780000Y-65980000D02*
X253180000Y-65980000D01*
X252480000Y-69380000D02*
G75*
G02X252780000Y-69080000I300000J0D01*
G01*
X253480000Y-68880000D02*
G75*
G02X253280000Y-69080000I-200000J0D01*
G01*
X237480000Y-66180000D02*
G75*
G02X237680000Y-65980000I200000J0D01*
G01*
X238480000Y-65680000D02*
G75*
G02X238180000Y-65980000I-300000J0D01*
G01*
X238180000Y-69080000D02*
X237780000Y-69080000D01*
X237480000Y-66180000D02*
X237480000Y-68780000D01*
X237680000Y-65980000D02*
X238180000Y-65980000D01*
X237780000Y-69080000D02*
G75*
G02X237480000Y-68780000I0J300000D01*
G01*
X238180000Y-69080000D02*
G75*
G02X238480000Y-69380000I0J-300000D01*
G01*
X237680000Y-57080000D02*
X238180000Y-57080000D01*
X238180000Y-60180000D02*
X237780000Y-60180000D01*
X237480000Y-57280000D02*
X237480000Y-59880000D01*
X238480000Y-56780000D02*
G75*
G02X238180000Y-57080000I-300000J0D01*
G01*
X238180000Y-60180000D02*
G75*
G02X238480000Y-60480000I0J-300000D01*
G01*
X237780000Y-60180000D02*
G75*
G02X237480000Y-59880000I0J300000D01*
G01*
X237480000Y-57280000D02*
G75*
G02X237680000Y-57080000I200000J0D01*
G01*
X62180000Y-89080000D02*
X48780000Y-89080000D01*
X48780000Y-89080000D02*
G75*
G02X48480000Y-88780000I0J300000D01*
G01*
X48480000Y-88780000D02*
X48480000Y-88380000D01*
X48480000Y-75380000D02*
G75*
G02X48780000Y-75080000I300000J0D01*
G01*
X62180000Y-75080000D02*
X48780000Y-75080000D01*
X48480000Y-79480000D02*
X48480000Y-84680000D01*
X48480000Y-75780000D02*
X48480000Y-75380000D01*
X62480000Y-88380000D02*
X62480000Y-88780000D01*
X62180000Y-75080000D02*
G75*
G02X62480000Y-75380000I0J-300000D01*
G01*
X63480000Y-78980000D02*
G75*
G02X63280000Y-79180000I-200000J0D01*
G01*
X62480000Y-79480000D02*
G75*
G02X62780000Y-79180000I300000J0D01*
G01*
X62780000Y-76080000D02*
X63180000Y-76080000D01*
X63480000Y-78980000D02*
X63480000Y-76380000D01*
X63280000Y-79180000D02*
X62780000Y-79180000D01*
X62480000Y-84680000D02*
X62480000Y-79480000D01*
X62480000Y-88780000D02*
G75*
G02X62180000Y-89080000I-300000J0D01*
G01*
X62780000Y-76080000D02*
G75*
G02X62480000Y-75780000I0J300000D01*
G01*
X63180000Y-76080000D02*
G75*
G02X63480000Y-76380000I0J-300000D01*
G01*
X62480000Y-75380000D02*
X62480000Y-75780000D01*
X62780000Y-84980000D02*
G75*
G02X62480000Y-84680000I0J300000D01*
G01*
X63180000Y-84980000D02*
G75*
G02X63480000Y-85280000I0J-300000D01*
G01*
X63280000Y-88080000D02*
X62780000Y-88080000D01*
X63480000Y-87880000D02*
X63480000Y-85280000D01*
X62780000Y-84980000D02*
X63180000Y-84980000D01*
X62480000Y-88380000D02*
G75*
G02X62780000Y-88080000I300000J0D01*
G01*
X63480000Y-87880000D02*
G75*
G02X63280000Y-88080000I-200000J0D01*
G01*
X47480000Y-85180000D02*
G75*
G02X47680000Y-84980000I200000J0D01*
G01*
X48480000Y-84680000D02*
G75*
G02X48180000Y-84980000I-300000J0D01*
G01*
X48180000Y-88080000D02*
X47780000Y-88080000D01*
X47480000Y-85180000D02*
X47480000Y-87780000D01*
X47680000Y-84980000D02*
X48180000Y-84980000D01*
X47780000Y-88080000D02*
G75*
G02X47480000Y-87780000I0J300000D01*
G01*
X48180000Y-88080000D02*
G75*
G02X48480000Y-88380000I0J-300000D01*
G01*
X47680000Y-76080000D02*
X48180000Y-76080000D01*
X48180000Y-79180000D02*
X47780000Y-79180000D01*
X47480000Y-76280000D02*
X47480000Y-78880000D01*
X48480000Y-75780000D02*
G75*
G02X48180000Y-76080000I-300000J0D01*
G01*
X48180000Y-79180000D02*
G75*
G02X48480000Y-79480000I0J-300000D01*
G01*
X47780000Y-79180000D02*
G75*
G02X47480000Y-78880000I0J300000D01*
G01*
X47480000Y-76280000D02*
G75*
G02X47680000Y-76080000I200000J0D01*
G01*
X81180000Y-89080000D02*
X67780000Y-89080000D01*
X67780000Y-89080000D02*
G75*
G02X67480000Y-88780000I0J300000D01*
G01*
X67480000Y-88780000D02*
X67480000Y-88380000D01*
X67480000Y-75380000D02*
G75*
G02X67780000Y-75080000I300000J0D01*
G01*
X81180000Y-75080000D02*
X67780000Y-75080000D01*
X67480000Y-79480000D02*
X67480000Y-84680000D01*
X67480000Y-75780000D02*
X67480000Y-75380000D01*
X81480000Y-88380000D02*
X81480000Y-88780000D01*
X81180000Y-75080000D02*
G75*
G02X81480000Y-75380000I0J-300000D01*
G01*
X82480000Y-78980000D02*
G75*
G02X82280000Y-79180000I-200000J0D01*
G01*
X81480000Y-79480000D02*
G75*
G02X81780000Y-79180000I300000J0D01*
G01*
X81780000Y-76080000D02*
X82180000Y-76080000D01*
X82480000Y-78980000D02*
X82480000Y-76380000D01*
X82280000Y-79180000D02*
X81780000Y-79180000D01*
X81480000Y-84680000D02*
X81480000Y-79480000D01*
X81480000Y-88780000D02*
G75*
G02X81180000Y-89080000I-300000J0D01*
G01*
X81780000Y-76080000D02*
G75*
G02X81480000Y-75780000I0J300000D01*
G01*
X82180000Y-76080000D02*
G75*
G02X82480000Y-76380000I0J-300000D01*
G01*
X81480000Y-75380000D02*
X81480000Y-75780000D01*
X81780000Y-84980000D02*
G75*
G02X81480000Y-84680000I0J300000D01*
G01*
X82180000Y-84980000D02*
G75*
G02X82480000Y-85280000I0J-300000D01*
G01*
X82280000Y-88080000D02*
X81780000Y-88080000D01*
X82480000Y-87880000D02*
X82480000Y-85280000D01*
X81780000Y-84980000D02*
X82180000Y-84980000D01*
X81480000Y-88380000D02*
G75*
G02X81780000Y-88080000I300000J0D01*
G01*
X82480000Y-87880000D02*
G75*
G02X82280000Y-88080000I-200000J0D01*
G01*
X66480000Y-85180000D02*
G75*
G02X66680000Y-84980000I200000J0D01*
G01*
X67480000Y-84680000D02*
G75*
G02X67180000Y-84980000I-300000J0D01*
G01*
X67180000Y-88080000D02*
X66780000Y-88080000D01*
X66480000Y-85180000D02*
X66480000Y-87780000D01*
X66680000Y-84980000D02*
X67180000Y-84980000D01*
X66780000Y-88080000D02*
G75*
G02X66480000Y-87780000I0J300000D01*
G01*
X67180000Y-88080000D02*
G75*
G02X67480000Y-88380000I0J-300000D01*
G01*
X66680000Y-76080000D02*
X67180000Y-76080000D01*
X67180000Y-79180000D02*
X66780000Y-79180000D01*
X66480000Y-76280000D02*
X66480000Y-78880000D01*
X67480000Y-75780000D02*
G75*
G02X67180000Y-76080000I-300000J0D01*
G01*
X67180000Y-79180000D02*
G75*
G02X67480000Y-79480000I0J-300000D01*
G01*
X66780000Y-79180000D02*
G75*
G02X66480000Y-78880000I0J300000D01*
G01*
X66480000Y-76280000D02*
G75*
G02X66680000Y-76080000I200000J0D01*
G01*
X100180000Y-89080000D02*
X86780000Y-89080000D01*
X86780000Y-89080000D02*
G75*
G02X86480000Y-88780000I0J300000D01*
G01*
X86480000Y-88780000D02*
X86480000Y-88380000D01*
X86480000Y-75380000D02*
G75*
G02X86780000Y-75080000I300000J0D01*
G01*
X100180000Y-75080000D02*
X86780000Y-75080000D01*
X86480000Y-79480000D02*
X86480000Y-84680000D01*
X86480000Y-75780000D02*
X86480000Y-75380000D01*
X100480000Y-88380000D02*
X100480000Y-88780000D01*
X100180000Y-75080000D02*
G75*
G02X100480000Y-75380000I0J-300000D01*
G01*
X101480000Y-78980000D02*
G75*
G02X101280000Y-79180000I-200000J0D01*
G01*
X100480000Y-79480000D02*
G75*
G02X100780000Y-79180000I300000J0D01*
G01*
X100780000Y-76080000D02*
X101180000Y-76080000D01*
X101480000Y-78980000D02*
X101480000Y-76380000D01*
X101280000Y-79180000D02*
X100780000Y-79180000D01*
X100480000Y-84680000D02*
X100480000Y-79480000D01*
X100480000Y-88780000D02*
G75*
G02X100180000Y-89080000I-300000J0D01*
G01*
X100780000Y-76080000D02*
G75*
G02X100480000Y-75780000I0J300000D01*
G01*
X101180000Y-76080000D02*
G75*
G02X101480000Y-76380000I0J-300000D01*
G01*
X100480000Y-75380000D02*
X100480000Y-75780000D01*
X100780000Y-84980000D02*
G75*
G02X100480000Y-84680000I0J300000D01*
G01*
X101180000Y-84980000D02*
G75*
G02X101480000Y-85280000I0J-300000D01*
G01*
X101280000Y-88080000D02*
X100780000Y-88080000D01*
X101480000Y-87880000D02*
X101480000Y-85280000D01*
X100780000Y-84980000D02*
X101180000Y-84980000D01*
X100480000Y-88380000D02*
G75*
G02X100780000Y-88080000I300000J0D01*
G01*
X101480000Y-87880000D02*
G75*
G02X101280000Y-88080000I-200000J0D01*
G01*
X85480000Y-85180000D02*
G75*
G02X85680000Y-84980000I200000J0D01*
G01*
X86480000Y-84680000D02*
G75*
G02X86180000Y-84980000I-300000J0D01*
G01*
X86180000Y-88080000D02*
X85780000Y-88080000D01*
X85480000Y-85180000D02*
X85480000Y-87780000D01*
X85680000Y-84980000D02*
X86180000Y-84980000D01*
X85780000Y-88080000D02*
G75*
G02X85480000Y-87780000I0J300000D01*
G01*
X86180000Y-88080000D02*
G75*
G02X86480000Y-88380000I0J-300000D01*
G01*
X85680000Y-76080000D02*
X86180000Y-76080000D01*
X86180000Y-79180000D02*
X85780000Y-79180000D01*
X85480000Y-76280000D02*
X85480000Y-78880000D01*
X86480000Y-75780000D02*
G75*
G02X86180000Y-76080000I-300000J0D01*
G01*
X86180000Y-79180000D02*
G75*
G02X86480000Y-79480000I0J-300000D01*
G01*
X85780000Y-79180000D02*
G75*
G02X85480000Y-78880000I0J300000D01*
G01*
X85480000Y-76280000D02*
G75*
G02X85680000Y-76080000I200000J0D01*
G01*
X119180000Y-89080000D02*
X105780000Y-89080000D01*
X105780000Y-89080000D02*
G75*
G02X105480000Y-88780000I0J300000D01*
G01*
X105480000Y-88780000D02*
X105480000Y-88380000D01*
X105480000Y-75380000D02*
G75*
G02X105780000Y-75080000I300000J0D01*
G01*
X119180000Y-75080000D02*
X105780000Y-75080000D01*
X105480000Y-79480000D02*
X105480000Y-84680000D01*
X105480000Y-75780000D02*
X105480000Y-75380000D01*
X119480000Y-88380000D02*
X119480000Y-88780000D01*
X119180000Y-75080000D02*
G75*
G02X119480000Y-75380000I0J-300000D01*
G01*
X120480000Y-78980000D02*
G75*
G02X120280000Y-79180000I-200000J0D01*
G01*
X119480000Y-79480000D02*
G75*
G02X119780000Y-79180000I300000J0D01*
G01*
X119780000Y-76080000D02*
X120180000Y-76080000D01*
X120480000Y-78980000D02*
X120480000Y-76380000D01*
X120280000Y-79180000D02*
X119780000Y-79180000D01*
X119480000Y-84680000D02*
X119480000Y-79480000D01*
X119480000Y-88780000D02*
G75*
G02X119180000Y-89080000I-300000J0D01*
G01*
X119780000Y-76080000D02*
G75*
G02X119480000Y-75780000I0J300000D01*
G01*
X120180000Y-76080000D02*
G75*
G02X120480000Y-76380000I0J-300000D01*
G01*
X119480000Y-75380000D02*
X119480000Y-75780000D01*
X119780000Y-84980000D02*
G75*
G02X119480000Y-84680000I0J300000D01*
G01*
X120180000Y-84980000D02*
G75*
G02X120480000Y-85280000I0J-300000D01*
G01*
X120280000Y-88080000D02*
X119780000Y-88080000D01*
X120480000Y-87880000D02*
X120480000Y-85280000D01*
X119780000Y-84980000D02*
X120180000Y-84980000D01*
X119480000Y-88380000D02*
G75*
G02X119780000Y-88080000I300000J0D01*
G01*
X120480000Y-87880000D02*
G75*
G02X120280000Y-88080000I-200000J0D01*
G01*
X104480000Y-85180000D02*
G75*
G02X104680000Y-84980000I200000J0D01*
G01*
X105480000Y-84680000D02*
G75*
G02X105180000Y-84980000I-300000J0D01*
G01*
X105180000Y-88080000D02*
X104780000Y-88080000D01*
X104480000Y-85180000D02*
X104480000Y-87780000D01*
X104680000Y-84980000D02*
X105180000Y-84980000D01*
X104780000Y-88080000D02*
G75*
G02X104480000Y-87780000I0J300000D01*
G01*
X105180000Y-88080000D02*
G75*
G02X105480000Y-88380000I0J-300000D01*
G01*
X104680000Y-76080000D02*
X105180000Y-76080000D01*
X105180000Y-79180000D02*
X104780000Y-79180000D01*
X104480000Y-76280000D02*
X104480000Y-78880000D01*
X105480000Y-75780000D02*
G75*
G02X105180000Y-76080000I-300000J0D01*
G01*
X105180000Y-79180000D02*
G75*
G02X105480000Y-79480000I0J-300000D01*
G01*
X104780000Y-79180000D02*
G75*
G02X104480000Y-78880000I0J300000D01*
G01*
X104480000Y-76280000D02*
G75*
G02X104680000Y-76080000I200000J0D01*
G01*
X138180000Y-89080000D02*
X124780000Y-89080000D01*
X124780000Y-89080000D02*
G75*
G02X124480000Y-88780000I0J300000D01*
G01*
X124480000Y-88780000D02*
X124480000Y-88380000D01*
X124480000Y-75380000D02*
G75*
G02X124780000Y-75080000I300000J0D01*
G01*
X138180000Y-75080000D02*
X124780000Y-75080000D01*
X124480000Y-79480000D02*
X124480000Y-84680000D01*
X124480000Y-75780000D02*
X124480000Y-75380000D01*
X138480000Y-88380000D02*
X138480000Y-88780000D01*
X138180000Y-75080000D02*
G75*
G02X138480000Y-75380000I0J-300000D01*
G01*
X139480000Y-78980000D02*
G75*
G02X139280000Y-79180000I-200000J0D01*
G01*
X138480000Y-79480000D02*
G75*
G02X138780000Y-79180000I300000J0D01*
G01*
X138780000Y-76080000D02*
X139180000Y-76080000D01*
X139480000Y-78980000D02*
X139480000Y-76380000D01*
X139280000Y-79180000D02*
X138780000Y-79180000D01*
X138480000Y-84680000D02*
X138480000Y-79480000D01*
X138480000Y-88780000D02*
G75*
G02X138180000Y-89080000I-300000J0D01*
G01*
X138780000Y-76080000D02*
G75*
G02X138480000Y-75780000I0J300000D01*
G01*
X139180000Y-76080000D02*
G75*
G02X139480000Y-76380000I0J-300000D01*
G01*
X138480000Y-75380000D02*
X138480000Y-75780000D01*
X138780000Y-84980000D02*
G75*
G02X138480000Y-84680000I0J300000D01*
G01*
X139180000Y-84980000D02*
G75*
G02X139480000Y-85280000I0J-300000D01*
G01*
X139280000Y-88080000D02*
X138780000Y-88080000D01*
X139480000Y-87880000D02*
X139480000Y-85280000D01*
X138780000Y-84980000D02*
X139180000Y-84980000D01*
X138480000Y-88380000D02*
G75*
G02X138780000Y-88080000I300000J0D01*
G01*
X139480000Y-87880000D02*
G75*
G02X139280000Y-88080000I-200000J0D01*
G01*
X123480000Y-85180000D02*
G75*
G02X123680000Y-84980000I200000J0D01*
G01*
X124480000Y-84680000D02*
G75*
G02X124180000Y-84980000I-300000J0D01*
G01*
X124180000Y-88080000D02*
X123780000Y-88080000D01*
X123480000Y-85180000D02*
X123480000Y-87780000D01*
X123680000Y-84980000D02*
X124180000Y-84980000D01*
X123780000Y-88080000D02*
G75*
G02X123480000Y-87780000I0J300000D01*
G01*
X124180000Y-88080000D02*
G75*
G02X124480000Y-88380000I0J-300000D01*
G01*
X123680000Y-76080000D02*
X124180000Y-76080000D01*
X124180000Y-79180000D02*
X123780000Y-79180000D01*
X123480000Y-76280000D02*
X123480000Y-78880000D01*
X124480000Y-75780000D02*
G75*
G02X124180000Y-76080000I-300000J0D01*
G01*
X124180000Y-79180000D02*
G75*
G02X124480000Y-79480000I0J-300000D01*
G01*
X123780000Y-79180000D02*
G75*
G02X123480000Y-78880000I0J300000D01*
G01*
X123480000Y-76280000D02*
G75*
G02X123680000Y-76080000I200000J0D01*
G01*
X157180000Y-89080000D02*
X143780000Y-89080000D01*
X143780000Y-89080000D02*
G75*
G02X143480000Y-88780000I0J300000D01*
G01*
X143480000Y-88780000D02*
X143480000Y-88380000D01*
X143480000Y-75380000D02*
G75*
G02X143780000Y-75080000I300000J0D01*
G01*
X157180000Y-75080000D02*
X143780000Y-75080000D01*
X143480000Y-79480000D02*
X143480000Y-84680000D01*
X143480000Y-75780000D02*
X143480000Y-75380000D01*
X157480000Y-88380000D02*
X157480000Y-88780000D01*
X157180000Y-75080000D02*
G75*
G02X157480000Y-75380000I0J-300000D01*
G01*
X158480000Y-78980000D02*
G75*
G02X158280000Y-79180000I-200000J0D01*
G01*
X157480000Y-79480000D02*
G75*
G02X157780000Y-79180000I300000J0D01*
G01*
X157780000Y-76080000D02*
X158180000Y-76080000D01*
X158480000Y-78980000D02*
X158480000Y-76380000D01*
X158280000Y-79180000D02*
X157780000Y-79180000D01*
X157480000Y-84680000D02*
X157480000Y-79480000D01*
X157480000Y-88780000D02*
G75*
G02X157180000Y-89080000I-300000J0D01*
G01*
X157780000Y-76080000D02*
G75*
G02X157480000Y-75780000I0J300000D01*
G01*
X158180000Y-76080000D02*
G75*
G02X158480000Y-76380000I0J-300000D01*
G01*
X157480000Y-75380000D02*
X157480000Y-75780000D01*
X157780000Y-84980000D02*
G75*
G02X157480000Y-84680000I0J300000D01*
G01*
X158180000Y-84980000D02*
G75*
G02X158480000Y-85280000I0J-300000D01*
G01*
X158280000Y-88080000D02*
X157780000Y-88080000D01*
X158480000Y-87880000D02*
X158480000Y-85280000D01*
X157780000Y-84980000D02*
X158180000Y-84980000D01*
X157480000Y-88380000D02*
G75*
G02X157780000Y-88080000I300000J0D01*
G01*
X158480000Y-87880000D02*
G75*
G02X158280000Y-88080000I-200000J0D01*
G01*
X142480000Y-85180000D02*
G75*
G02X142680000Y-84980000I200000J0D01*
G01*
X143480000Y-84680000D02*
G75*
G02X143180000Y-84980000I-300000J0D01*
G01*
X143180000Y-88080000D02*
X142780000Y-88080000D01*
X142480000Y-85180000D02*
X142480000Y-87780000D01*
X142680000Y-84980000D02*
X143180000Y-84980000D01*
X142780000Y-88080000D02*
G75*
G02X142480000Y-87780000I0J300000D01*
G01*
X143180000Y-88080000D02*
G75*
G02X143480000Y-88380000I0J-300000D01*
G01*
X142680000Y-76080000D02*
X143180000Y-76080000D01*
X143180000Y-79180000D02*
X142780000Y-79180000D01*
X142480000Y-76280000D02*
X142480000Y-78880000D01*
X143480000Y-75780000D02*
G75*
G02X143180000Y-76080000I-300000J0D01*
G01*
X143180000Y-79180000D02*
G75*
G02X143480000Y-79480000I0J-300000D01*
G01*
X142780000Y-79180000D02*
G75*
G02X142480000Y-78880000I0J300000D01*
G01*
X142480000Y-76280000D02*
G75*
G02X142680000Y-76080000I200000J0D01*
G01*
X176180000Y-89080000D02*
X162780000Y-89080000D01*
X162780000Y-89080000D02*
G75*
G02X162480000Y-88780000I0J300000D01*
G01*
X162480000Y-88780000D02*
X162480000Y-88380000D01*
X162480000Y-75380000D02*
G75*
G02X162780000Y-75080000I300000J0D01*
G01*
X176180000Y-75080000D02*
X162780000Y-75080000D01*
X162480000Y-79480000D02*
X162480000Y-84680000D01*
X162480000Y-75780000D02*
X162480000Y-75380000D01*
X176480000Y-88380000D02*
X176480000Y-88780000D01*
X176180000Y-75080000D02*
G75*
G02X176480000Y-75380000I0J-300000D01*
G01*
X177480000Y-78980000D02*
G75*
G02X177280000Y-79180000I-200000J0D01*
G01*
X176480000Y-79480000D02*
G75*
G02X176780000Y-79180000I300000J0D01*
G01*
X176780000Y-76080000D02*
X177180000Y-76080000D01*
X177480000Y-78980000D02*
X177480000Y-76380000D01*
X177280000Y-79180000D02*
X176780000Y-79180000D01*
X176480000Y-84680000D02*
X176480000Y-79480000D01*
X176480000Y-88780000D02*
G75*
G02X176180000Y-89080000I-300000J0D01*
G01*
X176780000Y-76080000D02*
G75*
G02X176480000Y-75780000I0J300000D01*
G01*
X177180000Y-76080000D02*
G75*
G02X177480000Y-76380000I0J-300000D01*
G01*
X176480000Y-75380000D02*
X176480000Y-75780000D01*
X176780000Y-84980000D02*
G75*
G02X176480000Y-84680000I0J300000D01*
G01*
X177180000Y-84980000D02*
G75*
G02X177480000Y-85280000I0J-300000D01*
G01*
X177280000Y-88080000D02*
X176780000Y-88080000D01*
X177480000Y-87880000D02*
X177480000Y-85280000D01*
X176780000Y-84980000D02*
X177180000Y-84980000D01*
X176480000Y-88380000D02*
G75*
G02X176780000Y-88080000I300000J0D01*
G01*
X177480000Y-87880000D02*
G75*
G02X177280000Y-88080000I-200000J0D01*
G01*
X161480000Y-85180000D02*
G75*
G02X161680000Y-84980000I200000J0D01*
G01*
X162480000Y-84680000D02*
G75*
G02X162180000Y-84980000I-300000J0D01*
G01*
X162180000Y-88080000D02*
X161780000Y-88080000D01*
X161480000Y-85180000D02*
X161480000Y-87780000D01*
X161680000Y-84980000D02*
X162180000Y-84980000D01*
X161780000Y-88080000D02*
G75*
G02X161480000Y-87780000I0J300000D01*
G01*
X162180000Y-88080000D02*
G75*
G02X162480000Y-88380000I0J-300000D01*
G01*
X161680000Y-76080000D02*
X162180000Y-76080000D01*
X162180000Y-79180000D02*
X161780000Y-79180000D01*
X161480000Y-76280000D02*
X161480000Y-78880000D01*
X162480000Y-75780000D02*
G75*
G02X162180000Y-76080000I-300000J0D01*
G01*
X162180000Y-79180000D02*
G75*
G02X162480000Y-79480000I0J-300000D01*
G01*
X161780000Y-79180000D02*
G75*
G02X161480000Y-78880000I0J300000D01*
G01*
X161480000Y-76280000D02*
G75*
G02X161680000Y-76080000I200000J0D01*
G01*
X195180000Y-89080000D02*
X181780000Y-89080000D01*
X181780000Y-89080000D02*
G75*
G02X181480000Y-88780000I0J300000D01*
G01*
X181480000Y-88780000D02*
X181480000Y-88380000D01*
X181480000Y-75380000D02*
G75*
G02X181780000Y-75080000I300000J0D01*
G01*
X195180000Y-75080000D02*
X181780000Y-75080000D01*
X181480000Y-79480000D02*
X181480000Y-84680000D01*
X181480000Y-75780000D02*
X181480000Y-75380000D01*
X195480000Y-88380000D02*
X195480000Y-88780000D01*
X195180000Y-75080000D02*
G75*
G02X195480000Y-75380000I0J-300000D01*
G01*
X196480000Y-78980000D02*
G75*
G02X196280000Y-79180000I-200000J0D01*
G01*
X195480000Y-79480000D02*
G75*
G02X195780000Y-79180000I300000J0D01*
G01*
X195780000Y-76080000D02*
X196180000Y-76080000D01*
X196480000Y-78980000D02*
X196480000Y-76380000D01*
X196280000Y-79180000D02*
X195780000Y-79180000D01*
X195480000Y-84680000D02*
X195480000Y-79480000D01*
X195480000Y-88780000D02*
G75*
G02X195180000Y-89080000I-300000J0D01*
G01*
X195780000Y-76080000D02*
G75*
G02X195480000Y-75780000I0J300000D01*
G01*
X196180000Y-76080000D02*
G75*
G02X196480000Y-76380000I0J-300000D01*
G01*
X195480000Y-75380000D02*
X195480000Y-75780000D01*
X195780000Y-84980000D02*
G75*
G02X195480000Y-84680000I0J300000D01*
G01*
X196180000Y-84980000D02*
G75*
G02X196480000Y-85280000I0J-300000D01*
G01*
X196280000Y-88080000D02*
X195780000Y-88080000D01*
X196480000Y-87880000D02*
X196480000Y-85280000D01*
X195780000Y-84980000D02*
X196180000Y-84980000D01*
X195480000Y-88380000D02*
G75*
G02X195780000Y-88080000I300000J0D01*
G01*
X196480000Y-87880000D02*
G75*
G02X196280000Y-88080000I-200000J0D01*
G01*
X180480000Y-85180000D02*
G75*
G02X180680000Y-84980000I200000J0D01*
G01*
X181480000Y-84680000D02*
G75*
G02X181180000Y-84980000I-300000J0D01*
G01*
X181180000Y-88080000D02*
X180780000Y-88080000D01*
X180480000Y-85180000D02*
X180480000Y-87780000D01*
X180680000Y-84980000D02*
X181180000Y-84980000D01*
X180780000Y-88080000D02*
G75*
G02X180480000Y-87780000I0J300000D01*
G01*
X181180000Y-88080000D02*
G75*
G02X181480000Y-88380000I0J-300000D01*
G01*
X180680000Y-76080000D02*
X181180000Y-76080000D01*
X181180000Y-79180000D02*
X180780000Y-79180000D01*
X180480000Y-76280000D02*
X180480000Y-78880000D01*
X181480000Y-75780000D02*
G75*
G02X181180000Y-76080000I-300000J0D01*
G01*
X181180000Y-79180000D02*
G75*
G02X181480000Y-79480000I0J-300000D01*
G01*
X180780000Y-79180000D02*
G75*
G02X180480000Y-78880000I0J300000D01*
G01*
X180480000Y-76280000D02*
G75*
G02X180680000Y-76080000I200000J0D01*
G01*
X214180000Y-89080000D02*
X200780000Y-89080000D01*
X200780000Y-89080000D02*
G75*
G02X200480000Y-88780000I0J300000D01*
G01*
X200480000Y-88780000D02*
X200480000Y-88380000D01*
X200480000Y-75380000D02*
G75*
G02X200780000Y-75080000I300000J0D01*
G01*
X214180000Y-75080000D02*
X200780000Y-75080000D01*
X200480000Y-79480000D02*
X200480000Y-84680000D01*
X200480000Y-75780000D02*
X200480000Y-75380000D01*
X214480000Y-88380000D02*
X214480000Y-88780000D01*
X214180000Y-75080000D02*
G75*
G02X214480000Y-75380000I0J-300000D01*
G01*
X215480000Y-78980000D02*
G75*
G02X215280000Y-79180000I-200000J0D01*
G01*
X214480000Y-79480000D02*
G75*
G02X214780000Y-79180000I300000J0D01*
G01*
X214780000Y-76080000D02*
X215180000Y-76080000D01*
X215480000Y-78980000D02*
X215480000Y-76380000D01*
X215280000Y-79180000D02*
X214780000Y-79180000D01*
X214480000Y-84680000D02*
X214480000Y-79480000D01*
X214480000Y-88780000D02*
G75*
G02X214180000Y-89080000I-300000J0D01*
G01*
X214780000Y-76080000D02*
G75*
G02X214480000Y-75780000I0J300000D01*
G01*
X215180000Y-76080000D02*
G75*
G02X215480000Y-76380000I0J-300000D01*
G01*
X214480000Y-75380000D02*
X214480000Y-75780000D01*
X214780000Y-84980000D02*
G75*
G02X214480000Y-84680000I0J300000D01*
G01*
X215180000Y-84980000D02*
G75*
G02X215480000Y-85280000I0J-300000D01*
G01*
X215280000Y-88080000D02*
X214780000Y-88080000D01*
X215480000Y-87880000D02*
X215480000Y-85280000D01*
X214780000Y-84980000D02*
X215180000Y-84980000D01*
X214480000Y-88380000D02*
G75*
G02X214780000Y-88080000I300000J0D01*
G01*
X215480000Y-87880000D02*
G75*
G02X215280000Y-88080000I-200000J0D01*
G01*
X199480000Y-85180000D02*
G75*
G02X199680000Y-84980000I200000J0D01*
G01*
X200480000Y-84680000D02*
G75*
G02X200180000Y-84980000I-300000J0D01*
G01*
X200180000Y-88080000D02*
X199780000Y-88080000D01*
X199480000Y-85180000D02*
X199480000Y-87780000D01*
X199680000Y-84980000D02*
X200180000Y-84980000D01*
X199780000Y-88080000D02*
G75*
G02X199480000Y-87780000I0J300000D01*
G01*
X200180000Y-88080000D02*
G75*
G02X200480000Y-88380000I0J-300000D01*
G01*
X199680000Y-76080000D02*
X200180000Y-76080000D01*
X200180000Y-79180000D02*
X199780000Y-79180000D01*
X199480000Y-76280000D02*
X199480000Y-78880000D01*
X200480000Y-75780000D02*
G75*
G02X200180000Y-76080000I-300000J0D01*
G01*
X200180000Y-79180000D02*
G75*
G02X200480000Y-79480000I0J-300000D01*
G01*
X199780000Y-79180000D02*
G75*
G02X199480000Y-78880000I0J300000D01*
G01*
X199480000Y-76280000D02*
G75*
G02X199680000Y-76080000I200000J0D01*
G01*
X233180000Y-89080000D02*
X219780000Y-89080000D01*
X219780000Y-89080000D02*
G75*
G02X219480000Y-88780000I0J300000D01*
G01*
X219480000Y-88780000D02*
X219480000Y-88380000D01*
X219480000Y-75380000D02*
G75*
G02X219780000Y-75080000I300000J0D01*
G01*
X233180000Y-75080000D02*
X219780000Y-75080000D01*
X219480000Y-79480000D02*
X219480000Y-84680000D01*
X219480000Y-75780000D02*
X219480000Y-75380000D01*
X233480000Y-88380000D02*
X233480000Y-88780000D01*
X233180000Y-75080000D02*
G75*
G02X233480000Y-75380000I0J-300000D01*
G01*
X234480000Y-78980000D02*
G75*
G02X234280000Y-79180000I-200000J0D01*
G01*
X233480000Y-79480000D02*
G75*
G02X233780000Y-79180000I300000J0D01*
G01*
X233780000Y-76080000D02*
X234180000Y-76080000D01*
X234480000Y-78980000D02*
X234480000Y-76380000D01*
X234280000Y-79180000D02*
X233780000Y-79180000D01*
X233480000Y-84680000D02*
X233480000Y-79480000D01*
X233480000Y-88780000D02*
G75*
G02X233180000Y-89080000I-300000J0D01*
G01*
X233780000Y-76080000D02*
G75*
G02X233480000Y-75780000I0J300000D01*
G01*
X234180000Y-76080000D02*
G75*
G02X234480000Y-76380000I0J-300000D01*
G01*
X233480000Y-75380000D02*
X233480000Y-75780000D01*
X233780000Y-84980000D02*
G75*
G02X233480000Y-84680000I0J300000D01*
G01*
X234180000Y-84980000D02*
G75*
G02X234480000Y-85280000I0J-300000D01*
G01*
X234280000Y-88080000D02*
X233780000Y-88080000D01*
X234480000Y-87880000D02*
X234480000Y-85280000D01*
X233780000Y-84980000D02*
X234180000Y-84980000D01*
X233480000Y-88380000D02*
G75*
G02X233780000Y-88080000I300000J0D01*
G01*
X234480000Y-87880000D02*
G75*
G02X234280000Y-88080000I-200000J0D01*
G01*
X218480000Y-85180000D02*
G75*
G02X218680000Y-84980000I200000J0D01*
G01*
X219480000Y-84680000D02*
G75*
G02X219180000Y-84980000I-300000J0D01*
G01*
X219180000Y-88080000D02*
X218780000Y-88080000D01*
X218480000Y-85180000D02*
X218480000Y-87780000D01*
X218680000Y-84980000D02*
X219180000Y-84980000D01*
X218780000Y-88080000D02*
G75*
G02X218480000Y-87780000I0J300000D01*
G01*
X219180000Y-88080000D02*
G75*
G02X219480000Y-88380000I0J-300000D01*
G01*
X218680000Y-76080000D02*
X219180000Y-76080000D01*
X219180000Y-79180000D02*
X218780000Y-79180000D01*
X218480000Y-76280000D02*
X218480000Y-78880000D01*
X219480000Y-75780000D02*
G75*
G02X219180000Y-76080000I-300000J0D01*
G01*
X219180000Y-79180000D02*
G75*
G02X219480000Y-79480000I0J-300000D01*
G01*
X218780000Y-79180000D02*
G75*
G02X218480000Y-78880000I0J300000D01*
G01*
X218480000Y-76280000D02*
G75*
G02X218680000Y-76080000I200000J0D01*
G01*
X252180000Y-89080000D02*
X238780000Y-89080000D01*
X238780000Y-89080000D02*
G75*
G02X238480000Y-88780000I0J300000D01*
G01*
X238480000Y-88780000D02*
X238480000Y-88380000D01*
X238480000Y-75380000D02*
G75*
G02X238780000Y-75080000I300000J0D01*
G01*
X252180000Y-75080000D02*
X238780000Y-75080000D01*
X238480000Y-79480000D02*
X238480000Y-84680000D01*
X238480000Y-75780000D02*
X238480000Y-75380000D01*
X252480000Y-88380000D02*
X252480000Y-88780000D01*
X252180000Y-75080000D02*
G75*
G02X252480000Y-75380000I0J-300000D01*
G01*
X253480000Y-78980000D02*
G75*
G02X253280000Y-79180000I-200000J0D01*
G01*
X252480000Y-79480000D02*
G75*
G02X252780000Y-79180000I300000J0D01*
G01*
X252780000Y-76080000D02*
X253180000Y-76080000D01*
X253480000Y-78980000D02*
X253480000Y-76380000D01*
X253280000Y-79180000D02*
X252780000Y-79180000D01*
X252480000Y-84680000D02*
X252480000Y-79480000D01*
X252480000Y-88780000D02*
G75*
G02X252180000Y-89080000I-300000J0D01*
G01*
X252780000Y-76080000D02*
G75*
G02X252480000Y-75780000I0J300000D01*
G01*
X253180000Y-76080000D02*
G75*
G02X253480000Y-76380000I0J-300000D01*
G01*
X252480000Y-75380000D02*
X252480000Y-75780000D01*
X252780000Y-84980000D02*
G75*
G02X252480000Y-84680000I0J300000D01*
G01*
X253180000Y-84980000D02*
G75*
G02X253480000Y-85280000I0J-300000D01*
G01*
X253280000Y-88080000D02*
X252780000Y-88080000D01*
X253480000Y-87880000D02*
X253480000Y-85280000D01*
X252780000Y-84980000D02*
X253180000Y-84980000D01*
X252480000Y-88380000D02*
G75*
G02X252780000Y-88080000I300000J0D01*
G01*
X253480000Y-87880000D02*
G75*
G02X253280000Y-88080000I-200000J0D01*
G01*
X237480000Y-85180000D02*
G75*
G02X237680000Y-84980000I200000J0D01*
G01*
X238480000Y-84680000D02*
G75*
G02X238180000Y-84980000I-300000J0D01*
G01*
X238180000Y-88080000D02*
X237780000Y-88080000D01*
X237480000Y-85180000D02*
X237480000Y-87780000D01*
X237680000Y-84980000D02*
X238180000Y-84980000D01*
X237780000Y-88080000D02*
G75*
G02X237480000Y-87780000I0J300000D01*
G01*
X238180000Y-88080000D02*
G75*
G02X238480000Y-88380000I0J-300000D01*
G01*
X237680000Y-76080000D02*
X238180000Y-76080000D01*
X238180000Y-79180000D02*
X237780000Y-79180000D01*
X237480000Y-76280000D02*
X237480000Y-78880000D01*
X238480000Y-75780000D02*
G75*
G02X238180000Y-76080000I-300000J0D01*
G01*
X238180000Y-79180000D02*
G75*
G02X238480000Y-79480000I0J-300000D01*
G01*
X237780000Y-79180000D02*
G75*
G02X237480000Y-78880000I0J300000D01*
G01*
X237480000Y-76280000D02*
G75*
G02X237680000Y-76080000I200000J0D01*
G01*
X62180000Y-108080000D02*
X48780000Y-108080000D01*
X48780000Y-108080000D02*
G75*
G02X48480000Y-107780000I0J300000D01*
G01*
X48480000Y-107780000D02*
X48480000Y-107380000D01*
X48480000Y-94380000D02*
G75*
G02X48780000Y-94080000I300000J0D01*
G01*
X62180000Y-94080000D02*
X48780000Y-94080000D01*
X48480000Y-98480000D02*
X48480000Y-103680000D01*
X48480000Y-94780000D02*
X48480000Y-94380000D01*
X62480000Y-107380000D02*
X62480000Y-107780000D01*
X62180000Y-94080000D02*
G75*
G02X62480000Y-94380000I0J-300000D01*
G01*
X63480000Y-97980000D02*
G75*
G02X63280000Y-98180000I-200000J0D01*
G01*
X62480000Y-98480000D02*
G75*
G02X62780000Y-98180000I300000J0D01*
G01*
X62780000Y-95080000D02*
X63180000Y-95080000D01*
X63480000Y-97980000D02*
X63480000Y-95380000D01*
X63280000Y-98180000D02*
X62780000Y-98180000D01*
X62480000Y-103680000D02*
X62480000Y-98480000D01*
X62480000Y-107780000D02*
G75*
G02X62180000Y-108080000I-300000J0D01*
G01*
X62780000Y-95080000D02*
G75*
G02X62480000Y-94780000I0J300000D01*
G01*
X63180000Y-95080000D02*
G75*
G02X63480000Y-95380000I0J-300000D01*
G01*
X62480000Y-94380000D02*
X62480000Y-94780000D01*
X62780000Y-103980000D02*
G75*
G02X62480000Y-103680000I0J300000D01*
G01*
X63180000Y-103980000D02*
G75*
G02X63480000Y-104280000I0J-300000D01*
G01*
X63280000Y-107080000D02*
X62780000Y-107080000D01*
X63480000Y-106880000D02*
X63480000Y-104280000D01*
X62780000Y-103980000D02*
X63180000Y-103980000D01*
X62480000Y-107380000D02*
G75*
G02X62780000Y-107080000I300000J0D01*
G01*
X63480000Y-106880000D02*
G75*
G02X63280000Y-107080000I-200000J0D01*
G01*
X47480000Y-104180000D02*
G75*
G02X47680000Y-103980000I200000J0D01*
G01*
X48480000Y-103680000D02*
G75*
G02X48180000Y-103980000I-300000J0D01*
G01*
X48180000Y-107080000D02*
X47780000Y-107080000D01*
X47480000Y-104180000D02*
X47480000Y-106780000D01*
X47680000Y-103980000D02*
X48180000Y-103980000D01*
X47780000Y-107080000D02*
G75*
G02X47480000Y-106780000I0J300000D01*
G01*
X48180000Y-107080000D02*
G75*
G02X48480000Y-107380000I0J-300000D01*
G01*
X47680000Y-95080000D02*
X48180000Y-95080000D01*
X48180000Y-98180000D02*
X47780000Y-98180000D01*
X47480000Y-95280000D02*
X47480000Y-97880000D01*
X48480000Y-94780000D02*
G75*
G02X48180000Y-95080000I-300000J0D01*
G01*
X48180000Y-98180000D02*
G75*
G02X48480000Y-98480000I0J-300000D01*
G01*
X47780000Y-98180000D02*
G75*
G02X47480000Y-97880000I0J300000D01*
G01*
X47480000Y-95280000D02*
G75*
G02X47680000Y-95080000I200000J0D01*
G01*
X81180000Y-108080000D02*
X67780000Y-108080000D01*
X67780000Y-108080000D02*
G75*
G02X67480000Y-107780000I0J300000D01*
G01*
X67480000Y-107780000D02*
X67480000Y-107380000D01*
X67480000Y-94380000D02*
G75*
G02X67780000Y-94080000I300000J0D01*
G01*
X81180000Y-94080000D02*
X67780000Y-94080000D01*
X67480000Y-98480000D02*
X67480000Y-103680000D01*
X67480000Y-94780000D02*
X67480000Y-94380000D01*
X81480000Y-107380000D02*
X81480000Y-107780000D01*
X81180000Y-94080000D02*
G75*
G02X81480000Y-94380000I0J-300000D01*
G01*
X82480000Y-97980000D02*
G75*
G02X82280000Y-98180000I-200000J0D01*
G01*
X81480000Y-98480000D02*
G75*
G02X81780000Y-98180000I300000J0D01*
G01*
X81780000Y-95080000D02*
X82180000Y-95080000D01*
X82480000Y-97980000D02*
X82480000Y-95380000D01*
X82280000Y-98180000D02*
X81780000Y-98180000D01*
X81480000Y-103680000D02*
X81480000Y-98480000D01*
X81480000Y-107780000D02*
G75*
G02X81180000Y-108080000I-300000J0D01*
G01*
X81780000Y-95080000D02*
G75*
G02X81480000Y-94780000I0J300000D01*
G01*
X82180000Y-95080000D02*
G75*
G02X82480000Y-95380000I0J-300000D01*
G01*
X81480000Y-94380000D02*
X81480000Y-94780000D01*
X81780000Y-103980000D02*
G75*
G02X81480000Y-103680000I0J300000D01*
G01*
X82180000Y-103980000D02*
G75*
G02X82480000Y-104280000I0J-300000D01*
G01*
X82280000Y-107080000D02*
X81780000Y-107080000D01*
X82480000Y-106880000D02*
X82480000Y-104280000D01*
X81780000Y-103980000D02*
X82180000Y-103980000D01*
X81480000Y-107380000D02*
G75*
G02X81780000Y-107080000I300000J0D01*
G01*
X82480000Y-106880000D02*
G75*
G02X82280000Y-107080000I-200000J0D01*
G01*
X66480000Y-104180000D02*
G75*
G02X66680000Y-103980000I200000J0D01*
G01*
X67480000Y-103680000D02*
G75*
G02X67180000Y-103980000I-300000J0D01*
G01*
X67180000Y-107080000D02*
X66780000Y-107080000D01*
X66480000Y-104180000D02*
X66480000Y-106780000D01*
X66680000Y-103980000D02*
X67180000Y-103980000D01*
X66780000Y-107080000D02*
G75*
G02X66480000Y-106780000I0J300000D01*
G01*
X67180000Y-107080000D02*
G75*
G02X67480000Y-107380000I0J-300000D01*
G01*
X66680000Y-95080000D02*
X67180000Y-95080000D01*
X67180000Y-98180000D02*
X66780000Y-98180000D01*
X66480000Y-95280000D02*
X66480000Y-97880000D01*
X67480000Y-94780000D02*
G75*
G02X67180000Y-95080000I-300000J0D01*
G01*
X67180000Y-98180000D02*
G75*
G02X67480000Y-98480000I0J-300000D01*
G01*
X66780000Y-98180000D02*
G75*
G02X66480000Y-97880000I0J300000D01*
G01*
X66480000Y-95280000D02*
G75*
G02X66680000Y-95080000I200000J0D01*
G01*
X100180000Y-108080000D02*
X86780000Y-108080000D01*
X86780000Y-108080000D02*
G75*
G02X86480000Y-107780000I0J300000D01*
G01*
X86480000Y-107780000D02*
X86480000Y-107380000D01*
X86480000Y-94380000D02*
G75*
G02X86780000Y-94080000I300000J0D01*
G01*
X100180000Y-94080000D02*
X86780000Y-94080000D01*
X86480000Y-98480000D02*
X86480000Y-103680000D01*
X86480000Y-94780000D02*
X86480000Y-94380000D01*
X100480000Y-107380000D02*
X100480000Y-107780000D01*
X100180000Y-94080000D02*
G75*
G02X100480000Y-94380000I0J-300000D01*
G01*
X101480000Y-97980000D02*
G75*
G02X101280000Y-98180000I-200000J0D01*
G01*
X100480000Y-98480000D02*
G75*
G02X100780000Y-98180000I300000J0D01*
G01*
X100780000Y-95080000D02*
X101180000Y-95080000D01*
X101480000Y-97980000D02*
X101480000Y-95380000D01*
X101280000Y-98180000D02*
X100780000Y-98180000D01*
X100480000Y-103680000D02*
X100480000Y-98480000D01*
X100480000Y-107780000D02*
G75*
G02X100180000Y-108080000I-300000J0D01*
G01*
X100780000Y-95080000D02*
G75*
G02X100480000Y-94780000I0J300000D01*
G01*
X101180000Y-95080000D02*
G75*
G02X101480000Y-95380000I0J-300000D01*
G01*
X100480000Y-94380000D02*
X100480000Y-94780000D01*
X100780000Y-103980000D02*
G75*
G02X100480000Y-103680000I0J300000D01*
G01*
X101180000Y-103980000D02*
G75*
G02X101480000Y-104280000I0J-300000D01*
G01*
X101280000Y-107080000D02*
X100780000Y-107080000D01*
X101480000Y-106880000D02*
X101480000Y-104280000D01*
X100780000Y-103980000D02*
X101180000Y-103980000D01*
X100480000Y-107380000D02*
G75*
G02X100780000Y-107080000I300000J0D01*
G01*
X101480000Y-106880000D02*
G75*
G02X101280000Y-107080000I-200000J0D01*
G01*
X85480000Y-104180000D02*
G75*
G02X85680000Y-103980000I200000J0D01*
G01*
X86480000Y-103680000D02*
G75*
G02X86180000Y-103980000I-300000J0D01*
G01*
X86180000Y-107080000D02*
X85780000Y-107080000D01*
X85480000Y-104180000D02*
X85480000Y-106780000D01*
X85680000Y-103980000D02*
X86180000Y-103980000D01*
X85780000Y-107080000D02*
G75*
G02X85480000Y-106780000I0J300000D01*
G01*
X86180000Y-107080000D02*
G75*
G02X86480000Y-107380000I0J-300000D01*
G01*
X85680000Y-95080000D02*
X86180000Y-95080000D01*
X86180000Y-98180000D02*
X85780000Y-98180000D01*
X85480000Y-95280000D02*
X85480000Y-97880000D01*
X86480000Y-94780000D02*
G75*
G02X86180000Y-95080000I-300000J0D01*
G01*
X86180000Y-98180000D02*
G75*
G02X86480000Y-98480000I0J-300000D01*
G01*
X85780000Y-98180000D02*
G75*
G02X85480000Y-97880000I0J300000D01*
G01*
X85480000Y-95280000D02*
G75*
G02X85680000Y-95080000I200000J0D01*
G01*
X119180000Y-108080000D02*
X105780000Y-108080000D01*
X105780000Y-108080000D02*
G75*
G02X105480000Y-107780000I0J300000D01*
G01*
X105480000Y-107780000D02*
X105480000Y-107380000D01*
X105480000Y-94380000D02*
G75*
G02X105780000Y-94080000I300000J0D01*
G01*
X119180000Y-94080000D02*
X105780000Y-94080000D01*
X105480000Y-98480000D02*
X105480000Y-103680000D01*
X105480000Y-94780000D02*
X105480000Y-94380000D01*
X119480000Y-107380000D02*
X119480000Y-107780000D01*
X119180000Y-94080000D02*
G75*
G02X119480000Y-94380000I0J-300000D01*
G01*
X120480000Y-97980000D02*
G75*
G02X120280000Y-98180000I-200000J0D01*
G01*
X119480000Y-98480000D02*
G75*
G02X119780000Y-98180000I300000J0D01*
G01*
X119780000Y-95080000D02*
X120180000Y-95080000D01*
X120480000Y-97980000D02*
X120480000Y-95380000D01*
X120280000Y-98180000D02*
X119780000Y-98180000D01*
X119480000Y-103680000D02*
X119480000Y-98480000D01*
X119480000Y-107780000D02*
G75*
G02X119180000Y-108080000I-300000J0D01*
G01*
X119780000Y-95080000D02*
G75*
G02X119480000Y-94780000I0J300000D01*
G01*
X120180000Y-95080000D02*
G75*
G02X120480000Y-95380000I0J-300000D01*
G01*
X119480000Y-94380000D02*
X119480000Y-94780000D01*
X119780000Y-103980000D02*
G75*
G02X119480000Y-103680000I0J300000D01*
G01*
X120180000Y-103980000D02*
G75*
G02X120480000Y-104280000I0J-300000D01*
G01*
X120280000Y-107080000D02*
X119780000Y-107080000D01*
X120480000Y-106880000D02*
X120480000Y-104280000D01*
X119780000Y-103980000D02*
X120180000Y-103980000D01*
X119480000Y-107380000D02*
G75*
G02X119780000Y-107080000I300000J0D01*
G01*
X120480000Y-106880000D02*
G75*
G02X120280000Y-107080000I-200000J0D01*
G01*
X104480000Y-104180000D02*
G75*
G02X104680000Y-103980000I200000J0D01*
G01*
X105480000Y-103680000D02*
G75*
G02X105180000Y-103980000I-300000J0D01*
G01*
X105180000Y-107080000D02*
X104780000Y-107080000D01*
X104480000Y-104180000D02*
X104480000Y-106780000D01*
X104680000Y-103980000D02*
X105180000Y-103980000D01*
X104780000Y-107080000D02*
G75*
G02X104480000Y-106780000I0J300000D01*
G01*
X105180000Y-107080000D02*
G75*
G02X105480000Y-107380000I0J-300000D01*
G01*
X104680000Y-95080000D02*
X105180000Y-95080000D01*
X105180000Y-98180000D02*
X104780000Y-98180000D01*
X104480000Y-95280000D02*
X104480000Y-97880000D01*
X105480000Y-94780000D02*
G75*
G02X105180000Y-95080000I-300000J0D01*
G01*
X105180000Y-98180000D02*
G75*
G02X105480000Y-98480000I0J-300000D01*
G01*
X104780000Y-98180000D02*
G75*
G02X104480000Y-97880000I0J300000D01*
G01*
X104480000Y-95280000D02*
G75*
G02X104680000Y-95080000I200000J0D01*
G01*
X138180000Y-108080000D02*
X124780000Y-108080000D01*
X124780000Y-108080000D02*
G75*
G02X124480000Y-107780000I0J300000D01*
G01*
X124480000Y-107780000D02*
X124480000Y-107380000D01*
X124480000Y-94380000D02*
G75*
G02X124780000Y-94080000I300000J0D01*
G01*
X138180000Y-94080000D02*
X124780000Y-94080000D01*
X124480000Y-98480000D02*
X124480000Y-103680000D01*
X124480000Y-94780000D02*
X124480000Y-94380000D01*
X138480000Y-107380000D02*
X138480000Y-107780000D01*
X138180000Y-94080000D02*
G75*
G02X138480000Y-94380000I0J-300000D01*
G01*
X139480000Y-97980000D02*
G75*
G02X139280000Y-98180000I-200000J0D01*
G01*
X138480000Y-98480000D02*
G75*
G02X138780000Y-98180000I300000J0D01*
G01*
X138780000Y-95080000D02*
X139180000Y-95080000D01*
X139480000Y-97980000D02*
X139480000Y-95380000D01*
X139280000Y-98180000D02*
X138780000Y-98180000D01*
X138480000Y-103680000D02*
X138480000Y-98480000D01*
X138480000Y-107780000D02*
G75*
G02X138180000Y-108080000I-300000J0D01*
G01*
X138780000Y-95080000D02*
G75*
G02X138480000Y-94780000I0J300000D01*
G01*
X139180000Y-95080000D02*
G75*
G02X139480000Y-95380000I0J-300000D01*
G01*
X138480000Y-94380000D02*
X138480000Y-94780000D01*
X138780000Y-103980000D02*
G75*
G02X138480000Y-103680000I0J300000D01*
G01*
X139180000Y-103980000D02*
G75*
G02X139480000Y-104280000I0J-300000D01*
G01*
X139280000Y-107080000D02*
X138780000Y-107080000D01*
X139480000Y-106880000D02*
X139480000Y-104280000D01*
X138780000Y-103980000D02*
X139180000Y-103980000D01*
X138480000Y-107380000D02*
G75*
G02X138780000Y-107080000I300000J0D01*
G01*
X139480000Y-106880000D02*
G75*
G02X139280000Y-107080000I-200000J0D01*
G01*
X123480000Y-104180000D02*
G75*
G02X123680000Y-103980000I200000J0D01*
G01*
X124480000Y-103680000D02*
G75*
G02X124180000Y-103980000I-300000J0D01*
G01*
X124180000Y-107080000D02*
X123780000Y-107080000D01*
X123480000Y-104180000D02*
X123480000Y-106780000D01*
X123680000Y-103980000D02*
X124180000Y-103980000D01*
X123780000Y-107080000D02*
G75*
G02X123480000Y-106780000I0J300000D01*
G01*
X124180000Y-107080000D02*
G75*
G02X124480000Y-107380000I0J-300000D01*
G01*
X123680000Y-95080000D02*
X124180000Y-95080000D01*
X124180000Y-98180000D02*
X123780000Y-98180000D01*
X123480000Y-95280000D02*
X123480000Y-97880000D01*
X124480000Y-94780000D02*
G75*
G02X124180000Y-95080000I-300000J0D01*
G01*
X124180000Y-98180000D02*
G75*
G02X124480000Y-98480000I0J-300000D01*
G01*
X123780000Y-98180000D02*
G75*
G02X123480000Y-97880000I0J300000D01*
G01*
X123480000Y-95280000D02*
G75*
G02X123680000Y-95080000I200000J0D01*
G01*
X157180000Y-108080000D02*
X143780000Y-108080000D01*
X143780000Y-108080000D02*
G75*
G02X143480000Y-107780000I0J300000D01*
G01*
X143480000Y-107780000D02*
X143480000Y-107380000D01*
X143480000Y-94380000D02*
G75*
G02X143780000Y-94080000I300000J0D01*
G01*
X157180000Y-94080000D02*
X143780000Y-94080000D01*
X143480000Y-98480000D02*
X143480000Y-103680000D01*
X143480000Y-94780000D02*
X143480000Y-94380000D01*
X157480000Y-107380000D02*
X157480000Y-107780000D01*
X157180000Y-94080000D02*
G75*
G02X157480000Y-94380000I0J-300000D01*
G01*
X158480000Y-97980000D02*
G75*
G02X158280000Y-98180000I-200000J0D01*
G01*
X157480000Y-98480000D02*
G75*
G02X157780000Y-98180000I300000J0D01*
G01*
X157780000Y-95080000D02*
X158180000Y-95080000D01*
X158480000Y-97980000D02*
X158480000Y-95380000D01*
X158280000Y-98180000D02*
X157780000Y-98180000D01*
X157480000Y-103680000D02*
X157480000Y-98480000D01*
X157480000Y-107780000D02*
G75*
G02X157180000Y-108080000I-300000J0D01*
G01*
X157780000Y-95080000D02*
G75*
G02X157480000Y-94780000I0J300000D01*
G01*
X158180000Y-95080000D02*
G75*
G02X158480000Y-95380000I0J-300000D01*
G01*
X157480000Y-94380000D02*
X157480000Y-94780000D01*
X157780000Y-103980000D02*
G75*
G02X157480000Y-103680000I0J300000D01*
G01*
X158180000Y-103980000D02*
G75*
G02X158480000Y-104280000I0J-300000D01*
G01*
X158280000Y-107080000D02*
X157780000Y-107080000D01*
X158480000Y-106880000D02*
X158480000Y-104280000D01*
X157780000Y-103980000D02*
X158180000Y-103980000D01*
X157480000Y-107380000D02*
G75*
G02X157780000Y-107080000I300000J0D01*
G01*
X158480000Y-106880000D02*
G75*
G02X158280000Y-107080000I-200000J0D01*
G01*
X142480000Y-104180000D02*
G75*
G02X142680000Y-103980000I200000J0D01*
G01*
X143480000Y-103680000D02*
G75*
G02X143180000Y-103980000I-300000J0D01*
G01*
X143180000Y-107080000D02*
X142780000Y-107080000D01*
X142480000Y-104180000D02*
X142480000Y-106780000D01*
X142680000Y-103980000D02*
X143180000Y-103980000D01*
X142780000Y-107080000D02*
G75*
G02X142480000Y-106780000I0J300000D01*
G01*
X143180000Y-107080000D02*
G75*
G02X143480000Y-107380000I0J-300000D01*
G01*
X142680000Y-95080000D02*
X143180000Y-95080000D01*
X143180000Y-98180000D02*
X142780000Y-98180000D01*
X142480000Y-95280000D02*
X142480000Y-97880000D01*
X143480000Y-94780000D02*
G75*
G02X143180000Y-95080000I-300000J0D01*
G01*
X143180000Y-98180000D02*
G75*
G02X143480000Y-98480000I0J-300000D01*
G01*
X142780000Y-98180000D02*
G75*
G02X142480000Y-97880000I0J300000D01*
G01*
X142480000Y-95280000D02*
G75*
G02X142680000Y-95080000I200000J0D01*
G01*
X176180000Y-108080000D02*
X162780000Y-108080000D01*
X162780000Y-108080000D02*
G75*
G02X162480000Y-107780000I0J300000D01*
G01*
X162480000Y-107780000D02*
X162480000Y-107380000D01*
X162480000Y-94380000D02*
G75*
G02X162780000Y-94080000I300000J0D01*
G01*
X176180000Y-94080000D02*
X162780000Y-94080000D01*
X162480000Y-98480000D02*
X162480000Y-103680000D01*
X162480000Y-94780000D02*
X162480000Y-94380000D01*
X176480000Y-107380000D02*
X176480000Y-107780000D01*
X176180000Y-94080000D02*
G75*
G02X176480000Y-94380000I0J-300000D01*
G01*
X177480000Y-97980000D02*
G75*
G02X177280000Y-98180000I-200000J0D01*
G01*
X176480000Y-98480000D02*
G75*
G02X176780000Y-98180000I300000J0D01*
G01*
X176780000Y-95080000D02*
X177180000Y-95080000D01*
X177480000Y-97980000D02*
X177480000Y-95380000D01*
X177280000Y-98180000D02*
X176780000Y-98180000D01*
X176480000Y-103680000D02*
X176480000Y-98480000D01*
X176480000Y-107780000D02*
G75*
G02X176180000Y-108080000I-300000J0D01*
G01*
X176780000Y-95080000D02*
G75*
G02X176480000Y-94780000I0J300000D01*
G01*
X177180000Y-95080000D02*
G75*
G02X177480000Y-95380000I0J-300000D01*
G01*
X176480000Y-94380000D02*
X176480000Y-94780000D01*
X176780000Y-103980000D02*
G75*
G02X176480000Y-103680000I0J300000D01*
G01*
X177180000Y-103980000D02*
G75*
G02X177480000Y-104280000I0J-300000D01*
G01*
X177280000Y-107080000D02*
X176780000Y-107080000D01*
X177480000Y-106880000D02*
X177480000Y-104280000D01*
X176780000Y-103980000D02*
X177180000Y-103980000D01*
X176480000Y-107380000D02*
G75*
G02X176780000Y-107080000I300000J0D01*
G01*
X177480000Y-106880000D02*
G75*
G02X177280000Y-107080000I-200000J0D01*
G01*
X161480000Y-104180000D02*
G75*
G02X161680000Y-103980000I200000J0D01*
G01*
X162480000Y-103680000D02*
G75*
G02X162180000Y-103980000I-300000J0D01*
G01*
X162180000Y-107080000D02*
X161780000Y-107080000D01*
X161480000Y-104180000D02*
X161480000Y-106780000D01*
X161680000Y-103980000D02*
X162180000Y-103980000D01*
X161780000Y-107080000D02*
G75*
G02X161480000Y-106780000I0J300000D01*
G01*
X162180000Y-107080000D02*
G75*
G02X162480000Y-107380000I0J-300000D01*
G01*
X161680000Y-95080000D02*
X162180000Y-95080000D01*
X162180000Y-98180000D02*
X161780000Y-98180000D01*
X161480000Y-95280000D02*
X161480000Y-97880000D01*
X162480000Y-94780000D02*
G75*
G02X162180000Y-95080000I-300000J0D01*
G01*
X162180000Y-98180000D02*
G75*
G02X162480000Y-98480000I0J-300000D01*
G01*
X161780000Y-98180000D02*
G75*
G02X161480000Y-97880000I0J300000D01*
G01*
X161480000Y-95280000D02*
G75*
G02X161680000Y-95080000I200000J0D01*
G01*
X195180000Y-108080000D02*
X181780000Y-108080000D01*
X181780000Y-108080000D02*
G75*
G02X181480000Y-107780000I0J300000D01*
G01*
X181480000Y-107780000D02*
X181480000Y-107380000D01*
X181480000Y-94380000D02*
G75*
G02X181780000Y-94080000I300000J0D01*
G01*
X195180000Y-94080000D02*
X181780000Y-94080000D01*
X181480000Y-98480000D02*
X181480000Y-103680000D01*
X181480000Y-94780000D02*
X181480000Y-94380000D01*
X195480000Y-107380000D02*
X195480000Y-107780000D01*
X195180000Y-94080000D02*
G75*
G02X195480000Y-94380000I0J-300000D01*
G01*
X196480000Y-97980000D02*
G75*
G02X196280000Y-98180000I-200000J0D01*
G01*
X195480000Y-98480000D02*
G75*
G02X195780000Y-98180000I300000J0D01*
G01*
X195780000Y-95080000D02*
X196180000Y-95080000D01*
X196480000Y-97980000D02*
X196480000Y-95380000D01*
X196280000Y-98180000D02*
X195780000Y-98180000D01*
X195480000Y-103680000D02*
X195480000Y-98480000D01*
X195480000Y-107780000D02*
G75*
G02X195180000Y-108080000I-300000J0D01*
G01*
X195780000Y-95080000D02*
G75*
G02X195480000Y-94780000I0J300000D01*
G01*
X196180000Y-95080000D02*
G75*
G02X196480000Y-95380000I0J-300000D01*
G01*
X195480000Y-94380000D02*
X195480000Y-94780000D01*
X195780000Y-103980000D02*
G75*
G02X195480000Y-103680000I0J300000D01*
G01*
X196180000Y-103980000D02*
G75*
G02X196480000Y-104280000I0J-300000D01*
G01*
X196280000Y-107080000D02*
X195780000Y-107080000D01*
X196480000Y-106880000D02*
X196480000Y-104280000D01*
X195780000Y-103980000D02*
X196180000Y-103980000D01*
X195480000Y-107380000D02*
G75*
G02X195780000Y-107080000I300000J0D01*
G01*
X196480000Y-106880000D02*
G75*
G02X196280000Y-107080000I-200000J0D01*
G01*
X180480000Y-104180000D02*
G75*
G02X180680000Y-103980000I200000J0D01*
G01*
X181480000Y-103680000D02*
G75*
G02X181180000Y-103980000I-300000J0D01*
G01*
X181180000Y-107080000D02*
X180780000Y-107080000D01*
X180480000Y-104180000D02*
X180480000Y-106780000D01*
X180680000Y-103980000D02*
X181180000Y-103980000D01*
X180780000Y-107080000D02*
G75*
G02X180480000Y-106780000I0J300000D01*
G01*
X181180000Y-107080000D02*
G75*
G02X181480000Y-107380000I0J-300000D01*
G01*
X180680000Y-95080000D02*
X181180000Y-95080000D01*
X181180000Y-98180000D02*
X180780000Y-98180000D01*
X180480000Y-95280000D02*
X180480000Y-97880000D01*
X181480000Y-94780000D02*
G75*
G02X181180000Y-95080000I-300000J0D01*
G01*
X181180000Y-98180000D02*
G75*
G02X181480000Y-98480000I0J-300000D01*
G01*
X180780000Y-98180000D02*
G75*
G02X180480000Y-97880000I0J300000D01*
G01*
X180480000Y-95280000D02*
G75*
G02X180680000Y-95080000I200000J0D01*
G01*
X214180000Y-108080000D02*
X200780000Y-108080000D01*
X200780000Y-108080000D02*
G75*
G02X200480000Y-107780000I0J300000D01*
G01*
X200480000Y-107780000D02*
X200480000Y-107380000D01*
X200480000Y-94380000D02*
G75*
G02X200780000Y-94080000I300000J0D01*
G01*
X214180000Y-94080000D02*
X200780000Y-94080000D01*
X200480000Y-98480000D02*
X200480000Y-103680000D01*
X200480000Y-94780000D02*
X200480000Y-94380000D01*
X214480000Y-107380000D02*
X214480000Y-107780000D01*
X214180000Y-94080000D02*
G75*
G02X214480000Y-94380000I0J-300000D01*
G01*
X215480000Y-97980000D02*
G75*
G02X215280000Y-98180000I-200000J0D01*
G01*
X214480000Y-98480000D02*
G75*
G02X214780000Y-98180000I300000J0D01*
G01*
X214780000Y-95080000D02*
X215180000Y-95080000D01*
X215480000Y-97980000D02*
X215480000Y-95380000D01*
X215280000Y-98180000D02*
X214780000Y-98180000D01*
X214480000Y-103680000D02*
X214480000Y-98480000D01*
X214480000Y-107780000D02*
G75*
G02X214180000Y-108080000I-300000J0D01*
G01*
X214780000Y-95080000D02*
G75*
G02X214480000Y-94780000I0J300000D01*
G01*
X215180000Y-95080000D02*
G75*
G02X215480000Y-95380000I0J-300000D01*
G01*
X214480000Y-94380000D02*
X214480000Y-94780000D01*
X214780000Y-103980000D02*
G75*
G02X214480000Y-103680000I0J300000D01*
G01*
X215180000Y-103980000D02*
G75*
G02X215480000Y-104280000I0J-300000D01*
G01*
X215280000Y-107080000D02*
X214780000Y-107080000D01*
X215480000Y-106880000D02*
X215480000Y-104280000D01*
X214780000Y-103980000D02*
X215180000Y-103980000D01*
X214480000Y-107380000D02*
G75*
G02X214780000Y-107080000I300000J0D01*
G01*
X215480000Y-106880000D02*
G75*
G02X215280000Y-107080000I-200000J0D01*
G01*
X199480000Y-104180000D02*
G75*
G02X199680000Y-103980000I200000J0D01*
G01*
X200480000Y-103680000D02*
G75*
G02X200180000Y-103980000I-300000J0D01*
G01*
X200180000Y-107080000D02*
X199780000Y-107080000D01*
X199480000Y-104180000D02*
X199480000Y-106780000D01*
X199680000Y-103980000D02*
X200180000Y-103980000D01*
X199780000Y-107080000D02*
G75*
G02X199480000Y-106780000I0J300000D01*
G01*
X200180000Y-107080000D02*
G75*
G02X200480000Y-107380000I0J-300000D01*
G01*
X199680000Y-95080000D02*
X200180000Y-95080000D01*
X200180000Y-98180000D02*
X199780000Y-98180000D01*
X199480000Y-95280000D02*
X199480000Y-97880000D01*
X200480000Y-94780000D02*
G75*
G02X200180000Y-95080000I-300000J0D01*
G01*
X200180000Y-98180000D02*
G75*
G02X200480000Y-98480000I0J-300000D01*
G01*
X199780000Y-98180000D02*
G75*
G02X199480000Y-97880000I0J300000D01*
G01*
X199480000Y-95280000D02*
G75*
G02X199680000Y-95080000I200000J0D01*
G01*
X233180000Y-108080000D02*
X219780000Y-108080000D01*
X219780000Y-108080000D02*
G75*
G02X219480000Y-107780000I0J300000D01*
G01*
X219480000Y-107780000D02*
X219480000Y-107380000D01*
X219480000Y-94380000D02*
G75*
G02X219780000Y-94080000I300000J0D01*
G01*
X233180000Y-94080000D02*
X219780000Y-94080000D01*
X219480000Y-98480000D02*
X219480000Y-103680000D01*
X219480000Y-94780000D02*
X219480000Y-94380000D01*
X233480000Y-107380000D02*
X233480000Y-107780000D01*
X233180000Y-94080000D02*
G75*
G02X233480000Y-94380000I0J-300000D01*
G01*
X234480000Y-97980000D02*
G75*
G02X234280000Y-98180000I-200000J0D01*
G01*
X233480000Y-98480000D02*
G75*
G02X233780000Y-98180000I300000J0D01*
G01*
X233780000Y-95080000D02*
X234180000Y-95080000D01*
X234480000Y-97980000D02*
X234480000Y-95380000D01*
X234280000Y-98180000D02*
X233780000Y-98180000D01*
X233480000Y-103680000D02*
X233480000Y-98480000D01*
X233480000Y-107780000D02*
G75*
G02X233180000Y-108080000I-300000J0D01*
G01*
X233780000Y-95080000D02*
G75*
G02X233480000Y-94780000I0J300000D01*
G01*
X234180000Y-95080000D02*
G75*
G02X234480000Y-95380000I0J-300000D01*
G01*
X233480000Y-94380000D02*
X233480000Y-94780000D01*
X233780000Y-103980000D02*
G75*
G02X233480000Y-103680000I0J300000D01*
G01*
X234180000Y-103980000D02*
G75*
G02X234480000Y-104280000I0J-300000D01*
G01*
X234280000Y-107080000D02*
X233780000Y-107080000D01*
X234480000Y-106880000D02*
X234480000Y-104280000D01*
X233780000Y-103980000D02*
X234180000Y-103980000D01*
X233480000Y-107380000D02*
G75*
G02X233780000Y-107080000I300000J0D01*
G01*
X234480000Y-106880000D02*
G75*
G02X234280000Y-107080000I-200000J0D01*
G01*
X218480000Y-104180000D02*
G75*
G02X218680000Y-103980000I200000J0D01*
G01*
X219480000Y-103680000D02*
G75*
G02X219180000Y-103980000I-300000J0D01*
G01*
X219180000Y-107080000D02*
X218780000Y-107080000D01*
X218480000Y-104180000D02*
X218480000Y-106780000D01*
X218680000Y-103980000D02*
X219180000Y-103980000D01*
X218780000Y-107080000D02*
G75*
G02X218480000Y-106780000I0J300000D01*
G01*
X219180000Y-107080000D02*
G75*
G02X219480000Y-107380000I0J-300000D01*
G01*
X218680000Y-95080000D02*
X219180000Y-95080000D01*
X219180000Y-98180000D02*
X218780000Y-98180000D01*
X218480000Y-95280000D02*
X218480000Y-97880000D01*
X219480000Y-94780000D02*
G75*
G02X219180000Y-95080000I-300000J0D01*
G01*
X219180000Y-98180000D02*
G75*
G02X219480000Y-98480000I0J-300000D01*
G01*
X218780000Y-98180000D02*
G75*
G02X218480000Y-97880000I0J300000D01*
G01*
X218480000Y-95280000D02*
G75*
G02X218680000Y-95080000I200000J0D01*
G01*
X252180000Y-108080000D02*
X238780000Y-108080000D01*
X238780000Y-108080000D02*
G75*
G02X238480000Y-107780000I0J300000D01*
G01*
X238480000Y-107780000D02*
X238480000Y-107380000D01*
X238480000Y-94380000D02*
G75*
G02X238780000Y-94080000I300000J0D01*
G01*
X252180000Y-94080000D02*
X238780000Y-94080000D01*
X238480000Y-98480000D02*
X238480000Y-103680000D01*
X238480000Y-94780000D02*
X238480000Y-94380000D01*
X252480000Y-107380000D02*
X252480000Y-107780000D01*
X252180000Y-94080000D02*
G75*
G02X252480000Y-94380000I0J-300000D01*
G01*
X253480000Y-97980000D02*
G75*
G02X253280000Y-98180000I-200000J0D01*
G01*
X252480000Y-98480000D02*
G75*
G02X252780000Y-98180000I300000J0D01*
G01*
X252780000Y-95080000D02*
X253180000Y-95080000D01*
X253480000Y-97980000D02*
X253480000Y-95380000D01*
X253280000Y-98180000D02*
X252780000Y-98180000D01*
X252480000Y-103680000D02*
X252480000Y-98480000D01*
X252480000Y-107780000D02*
G75*
G02X252180000Y-108080000I-300000J0D01*
G01*
X252780000Y-95080000D02*
G75*
G02X252480000Y-94780000I0J300000D01*
G01*
X253180000Y-95080000D02*
G75*
G02X253480000Y-95380000I0J-300000D01*
G01*
X252480000Y-94380000D02*
X252480000Y-94780000D01*
X252780000Y-103980000D02*
G75*
G02X252480000Y-103680000I0J300000D01*
G01*
X253180000Y-103980000D02*
G75*
G02X253480000Y-104280000I0J-300000D01*
G01*
X253280000Y-107080000D02*
X252780000Y-107080000D01*
X253480000Y-106880000D02*
X253480000Y-104280000D01*
X252780000Y-103980000D02*
X253180000Y-103980000D01*
X252480000Y-107380000D02*
G75*
G02X252780000Y-107080000I300000J0D01*
G01*
X253480000Y-106880000D02*
G75*
G02X253280000Y-107080000I-200000J0D01*
G01*
X237480000Y-104180000D02*
G75*
G02X237680000Y-103980000I200000J0D01*
G01*
X238480000Y-103680000D02*
G75*
G02X238180000Y-103980000I-300000J0D01*
G01*
X238180000Y-107080000D02*
X237780000Y-107080000D01*
X237480000Y-104180000D02*
X237480000Y-106780000D01*
X237680000Y-103980000D02*
X238180000Y-103980000D01*
X237780000Y-107080000D02*
G75*
G02X237480000Y-106780000I0J300000D01*
G01*
X238180000Y-107080000D02*
G75*
G02X238480000Y-107380000I0J-300000D01*
G01*
X237680000Y-95080000D02*
X238180000Y-95080000D01*
X238180000Y-98180000D02*
X237780000Y-98180000D01*
X237480000Y-95280000D02*
X237480000Y-97880000D01*
X238480000Y-94780000D02*
G75*
G02X238180000Y-95080000I-300000J0D01*
G01*
X238180000Y-98180000D02*
G75*
G02X238480000Y-98480000I0J-300000D01*
G01*
X237780000Y-98180000D02*
G75*
G02X237480000Y-97880000I0J300000D01*
G01*
X237480000Y-95280000D02*
G75*
G02X237680000Y-95080000I200000J0D01*
G01*
X271180000Y-108080000D02*
X257780000Y-108080000D01*
X257780000Y-108080000D02*
G75*
G02X257480000Y-107780000I0J300000D01*
G01*
X257480000Y-107780000D02*
X257480000Y-107380000D01*
X257480000Y-94380000D02*
G75*
G02X257780000Y-94080000I300000J0D01*
G01*
X271180000Y-94080000D02*
X257780000Y-94080000D01*
X257480000Y-98480000D02*
X257480000Y-103680000D01*
X257480000Y-94780000D02*
X257480000Y-94380000D01*
X271480000Y-107380000D02*
X271480000Y-107780000D01*
X271180000Y-94080000D02*
G75*
G02X271480000Y-94380000I0J-300000D01*
G01*
X272480000Y-97980000D02*
G75*
G02X272280000Y-98180000I-200000J0D01*
G01*
X271480000Y-98480000D02*
G75*
G02X271780000Y-98180000I300000J0D01*
G01*
X271780000Y-95080000D02*
X272180000Y-95080000D01*
X272480000Y-97980000D02*
X272480000Y-95380000D01*
X272280000Y-98180000D02*
X271780000Y-98180000D01*
X271480000Y-103680000D02*
X271480000Y-98480000D01*
X271480000Y-107780000D02*
G75*
G02X271180000Y-108080000I-300000J0D01*
G01*
X271780000Y-95080000D02*
G75*
G02X271480000Y-94780000I0J300000D01*
G01*
X272180000Y-95080000D02*
G75*
G02X272480000Y-95380000I0J-300000D01*
G01*
X271480000Y-94380000D02*
X271480000Y-94780000D01*
X271780000Y-103980000D02*
G75*
G02X271480000Y-103680000I0J300000D01*
G01*
X272180000Y-103980000D02*
G75*
G02X272480000Y-104280000I0J-300000D01*
G01*
X272280000Y-107080000D02*
X271780000Y-107080000D01*
X272480000Y-106880000D02*
X272480000Y-104280000D01*
X271780000Y-103980000D02*
X272180000Y-103980000D01*
X271480000Y-107380000D02*
G75*
G02X271780000Y-107080000I300000J0D01*
G01*
X272480000Y-106880000D02*
G75*
G02X272280000Y-107080000I-200000J0D01*
G01*
X256480000Y-104180000D02*
G75*
G02X256680000Y-103980000I200000J0D01*
G01*
X257480000Y-103680000D02*
G75*
G02X257180000Y-103980000I-300000J0D01*
G01*
X257180000Y-107080000D02*
X256780000Y-107080000D01*
X256480000Y-104180000D02*
X256480000Y-106780000D01*
X256680000Y-103980000D02*
X257180000Y-103980000D01*
X256780000Y-107080000D02*
G75*
G02X256480000Y-106780000I0J300000D01*
G01*
X257180000Y-107080000D02*
G75*
G02X257480000Y-107380000I0J-300000D01*
G01*
X256680000Y-95080000D02*
X257180000Y-95080000D01*
X257180000Y-98180000D02*
X256780000Y-98180000D01*
X256480000Y-95280000D02*
X256480000Y-97880000D01*
X257480000Y-94780000D02*
G75*
G02X257180000Y-95080000I-300000J0D01*
G01*
X257180000Y-98180000D02*
G75*
G02X257480000Y-98480000I0J-300000D01*
G01*
X256780000Y-98180000D02*
G75*
G02X256480000Y-97880000I0J300000D01*
G01*
X256480000Y-95280000D02*
G75*
G02X256680000Y-95080000I200000J0D01*
G01*
M02*
