G04 #@! TF.GenerationSoftware,KiCad,Pcbnew,(5.1.2-1)-1*
G04 #@! TF.CreationDate,2020-05-17T11:39:59-05:00*
G04 #@! TF.ProjectId,therick48_top_plate,74686572-6963-46b3-9438-5f746f705f70,rev?*
G04 #@! TF.SameCoordinates,Original*
G04 #@! TF.FileFunction,Soldermask,Bot*
G04 #@! TF.FilePolarity,Negative*
%FSLAX46Y46*%
G04 Gerber Fmt 4.6, Leading zero omitted, Abs format (unit mm)*
G04 Created by KiCad (PCBNEW (5.1.2-1)-1) date 2020-05-17 11:39:59*
%MOMM*%
%LPD*%
G04 APERTURE LIST*
%ADD10C,0.100000*%
G04 APERTURE END LIST*
D10*
G36*
X255428903Y-89323213D02*
G01*
X255651177Y-89367426D01*
X256069932Y-89540880D01*
X256446802Y-89792696D01*
X256767304Y-90113198D01*
X257019120Y-90490068D01*
X257192574Y-90908823D01*
X257281000Y-91353371D01*
X257281000Y-91806629D01*
X257192574Y-92251177D01*
X257019120Y-92669932D01*
X256767304Y-93046802D01*
X256446802Y-93367304D01*
X256069932Y-93619120D01*
X255651177Y-93792574D01*
X255428903Y-93836787D01*
X255206630Y-93881000D01*
X254753370Y-93881000D01*
X254531097Y-93836787D01*
X254308823Y-93792574D01*
X253890068Y-93619120D01*
X253513198Y-93367304D01*
X253192696Y-93046802D01*
X252940880Y-92669932D01*
X252767426Y-92251177D01*
X252679000Y-91806629D01*
X252679000Y-91353371D01*
X252767426Y-90908823D01*
X252940880Y-90490068D01*
X253192696Y-90113198D01*
X253513198Y-89792696D01*
X253890068Y-89540880D01*
X254308823Y-89367426D01*
X254531097Y-89323213D01*
X254753370Y-89279000D01*
X255206630Y-89279000D01*
X255428903Y-89323213D01*
X255428903Y-89323213D01*
G37*
G36*
X217428903Y-89323213D02*
G01*
X217651177Y-89367426D01*
X218069932Y-89540880D01*
X218446802Y-89792696D01*
X218767304Y-90113198D01*
X219019120Y-90490068D01*
X219192574Y-90908823D01*
X219281000Y-91353371D01*
X219281000Y-91806629D01*
X219192574Y-92251177D01*
X219019120Y-92669932D01*
X218767304Y-93046802D01*
X218446802Y-93367304D01*
X218069932Y-93619120D01*
X217651177Y-93792574D01*
X217428903Y-93836787D01*
X217206630Y-93881000D01*
X216753370Y-93881000D01*
X216531097Y-93836787D01*
X216308823Y-93792574D01*
X215890068Y-93619120D01*
X215513198Y-93367304D01*
X215192696Y-93046802D01*
X214940880Y-92669932D01*
X214767426Y-92251177D01*
X214679000Y-91806629D01*
X214679000Y-91353371D01*
X214767426Y-90908823D01*
X214940880Y-90490068D01*
X215192696Y-90113198D01*
X215513198Y-89792696D01*
X215890068Y-89540880D01*
X216308823Y-89367426D01*
X216531097Y-89323213D01*
X216753370Y-89279000D01*
X217206630Y-89279000D01*
X217428903Y-89323213D01*
X217428903Y-89323213D01*
G37*
G36*
X198428903Y-89323213D02*
G01*
X198651177Y-89367426D01*
X199069932Y-89540880D01*
X199446802Y-89792696D01*
X199767304Y-90113198D01*
X200019120Y-90490068D01*
X200192574Y-90908823D01*
X200281000Y-91353371D01*
X200281000Y-91806629D01*
X200192574Y-92251177D01*
X200019120Y-92669932D01*
X199767304Y-93046802D01*
X199446802Y-93367304D01*
X199069932Y-93619120D01*
X198651177Y-93792574D01*
X198428903Y-93836787D01*
X198206630Y-93881000D01*
X197753370Y-93881000D01*
X197531097Y-93836787D01*
X197308823Y-93792574D01*
X196890068Y-93619120D01*
X196513198Y-93367304D01*
X196192696Y-93046802D01*
X195940880Y-92669932D01*
X195767426Y-92251177D01*
X195679000Y-91806629D01*
X195679000Y-91353371D01*
X195767426Y-90908823D01*
X195940880Y-90490068D01*
X196192696Y-90113198D01*
X196513198Y-89792696D01*
X196890068Y-89540880D01*
X197308823Y-89367426D01*
X197531097Y-89323213D01*
X197753370Y-89279000D01*
X198206630Y-89279000D01*
X198428903Y-89323213D01*
X198428903Y-89323213D01*
G37*
G36*
X122428903Y-89323213D02*
G01*
X122651177Y-89367426D01*
X123069932Y-89540880D01*
X123446802Y-89792696D01*
X123767304Y-90113198D01*
X124019120Y-90490068D01*
X124192574Y-90908823D01*
X124281000Y-91353371D01*
X124281000Y-91806629D01*
X124192574Y-92251177D01*
X124019120Y-92669932D01*
X123767304Y-93046802D01*
X123446802Y-93367304D01*
X123069932Y-93619120D01*
X122651177Y-93792574D01*
X122428903Y-93836787D01*
X122206630Y-93881000D01*
X121753370Y-93881000D01*
X121531097Y-93836787D01*
X121308823Y-93792574D01*
X120890068Y-93619120D01*
X120513198Y-93367304D01*
X120192696Y-93046802D01*
X119940880Y-92669932D01*
X119767426Y-92251177D01*
X119679000Y-91806629D01*
X119679000Y-91353371D01*
X119767426Y-90908823D01*
X119940880Y-90490068D01*
X120192696Y-90113198D01*
X120513198Y-89792696D01*
X120890068Y-89540880D01*
X121308823Y-89367426D01*
X121531097Y-89323213D01*
X121753370Y-89279000D01*
X122206630Y-89279000D01*
X122428903Y-89323213D01*
X122428903Y-89323213D01*
G37*
G36*
X103428903Y-89323213D02*
G01*
X103651177Y-89367426D01*
X104069932Y-89540880D01*
X104446802Y-89792696D01*
X104767304Y-90113198D01*
X105019120Y-90490068D01*
X105192574Y-90908823D01*
X105281000Y-91353371D01*
X105281000Y-91806629D01*
X105192574Y-92251177D01*
X105019120Y-92669932D01*
X104767304Y-93046802D01*
X104446802Y-93367304D01*
X104069932Y-93619120D01*
X103651177Y-93792574D01*
X103428903Y-93836787D01*
X103206630Y-93881000D01*
X102753370Y-93881000D01*
X102531097Y-93836787D01*
X102308823Y-93792574D01*
X101890068Y-93619120D01*
X101513198Y-93367304D01*
X101192696Y-93046802D01*
X100940880Y-92669932D01*
X100767426Y-92251177D01*
X100679000Y-91806629D01*
X100679000Y-91353371D01*
X100767426Y-90908823D01*
X100940880Y-90490068D01*
X101192696Y-90113198D01*
X101513198Y-89792696D01*
X101890068Y-89540880D01*
X102308823Y-89367426D01*
X102531097Y-89323213D01*
X102753370Y-89279000D01*
X103206630Y-89279000D01*
X103428903Y-89323213D01*
X103428903Y-89323213D01*
G37*
G36*
X65428903Y-89323213D02*
G01*
X65651177Y-89367426D01*
X66069932Y-89540880D01*
X66446802Y-89792696D01*
X66767304Y-90113198D01*
X67019120Y-90490068D01*
X67192574Y-90908823D01*
X67281000Y-91353371D01*
X67281000Y-91806629D01*
X67192574Y-92251177D01*
X67019120Y-92669932D01*
X66767304Y-93046802D01*
X66446802Y-93367304D01*
X66069932Y-93619120D01*
X65651177Y-93792574D01*
X65428903Y-93836787D01*
X65206630Y-93881000D01*
X64753370Y-93881000D01*
X64531097Y-93836787D01*
X64308823Y-93792574D01*
X63890068Y-93619120D01*
X63513198Y-93367304D01*
X63192696Y-93046802D01*
X62940880Y-92669932D01*
X62767426Y-92251177D01*
X62679000Y-91806629D01*
X62679000Y-91353371D01*
X62767426Y-90908823D01*
X62940880Y-90490068D01*
X63192696Y-90113198D01*
X63513198Y-89792696D01*
X63890068Y-89540880D01*
X64308823Y-89367426D01*
X64531097Y-89323213D01*
X64753370Y-89279000D01*
X65206630Y-89279000D01*
X65428903Y-89323213D01*
X65428903Y-89323213D01*
G37*
G36*
X255428903Y-70323213D02*
G01*
X255651177Y-70367426D01*
X256069932Y-70540880D01*
X256446802Y-70792696D01*
X256767304Y-71113198D01*
X257019120Y-71490068D01*
X257192574Y-71908823D01*
X257281000Y-72353371D01*
X257281000Y-72806629D01*
X257192574Y-73251177D01*
X257019120Y-73669932D01*
X256767304Y-74046802D01*
X256446802Y-74367304D01*
X256069932Y-74619120D01*
X255651177Y-74792574D01*
X255428903Y-74836787D01*
X255206630Y-74881000D01*
X254753370Y-74881000D01*
X254531097Y-74836787D01*
X254308823Y-74792574D01*
X253890068Y-74619120D01*
X253513198Y-74367304D01*
X253192696Y-74046802D01*
X252940880Y-73669932D01*
X252767426Y-73251177D01*
X252679000Y-72806629D01*
X252679000Y-72353371D01*
X252767426Y-71908823D01*
X252940880Y-71490068D01*
X253192696Y-71113198D01*
X253513198Y-70792696D01*
X253890068Y-70540880D01*
X254308823Y-70367426D01*
X254531097Y-70323213D01*
X254753370Y-70279000D01*
X255206630Y-70279000D01*
X255428903Y-70323213D01*
X255428903Y-70323213D01*
G37*
G36*
X65428903Y-70323213D02*
G01*
X65651177Y-70367426D01*
X66069932Y-70540880D01*
X66446802Y-70792696D01*
X66767304Y-71113198D01*
X67019120Y-71490068D01*
X67192574Y-71908823D01*
X67281000Y-72353371D01*
X67281000Y-72806629D01*
X67192574Y-73251177D01*
X67019120Y-73669932D01*
X66767304Y-74046802D01*
X66446802Y-74367304D01*
X66069932Y-74619120D01*
X65651177Y-74792574D01*
X65428903Y-74836787D01*
X65206630Y-74881000D01*
X64753370Y-74881000D01*
X64531097Y-74836787D01*
X64308823Y-74792574D01*
X63890068Y-74619120D01*
X63513198Y-74367304D01*
X63192696Y-74046802D01*
X62940880Y-73669932D01*
X62767426Y-73251177D01*
X62679000Y-72806629D01*
X62679000Y-72353371D01*
X62767426Y-71908823D01*
X62940880Y-71490068D01*
X63192696Y-71113198D01*
X63513198Y-70792696D01*
X63890068Y-70540880D01*
X64308823Y-70367426D01*
X64531097Y-70323213D01*
X64753370Y-70279000D01*
X65206630Y-70279000D01*
X65428903Y-70323213D01*
X65428903Y-70323213D01*
G37*
G36*
X255428903Y-51323213D02*
G01*
X255651177Y-51367426D01*
X256069932Y-51540880D01*
X256446802Y-51792696D01*
X256767304Y-52113198D01*
X257019120Y-52490068D01*
X257192574Y-52908823D01*
X257281000Y-53353371D01*
X257281000Y-53806629D01*
X257192574Y-54251177D01*
X257019120Y-54669932D01*
X256767304Y-55046802D01*
X256446802Y-55367304D01*
X256069932Y-55619120D01*
X255651177Y-55792574D01*
X255428903Y-55836787D01*
X255206630Y-55881000D01*
X254753370Y-55881000D01*
X254531097Y-55836787D01*
X254308823Y-55792574D01*
X253890068Y-55619120D01*
X253513198Y-55367304D01*
X253192696Y-55046802D01*
X252940880Y-54669932D01*
X252767426Y-54251177D01*
X252679000Y-53806629D01*
X252679000Y-53353371D01*
X252767426Y-52908823D01*
X252940880Y-52490068D01*
X253192696Y-52113198D01*
X253513198Y-51792696D01*
X253890068Y-51540880D01*
X254308823Y-51367426D01*
X254531097Y-51323213D01*
X254753370Y-51279000D01*
X255206630Y-51279000D01*
X255428903Y-51323213D01*
X255428903Y-51323213D01*
G37*
G36*
X217428903Y-51323213D02*
G01*
X217651177Y-51367426D01*
X218069932Y-51540880D01*
X218446802Y-51792696D01*
X218767304Y-52113198D01*
X219019120Y-52490068D01*
X219192574Y-52908823D01*
X219281000Y-53353371D01*
X219281000Y-53806629D01*
X219192574Y-54251177D01*
X219019120Y-54669932D01*
X218767304Y-55046802D01*
X218446802Y-55367304D01*
X218069932Y-55619120D01*
X217651177Y-55792574D01*
X217428903Y-55836787D01*
X217206630Y-55881000D01*
X216753370Y-55881000D01*
X216531097Y-55836787D01*
X216308823Y-55792574D01*
X215890068Y-55619120D01*
X215513198Y-55367304D01*
X215192696Y-55046802D01*
X214940880Y-54669932D01*
X214767426Y-54251177D01*
X214679000Y-53806629D01*
X214679000Y-53353371D01*
X214767426Y-52908823D01*
X214940880Y-52490068D01*
X215192696Y-52113198D01*
X215513198Y-51792696D01*
X215890068Y-51540880D01*
X216308823Y-51367426D01*
X216531097Y-51323213D01*
X216753370Y-51279000D01*
X217206630Y-51279000D01*
X217428903Y-51323213D01*
X217428903Y-51323213D01*
G37*
G36*
X198428903Y-51323213D02*
G01*
X198651177Y-51367426D01*
X199069932Y-51540880D01*
X199446802Y-51792696D01*
X199767304Y-52113198D01*
X200019120Y-52490068D01*
X200192574Y-52908823D01*
X200281000Y-53353371D01*
X200281000Y-53806629D01*
X200192574Y-54251177D01*
X200019120Y-54669932D01*
X199767304Y-55046802D01*
X199446802Y-55367304D01*
X199069932Y-55619120D01*
X198651177Y-55792574D01*
X198428903Y-55836787D01*
X198206630Y-55881000D01*
X197753370Y-55881000D01*
X197531097Y-55836787D01*
X197308823Y-55792574D01*
X196890068Y-55619120D01*
X196513198Y-55367304D01*
X196192696Y-55046802D01*
X195940880Y-54669932D01*
X195767426Y-54251177D01*
X195679000Y-53806629D01*
X195679000Y-53353371D01*
X195767426Y-52908823D01*
X195940880Y-52490068D01*
X196192696Y-52113198D01*
X196513198Y-51792696D01*
X196890068Y-51540880D01*
X197308823Y-51367426D01*
X197531097Y-51323213D01*
X197753370Y-51279000D01*
X198206630Y-51279000D01*
X198428903Y-51323213D01*
X198428903Y-51323213D01*
G37*
G36*
X122428903Y-51323213D02*
G01*
X122651177Y-51367426D01*
X123069932Y-51540880D01*
X123446802Y-51792696D01*
X123767304Y-52113198D01*
X124019120Y-52490068D01*
X124192574Y-52908823D01*
X124281000Y-53353371D01*
X124281000Y-53806629D01*
X124192574Y-54251177D01*
X124019120Y-54669932D01*
X123767304Y-55046802D01*
X123446802Y-55367304D01*
X123069932Y-55619120D01*
X122651177Y-55792574D01*
X122428903Y-55836787D01*
X122206630Y-55881000D01*
X121753370Y-55881000D01*
X121531097Y-55836787D01*
X121308823Y-55792574D01*
X120890068Y-55619120D01*
X120513198Y-55367304D01*
X120192696Y-55046802D01*
X119940880Y-54669932D01*
X119767426Y-54251177D01*
X119679000Y-53806629D01*
X119679000Y-53353371D01*
X119767426Y-52908823D01*
X119940880Y-52490068D01*
X120192696Y-52113198D01*
X120513198Y-51792696D01*
X120890068Y-51540880D01*
X121308823Y-51367426D01*
X121531097Y-51323213D01*
X121753370Y-51279000D01*
X122206630Y-51279000D01*
X122428903Y-51323213D01*
X122428903Y-51323213D01*
G37*
G36*
X103428903Y-51323213D02*
G01*
X103651177Y-51367426D01*
X104069932Y-51540880D01*
X104446802Y-51792696D01*
X104767304Y-52113198D01*
X105019120Y-52490068D01*
X105192574Y-52908823D01*
X105281000Y-53353371D01*
X105281000Y-53806629D01*
X105192574Y-54251177D01*
X105019120Y-54669932D01*
X104767304Y-55046802D01*
X104446802Y-55367304D01*
X104069932Y-55619120D01*
X103651177Y-55792574D01*
X103428903Y-55836787D01*
X103206630Y-55881000D01*
X102753370Y-55881000D01*
X102531097Y-55836787D01*
X102308823Y-55792574D01*
X101890068Y-55619120D01*
X101513198Y-55367304D01*
X101192696Y-55046802D01*
X100940880Y-54669932D01*
X100767426Y-54251177D01*
X100679000Y-53806629D01*
X100679000Y-53353371D01*
X100767426Y-52908823D01*
X100940880Y-52490068D01*
X101192696Y-52113198D01*
X101513198Y-51792696D01*
X101890068Y-51540880D01*
X102308823Y-51367426D01*
X102531097Y-51323213D01*
X102753370Y-51279000D01*
X103206630Y-51279000D01*
X103428903Y-51323213D01*
X103428903Y-51323213D01*
G37*
G36*
X65428903Y-51323213D02*
G01*
X65651177Y-51367426D01*
X66069932Y-51540880D01*
X66446802Y-51792696D01*
X66767304Y-52113198D01*
X67019120Y-52490068D01*
X67192574Y-52908823D01*
X67281000Y-53353371D01*
X67281000Y-53806629D01*
X67192574Y-54251177D01*
X67019120Y-54669932D01*
X66767304Y-55046802D01*
X66446802Y-55367304D01*
X66069932Y-55619120D01*
X65651177Y-55792574D01*
X65428903Y-55836787D01*
X65206630Y-55881000D01*
X64753370Y-55881000D01*
X64531097Y-55836787D01*
X64308823Y-55792574D01*
X63890068Y-55619120D01*
X63513198Y-55367304D01*
X63192696Y-55046802D01*
X62940880Y-54669932D01*
X62767426Y-54251177D01*
X62679000Y-53806629D01*
X62679000Y-53353371D01*
X62767426Y-52908823D01*
X62940880Y-52490068D01*
X63192696Y-52113198D01*
X63513198Y-51792696D01*
X63890068Y-51540880D01*
X64308823Y-51367426D01*
X64531097Y-51323213D01*
X64753370Y-51279000D01*
X65206630Y-51279000D01*
X65428903Y-51323213D01*
X65428903Y-51323213D01*
G37*
M02*
