G04 #@! TF.GenerationSoftware,KiCad,Pcbnew,(5.1.2-1)-1*
G04 #@! TF.CreationDate,2020-05-31T10:48:01-05:00*
G04 #@! TF.ProjectId,therick48_top_plate,74686572-6963-46b3-9438-5f746f705f70,rev?*
G04 #@! TF.SameCoordinates,Original*
G04 #@! TF.FileFunction,Legend,Bot*
G04 #@! TF.FilePolarity,Positive*
%FSLAX46Y46*%
G04 Gerber Fmt 4.6, Leading zero omitted, Abs format (unit mm)*
G04 Created by KiCad (PCBNEW (5.1.2-1)-1) date 2020-05-31 10:48:01*
%MOMM*%
%LPD*%
G04 APERTURE LIST*
%ADD10C,0.200000*%
%ADD11C,0.150000*%
G04 APERTURE END LIST*
D10*
X248260000Y-91258571D02*
X247688571Y-91258571D01*
X248045714Y-90758571D02*
X248045714Y-92044285D01*
X247974285Y-92187142D01*
X247831428Y-92258571D01*
X247688571Y-92258571D01*
X247188571Y-92258571D02*
X247188571Y-90758571D01*
X246545714Y-92258571D02*
X246545714Y-91472857D01*
X246617142Y-91330000D01*
X246760000Y-91258571D01*
X246974285Y-91258571D01*
X247117142Y-91330000D01*
X247188571Y-91401428D01*
X245260000Y-92187142D02*
X245402857Y-92258571D01*
X245688571Y-92258571D01*
X245831428Y-92187142D01*
X245902857Y-92044285D01*
X245902857Y-91472857D01*
X245831428Y-91330000D01*
X245688571Y-91258571D01*
X245402857Y-91258571D01*
X245260000Y-91330000D01*
X245188571Y-91472857D01*
X245188571Y-91615714D01*
X245902857Y-91758571D01*
X244545714Y-92258571D02*
X244545714Y-91258571D01*
X244545714Y-91544285D02*
X244474285Y-91401428D01*
X244402857Y-91330000D01*
X244260000Y-91258571D01*
X244117142Y-91258571D01*
X243617142Y-92258571D02*
X243617142Y-91258571D01*
X243617142Y-90758571D02*
X243688571Y-90830000D01*
X243617142Y-90901428D01*
X243545714Y-90830000D01*
X243617142Y-90758571D01*
X243617142Y-90901428D01*
X242260000Y-92187142D02*
X242402857Y-92258571D01*
X242688571Y-92258571D01*
X242831428Y-92187142D01*
X242902857Y-92115714D01*
X242974285Y-91972857D01*
X242974285Y-91544285D01*
X242902857Y-91401428D01*
X242831428Y-91330000D01*
X242688571Y-91258571D01*
X242402857Y-91258571D01*
X242260000Y-91330000D01*
X241617142Y-92258571D02*
X241617142Y-90758571D01*
X241474285Y-91687142D02*
X241045714Y-92258571D01*
X241045714Y-91258571D02*
X241617142Y-91830000D01*
X239760000Y-91258571D02*
X239760000Y-92258571D01*
X240117142Y-90687142D02*
X240474285Y-91758571D01*
X239545714Y-91758571D01*
X238760000Y-91401428D02*
X238902857Y-91330000D01*
X238974285Y-91258571D01*
X239045714Y-91115714D01*
X239045714Y-91044285D01*
X238974285Y-90901428D01*
X238902857Y-90830000D01*
X238760000Y-90758571D01*
X238474285Y-90758571D01*
X238331428Y-90830000D01*
X238260000Y-90901428D01*
X238188571Y-91044285D01*
X238188571Y-91115714D01*
X238260000Y-91258571D01*
X238331428Y-91330000D01*
X238474285Y-91401428D01*
X238760000Y-91401428D01*
X238902857Y-91472857D01*
X238974285Y-91544285D01*
X239045714Y-91687142D01*
X239045714Y-91972857D01*
X238974285Y-92115714D01*
X238902857Y-92187142D01*
X238760000Y-92258571D01*
X238474285Y-92258571D01*
X238331428Y-92187142D01*
X238260000Y-92115714D01*
X238188571Y-91972857D01*
X238188571Y-91687142D01*
X238260000Y-91544285D01*
X238331428Y-91472857D01*
X238474285Y-91401428D01*
X235545714Y-92258571D02*
X236045714Y-91544285D01*
X236402857Y-92258571D02*
X236402857Y-90758571D01*
X235831428Y-90758571D01*
X235688571Y-90830000D01*
X235617142Y-90901428D01*
X235545714Y-91044285D01*
X235545714Y-91258571D01*
X235617142Y-91401428D01*
X235688571Y-91472857D01*
X235831428Y-91544285D01*
X236402857Y-91544285D01*
X234331428Y-92187142D02*
X234474285Y-92258571D01*
X234760000Y-92258571D01*
X234902857Y-92187142D01*
X234974285Y-92044285D01*
X234974285Y-91472857D01*
X234902857Y-91330000D01*
X234760000Y-91258571D01*
X234474285Y-91258571D01*
X234331428Y-91330000D01*
X234260000Y-91472857D01*
X234260000Y-91615714D01*
X234974285Y-91758571D01*
X233760000Y-91258571D02*
X233402857Y-92258571D01*
X233045714Y-91258571D01*
X230545714Y-92258571D02*
X231402857Y-92258571D01*
X230974285Y-92258571D02*
X230974285Y-90758571D01*
X231117142Y-90972857D01*
X231260000Y-91115714D01*
X231402857Y-91187142D01*
X229902857Y-92115714D02*
X229831428Y-92187142D01*
X229902857Y-92258571D01*
X229974285Y-92187142D01*
X229902857Y-92115714D01*
X229902857Y-92258571D01*
X228402857Y-92258571D02*
X229260000Y-92258571D01*
X228831428Y-92258571D02*
X228831428Y-90758571D01*
X228974285Y-90972857D01*
X229117142Y-91115714D01*
X229260000Y-91187142D01*
D11*
X88598826Y-91032139D02*
X88598826Y-91746425D01*
X88646445Y-91889282D01*
X88741683Y-91984520D01*
X88884540Y-92032139D01*
X88979779Y-92032139D01*
X87646445Y-92032139D02*
X88122636Y-92032139D01*
X88122636Y-91032139D01*
X86741683Y-91936901D02*
X86789302Y-91984520D01*
X86932159Y-92032139D01*
X87027398Y-92032139D01*
X87170255Y-91984520D01*
X87265493Y-91889282D01*
X87313112Y-91794044D01*
X87360731Y-91603568D01*
X87360731Y-91460711D01*
X87313112Y-91270235D01*
X87265493Y-91174997D01*
X87170255Y-91079759D01*
X87027398Y-91032139D01*
X86932159Y-91032139D01*
X86789302Y-91079759D01*
X86741683Y-91127378D01*
X86027398Y-91032139D02*
X86027398Y-91746425D01*
X86075017Y-91889282D01*
X86170255Y-91984520D01*
X86313112Y-92032139D01*
X86408350Y-92032139D01*
X85075017Y-92032139D02*
X85551207Y-92032139D01*
X85551207Y-91032139D01*
X84170255Y-91936901D02*
X84217874Y-91984520D01*
X84360731Y-92032139D01*
X84455969Y-92032139D01*
X84598826Y-91984520D01*
X84694064Y-91889282D01*
X84741683Y-91794044D01*
X84789302Y-91603568D01*
X84789302Y-91460711D01*
X84741683Y-91270235D01*
X84694064Y-91174997D01*
X84598826Y-91079759D01*
X84455969Y-91032139D01*
X84360731Y-91032139D01*
X84217874Y-91079759D01*
X84170255Y-91127378D01*
X83455969Y-91032139D02*
X83455969Y-91746425D01*
X83503588Y-91889282D01*
X83598826Y-91984520D01*
X83741683Y-92032139D01*
X83836921Y-92032139D01*
X82503588Y-92032139D02*
X82979779Y-92032139D01*
X82979779Y-91032139D01*
X81598826Y-91936901D02*
X81646445Y-91984520D01*
X81789302Y-92032139D01*
X81884540Y-92032139D01*
X82027398Y-91984520D01*
X82122636Y-91889282D01*
X82170255Y-91794044D01*
X82217874Y-91603568D01*
X82217874Y-91460711D01*
X82170255Y-91270235D01*
X82122636Y-91174997D01*
X82027398Y-91079759D01*
X81884540Y-91032139D01*
X81789302Y-91032139D01*
X81646445Y-91079759D01*
X81598826Y-91127378D01*
X80884540Y-91032139D02*
X80884540Y-91746425D01*
X80932159Y-91889282D01*
X81027398Y-91984520D01*
X81170255Y-92032139D01*
X81265493Y-92032139D01*
X79932159Y-92032139D02*
X80408350Y-92032139D01*
X80408350Y-91032139D01*
X79027398Y-91936901D02*
X79075017Y-91984520D01*
X79217874Y-92032139D01*
X79313112Y-92032139D01*
X79455969Y-91984520D01*
X79551207Y-91889282D01*
X79598826Y-91794044D01*
X79646445Y-91603568D01*
X79646445Y-91460711D01*
X79598826Y-91270235D01*
X79551207Y-91174997D01*
X79455969Y-91079759D01*
X79313112Y-91032139D01*
X79217874Y-91032139D01*
X79075017Y-91079759D01*
X79027398Y-91127378D01*
M02*
