G04 #@! TF.GenerationSoftware,KiCad,Pcbnew,(5.1.2-1)-1*
G04 #@! TF.CreationDate,2020-02-21T07:14:38-06:00*
G04 #@! TF.ProjectId,therick48_top_plate,74686572-6963-46b3-9438-5f746f705f70,rev?*
G04 #@! TF.SameCoordinates,Original*
G04 #@! TF.FileFunction,Legend,Bot*
G04 #@! TF.FilePolarity,Positive*
%FSLAX46Y46*%
G04 Gerber Fmt 4.6, Leading zero omitted, Abs format (unit mm)*
G04 Created by KiCad (PCBNEW (5.1.2-1)-1) date 2020-02-21 07:14:38*
%MOMM*%
%LPD*%
G04 APERTURE LIST*
%ADD10C,0.200000*%
%ADD11C,0.150000*%
G04 APERTURE END LIST*
D10*
X264980000Y-91258571D02*
X264408571Y-91258571D01*
X264765714Y-90758571D02*
X264765714Y-92044285D01*
X264694285Y-92187142D01*
X264551428Y-92258571D01*
X264408571Y-92258571D01*
X263908571Y-92258571D02*
X263908571Y-90758571D01*
X263265714Y-92258571D02*
X263265714Y-91472857D01*
X263337142Y-91330000D01*
X263480000Y-91258571D01*
X263694285Y-91258571D01*
X263837142Y-91330000D01*
X263908571Y-91401428D01*
X261980000Y-92187142D02*
X262122857Y-92258571D01*
X262408571Y-92258571D01*
X262551428Y-92187142D01*
X262622857Y-92044285D01*
X262622857Y-91472857D01*
X262551428Y-91330000D01*
X262408571Y-91258571D01*
X262122857Y-91258571D01*
X261980000Y-91330000D01*
X261908571Y-91472857D01*
X261908571Y-91615714D01*
X262622857Y-91758571D01*
X261265714Y-92258571D02*
X261265714Y-91258571D01*
X261265714Y-91544285D02*
X261194285Y-91401428D01*
X261122857Y-91330000D01*
X260980000Y-91258571D01*
X260837142Y-91258571D01*
X260337142Y-92258571D02*
X260337142Y-91258571D01*
X260337142Y-90758571D02*
X260408571Y-90830000D01*
X260337142Y-90901428D01*
X260265714Y-90830000D01*
X260337142Y-90758571D01*
X260337142Y-90901428D01*
X258980000Y-92187142D02*
X259122857Y-92258571D01*
X259408571Y-92258571D01*
X259551428Y-92187142D01*
X259622857Y-92115714D01*
X259694285Y-91972857D01*
X259694285Y-91544285D01*
X259622857Y-91401428D01*
X259551428Y-91330000D01*
X259408571Y-91258571D01*
X259122857Y-91258571D01*
X258980000Y-91330000D01*
X258337142Y-92258571D02*
X258337142Y-90758571D01*
X258194285Y-91687142D02*
X257765714Y-92258571D01*
X257765714Y-91258571D02*
X258337142Y-91830000D01*
X256480000Y-91258571D02*
X256480000Y-92258571D01*
X256837142Y-90687142D02*
X257194285Y-91758571D01*
X256265714Y-91758571D01*
X255480000Y-91401428D02*
X255622857Y-91330000D01*
X255694285Y-91258571D01*
X255765714Y-91115714D01*
X255765714Y-91044285D01*
X255694285Y-90901428D01*
X255622857Y-90830000D01*
X255480000Y-90758571D01*
X255194285Y-90758571D01*
X255051428Y-90830000D01*
X254980000Y-90901428D01*
X254908571Y-91044285D01*
X254908571Y-91115714D01*
X254980000Y-91258571D01*
X255051428Y-91330000D01*
X255194285Y-91401428D01*
X255480000Y-91401428D01*
X255622857Y-91472857D01*
X255694285Y-91544285D01*
X255765714Y-91687142D01*
X255765714Y-91972857D01*
X255694285Y-92115714D01*
X255622857Y-92187142D01*
X255480000Y-92258571D01*
X255194285Y-92258571D01*
X255051428Y-92187142D01*
X254980000Y-92115714D01*
X254908571Y-91972857D01*
X254908571Y-91687142D01*
X254980000Y-91544285D01*
X255051428Y-91472857D01*
X255194285Y-91401428D01*
X252265714Y-92258571D02*
X252765714Y-91544285D01*
X253122857Y-92258571D02*
X253122857Y-90758571D01*
X252551428Y-90758571D01*
X252408571Y-90830000D01*
X252337142Y-90901428D01*
X252265714Y-91044285D01*
X252265714Y-91258571D01*
X252337142Y-91401428D01*
X252408571Y-91472857D01*
X252551428Y-91544285D01*
X253122857Y-91544285D01*
X251051428Y-92187142D02*
X251194285Y-92258571D01*
X251480000Y-92258571D01*
X251622857Y-92187142D01*
X251694285Y-92044285D01*
X251694285Y-91472857D01*
X251622857Y-91330000D01*
X251480000Y-91258571D01*
X251194285Y-91258571D01*
X251051428Y-91330000D01*
X250980000Y-91472857D01*
X250980000Y-91615714D01*
X251694285Y-91758571D01*
X250480000Y-91258571D02*
X250122857Y-92258571D01*
X249765714Y-91258571D01*
X247265714Y-92258571D02*
X248122857Y-92258571D01*
X247694285Y-92258571D02*
X247694285Y-90758571D01*
X247837142Y-90972857D01*
X247980000Y-91115714D01*
X248122857Y-91187142D01*
X246622857Y-92115714D02*
X246551428Y-92187142D01*
X246622857Y-92258571D01*
X246694285Y-92187142D01*
X246622857Y-92115714D01*
X246622857Y-92258571D01*
X245622857Y-90758571D02*
X245480000Y-90758571D01*
X245337142Y-90830000D01*
X245265714Y-90901428D01*
X245194285Y-91044285D01*
X245122857Y-91330000D01*
X245122857Y-91687142D01*
X245194285Y-91972857D01*
X245265714Y-92115714D01*
X245337142Y-92187142D01*
X245480000Y-92258571D01*
X245622857Y-92258571D01*
X245765714Y-92187142D01*
X245837142Y-92115714D01*
X245908571Y-91972857D01*
X245980000Y-91687142D01*
X245980000Y-91330000D01*
X245908571Y-91044285D01*
X245837142Y-90901428D01*
X245765714Y-90830000D01*
X245622857Y-90758571D01*
D11*
X69599047Y-91032380D02*
X69599047Y-91746666D01*
X69646666Y-91889523D01*
X69741904Y-91984761D01*
X69884761Y-92032380D01*
X69980000Y-92032380D01*
X68646666Y-92032380D02*
X69122857Y-92032380D01*
X69122857Y-91032380D01*
X67741904Y-91937142D02*
X67789523Y-91984761D01*
X67932380Y-92032380D01*
X68027619Y-92032380D01*
X68170476Y-91984761D01*
X68265714Y-91889523D01*
X68313333Y-91794285D01*
X68360952Y-91603809D01*
X68360952Y-91460952D01*
X68313333Y-91270476D01*
X68265714Y-91175238D01*
X68170476Y-91080000D01*
X68027619Y-91032380D01*
X67932380Y-91032380D01*
X67789523Y-91080000D01*
X67741904Y-91127619D01*
X67027619Y-91032380D02*
X67027619Y-91746666D01*
X67075238Y-91889523D01*
X67170476Y-91984761D01*
X67313333Y-92032380D01*
X67408571Y-92032380D01*
X66075238Y-92032380D02*
X66551428Y-92032380D01*
X66551428Y-91032380D01*
X65170476Y-91937142D02*
X65218095Y-91984761D01*
X65360952Y-92032380D01*
X65456190Y-92032380D01*
X65599047Y-91984761D01*
X65694285Y-91889523D01*
X65741904Y-91794285D01*
X65789523Y-91603809D01*
X65789523Y-91460952D01*
X65741904Y-91270476D01*
X65694285Y-91175238D01*
X65599047Y-91080000D01*
X65456190Y-91032380D01*
X65360952Y-91032380D01*
X65218095Y-91080000D01*
X65170476Y-91127619D01*
X64456190Y-91032380D02*
X64456190Y-91746666D01*
X64503809Y-91889523D01*
X64599047Y-91984761D01*
X64741904Y-92032380D01*
X64837142Y-92032380D01*
X63503809Y-92032380D02*
X63980000Y-92032380D01*
X63980000Y-91032380D01*
X62599047Y-91937142D02*
X62646666Y-91984761D01*
X62789523Y-92032380D01*
X62884761Y-92032380D01*
X63027619Y-91984761D01*
X63122857Y-91889523D01*
X63170476Y-91794285D01*
X63218095Y-91603809D01*
X63218095Y-91460952D01*
X63170476Y-91270476D01*
X63122857Y-91175238D01*
X63027619Y-91080000D01*
X62884761Y-91032380D01*
X62789523Y-91032380D01*
X62646666Y-91080000D01*
X62599047Y-91127619D01*
X61884761Y-91032380D02*
X61884761Y-91746666D01*
X61932380Y-91889523D01*
X62027619Y-91984761D01*
X62170476Y-92032380D01*
X62265714Y-92032380D01*
X60932380Y-92032380D02*
X61408571Y-92032380D01*
X61408571Y-91032380D01*
X60027619Y-91937142D02*
X60075238Y-91984761D01*
X60218095Y-92032380D01*
X60313333Y-92032380D01*
X60456190Y-91984761D01*
X60551428Y-91889523D01*
X60599047Y-91794285D01*
X60646666Y-91603809D01*
X60646666Y-91460952D01*
X60599047Y-91270476D01*
X60551428Y-91175238D01*
X60456190Y-91080000D01*
X60313333Y-91032380D01*
X60218095Y-91032380D01*
X60075238Y-91080000D01*
X60027619Y-91127619D01*
M02*
