G04 #@! TF.GenerationSoftware,KiCad,Pcbnew,(5.1.2-1)-1*
G04 #@! TF.CreationDate,2020-03-03T17:29:12-06:00*
G04 #@! TF.ProjectId,therick48_bottom_plate,74686572-6963-46b3-9438-5f626f74746f,rev?*
G04 #@! TF.SameCoordinates,Original*
G04 #@! TF.FileFunction,Legend,Top*
G04 #@! TF.FilePolarity,Positive*
%FSLAX46Y46*%
G04 Gerber Fmt 4.6, Leading zero omitted, Abs format (unit mm)*
G04 Created by KiCad (PCBNEW (5.1.2-1)-1) date 2020-03-03 17:29:12*
%MOMM*%
%LPD*%
G04 APERTURE LIST*
%ADD10C,0.200000*%
%ADD11C,0.150000*%
G04 APERTURE END LIST*
D10*
X48318443Y-82959808D02*
X48318443Y-82388379D01*
X47818443Y-82745522D02*
X49104157Y-82745522D01*
X49247014Y-82674093D01*
X49318443Y-82531236D01*
X49318443Y-82388379D01*
X49318443Y-81888379D02*
X47818443Y-81888379D01*
X49318443Y-81245522D02*
X48532729Y-81245522D01*
X48389872Y-81316950D01*
X48318443Y-81459808D01*
X48318443Y-81674093D01*
X48389872Y-81816950D01*
X48461300Y-81888379D01*
X49247014Y-79959808D02*
X49318443Y-80102665D01*
X49318443Y-80388379D01*
X49247014Y-80531236D01*
X49104157Y-80602665D01*
X48532729Y-80602665D01*
X48389872Y-80531236D01*
X48318443Y-80388379D01*
X48318443Y-80102665D01*
X48389872Y-79959808D01*
X48532729Y-79888379D01*
X48675586Y-79888379D01*
X48818443Y-80602665D01*
X49318443Y-79245522D02*
X48318443Y-79245522D01*
X48604157Y-79245522D02*
X48461300Y-79174093D01*
X48389872Y-79102665D01*
X48318443Y-78959808D01*
X48318443Y-78816950D01*
X49318443Y-78316950D02*
X48318443Y-78316950D01*
X47818443Y-78316950D02*
X47889872Y-78388379D01*
X47961300Y-78316950D01*
X47889872Y-78245522D01*
X47818443Y-78316950D01*
X47961300Y-78316950D01*
X49247014Y-76959808D02*
X49318443Y-77102665D01*
X49318443Y-77388379D01*
X49247014Y-77531236D01*
X49175586Y-77602665D01*
X49032729Y-77674093D01*
X48604157Y-77674093D01*
X48461300Y-77602665D01*
X48389872Y-77531236D01*
X48318443Y-77388379D01*
X48318443Y-77102665D01*
X48389872Y-76959808D01*
X49318443Y-76316950D02*
X47818443Y-76316950D01*
X48747014Y-76174093D02*
X49318443Y-75745522D01*
X48318443Y-75745522D02*
X48889872Y-76316950D01*
X48318443Y-74459808D02*
X49318443Y-74459808D01*
X47747014Y-74816950D02*
X48818443Y-75174093D01*
X48818443Y-74245522D01*
X48461300Y-73459808D02*
X48389872Y-73602665D01*
X48318443Y-73674093D01*
X48175586Y-73745522D01*
X48104157Y-73745522D01*
X47961300Y-73674093D01*
X47889872Y-73602665D01*
X47818443Y-73459808D01*
X47818443Y-73174093D01*
X47889872Y-73031236D01*
X47961300Y-72959808D01*
X48104157Y-72888379D01*
X48175586Y-72888379D01*
X48318443Y-72959808D01*
X48389872Y-73031236D01*
X48461300Y-73174093D01*
X48461300Y-73459808D01*
X48532729Y-73602665D01*
X48604157Y-73674093D01*
X48747014Y-73745522D01*
X49032729Y-73745522D01*
X49175586Y-73674093D01*
X49247014Y-73602665D01*
X49318443Y-73459808D01*
X49318443Y-73174093D01*
X49247014Y-73031236D01*
X49175586Y-72959808D01*
X49032729Y-72888379D01*
X48747014Y-72888379D01*
X48604157Y-72959808D01*
X48532729Y-73031236D01*
X48461300Y-73174093D01*
X49318443Y-70245522D02*
X48604157Y-70745522D01*
X49318443Y-71102665D02*
X47818443Y-71102665D01*
X47818443Y-70531236D01*
X47889872Y-70388379D01*
X47961300Y-70316950D01*
X48104157Y-70245522D01*
X48318443Y-70245522D01*
X48461300Y-70316950D01*
X48532729Y-70388379D01*
X48604157Y-70531236D01*
X48604157Y-71102665D01*
X49247014Y-69031236D02*
X49318443Y-69174093D01*
X49318443Y-69459808D01*
X49247014Y-69602665D01*
X49104157Y-69674093D01*
X48532729Y-69674093D01*
X48389872Y-69602665D01*
X48318443Y-69459808D01*
X48318443Y-69174093D01*
X48389872Y-69031236D01*
X48532729Y-68959808D01*
X48675586Y-68959808D01*
X48818443Y-69674093D01*
X48318443Y-68459808D02*
X49318443Y-68102665D01*
X48318443Y-67745522D01*
X49318443Y-65245522D02*
X49318443Y-66102665D01*
X49318443Y-65674093D02*
X47818443Y-65674093D01*
X48032729Y-65816950D01*
X48175586Y-65959808D01*
X48247014Y-66102665D01*
X49175586Y-64602665D02*
X49247014Y-64531236D01*
X49318443Y-64602665D01*
X49247014Y-64674093D01*
X49175586Y-64602665D01*
X49318443Y-64602665D01*
X47818443Y-63602665D02*
X47818443Y-63459808D01*
X47889872Y-63316950D01*
X47961300Y-63245522D01*
X48104157Y-63174093D01*
X48389872Y-63102665D01*
X48747014Y-63102665D01*
X49032729Y-63174093D01*
X49175586Y-63245522D01*
X49247014Y-63316950D01*
X49318443Y-63459808D01*
X49318443Y-63602665D01*
X49247014Y-63745522D01*
X49175586Y-63816950D01*
X49032729Y-63888379D01*
X48747014Y-63959808D01*
X48389872Y-63959808D01*
X48104157Y-63888379D01*
X47961300Y-63816950D01*
X47889872Y-63745522D01*
X47818443Y-63602665D01*
D11*
X48092380Y-105778690D02*
X48806666Y-105778690D01*
X48949523Y-105826309D01*
X49044761Y-105921547D01*
X49092380Y-106064404D01*
X49092380Y-106159642D01*
X49092380Y-104826309D02*
X49092380Y-105302500D01*
X48092380Y-105302500D01*
X48997142Y-103921547D02*
X49044761Y-103969166D01*
X49092380Y-104112023D01*
X49092380Y-104207261D01*
X49044761Y-104350119D01*
X48949523Y-104445357D01*
X48854285Y-104492976D01*
X48663809Y-104540595D01*
X48520952Y-104540595D01*
X48330476Y-104492976D01*
X48235238Y-104445357D01*
X48140000Y-104350119D01*
X48092380Y-104207261D01*
X48092380Y-104112023D01*
X48140000Y-103969166D01*
X48187619Y-103921547D01*
X48092380Y-103207261D02*
X48806666Y-103207261D01*
X48949523Y-103254880D01*
X49044761Y-103350119D01*
X49092380Y-103492976D01*
X49092380Y-103588214D01*
X49092380Y-102254880D02*
X49092380Y-102731071D01*
X48092380Y-102731071D01*
X48997142Y-101350119D02*
X49044761Y-101397738D01*
X49092380Y-101540595D01*
X49092380Y-101635833D01*
X49044761Y-101778690D01*
X48949523Y-101873928D01*
X48854285Y-101921547D01*
X48663809Y-101969166D01*
X48520952Y-101969166D01*
X48330476Y-101921547D01*
X48235238Y-101873928D01*
X48140000Y-101778690D01*
X48092380Y-101635833D01*
X48092380Y-101540595D01*
X48140000Y-101397738D01*
X48187619Y-101350119D01*
X48092380Y-100635833D02*
X48806666Y-100635833D01*
X48949523Y-100683452D01*
X49044761Y-100778690D01*
X49092380Y-100921547D01*
X49092380Y-101016785D01*
X49092380Y-99683452D02*
X49092380Y-100159642D01*
X48092380Y-100159642D01*
X48997142Y-98778690D02*
X49044761Y-98826309D01*
X49092380Y-98969166D01*
X49092380Y-99064404D01*
X49044761Y-99207261D01*
X48949523Y-99302500D01*
X48854285Y-99350119D01*
X48663809Y-99397738D01*
X48520952Y-99397738D01*
X48330476Y-99350119D01*
X48235238Y-99302500D01*
X48140000Y-99207261D01*
X48092380Y-99064404D01*
X48092380Y-98969166D01*
X48140000Y-98826309D01*
X48187619Y-98778690D01*
X48092380Y-98064404D02*
X48806666Y-98064404D01*
X48949523Y-98112023D01*
X49044761Y-98207261D01*
X49092380Y-98350119D01*
X49092380Y-98445357D01*
X49092380Y-97112023D02*
X49092380Y-97588214D01*
X48092380Y-97588214D01*
X48997142Y-96207261D02*
X49044761Y-96254880D01*
X49092380Y-96397738D01*
X49092380Y-96492976D01*
X49044761Y-96635833D01*
X48949523Y-96731071D01*
X48854285Y-96778690D01*
X48663809Y-96826309D01*
X48520952Y-96826309D01*
X48330476Y-96778690D01*
X48235238Y-96731071D01*
X48140000Y-96635833D01*
X48092380Y-96492976D01*
X48092380Y-96397738D01*
X48140000Y-96254880D01*
X48187619Y-96207261D01*
M02*
