G04 #@! TF.GenerationSoftware,KiCad,Pcbnew,(5.1.2-1)-1*
G04 #@! TF.CreationDate,2020-02-21T07:18:32-06:00*
G04 #@! TF.ProjectId,therick48_bottom_plate,74686572-6963-46b3-9438-5f626f74746f,rev?*
G04 #@! TF.SameCoordinates,Original*
G04 #@! TF.FileFunction,Legend,Bot*
G04 #@! TF.FilePolarity,Positive*
%FSLAX46Y46*%
G04 Gerber Fmt 4.6, Leading zero omitted, Abs format (unit mm)*
G04 Created by KiCad (PCBNEW (5.1.2-1)-1) date 2020-02-21 07:18:32*
%MOMM*%
%LPD*%
G04 APERTURE LIST*
%ADD10C,0.010000*%
G04 APERTURE END LIST*
D10*
G36*
X230590902Y-59767999D02*
G01*
X230312778Y-60040957D01*
X230426787Y-60331200D01*
X230476739Y-60451213D01*
X230531360Y-60542017D01*
X230609011Y-60610158D01*
X230728048Y-60662180D01*
X230906831Y-60704631D01*
X231163717Y-60744054D01*
X231517065Y-60786997D01*
X231792899Y-60818289D01*
X232490353Y-60916504D01*
X233217939Y-61054476D01*
X233950465Y-61225133D01*
X234662737Y-61421404D01*
X235329562Y-61636217D01*
X235925749Y-61862500D01*
X236426104Y-62093183D01*
X236526750Y-62147097D01*
X237203908Y-62480250D01*
X237997630Y-62796028D01*
X238898275Y-63091225D01*
X239896198Y-63362636D01*
X240813000Y-63572088D01*
X241184550Y-63644150D01*
X241574258Y-63706525D01*
X242001074Y-63761192D01*
X242483949Y-63810131D01*
X243041831Y-63855320D01*
X243693671Y-63898737D01*
X244250141Y-63931026D01*
X244956782Y-63970076D01*
X245182799Y-63771631D01*
X245408816Y-63573185D01*
X245276501Y-63348929D01*
X245215096Y-63250169D01*
X245150937Y-63174301D01*
X245063436Y-63111828D01*
X244932008Y-63053252D01*
X244736064Y-62989077D01*
X244455018Y-62909806D01*
X244142357Y-62825738D01*
X243665137Y-62715588D01*
X243104647Y-62619264D01*
X242442624Y-62533800D01*
X242157155Y-62503198D01*
X241676792Y-62451503D01*
X241290924Y-62402362D01*
X240967331Y-62349852D01*
X240673790Y-62288052D01*
X240378080Y-62211042D01*
X240069588Y-62119566D01*
X239695451Y-61997460D01*
X239300895Y-61857269D01*
X238934610Y-61716900D01*
X238661933Y-61601856D01*
X238471147Y-61520412D01*
X238178186Y-61401950D01*
X237800149Y-61253082D01*
X237354131Y-61080421D01*
X236857230Y-60890579D01*
X236326543Y-60690167D01*
X235779166Y-60485797D01*
X235705058Y-60458315D01*
X233327616Y-59577382D01*
X232098321Y-59536212D01*
X230869025Y-59495042D01*
X230590902Y-59767999D01*
X230590902Y-59767999D01*
G37*
X230590902Y-59767999D02*
X230312778Y-60040957D01*
X230426787Y-60331200D01*
X230476739Y-60451213D01*
X230531360Y-60542017D01*
X230609011Y-60610158D01*
X230728048Y-60662180D01*
X230906831Y-60704631D01*
X231163717Y-60744054D01*
X231517065Y-60786997D01*
X231792899Y-60818289D01*
X232490353Y-60916504D01*
X233217939Y-61054476D01*
X233950465Y-61225133D01*
X234662737Y-61421404D01*
X235329562Y-61636217D01*
X235925749Y-61862500D01*
X236426104Y-62093183D01*
X236526750Y-62147097D01*
X237203908Y-62480250D01*
X237997630Y-62796028D01*
X238898275Y-63091225D01*
X239896198Y-63362636D01*
X240813000Y-63572088D01*
X241184550Y-63644150D01*
X241574258Y-63706525D01*
X242001074Y-63761192D01*
X242483949Y-63810131D01*
X243041831Y-63855320D01*
X243693671Y-63898737D01*
X244250141Y-63931026D01*
X244956782Y-63970076D01*
X245182799Y-63771631D01*
X245408816Y-63573185D01*
X245276501Y-63348929D01*
X245215096Y-63250169D01*
X245150937Y-63174301D01*
X245063436Y-63111828D01*
X244932008Y-63053252D01*
X244736064Y-62989077D01*
X244455018Y-62909806D01*
X244142357Y-62825738D01*
X243665137Y-62715588D01*
X243104647Y-62619264D01*
X242442624Y-62533800D01*
X242157155Y-62503198D01*
X241676792Y-62451503D01*
X241290924Y-62402362D01*
X240967331Y-62349852D01*
X240673790Y-62288052D01*
X240378080Y-62211042D01*
X240069588Y-62119566D01*
X239695451Y-61997460D01*
X239300895Y-61857269D01*
X238934610Y-61716900D01*
X238661933Y-61601856D01*
X238471147Y-61520412D01*
X238178186Y-61401950D01*
X237800149Y-61253082D01*
X237354131Y-61080421D01*
X236857230Y-60890579D01*
X236326543Y-60690167D01*
X235779166Y-60485797D01*
X235705058Y-60458315D01*
X233327616Y-59577382D01*
X232098321Y-59536212D01*
X230869025Y-59495042D01*
X230590902Y-59767999D01*
G36*
X236562403Y-42319071D02*
G01*
X236526750Y-42340967D01*
X236512217Y-42407509D01*
X236470495Y-42585700D01*
X236404407Y-42863784D01*
X236316774Y-43230008D01*
X236210416Y-43672617D01*
X236088154Y-44179855D01*
X235952809Y-44739967D01*
X235807202Y-45341200D01*
X235765897Y-45511522D01*
X235005043Y-48647983D01*
X233908522Y-51160383D01*
X233641668Y-51767344D01*
X233401580Y-52304449D01*
X233191888Y-52763983D01*
X233016221Y-53138228D01*
X232878209Y-53419468D01*
X232781483Y-53599989D01*
X232729672Y-53672074D01*
X232726415Y-53673078D01*
X232657708Y-53645112D01*
X232484361Y-53563967D01*
X232214997Y-53433921D01*
X231858237Y-53259248D01*
X231422704Y-53044224D01*
X230917020Y-52793124D01*
X230349806Y-52510223D01*
X229729685Y-52199796D01*
X229065279Y-51866119D01*
X228365210Y-51513468D01*
X228040563Y-51349582D01*
X227201346Y-50926002D01*
X226468426Y-50556936D01*
X225834994Y-50239139D01*
X225294240Y-49969369D01*
X224839355Y-49744381D01*
X224463529Y-49560930D01*
X224159954Y-49415774D01*
X223921820Y-49305667D01*
X223742318Y-49227367D01*
X223614639Y-49177628D01*
X223531973Y-49153207D01*
X223487510Y-49150860D01*
X223474443Y-49167343D01*
X223475439Y-49174707D01*
X223521777Y-49375365D01*
X223589659Y-49675388D01*
X223676674Y-50063775D01*
X223780412Y-50529523D01*
X223898461Y-51061630D01*
X224028410Y-51649094D01*
X224167847Y-52280913D01*
X224314361Y-52946085D01*
X224465541Y-53633607D01*
X224618975Y-54332478D01*
X224772253Y-55031696D01*
X224922964Y-55720258D01*
X225068695Y-56387163D01*
X225207035Y-57021408D01*
X225335575Y-57611991D01*
X225451901Y-58147910D01*
X225553603Y-58618163D01*
X225638270Y-59011748D01*
X225703490Y-59317662D01*
X225746852Y-59524904D01*
X225765945Y-59622472D01*
X225766574Y-59628717D01*
X225701916Y-59642416D01*
X225523876Y-59674248D01*
X225244468Y-59722206D01*
X224875703Y-59784283D01*
X224429593Y-59858473D01*
X223918150Y-59942770D01*
X223353387Y-60035166D01*
X222747315Y-60133655D01*
X222633569Y-60152069D01*
X219520220Y-60655764D01*
X218244485Y-61211343D01*
X217872830Y-61374645D01*
X217543826Y-61521975D01*
X217274173Y-61645626D01*
X217080568Y-61737892D01*
X216979712Y-61791064D01*
X216969017Y-61800024D01*
X217026225Y-61829599D01*
X217188505Y-61898359D01*
X217442041Y-62000831D01*
X217773014Y-62131541D01*
X218167607Y-62285018D01*
X218612003Y-62455789D01*
X218942093Y-62581467D01*
X220914902Y-63329810D01*
X222212076Y-64444389D01*
X222554858Y-64740467D01*
X222863662Y-65010164D01*
X223125995Y-65242328D01*
X223329364Y-65425807D01*
X223461274Y-65549448D01*
X223509233Y-65602100D01*
X223509250Y-65602338D01*
X223455161Y-65642126D01*
X223302211Y-65732770D01*
X223064377Y-65866849D01*
X222755636Y-66036939D01*
X222389966Y-66235616D01*
X221981343Y-66455458D01*
X221543743Y-66689040D01*
X221091145Y-66928941D01*
X220637525Y-67167735D01*
X220196861Y-67398001D01*
X219783128Y-67612315D01*
X219410304Y-67803253D01*
X219092367Y-67963392D01*
X218843292Y-68085309D01*
X218762625Y-68123309D01*
X218503497Y-68247193D01*
X218293308Y-68355217D01*
X218155226Y-68434962D01*
X218111750Y-68472149D01*
X218161836Y-68517613D01*
X218305276Y-68629059D01*
X218531844Y-68798982D01*
X218831316Y-69019879D01*
X219193465Y-69284243D01*
X219608067Y-69584572D01*
X220064896Y-69913360D01*
X220493000Y-70219765D01*
X220978686Y-70567950D01*
X221431074Y-70895064D01*
X221839927Y-71193502D01*
X222195008Y-71455659D01*
X222486081Y-71673933D01*
X222702910Y-71840719D01*
X222835256Y-71948414D01*
X222873710Y-71988196D01*
X222839786Y-72054786D01*
X222743294Y-72215404D01*
X222591783Y-72458191D01*
X222392802Y-72771284D01*
X222153902Y-73142825D01*
X221882630Y-73560951D01*
X221586538Y-74013803D01*
X221516541Y-74120375D01*
X221217012Y-74577338D01*
X220941403Y-75000337D01*
X220697102Y-75377844D01*
X220491494Y-75698329D01*
X220331967Y-75950265D01*
X220225907Y-76122123D01*
X220180700Y-76202376D01*
X220179741Y-76206743D01*
X220244030Y-76225206D01*
X220418691Y-76268074D01*
X220690121Y-76332195D01*
X221044717Y-76414419D01*
X221468876Y-76511595D01*
X221948996Y-76620573D01*
X222471474Y-76738202D01*
X222558928Y-76757802D01*
X223087090Y-76876537D01*
X223575197Y-76987113D01*
X224009628Y-77086379D01*
X224376762Y-77171188D01*
X224662977Y-77238387D01*
X224854652Y-77284828D01*
X224938165Y-77307361D01*
X224940584Y-77308541D01*
X224931237Y-77373523D01*
X224892802Y-77543454D01*
X224829646Y-77800770D01*
X224746134Y-78127905D01*
X224646631Y-78507294D01*
X224588750Y-78724125D01*
X224482170Y-79123490D01*
X224388494Y-79479219D01*
X224312205Y-79773902D01*
X224257783Y-79990131D01*
X224229708Y-80110496D01*
X224227059Y-80129487D01*
X224290135Y-80120685D01*
X224450742Y-80087192D01*
X224683207Y-80035123D01*
X224961853Y-79970596D01*
X225261006Y-79899728D01*
X225554992Y-79828636D01*
X225818135Y-79763437D01*
X226024761Y-79710248D01*
X226149196Y-79675186D01*
X226173382Y-79665773D01*
X226172589Y-79595674D01*
X226132646Y-79457910D01*
X226124545Y-79436076D01*
X226092192Y-79316731D01*
X226043533Y-79092388D01*
X225982512Y-78783423D01*
X225913074Y-78410214D01*
X225839163Y-77993136D01*
X225794038Y-77728691D01*
X225699126Y-77143683D01*
X225629002Y-76660271D01*
X225581097Y-76256032D01*
X225552844Y-75908543D01*
X225541675Y-75595381D01*
X225541250Y-75521248D01*
X225541250Y-74817237D01*
X224684000Y-74181571D01*
X224400844Y-73970521D01*
X224157127Y-73786801D01*
X223969569Y-73643180D01*
X223854886Y-73552430D01*
X223826750Y-73526693D01*
X223818473Y-73459923D01*
X223796059Y-73293971D01*
X223763135Y-73055405D01*
X223731288Y-72827425D01*
X223635825Y-72147369D01*
X224212800Y-71418668D01*
X224457579Y-71115078D01*
X224653769Y-70889469D01*
X224827480Y-70717114D01*
X225004823Y-70573285D01*
X225211908Y-70433254D01*
X225332350Y-70358409D01*
X225569486Y-70204381D01*
X225766170Y-70059661D01*
X225895590Y-69944877D01*
X225929894Y-69898738D01*
X225959669Y-69801366D01*
X226012547Y-69599769D01*
X226083682Y-69313611D01*
X226168228Y-68962552D01*
X226261337Y-68566255D01*
X226305836Y-68373625D01*
X226448539Y-67757506D01*
X226588907Y-67160827D01*
X226723799Y-66596235D01*
X226850075Y-66076379D01*
X226964594Y-65613908D01*
X227064216Y-65221471D01*
X227145800Y-64911715D01*
X227206204Y-64697289D01*
X227242289Y-64590842D01*
X227247178Y-64582545D01*
X227309092Y-64601667D01*
X227439679Y-64690899D01*
X227615194Y-64833244D01*
X227693726Y-64902202D01*
X228099693Y-65266438D01*
X228041658Y-65949528D01*
X227983624Y-66632619D01*
X228360845Y-67456942D01*
X228738066Y-68281266D01*
X230081500Y-69528776D01*
X231370744Y-69684425D01*
X232659987Y-69840074D01*
X233734687Y-69392599D01*
X234809386Y-68945125D01*
X235344229Y-68249833D01*
X235675988Y-67792010D01*
X235922025Y-67389474D01*
X236086837Y-67043333D01*
X236182105Y-66810999D01*
X236258653Y-66628193D01*
X236304533Y-66523285D01*
X236311673Y-66509419D01*
X236377122Y-66511096D01*
X236527055Y-66539692D01*
X236655880Y-66570557D01*
X236983016Y-66654399D01*
X236935232Y-67291762D01*
X236913221Y-67581561D01*
X236900385Y-67796309D01*
X236900524Y-67967649D01*
X236917443Y-68127225D01*
X236954942Y-68306680D01*
X237016824Y-68537656D01*
X237106891Y-68851797D01*
X237134034Y-68946259D01*
X237370431Y-69770625D01*
X237866359Y-70313248D01*
X238362286Y-70855871D01*
X239492393Y-71366307D01*
X240622500Y-71876744D01*
X241638500Y-71805023D01*
X242654500Y-71733303D01*
X243321250Y-71274340D01*
X243628882Y-71056049D01*
X243863988Y-70868055D01*
X244062929Y-70675473D01*
X244262068Y-70443423D01*
X244474568Y-70167938D01*
X244706893Y-69848021D01*
X244876852Y-69582419D01*
X245006751Y-69330788D01*
X245118896Y-69052788D01*
X245167139Y-68915312D01*
X245255426Y-68658797D01*
X245328645Y-68451379D01*
X245377265Y-68319761D01*
X245391323Y-68287289D01*
X245454042Y-68297497D01*
X245591206Y-68349826D01*
X245664722Y-68382539D01*
X245838251Y-68486459D01*
X245897054Y-68581672D01*
X245895101Y-68595875D01*
X245860245Y-68745135D01*
X245805841Y-68997227D01*
X245736295Y-69330260D01*
X245656011Y-69722345D01*
X245569396Y-70151592D01*
X245480854Y-70596111D01*
X245394792Y-71034014D01*
X245315615Y-71443410D01*
X245247728Y-71802410D01*
X245225241Y-71924161D01*
X245148932Y-72335894D01*
X245069070Y-72758197D01*
X244993078Y-73152371D01*
X244928379Y-73479715D01*
X244902444Y-73606911D01*
X244776298Y-74215625D01*
X245311012Y-74723625D01*
X245556517Y-74963166D01*
X245729689Y-75153229D01*
X245854772Y-75326808D01*
X245956013Y-75516893D01*
X246042750Y-75719350D01*
X246239773Y-76207075D01*
X246027314Y-76798850D01*
X245814854Y-77390625D01*
X245147202Y-77878306D01*
X244868844Y-78079448D01*
X244662605Y-78218570D01*
X244498951Y-78309786D01*
X244348349Y-78367207D01*
X244181264Y-78404945D01*
X243981641Y-78435241D01*
X243742516Y-78473340D01*
X243555028Y-78512252D01*
X243452468Y-78544818D01*
X243444261Y-78550809D01*
X243407724Y-78626088D01*
X243338886Y-78794723D01*
X243248150Y-79030463D01*
X243161625Y-79263875D01*
X242947555Y-79804560D01*
X242689657Y-80381210D01*
X242403229Y-80964406D01*
X242103571Y-81524728D01*
X241805981Y-82032759D01*
X241525761Y-82459079D01*
X241436487Y-82581078D01*
X241257163Y-82821179D01*
X241112259Y-83021556D01*
X241015661Y-83162530D01*
X240981257Y-83224423D01*
X240981744Y-83225486D01*
X241041472Y-83263559D01*
X241184441Y-83353605D01*
X241386219Y-83480255D01*
X241526206Y-83567957D01*
X242048911Y-83895220D01*
X242154533Y-83532172D01*
X242213061Y-83329679D01*
X242295596Y-83042393D01*
X242391422Y-82707684D01*
X242489825Y-82362920D01*
X242495323Y-82343625D01*
X242607835Y-81971448D01*
X242703589Y-81701735D01*
X242779496Y-81542456D01*
X242822000Y-81500168D01*
X242903438Y-81515318D01*
X243089129Y-81566911D01*
X243363259Y-81650007D01*
X243710012Y-81759670D01*
X244113573Y-81890961D01*
X244558126Y-82038943D01*
X244688367Y-82082890D01*
X245137430Y-82234055D01*
X245545982Y-82370019D01*
X245899010Y-82485911D01*
X246181503Y-82576860D01*
X246378449Y-82637996D01*
X246474835Y-82664446D01*
X246481936Y-82664856D01*
X246483199Y-82599617D01*
X246477964Y-82425436D01*
X246467160Y-82160153D01*
X246451713Y-81821608D01*
X246432552Y-81427642D01*
X246410603Y-80996095D01*
X246386795Y-80544807D01*
X246362056Y-80091620D01*
X246337312Y-79654372D01*
X246313491Y-79250905D01*
X246291522Y-78899059D01*
X246272331Y-78616674D01*
X246269316Y-78575573D01*
X246229904Y-78046021D01*
X248623500Y-78133707D01*
X250052250Y-77801949D01*
X250461745Y-77705404D01*
X250829907Y-77615822D01*
X251138634Y-77537837D01*
X251369821Y-77476079D01*
X251505363Y-77435183D01*
X251532716Y-77423142D01*
X251499627Y-77373576D01*
X251377354Y-77262454D01*
X251180410Y-77101543D01*
X250923306Y-76902612D01*
X250620553Y-76677429D01*
X250548466Y-76624957D01*
X250049457Y-76262905D01*
X249640675Y-75964505D01*
X249309606Y-75718752D01*
X249043739Y-75514642D01*
X248830560Y-75341171D01*
X248657556Y-75187334D01*
X248512214Y-75042126D01*
X248382021Y-74894544D01*
X248254465Y-74733583D01*
X248117032Y-74548238D01*
X247994156Y-74378595D01*
X247801030Y-74105819D01*
X247639954Y-73867548D01*
X247523491Y-73683235D01*
X247464205Y-73572331D01*
X247459669Y-73551087D01*
X247515891Y-73505879D01*
X247668717Y-73399731D01*
X247907456Y-73239654D01*
X248221418Y-73032660D01*
X248599914Y-72785760D01*
X249032254Y-72505965D01*
X249507749Y-72200286D01*
X249957000Y-71913145D01*
X250617925Y-71493567D01*
X251192756Y-71133040D01*
X251701059Y-70820148D01*
X252162397Y-70543477D01*
X252596337Y-70291610D01*
X253022442Y-70053133D01*
X253460276Y-69816631D01*
X253929405Y-69570687D01*
X254286683Y-69386902D01*
X254730755Y-69158902D01*
X255135386Y-68949351D01*
X255487524Y-68765150D01*
X255774118Y-68613200D01*
X255982117Y-68500401D01*
X256098471Y-68433654D01*
X256118747Y-68418204D01*
X256052300Y-68415090D01*
X255875557Y-68416984D01*
X255605101Y-68423426D01*
X255257518Y-68433959D01*
X254849393Y-68448126D01*
X254397311Y-68465470D01*
X254378600Y-68466221D01*
X252659572Y-68535357D01*
X250879661Y-67315920D01*
X250459200Y-67026705D01*
X250074150Y-66759632D01*
X249736587Y-66523246D01*
X249458584Y-66326098D01*
X249252216Y-66176733D01*
X249129558Y-66083701D01*
X249099750Y-66055883D01*
X249143571Y-66004928D01*
X249269675Y-65872791D01*
X249470026Y-65667574D01*
X249736587Y-65397375D01*
X250061322Y-65070295D01*
X250436193Y-64694435D01*
X250853165Y-64277895D01*
X251304200Y-63828775D01*
X251655686Y-63479703D01*
X252995434Y-62150625D01*
X246068722Y-62150625D01*
X246015422Y-64182625D01*
X246002269Y-64714821D01*
X245990819Y-65238271D01*
X245981449Y-65730824D01*
X245974532Y-66170325D01*
X245970444Y-66534624D01*
X245969558Y-66801567D01*
X245970045Y-66865500D01*
X245971030Y-67135640D01*
X245967434Y-67351019D01*
X245959967Y-67485091D01*
X245952592Y-67516375D01*
X245890112Y-67484848D01*
X245752488Y-67402681D01*
X245591586Y-67301674D01*
X245444298Y-67202099D01*
X245332768Y-67105024D01*
X245238256Y-66983970D01*
X245142021Y-66812460D01*
X245025326Y-66564014D01*
X244950308Y-66395560D01*
X244644661Y-65704147D01*
X243776581Y-65406195D01*
X243174167Y-65212597D01*
X242454074Y-65004431D01*
X241624529Y-64783745D01*
X240693760Y-64552587D01*
X239669997Y-64313006D01*
X238561466Y-64067051D01*
X237473523Y-63836841D01*
X236841191Y-63704086D01*
X236167807Y-63559448D01*
X235482502Y-63409404D01*
X234814407Y-63260431D01*
X234192654Y-63119005D01*
X233646374Y-62991603D01*
X233331208Y-62915877D01*
X232872689Y-62806097D01*
X232443650Y-62707533D01*
X232062757Y-62624146D01*
X231748675Y-62559900D01*
X231520068Y-62518757D01*
X231395602Y-62504680D01*
X231394458Y-62504699D01*
X231243657Y-62516839D01*
X231000003Y-62546519D01*
X230695746Y-62589430D01*
X230363141Y-62641266D01*
X230324720Y-62647574D01*
X229488440Y-62785625D01*
X228999217Y-63341250D01*
X228798299Y-63560543D01*
X228619866Y-63739022D01*
X228484164Y-63857461D01*
X228414069Y-63896875D01*
X228279021Y-63885135D01*
X228088043Y-63855080D01*
X227878441Y-63814455D01*
X227687518Y-63771006D01*
X227552579Y-63732478D01*
X227509750Y-63709110D01*
X227528957Y-63638955D01*
X227582167Y-63468980D01*
X227662766Y-63219693D01*
X227764140Y-62911605D01*
X227852933Y-62645003D01*
X227963912Y-62320497D01*
X228067768Y-62037520D01*
X228175008Y-61773875D01*
X228296140Y-61507365D01*
X228441673Y-61215794D01*
X228622115Y-60876965D01*
X228847973Y-60468680D01*
X229069389Y-60075417D01*
X229302732Y-59664136D01*
X229521129Y-59281764D01*
X229715236Y-58944461D01*
X229875710Y-58668385D01*
X229993207Y-58469694D01*
X230058382Y-58364547D01*
X230060483Y-58361482D01*
X230138559Y-58285191D01*
X230307279Y-58144931D01*
X230553899Y-57950483D01*
X230865674Y-57711634D01*
X231229860Y-57438167D01*
X231633712Y-57139866D01*
X231985457Y-56883644D01*
X233792611Y-55575450D01*
X237857707Y-54812624D01*
X239271854Y-55063985D01*
X240686000Y-55315345D01*
X241580454Y-55780235D01*
X242118897Y-56081270D01*
X242600616Y-56400491D01*
X243051937Y-56759546D01*
X243499185Y-57180079D01*
X243968688Y-57683737D01*
X244153859Y-57896125D01*
X244666610Y-58557436D01*
X245089834Y-59250467D01*
X245436826Y-60001328D01*
X245720881Y-60836126D01*
X245803113Y-61134625D01*
X246068722Y-62150625D01*
X252995434Y-62150625D01*
X254211621Y-60944125D01*
X256037985Y-59711966D01*
X256463788Y-59423547D01*
X256852992Y-59157698D01*
X257193808Y-58922646D01*
X257474444Y-58726617D01*
X257683110Y-58577837D01*
X257808017Y-58484532D01*
X257839549Y-58455006D01*
X257772733Y-58451965D01*
X257592925Y-58453942D01*
X257314017Y-58460522D01*
X256949902Y-58471286D01*
X256514470Y-58485820D01*
X256021614Y-58503705D01*
X255485226Y-58524526D01*
X255378124Y-58528836D01*
X252941500Y-58627468D01*
X250496750Y-58310394D01*
X249822974Y-58223002D01*
X249264347Y-58150281D01*
X248810086Y-58090458D01*
X248449411Y-58041761D01*
X248171539Y-58002414D01*
X247965688Y-57970647D01*
X247821077Y-57944684D01*
X247726924Y-57922753D01*
X247672446Y-57903080D01*
X247646863Y-57883893D01*
X247639391Y-57863417D01*
X247639250Y-57840419D01*
X247660218Y-57767370D01*
X247720610Y-57585605D01*
X247816658Y-57305841D01*
X247944594Y-56938791D01*
X248100649Y-56495170D01*
X248281057Y-55985693D01*
X248482049Y-55421075D01*
X248699856Y-54812031D01*
X248910805Y-54224593D01*
X250182359Y-50690468D01*
X250404823Y-48045606D01*
X250451931Y-47480443D01*
X250494811Y-46956086D01*
X250532447Y-46485704D01*
X250563823Y-46082470D01*
X250587924Y-45759554D01*
X250603733Y-45530128D01*
X250610235Y-45407364D01*
X250609643Y-45390069D01*
X250563232Y-45431919D01*
X250437503Y-45555941D01*
X250241429Y-45753019D01*
X249983982Y-46014037D01*
X249674135Y-46329875D01*
X249320861Y-46691419D01*
X248933132Y-47089549D01*
X248630261Y-47401375D01*
X246668522Y-49423355D01*
X244155643Y-51113404D01*
X243648630Y-51453547D01*
X243171808Y-51771797D01*
X242735899Y-52061115D01*
X242351624Y-52314461D01*
X242029705Y-52524794D01*
X241780864Y-52685074D01*
X241615824Y-52788263D01*
X241545383Y-52827300D01*
X241511053Y-52803800D01*
X241451628Y-52718004D01*
X241364086Y-52563715D01*
X241245404Y-52334731D01*
X241092561Y-52024853D01*
X240902536Y-51627882D01*
X240672306Y-51137618D01*
X240398851Y-50547862D01*
X240079148Y-49852413D01*
X239830784Y-49309386D01*
X239475002Y-48530106D01*
X239166965Y-47854846D01*
X238901651Y-47272109D01*
X238674039Y-46770396D01*
X238479106Y-46338209D01*
X238311832Y-45964049D01*
X238167193Y-45636419D01*
X238040168Y-45343819D01*
X237925735Y-45074753D01*
X237818873Y-44817720D01*
X237714559Y-44561224D01*
X237607772Y-44293765D01*
X237493490Y-44003846D01*
X237366691Y-43679968D01*
X237320198Y-43560999D01*
X237155780Y-43142955D01*
X237028725Y-42829030D01*
X236931517Y-42604541D01*
X236856641Y-42454800D01*
X236796583Y-42365122D01*
X236743828Y-42320820D01*
X236690860Y-42307209D01*
X236678453Y-42306875D01*
X236562403Y-42319071D01*
X236562403Y-42319071D01*
G37*
X236562403Y-42319071D02*
X236526750Y-42340967D01*
X236512217Y-42407509D01*
X236470495Y-42585700D01*
X236404407Y-42863784D01*
X236316774Y-43230008D01*
X236210416Y-43672617D01*
X236088154Y-44179855D01*
X235952809Y-44739967D01*
X235807202Y-45341200D01*
X235765897Y-45511522D01*
X235005043Y-48647983D01*
X233908522Y-51160383D01*
X233641668Y-51767344D01*
X233401580Y-52304449D01*
X233191888Y-52763983D01*
X233016221Y-53138228D01*
X232878209Y-53419468D01*
X232781483Y-53599989D01*
X232729672Y-53672074D01*
X232726415Y-53673078D01*
X232657708Y-53645112D01*
X232484361Y-53563967D01*
X232214997Y-53433921D01*
X231858237Y-53259248D01*
X231422704Y-53044224D01*
X230917020Y-52793124D01*
X230349806Y-52510223D01*
X229729685Y-52199796D01*
X229065279Y-51866119D01*
X228365210Y-51513468D01*
X228040563Y-51349582D01*
X227201346Y-50926002D01*
X226468426Y-50556936D01*
X225834994Y-50239139D01*
X225294240Y-49969369D01*
X224839355Y-49744381D01*
X224463529Y-49560930D01*
X224159954Y-49415774D01*
X223921820Y-49305667D01*
X223742318Y-49227367D01*
X223614639Y-49177628D01*
X223531973Y-49153207D01*
X223487510Y-49150860D01*
X223474443Y-49167343D01*
X223475439Y-49174707D01*
X223521777Y-49375365D01*
X223589659Y-49675388D01*
X223676674Y-50063775D01*
X223780412Y-50529523D01*
X223898461Y-51061630D01*
X224028410Y-51649094D01*
X224167847Y-52280913D01*
X224314361Y-52946085D01*
X224465541Y-53633607D01*
X224618975Y-54332478D01*
X224772253Y-55031696D01*
X224922964Y-55720258D01*
X225068695Y-56387163D01*
X225207035Y-57021408D01*
X225335575Y-57611991D01*
X225451901Y-58147910D01*
X225553603Y-58618163D01*
X225638270Y-59011748D01*
X225703490Y-59317662D01*
X225746852Y-59524904D01*
X225765945Y-59622472D01*
X225766574Y-59628717D01*
X225701916Y-59642416D01*
X225523876Y-59674248D01*
X225244468Y-59722206D01*
X224875703Y-59784283D01*
X224429593Y-59858473D01*
X223918150Y-59942770D01*
X223353387Y-60035166D01*
X222747315Y-60133655D01*
X222633569Y-60152069D01*
X219520220Y-60655764D01*
X218244485Y-61211343D01*
X217872830Y-61374645D01*
X217543826Y-61521975D01*
X217274173Y-61645626D01*
X217080568Y-61737892D01*
X216979712Y-61791064D01*
X216969017Y-61800024D01*
X217026225Y-61829599D01*
X217188505Y-61898359D01*
X217442041Y-62000831D01*
X217773014Y-62131541D01*
X218167607Y-62285018D01*
X218612003Y-62455789D01*
X218942093Y-62581467D01*
X220914902Y-63329810D01*
X222212076Y-64444389D01*
X222554858Y-64740467D01*
X222863662Y-65010164D01*
X223125995Y-65242328D01*
X223329364Y-65425807D01*
X223461274Y-65549448D01*
X223509233Y-65602100D01*
X223509250Y-65602338D01*
X223455161Y-65642126D01*
X223302211Y-65732770D01*
X223064377Y-65866849D01*
X222755636Y-66036939D01*
X222389966Y-66235616D01*
X221981343Y-66455458D01*
X221543743Y-66689040D01*
X221091145Y-66928941D01*
X220637525Y-67167735D01*
X220196861Y-67398001D01*
X219783128Y-67612315D01*
X219410304Y-67803253D01*
X219092367Y-67963392D01*
X218843292Y-68085309D01*
X218762625Y-68123309D01*
X218503497Y-68247193D01*
X218293308Y-68355217D01*
X218155226Y-68434962D01*
X218111750Y-68472149D01*
X218161836Y-68517613D01*
X218305276Y-68629059D01*
X218531844Y-68798982D01*
X218831316Y-69019879D01*
X219193465Y-69284243D01*
X219608067Y-69584572D01*
X220064896Y-69913360D01*
X220493000Y-70219765D01*
X220978686Y-70567950D01*
X221431074Y-70895064D01*
X221839927Y-71193502D01*
X222195008Y-71455659D01*
X222486081Y-71673933D01*
X222702910Y-71840719D01*
X222835256Y-71948414D01*
X222873710Y-71988196D01*
X222839786Y-72054786D01*
X222743294Y-72215404D01*
X222591783Y-72458191D01*
X222392802Y-72771284D01*
X222153902Y-73142825D01*
X221882630Y-73560951D01*
X221586538Y-74013803D01*
X221516541Y-74120375D01*
X221217012Y-74577338D01*
X220941403Y-75000337D01*
X220697102Y-75377844D01*
X220491494Y-75698329D01*
X220331967Y-75950265D01*
X220225907Y-76122123D01*
X220180700Y-76202376D01*
X220179741Y-76206743D01*
X220244030Y-76225206D01*
X220418691Y-76268074D01*
X220690121Y-76332195D01*
X221044717Y-76414419D01*
X221468876Y-76511595D01*
X221948996Y-76620573D01*
X222471474Y-76738202D01*
X222558928Y-76757802D01*
X223087090Y-76876537D01*
X223575197Y-76987113D01*
X224009628Y-77086379D01*
X224376762Y-77171188D01*
X224662977Y-77238387D01*
X224854652Y-77284828D01*
X224938165Y-77307361D01*
X224940584Y-77308541D01*
X224931237Y-77373523D01*
X224892802Y-77543454D01*
X224829646Y-77800770D01*
X224746134Y-78127905D01*
X224646631Y-78507294D01*
X224588750Y-78724125D01*
X224482170Y-79123490D01*
X224388494Y-79479219D01*
X224312205Y-79773902D01*
X224257783Y-79990131D01*
X224229708Y-80110496D01*
X224227059Y-80129487D01*
X224290135Y-80120685D01*
X224450742Y-80087192D01*
X224683207Y-80035123D01*
X224961853Y-79970596D01*
X225261006Y-79899728D01*
X225554992Y-79828636D01*
X225818135Y-79763437D01*
X226024761Y-79710248D01*
X226149196Y-79675186D01*
X226173382Y-79665773D01*
X226172589Y-79595674D01*
X226132646Y-79457910D01*
X226124545Y-79436076D01*
X226092192Y-79316731D01*
X226043533Y-79092388D01*
X225982512Y-78783423D01*
X225913074Y-78410214D01*
X225839163Y-77993136D01*
X225794038Y-77728691D01*
X225699126Y-77143683D01*
X225629002Y-76660271D01*
X225581097Y-76256032D01*
X225552844Y-75908543D01*
X225541675Y-75595381D01*
X225541250Y-75521248D01*
X225541250Y-74817237D01*
X224684000Y-74181571D01*
X224400844Y-73970521D01*
X224157127Y-73786801D01*
X223969569Y-73643180D01*
X223854886Y-73552430D01*
X223826750Y-73526693D01*
X223818473Y-73459923D01*
X223796059Y-73293971D01*
X223763135Y-73055405D01*
X223731288Y-72827425D01*
X223635825Y-72147369D01*
X224212800Y-71418668D01*
X224457579Y-71115078D01*
X224653769Y-70889469D01*
X224827480Y-70717114D01*
X225004823Y-70573285D01*
X225211908Y-70433254D01*
X225332350Y-70358409D01*
X225569486Y-70204381D01*
X225766170Y-70059661D01*
X225895590Y-69944877D01*
X225929894Y-69898738D01*
X225959669Y-69801366D01*
X226012547Y-69599769D01*
X226083682Y-69313611D01*
X226168228Y-68962552D01*
X226261337Y-68566255D01*
X226305836Y-68373625D01*
X226448539Y-67757506D01*
X226588907Y-67160827D01*
X226723799Y-66596235D01*
X226850075Y-66076379D01*
X226964594Y-65613908D01*
X227064216Y-65221471D01*
X227145800Y-64911715D01*
X227206204Y-64697289D01*
X227242289Y-64590842D01*
X227247178Y-64582545D01*
X227309092Y-64601667D01*
X227439679Y-64690899D01*
X227615194Y-64833244D01*
X227693726Y-64902202D01*
X228099693Y-65266438D01*
X228041658Y-65949528D01*
X227983624Y-66632619D01*
X228360845Y-67456942D01*
X228738066Y-68281266D01*
X230081500Y-69528776D01*
X231370744Y-69684425D01*
X232659987Y-69840074D01*
X233734687Y-69392599D01*
X234809386Y-68945125D01*
X235344229Y-68249833D01*
X235675988Y-67792010D01*
X235922025Y-67389474D01*
X236086837Y-67043333D01*
X236182105Y-66810999D01*
X236258653Y-66628193D01*
X236304533Y-66523285D01*
X236311673Y-66509419D01*
X236377122Y-66511096D01*
X236527055Y-66539692D01*
X236655880Y-66570557D01*
X236983016Y-66654399D01*
X236935232Y-67291762D01*
X236913221Y-67581561D01*
X236900385Y-67796309D01*
X236900524Y-67967649D01*
X236917443Y-68127225D01*
X236954942Y-68306680D01*
X237016824Y-68537656D01*
X237106891Y-68851797D01*
X237134034Y-68946259D01*
X237370431Y-69770625D01*
X237866359Y-70313248D01*
X238362286Y-70855871D01*
X239492393Y-71366307D01*
X240622500Y-71876744D01*
X241638500Y-71805023D01*
X242654500Y-71733303D01*
X243321250Y-71274340D01*
X243628882Y-71056049D01*
X243863988Y-70868055D01*
X244062929Y-70675473D01*
X244262068Y-70443423D01*
X244474568Y-70167938D01*
X244706893Y-69848021D01*
X244876852Y-69582419D01*
X245006751Y-69330788D01*
X245118896Y-69052788D01*
X245167139Y-68915312D01*
X245255426Y-68658797D01*
X245328645Y-68451379D01*
X245377265Y-68319761D01*
X245391323Y-68287289D01*
X245454042Y-68297497D01*
X245591206Y-68349826D01*
X245664722Y-68382539D01*
X245838251Y-68486459D01*
X245897054Y-68581672D01*
X245895101Y-68595875D01*
X245860245Y-68745135D01*
X245805841Y-68997227D01*
X245736295Y-69330260D01*
X245656011Y-69722345D01*
X245569396Y-70151592D01*
X245480854Y-70596111D01*
X245394792Y-71034014D01*
X245315615Y-71443410D01*
X245247728Y-71802410D01*
X245225241Y-71924161D01*
X245148932Y-72335894D01*
X245069070Y-72758197D01*
X244993078Y-73152371D01*
X244928379Y-73479715D01*
X244902444Y-73606911D01*
X244776298Y-74215625D01*
X245311012Y-74723625D01*
X245556517Y-74963166D01*
X245729689Y-75153229D01*
X245854772Y-75326808D01*
X245956013Y-75516893D01*
X246042750Y-75719350D01*
X246239773Y-76207075D01*
X246027314Y-76798850D01*
X245814854Y-77390625D01*
X245147202Y-77878306D01*
X244868844Y-78079448D01*
X244662605Y-78218570D01*
X244498951Y-78309786D01*
X244348349Y-78367207D01*
X244181264Y-78404945D01*
X243981641Y-78435241D01*
X243742516Y-78473340D01*
X243555028Y-78512252D01*
X243452468Y-78544818D01*
X243444261Y-78550809D01*
X243407724Y-78626088D01*
X243338886Y-78794723D01*
X243248150Y-79030463D01*
X243161625Y-79263875D01*
X242947555Y-79804560D01*
X242689657Y-80381210D01*
X242403229Y-80964406D01*
X242103571Y-81524728D01*
X241805981Y-82032759D01*
X241525761Y-82459079D01*
X241436487Y-82581078D01*
X241257163Y-82821179D01*
X241112259Y-83021556D01*
X241015661Y-83162530D01*
X240981257Y-83224423D01*
X240981744Y-83225486D01*
X241041472Y-83263559D01*
X241184441Y-83353605D01*
X241386219Y-83480255D01*
X241526206Y-83567957D01*
X242048911Y-83895220D01*
X242154533Y-83532172D01*
X242213061Y-83329679D01*
X242295596Y-83042393D01*
X242391422Y-82707684D01*
X242489825Y-82362920D01*
X242495323Y-82343625D01*
X242607835Y-81971448D01*
X242703589Y-81701735D01*
X242779496Y-81542456D01*
X242822000Y-81500168D01*
X242903438Y-81515318D01*
X243089129Y-81566911D01*
X243363259Y-81650007D01*
X243710012Y-81759670D01*
X244113573Y-81890961D01*
X244558126Y-82038943D01*
X244688367Y-82082890D01*
X245137430Y-82234055D01*
X245545982Y-82370019D01*
X245899010Y-82485911D01*
X246181503Y-82576860D01*
X246378449Y-82637996D01*
X246474835Y-82664446D01*
X246481936Y-82664856D01*
X246483199Y-82599617D01*
X246477964Y-82425436D01*
X246467160Y-82160153D01*
X246451713Y-81821608D01*
X246432552Y-81427642D01*
X246410603Y-80996095D01*
X246386795Y-80544807D01*
X246362056Y-80091620D01*
X246337312Y-79654372D01*
X246313491Y-79250905D01*
X246291522Y-78899059D01*
X246272331Y-78616674D01*
X246269316Y-78575573D01*
X246229904Y-78046021D01*
X248623500Y-78133707D01*
X250052250Y-77801949D01*
X250461745Y-77705404D01*
X250829907Y-77615822D01*
X251138634Y-77537837D01*
X251369821Y-77476079D01*
X251505363Y-77435183D01*
X251532716Y-77423142D01*
X251499627Y-77373576D01*
X251377354Y-77262454D01*
X251180410Y-77101543D01*
X250923306Y-76902612D01*
X250620553Y-76677429D01*
X250548466Y-76624957D01*
X250049457Y-76262905D01*
X249640675Y-75964505D01*
X249309606Y-75718752D01*
X249043739Y-75514642D01*
X248830560Y-75341171D01*
X248657556Y-75187334D01*
X248512214Y-75042126D01*
X248382021Y-74894544D01*
X248254465Y-74733583D01*
X248117032Y-74548238D01*
X247994156Y-74378595D01*
X247801030Y-74105819D01*
X247639954Y-73867548D01*
X247523491Y-73683235D01*
X247464205Y-73572331D01*
X247459669Y-73551087D01*
X247515891Y-73505879D01*
X247668717Y-73399731D01*
X247907456Y-73239654D01*
X248221418Y-73032660D01*
X248599914Y-72785760D01*
X249032254Y-72505965D01*
X249507749Y-72200286D01*
X249957000Y-71913145D01*
X250617925Y-71493567D01*
X251192756Y-71133040D01*
X251701059Y-70820148D01*
X252162397Y-70543477D01*
X252596337Y-70291610D01*
X253022442Y-70053133D01*
X253460276Y-69816631D01*
X253929405Y-69570687D01*
X254286683Y-69386902D01*
X254730755Y-69158902D01*
X255135386Y-68949351D01*
X255487524Y-68765150D01*
X255774118Y-68613200D01*
X255982117Y-68500401D01*
X256098471Y-68433654D01*
X256118747Y-68418204D01*
X256052300Y-68415090D01*
X255875557Y-68416984D01*
X255605101Y-68423426D01*
X255257518Y-68433959D01*
X254849393Y-68448126D01*
X254397311Y-68465470D01*
X254378600Y-68466221D01*
X252659572Y-68535357D01*
X250879661Y-67315920D01*
X250459200Y-67026705D01*
X250074150Y-66759632D01*
X249736587Y-66523246D01*
X249458584Y-66326098D01*
X249252216Y-66176733D01*
X249129558Y-66083701D01*
X249099750Y-66055883D01*
X249143571Y-66004928D01*
X249269675Y-65872791D01*
X249470026Y-65667574D01*
X249736587Y-65397375D01*
X250061322Y-65070295D01*
X250436193Y-64694435D01*
X250853165Y-64277895D01*
X251304200Y-63828775D01*
X251655686Y-63479703D01*
X252995434Y-62150625D01*
X246068722Y-62150625D01*
X246015422Y-64182625D01*
X246002269Y-64714821D01*
X245990819Y-65238271D01*
X245981449Y-65730824D01*
X245974532Y-66170325D01*
X245970444Y-66534624D01*
X245969558Y-66801567D01*
X245970045Y-66865500D01*
X245971030Y-67135640D01*
X245967434Y-67351019D01*
X245959967Y-67485091D01*
X245952592Y-67516375D01*
X245890112Y-67484848D01*
X245752488Y-67402681D01*
X245591586Y-67301674D01*
X245444298Y-67202099D01*
X245332768Y-67105024D01*
X245238256Y-66983970D01*
X245142021Y-66812460D01*
X245025326Y-66564014D01*
X244950308Y-66395560D01*
X244644661Y-65704147D01*
X243776581Y-65406195D01*
X243174167Y-65212597D01*
X242454074Y-65004431D01*
X241624529Y-64783745D01*
X240693760Y-64552587D01*
X239669997Y-64313006D01*
X238561466Y-64067051D01*
X237473523Y-63836841D01*
X236841191Y-63704086D01*
X236167807Y-63559448D01*
X235482502Y-63409404D01*
X234814407Y-63260431D01*
X234192654Y-63119005D01*
X233646374Y-62991603D01*
X233331208Y-62915877D01*
X232872689Y-62806097D01*
X232443650Y-62707533D01*
X232062757Y-62624146D01*
X231748675Y-62559900D01*
X231520068Y-62518757D01*
X231395602Y-62504680D01*
X231394458Y-62504699D01*
X231243657Y-62516839D01*
X231000003Y-62546519D01*
X230695746Y-62589430D01*
X230363141Y-62641266D01*
X230324720Y-62647574D01*
X229488440Y-62785625D01*
X228999217Y-63341250D01*
X228798299Y-63560543D01*
X228619866Y-63739022D01*
X228484164Y-63857461D01*
X228414069Y-63896875D01*
X228279021Y-63885135D01*
X228088043Y-63855080D01*
X227878441Y-63814455D01*
X227687518Y-63771006D01*
X227552579Y-63732478D01*
X227509750Y-63709110D01*
X227528957Y-63638955D01*
X227582167Y-63468980D01*
X227662766Y-63219693D01*
X227764140Y-62911605D01*
X227852933Y-62645003D01*
X227963912Y-62320497D01*
X228067768Y-62037520D01*
X228175008Y-61773875D01*
X228296140Y-61507365D01*
X228441673Y-61215794D01*
X228622115Y-60876965D01*
X228847973Y-60468680D01*
X229069389Y-60075417D01*
X229302732Y-59664136D01*
X229521129Y-59281764D01*
X229715236Y-58944461D01*
X229875710Y-58668385D01*
X229993207Y-58469694D01*
X230058382Y-58364547D01*
X230060483Y-58361482D01*
X230138559Y-58285191D01*
X230307279Y-58144931D01*
X230553899Y-57950483D01*
X230865674Y-57711634D01*
X231229860Y-57438167D01*
X231633712Y-57139866D01*
X231985457Y-56883644D01*
X233792611Y-55575450D01*
X237857707Y-54812624D01*
X239271854Y-55063985D01*
X240686000Y-55315345D01*
X241580454Y-55780235D01*
X242118897Y-56081270D01*
X242600616Y-56400491D01*
X243051937Y-56759546D01*
X243499185Y-57180079D01*
X243968688Y-57683737D01*
X244153859Y-57896125D01*
X244666610Y-58557436D01*
X245089834Y-59250467D01*
X245436826Y-60001328D01*
X245720881Y-60836126D01*
X245803113Y-61134625D01*
X246068722Y-62150625D01*
X252995434Y-62150625D01*
X254211621Y-60944125D01*
X256037985Y-59711966D01*
X256463788Y-59423547D01*
X256852992Y-59157698D01*
X257193808Y-58922646D01*
X257474444Y-58726617D01*
X257683110Y-58577837D01*
X257808017Y-58484532D01*
X257839549Y-58455006D01*
X257772733Y-58451965D01*
X257592925Y-58453942D01*
X257314017Y-58460522D01*
X256949902Y-58471286D01*
X256514470Y-58485820D01*
X256021614Y-58503705D01*
X255485226Y-58524526D01*
X255378124Y-58528836D01*
X252941500Y-58627468D01*
X250496750Y-58310394D01*
X249822974Y-58223002D01*
X249264347Y-58150281D01*
X248810086Y-58090458D01*
X248449411Y-58041761D01*
X248171539Y-58002414D01*
X247965688Y-57970647D01*
X247821077Y-57944684D01*
X247726924Y-57922753D01*
X247672446Y-57903080D01*
X247646863Y-57883893D01*
X247639391Y-57863417D01*
X247639250Y-57840419D01*
X247660218Y-57767370D01*
X247720610Y-57585605D01*
X247816658Y-57305841D01*
X247944594Y-56938791D01*
X248100649Y-56495170D01*
X248281057Y-55985693D01*
X248482049Y-55421075D01*
X248699856Y-54812031D01*
X248910805Y-54224593D01*
X250182359Y-50690468D01*
X250404823Y-48045606D01*
X250451931Y-47480443D01*
X250494811Y-46956086D01*
X250532447Y-46485704D01*
X250563823Y-46082470D01*
X250587924Y-45759554D01*
X250603733Y-45530128D01*
X250610235Y-45407364D01*
X250609643Y-45390069D01*
X250563232Y-45431919D01*
X250437503Y-45555941D01*
X250241429Y-45753019D01*
X249983982Y-46014037D01*
X249674135Y-46329875D01*
X249320861Y-46691419D01*
X248933132Y-47089549D01*
X248630261Y-47401375D01*
X246668522Y-49423355D01*
X244155643Y-51113404D01*
X243648630Y-51453547D01*
X243171808Y-51771797D01*
X242735899Y-52061115D01*
X242351624Y-52314461D01*
X242029705Y-52524794D01*
X241780864Y-52685074D01*
X241615824Y-52788263D01*
X241545383Y-52827300D01*
X241511053Y-52803800D01*
X241451628Y-52718004D01*
X241364086Y-52563715D01*
X241245404Y-52334731D01*
X241092561Y-52024853D01*
X240902536Y-51627882D01*
X240672306Y-51137618D01*
X240398851Y-50547862D01*
X240079148Y-49852413D01*
X239830784Y-49309386D01*
X239475002Y-48530106D01*
X239166965Y-47854846D01*
X238901651Y-47272109D01*
X238674039Y-46770396D01*
X238479106Y-46338209D01*
X238311832Y-45964049D01*
X238167193Y-45636419D01*
X238040168Y-45343819D01*
X237925735Y-45074753D01*
X237818873Y-44817720D01*
X237714559Y-44561224D01*
X237607772Y-44293765D01*
X237493490Y-44003846D01*
X237366691Y-43679968D01*
X237320198Y-43560999D01*
X237155780Y-43142955D01*
X237028725Y-42829030D01*
X236931517Y-42604541D01*
X236856641Y-42454800D01*
X236796583Y-42365122D01*
X236743828Y-42320820D01*
X236690860Y-42307209D01*
X236678453Y-42306875D01*
X236562403Y-42319071D01*
G36*
X237035475Y-87561064D02*
G01*
X237023796Y-87583489D01*
X236959872Y-87619266D01*
X236790756Y-87687017D01*
X236532537Y-87781039D01*
X236201306Y-87895634D01*
X235813154Y-88025099D01*
X235402228Y-88157984D01*
X233802200Y-88667865D01*
X232068850Y-88213164D01*
X231619485Y-88093897D01*
X231211194Y-87982876D01*
X230859865Y-87884634D01*
X230581390Y-87803705D01*
X230391658Y-87744625D01*
X230306560Y-87711926D01*
X230303750Y-87709500D01*
X230238956Y-87719125D01*
X230067275Y-87767084D01*
X229801500Y-87849216D01*
X229454424Y-87961363D01*
X229038841Y-88099365D01*
X228567543Y-88259062D01*
X228053324Y-88436295D01*
X227842451Y-88509779D01*
X225412902Y-89359021D01*
X224127701Y-90163691D01*
X223762737Y-90393079D01*
X223431335Y-90603046D01*
X223149524Y-90783302D01*
X222933328Y-90923559D01*
X222798776Y-91013527D01*
X222763052Y-91039834D01*
X222722053Y-91126375D01*
X222666422Y-91312238D01*
X222602959Y-91571564D01*
X222538467Y-91878498D01*
X222527718Y-91934466D01*
X222433325Y-92435490D01*
X222320134Y-93040669D01*
X222190382Y-93737794D01*
X222046305Y-94514657D01*
X221890139Y-95359050D01*
X221724120Y-96258764D01*
X221550484Y-97201591D01*
X221371467Y-98175321D01*
X221189306Y-99167747D01*
X221006236Y-100166661D01*
X220824495Y-101159852D01*
X220646316Y-102135114D01*
X220473938Y-103080237D01*
X220309596Y-103983014D01*
X220155527Y-104831235D01*
X220013965Y-105612692D01*
X219887149Y-106315177D01*
X219777313Y-106926481D01*
X219686693Y-107434396D01*
X219632073Y-107743625D01*
X219528214Y-108334275D01*
X219430130Y-108889908D01*
X219340183Y-109397293D01*
X219260738Y-109843201D01*
X219194156Y-110214403D01*
X219142800Y-110497667D01*
X219109034Y-110679765D01*
X219096204Y-110744000D01*
X219061831Y-110886875D01*
X222015791Y-110886875D01*
X222614645Y-110885943D01*
X223172812Y-110883274D01*
X223677828Y-110879057D01*
X224117229Y-110873480D01*
X224478550Y-110866734D01*
X224749327Y-110859006D01*
X224917095Y-110850487D01*
X224969750Y-110842068D01*
X224949838Y-110770942D01*
X224894317Y-110598866D01*
X224809516Y-110344764D01*
X224701760Y-110027563D01*
X224577377Y-109666188D01*
X224557001Y-109607392D01*
X224430134Y-109237212D01*
X224319062Y-108904611D01*
X224230186Y-108629463D01*
X224169909Y-108431644D01*
X224144632Y-108331029D01*
X224144251Y-108325980D01*
X224185825Y-108261456D01*
X224304804Y-108113361D01*
X224492570Y-107891555D01*
X224740508Y-107605901D01*
X225040001Y-107266257D01*
X225382433Y-106882485D01*
X225759186Y-106464446D01*
X226065125Y-106127743D01*
X226462179Y-105691630D01*
X226832070Y-105284101D01*
X227166152Y-104914771D01*
X227455781Y-104593257D01*
X227692311Y-104329173D01*
X227867097Y-104132135D01*
X227971493Y-104011760D01*
X227998480Y-103977335D01*
X227953333Y-103929342D01*
X227819308Y-103811554D01*
X227607199Y-103632874D01*
X227327805Y-103402208D01*
X226991920Y-103128462D01*
X226610343Y-102820540D01*
X226193868Y-102487347D01*
X226141105Y-102445330D01*
X225720065Y-102107907D01*
X225332148Y-101792594D01*
X224988281Y-101508612D01*
X224699390Y-101265181D01*
X224476403Y-101071519D01*
X224330246Y-100936847D01*
X224271848Y-100870384D01*
X224271250Y-100867642D01*
X224291409Y-100793684D01*
X224349605Y-100609849D01*
X224442422Y-100326307D01*
X224566444Y-99953224D01*
X224718253Y-99500770D01*
X224894432Y-98979111D01*
X225091564Y-98398416D01*
X225306233Y-97768853D01*
X225535020Y-97100589D01*
X225638326Y-96799686D01*
X227005402Y-92821125D01*
X228416451Y-90699333D01*
X228790903Y-90136895D01*
X229101619Y-89671908D01*
X229354698Y-89295746D01*
X229556238Y-88999783D01*
X229712337Y-88775391D01*
X229829093Y-88613947D01*
X229912604Y-88506823D01*
X229968969Y-88445393D01*
X230004285Y-88421032D01*
X230024389Y-88424846D01*
X230024289Y-88490953D01*
X230014592Y-88670489D01*
X229996245Y-88950325D01*
X229970194Y-89317328D01*
X229937386Y-89758367D01*
X229898768Y-90260312D01*
X229855287Y-90810029D01*
X229828463Y-91142495D01*
X229784748Y-91706436D01*
X229736412Y-92375974D01*
X229684800Y-93129844D01*
X229631256Y-93946784D01*
X229577126Y-94805529D01*
X229523754Y-95684816D01*
X229472486Y-96563382D01*
X229424665Y-97419963D01*
X229388939Y-98091625D01*
X229339015Y-99071142D01*
X229296435Y-99948813D01*
X229260444Y-100749040D01*
X229230290Y-101496231D01*
X229205219Y-102214788D01*
X229184477Y-102929119D01*
X229167312Y-103663627D01*
X229152970Y-104442718D01*
X229140698Y-105290797D01*
X229129742Y-106232270D01*
X229125798Y-106616500D01*
X229083237Y-110886875D01*
X238368250Y-110886875D01*
X238368076Y-110299500D01*
X238366062Y-110115607D01*
X238360363Y-109820397D01*
X238351383Y-109429486D01*
X238339527Y-108958490D01*
X238325201Y-108423025D01*
X238308808Y-107838708D01*
X238290753Y-107221155D01*
X238273859Y-106664125D01*
X238252583Y-105966176D01*
X238228755Y-105169888D01*
X238203206Y-104303877D01*
X238176764Y-103396758D01*
X238150260Y-102477147D01*
X238124525Y-101573660D01*
X238100387Y-100714913D01*
X238081386Y-100028375D01*
X238057024Y-99216837D01*
X238026518Y-98323630D01*
X237991145Y-97379507D01*
X237952180Y-96415219D01*
X237910903Y-95461521D01*
X237868588Y-94549164D01*
X237826515Y-93708902D01*
X237794504Y-93120114D01*
X237606052Y-89799603D01*
X237314512Y-88781545D01*
X237219753Y-88441607D01*
X237142138Y-88145545D01*
X237086741Y-87914225D01*
X237058637Y-87768512D01*
X237058307Y-87728152D01*
X237122372Y-87749312D01*
X237260398Y-87848687D01*
X237457750Y-88013500D01*
X237699790Y-88230973D01*
X237971882Y-88488331D01*
X238259388Y-88772796D01*
X238286226Y-88800010D01*
X238743952Y-89265125D01*
X240873851Y-94931046D01*
X241178611Y-95742641D01*
X241470333Y-96521229D01*
X241745940Y-97258501D01*
X242002355Y-97946145D01*
X242236501Y-98575852D01*
X242445299Y-99139311D01*
X242625672Y-99628213D01*
X242774543Y-100034247D01*
X242888834Y-100349104D01*
X242965468Y-100564472D01*
X243001367Y-100672043D01*
X243003750Y-100682435D01*
X242957480Y-100742516D01*
X242825816Y-100875700D01*
X242619481Y-101072079D01*
X242349197Y-101321745D01*
X242025688Y-101614790D01*
X241659676Y-101941307D01*
X241273375Y-102281338D01*
X240876806Y-102629418D01*
X240512224Y-102951791D01*
X240190313Y-103238828D01*
X239921755Y-103480902D01*
X239717231Y-103668385D01*
X239587425Y-103791649D01*
X239543000Y-103840873D01*
X239589627Y-103895619D01*
X239717461Y-104013639D01*
X239908433Y-104178999D01*
X240144475Y-104375769D01*
X240214477Y-104432937D01*
X240885954Y-104978900D01*
X241087005Y-105631012D01*
X241288056Y-106283125D01*
X242209403Y-107102569D01*
X242510590Y-107376054D01*
X242766326Y-107619280D01*
X242963589Y-107819086D01*
X243089356Y-107962309D01*
X243130750Y-108033776D01*
X243114646Y-108118426D01*
X243070299Y-108303220D01*
X243003659Y-108565991D01*
X242920678Y-108884574D01*
X242827304Y-109236802D01*
X242729490Y-109600509D01*
X242633184Y-109953528D01*
X242544337Y-110273694D01*
X242468900Y-110538839D01*
X242412822Y-110726797D01*
X242387478Y-110802663D01*
X242399050Y-110821839D01*
X242455761Y-110837997D01*
X242566695Y-110851371D01*
X242740940Y-110862198D01*
X242987581Y-110870714D01*
X243315705Y-110877154D01*
X243734397Y-110881754D01*
X244252743Y-110884750D01*
X244879830Y-110886379D01*
X245624745Y-110886874D01*
X245632207Y-110886875D01*
X246372066Y-110886470D01*
X246994565Y-110885076D01*
X247509341Y-110882427D01*
X247926031Y-110878256D01*
X248254272Y-110872293D01*
X248503702Y-110864273D01*
X248683957Y-110853928D01*
X248804677Y-110840990D01*
X248875496Y-110825192D01*
X248906054Y-110806266D01*
X248909250Y-110795951D01*
X248897428Y-110705536D01*
X248863036Y-110500292D01*
X248807685Y-110188559D01*
X248732986Y-109778680D01*
X248640550Y-109278996D01*
X248531988Y-108697848D01*
X248408911Y-108043577D01*
X248272930Y-107324526D01*
X248125656Y-106549035D01*
X247968701Y-105725446D01*
X247803674Y-104862101D01*
X247632187Y-103967341D01*
X247455851Y-103049507D01*
X247276277Y-102116941D01*
X247095076Y-101177984D01*
X246913860Y-100240978D01*
X246734238Y-99314265D01*
X246557822Y-98406185D01*
X246386224Y-97525080D01*
X246221054Y-96679292D01*
X246063922Y-95877161D01*
X245916441Y-95127031D01*
X245780221Y-94437241D01*
X245656873Y-93816134D01*
X245548008Y-93272050D01*
X245455237Y-92813332D01*
X245380171Y-92448321D01*
X245324421Y-92185358D01*
X245289598Y-92032784D01*
X245278362Y-91995942D01*
X245209572Y-91949241D01*
X245042435Y-91842985D01*
X244787189Y-91683491D01*
X244454070Y-91477076D01*
X244053313Y-91230055D01*
X243595155Y-90948744D01*
X243089833Y-90639461D01*
X242547582Y-90308520D01*
X242243721Y-90123460D01*
X241553807Y-89704637D01*
X240960058Y-89346764D01*
X240451010Y-89043368D01*
X240015204Y-88787972D01*
X239641178Y-88574104D01*
X239317472Y-88395290D01*
X239032624Y-88245055D01*
X238775173Y-88116926D01*
X238533658Y-88004427D01*
X238348747Y-87923271D01*
X237894570Y-87735877D01*
X237543852Y-87607933D01*
X237288896Y-87537466D01*
X237122003Y-87522501D01*
X237035475Y-87561064D01*
X237035475Y-87561064D01*
G37*
X237035475Y-87561064D02*
X237023796Y-87583489D01*
X236959872Y-87619266D01*
X236790756Y-87687017D01*
X236532537Y-87781039D01*
X236201306Y-87895634D01*
X235813154Y-88025099D01*
X235402228Y-88157984D01*
X233802200Y-88667865D01*
X232068850Y-88213164D01*
X231619485Y-88093897D01*
X231211194Y-87982876D01*
X230859865Y-87884634D01*
X230581390Y-87803705D01*
X230391658Y-87744625D01*
X230306560Y-87711926D01*
X230303750Y-87709500D01*
X230238956Y-87719125D01*
X230067275Y-87767084D01*
X229801500Y-87849216D01*
X229454424Y-87961363D01*
X229038841Y-88099365D01*
X228567543Y-88259062D01*
X228053324Y-88436295D01*
X227842451Y-88509779D01*
X225412902Y-89359021D01*
X224127701Y-90163691D01*
X223762737Y-90393079D01*
X223431335Y-90603046D01*
X223149524Y-90783302D01*
X222933328Y-90923559D01*
X222798776Y-91013527D01*
X222763052Y-91039834D01*
X222722053Y-91126375D01*
X222666422Y-91312238D01*
X222602959Y-91571564D01*
X222538467Y-91878498D01*
X222527718Y-91934466D01*
X222433325Y-92435490D01*
X222320134Y-93040669D01*
X222190382Y-93737794D01*
X222046305Y-94514657D01*
X221890139Y-95359050D01*
X221724120Y-96258764D01*
X221550484Y-97201591D01*
X221371467Y-98175321D01*
X221189306Y-99167747D01*
X221006236Y-100166661D01*
X220824495Y-101159852D01*
X220646316Y-102135114D01*
X220473938Y-103080237D01*
X220309596Y-103983014D01*
X220155527Y-104831235D01*
X220013965Y-105612692D01*
X219887149Y-106315177D01*
X219777313Y-106926481D01*
X219686693Y-107434396D01*
X219632073Y-107743625D01*
X219528214Y-108334275D01*
X219430130Y-108889908D01*
X219340183Y-109397293D01*
X219260738Y-109843201D01*
X219194156Y-110214403D01*
X219142800Y-110497667D01*
X219109034Y-110679765D01*
X219096204Y-110744000D01*
X219061831Y-110886875D01*
X222015791Y-110886875D01*
X222614645Y-110885943D01*
X223172812Y-110883274D01*
X223677828Y-110879057D01*
X224117229Y-110873480D01*
X224478550Y-110866734D01*
X224749327Y-110859006D01*
X224917095Y-110850487D01*
X224969750Y-110842068D01*
X224949838Y-110770942D01*
X224894317Y-110598866D01*
X224809516Y-110344764D01*
X224701760Y-110027563D01*
X224577377Y-109666188D01*
X224557001Y-109607392D01*
X224430134Y-109237212D01*
X224319062Y-108904611D01*
X224230186Y-108629463D01*
X224169909Y-108431644D01*
X224144632Y-108331029D01*
X224144251Y-108325980D01*
X224185825Y-108261456D01*
X224304804Y-108113361D01*
X224492570Y-107891555D01*
X224740508Y-107605901D01*
X225040001Y-107266257D01*
X225382433Y-106882485D01*
X225759186Y-106464446D01*
X226065125Y-106127743D01*
X226462179Y-105691630D01*
X226832070Y-105284101D01*
X227166152Y-104914771D01*
X227455781Y-104593257D01*
X227692311Y-104329173D01*
X227867097Y-104132135D01*
X227971493Y-104011760D01*
X227998480Y-103977335D01*
X227953333Y-103929342D01*
X227819308Y-103811554D01*
X227607199Y-103632874D01*
X227327805Y-103402208D01*
X226991920Y-103128462D01*
X226610343Y-102820540D01*
X226193868Y-102487347D01*
X226141105Y-102445330D01*
X225720065Y-102107907D01*
X225332148Y-101792594D01*
X224988281Y-101508612D01*
X224699390Y-101265181D01*
X224476403Y-101071519D01*
X224330246Y-100936847D01*
X224271848Y-100870384D01*
X224271250Y-100867642D01*
X224291409Y-100793684D01*
X224349605Y-100609849D01*
X224442422Y-100326307D01*
X224566444Y-99953224D01*
X224718253Y-99500770D01*
X224894432Y-98979111D01*
X225091564Y-98398416D01*
X225306233Y-97768853D01*
X225535020Y-97100589D01*
X225638326Y-96799686D01*
X227005402Y-92821125D01*
X228416451Y-90699333D01*
X228790903Y-90136895D01*
X229101619Y-89671908D01*
X229354698Y-89295746D01*
X229556238Y-88999783D01*
X229712337Y-88775391D01*
X229829093Y-88613947D01*
X229912604Y-88506823D01*
X229968969Y-88445393D01*
X230004285Y-88421032D01*
X230024389Y-88424846D01*
X230024289Y-88490953D01*
X230014592Y-88670489D01*
X229996245Y-88950325D01*
X229970194Y-89317328D01*
X229937386Y-89758367D01*
X229898768Y-90260312D01*
X229855287Y-90810029D01*
X229828463Y-91142495D01*
X229784748Y-91706436D01*
X229736412Y-92375974D01*
X229684800Y-93129844D01*
X229631256Y-93946784D01*
X229577126Y-94805529D01*
X229523754Y-95684816D01*
X229472486Y-96563382D01*
X229424665Y-97419963D01*
X229388939Y-98091625D01*
X229339015Y-99071142D01*
X229296435Y-99948813D01*
X229260444Y-100749040D01*
X229230290Y-101496231D01*
X229205219Y-102214788D01*
X229184477Y-102929119D01*
X229167312Y-103663627D01*
X229152970Y-104442718D01*
X229140698Y-105290797D01*
X229129742Y-106232270D01*
X229125798Y-106616500D01*
X229083237Y-110886875D01*
X238368250Y-110886875D01*
X238368076Y-110299500D01*
X238366062Y-110115607D01*
X238360363Y-109820397D01*
X238351383Y-109429486D01*
X238339527Y-108958490D01*
X238325201Y-108423025D01*
X238308808Y-107838708D01*
X238290753Y-107221155D01*
X238273859Y-106664125D01*
X238252583Y-105966176D01*
X238228755Y-105169888D01*
X238203206Y-104303877D01*
X238176764Y-103396758D01*
X238150260Y-102477147D01*
X238124525Y-101573660D01*
X238100387Y-100714913D01*
X238081386Y-100028375D01*
X238057024Y-99216837D01*
X238026518Y-98323630D01*
X237991145Y-97379507D01*
X237952180Y-96415219D01*
X237910903Y-95461521D01*
X237868588Y-94549164D01*
X237826515Y-93708902D01*
X237794504Y-93120114D01*
X237606052Y-89799603D01*
X237314512Y-88781545D01*
X237219753Y-88441607D01*
X237142138Y-88145545D01*
X237086741Y-87914225D01*
X237058637Y-87768512D01*
X237058307Y-87728152D01*
X237122372Y-87749312D01*
X237260398Y-87848687D01*
X237457750Y-88013500D01*
X237699790Y-88230973D01*
X237971882Y-88488331D01*
X238259388Y-88772796D01*
X238286226Y-88800010D01*
X238743952Y-89265125D01*
X240873851Y-94931046D01*
X241178611Y-95742641D01*
X241470333Y-96521229D01*
X241745940Y-97258501D01*
X242002355Y-97946145D01*
X242236501Y-98575852D01*
X242445299Y-99139311D01*
X242625672Y-99628213D01*
X242774543Y-100034247D01*
X242888834Y-100349104D01*
X242965468Y-100564472D01*
X243001367Y-100672043D01*
X243003750Y-100682435D01*
X242957480Y-100742516D01*
X242825816Y-100875700D01*
X242619481Y-101072079D01*
X242349197Y-101321745D01*
X242025688Y-101614790D01*
X241659676Y-101941307D01*
X241273375Y-102281338D01*
X240876806Y-102629418D01*
X240512224Y-102951791D01*
X240190313Y-103238828D01*
X239921755Y-103480902D01*
X239717231Y-103668385D01*
X239587425Y-103791649D01*
X239543000Y-103840873D01*
X239589627Y-103895619D01*
X239717461Y-104013639D01*
X239908433Y-104178999D01*
X240144475Y-104375769D01*
X240214477Y-104432937D01*
X240885954Y-104978900D01*
X241087005Y-105631012D01*
X241288056Y-106283125D01*
X242209403Y-107102569D01*
X242510590Y-107376054D01*
X242766326Y-107619280D01*
X242963589Y-107819086D01*
X243089356Y-107962309D01*
X243130750Y-108033776D01*
X243114646Y-108118426D01*
X243070299Y-108303220D01*
X243003659Y-108565991D01*
X242920678Y-108884574D01*
X242827304Y-109236802D01*
X242729490Y-109600509D01*
X242633184Y-109953528D01*
X242544337Y-110273694D01*
X242468900Y-110538839D01*
X242412822Y-110726797D01*
X242387478Y-110802663D01*
X242399050Y-110821839D01*
X242455761Y-110837997D01*
X242566695Y-110851371D01*
X242740940Y-110862198D01*
X242987581Y-110870714D01*
X243315705Y-110877154D01*
X243734397Y-110881754D01*
X244252743Y-110884750D01*
X244879830Y-110886379D01*
X245624745Y-110886874D01*
X245632207Y-110886875D01*
X246372066Y-110886470D01*
X246994565Y-110885076D01*
X247509341Y-110882427D01*
X247926031Y-110878256D01*
X248254272Y-110872293D01*
X248503702Y-110864273D01*
X248683957Y-110853928D01*
X248804677Y-110840990D01*
X248875496Y-110825192D01*
X248906054Y-110806266D01*
X248909250Y-110795951D01*
X248897428Y-110705536D01*
X248863036Y-110500292D01*
X248807685Y-110188559D01*
X248732986Y-109778680D01*
X248640550Y-109278996D01*
X248531988Y-108697848D01*
X248408911Y-108043577D01*
X248272930Y-107324526D01*
X248125656Y-106549035D01*
X247968701Y-105725446D01*
X247803674Y-104862101D01*
X247632187Y-103967341D01*
X247455851Y-103049507D01*
X247276277Y-102116941D01*
X247095076Y-101177984D01*
X246913860Y-100240978D01*
X246734238Y-99314265D01*
X246557822Y-98406185D01*
X246386224Y-97525080D01*
X246221054Y-96679292D01*
X246063922Y-95877161D01*
X245916441Y-95127031D01*
X245780221Y-94437241D01*
X245656873Y-93816134D01*
X245548008Y-93272050D01*
X245455237Y-92813332D01*
X245380171Y-92448321D01*
X245324421Y-92185358D01*
X245289598Y-92032784D01*
X245278362Y-91995942D01*
X245209572Y-91949241D01*
X245042435Y-91842985D01*
X244787189Y-91683491D01*
X244454070Y-91477076D01*
X244053313Y-91230055D01*
X243595155Y-90948744D01*
X243089833Y-90639461D01*
X242547582Y-90308520D01*
X242243721Y-90123460D01*
X241553807Y-89704637D01*
X240960058Y-89346764D01*
X240451010Y-89043368D01*
X240015204Y-88787972D01*
X239641178Y-88574104D01*
X239317472Y-88395290D01*
X239032624Y-88245055D01*
X238775173Y-88116926D01*
X238533658Y-88004427D01*
X238348747Y-87923271D01*
X237894570Y-87735877D01*
X237543852Y-87607933D01*
X237288896Y-87537466D01*
X237122003Y-87522501D01*
X237035475Y-87561064D01*
M02*
