M48
METRIC
T1C0.250
T2C0.400
T3C0.600
T4C1.067
T5C1.525
T6C4.000
%
G90
G05
T1
X75.575Y-41.101
X78.947Y-60.151
X79.36Y-41.868
X80.391Y-61.595
X81.737Y-66.929
X82.408Y-41.868
X82.537Y-66.929
X83.331Y-66.898
X84.131Y-66.898
X84.931Y-66.898
X85.731Y-66.898
X86.091Y-41.868
X88.011Y-61.595
X89.139Y-41.868
X91.837Y-70.525
X93.011Y-40.72
X94.234Y-68.834
X96.313Y-60.659
X96.71Y-51.371
X96.71Y-59.372
X98.737Y-70.025
X98.737Y-70.825
X98.737Y-71.625
X98.737Y-72.425
X98.737Y-73.225
X103.124Y-74.803
X107.188Y-58.458
X156.845Y-55.245
T2
X76.199Y-77.217
X80.772Y-66.929
X90.805Y-91.313
X94.361Y-76.454
T4
X159.777Y-50.15
X159.777Y-55.23
X159.777Y-60.31
X160.183Y-47.61
X160.183Y-52.69
X160.183Y-57.77
T5
X109.94Y-68.54
X116.29Y-66.0
X223.94Y-87.54
X230.29Y-85.0
X71.94Y-87.54
X78.29Y-85.0
X71.94Y-49.54
X78.29Y-47.0
X204.94Y-106.54
X211.29Y-104.0
X128.94Y-106.54
X135.29Y-104.0
X128.94Y-49.54
X135.29Y-47.0
X242.94Y-106.54
X249.29Y-104.0
X204.94Y-87.54
X211.29Y-85.0
X166.94Y-49.54
X173.29Y-47.0
X166.94Y-68.54
X173.29Y-66.0
X52.94Y-106.54
X59.29Y-104.0
X242.94Y-49.543
X249.29Y-47.003
X128.94Y-87.54
X135.29Y-85.0
X109.94Y-106.54
X116.29Y-104.0
X90.94Y-68.54
X97.29Y-66.0
X52.94Y-49.54
X59.29Y-47.0
X223.94Y-68.54
X230.29Y-66.0
X185.94Y-106.54
X192.29Y-104.0
X52.94Y-87.54
X59.29Y-85.0
X185.94Y-87.54
X192.29Y-85.0
X147.94Y-49.54
X154.29Y-47.0
X261.94Y-87.54
X268.29Y-85.0
X223.94Y-49.543
X230.29Y-47.003
X109.94Y-87.54
X116.29Y-85.0
X109.94Y-49.54
X116.29Y-47.0
X71.94Y-68.54
X78.29Y-66.0
X166.94Y-106.54
X173.29Y-104.0
X147.94Y-68.54
X154.29Y-66.0
X242.94Y-87.54
X249.29Y-85.0
X204.94Y-49.54
X211.29Y-47.0
X261.94Y-68.54
X268.29Y-66.0
X223.94Y-106.54
X230.29Y-104.0
X204.94Y-68.54
X211.29Y-66.0
X90.94Y-106.54
X97.29Y-104.0
X52.94Y-68.54
X59.29Y-66.0
X166.94Y-87.54
X173.29Y-85.0
X128.94Y-68.54
X135.29Y-66.0
X90.94Y-87.54
X97.29Y-85.0
X90.94Y-49.54
X97.29Y-47.0
X147.94Y-106.54
X154.29Y-104.0
X147.94Y-87.54
X154.29Y-85.0
X261.94Y-106.54
X268.29Y-104.0
X185.94Y-49.54
X192.29Y-47.0
X242.94Y-68.54
X249.29Y-66.0
X185.94Y-68.54
X192.29Y-66.0
X71.94Y-106.54
X78.29Y-104.0
X261.94Y-49.54
X268.29Y-47.0
T6
X254.98Y-91.96
X121.98Y-91.96
X64.98Y-91.96
X254.98Y-53.96
X64.98Y-53.96
X254.98Y-72.96
X216.98Y-91.96
X102.98Y-91.96
X102.98Y-53.96
X64.98Y-72.96
X197.98Y-53.96
X121.98Y-53.96
X197.98Y-91.96
X216.98Y-53.96
T3
G00X79.68Y-35.169
M15
G01X79.68Y-35.769
M16
G05
G00X79.68Y-39.119
M15
G01X79.68Y-40.219
M16
G05
G00X88.28Y-35.169
M15
G01X88.28Y-35.769
M16
G05
G00X88.28Y-39.119
M15
G01X88.28Y-40.219
M16
G05
T0
M30
