G04 #@! TF.GenerationSoftware,KiCad,Pcbnew,(5.1.2-1)-1*
G04 #@! TF.CreationDate,2020-05-09T09:15:35-05:00*
G04 #@! TF.ProjectId,therick48,74686572-6963-46b3-9438-2e6b69636164,rev?*
G04 #@! TF.SameCoordinates,Original*
G04 #@! TF.FileFunction,Legend,Bot*
G04 #@! TF.FilePolarity,Positive*
%FSLAX46Y46*%
G04 Gerber Fmt 4.6, Leading zero omitted, Abs format (unit mm)*
G04 Created by KiCad (PCBNEW (5.1.2-1)-1) date 2020-05-09 09:15:35*
%MOMM*%
%LPD*%
G04 APERTURE LIST*
%ADD10C,0.200000*%
%ADD11C,0.254000*%
%ADD12C,0.150000*%
%ADD13C,0.120000*%
%ADD14C,0.100000*%
%ADD15C,0.010000*%
%ADD16C,0.203200*%
G04 APERTURE END LIST*
D10*
X82535746Y-108411856D02*
X82059555Y-108411856D01*
X82357174Y-107995190D02*
X82357174Y-109066618D01*
X82297651Y-109185666D01*
X82178603Y-109245190D01*
X82059555Y-109245190D01*
X81642889Y-109245190D02*
X81642889Y-107995190D01*
X81107174Y-109245190D02*
X81107174Y-108590428D01*
X81166698Y-108471380D01*
X81285746Y-108411856D01*
X81464317Y-108411856D01*
X81583365Y-108471380D01*
X81642889Y-108530904D01*
X80035746Y-109185666D02*
X80154794Y-109245190D01*
X80392889Y-109245190D01*
X80511936Y-109185666D01*
X80571460Y-109066618D01*
X80571460Y-108590428D01*
X80511936Y-108471380D01*
X80392889Y-108411856D01*
X80154794Y-108411856D01*
X80035746Y-108471380D01*
X79976222Y-108590428D01*
X79976222Y-108709475D01*
X80571460Y-108828523D01*
X79440508Y-109245190D02*
X79440508Y-108411856D01*
X79440508Y-108649952D02*
X79380984Y-108530904D01*
X79321460Y-108471380D01*
X79202413Y-108411856D01*
X79083365Y-108411856D01*
X78666698Y-109245190D02*
X78666698Y-108411856D01*
X78666698Y-107995190D02*
X78726222Y-108054714D01*
X78666698Y-108114237D01*
X78607174Y-108054714D01*
X78666698Y-107995190D01*
X78666698Y-108114237D01*
X77535746Y-109185666D02*
X77654794Y-109245190D01*
X77892889Y-109245190D01*
X78011936Y-109185666D01*
X78071460Y-109126142D01*
X78130984Y-109007094D01*
X78130984Y-108649952D01*
X78071460Y-108530904D01*
X78011936Y-108471380D01*
X77892889Y-108411856D01*
X77654794Y-108411856D01*
X77535746Y-108471380D01*
X77000032Y-109245190D02*
X77000032Y-107995190D01*
X76880984Y-108768999D02*
X76523841Y-109245190D01*
X76523841Y-108411856D02*
X77000032Y-108888047D01*
X75452413Y-108411856D02*
X75452413Y-109245190D01*
X75750032Y-107935666D02*
X76047651Y-108828523D01*
X75273841Y-108828523D01*
X74619079Y-108530904D02*
X74738127Y-108471380D01*
X74797651Y-108411856D01*
X74857174Y-108292809D01*
X74857174Y-108233285D01*
X74797651Y-108114237D01*
X74738127Y-108054714D01*
X74619079Y-107995190D01*
X74380984Y-107995190D01*
X74261936Y-108054714D01*
X74202413Y-108114237D01*
X74142889Y-108233285D01*
X74142889Y-108292809D01*
X74202413Y-108411856D01*
X74261936Y-108471380D01*
X74380984Y-108530904D01*
X74619079Y-108530904D01*
X74738127Y-108590428D01*
X74797651Y-108649952D01*
X74857174Y-108768999D01*
X74857174Y-109007094D01*
X74797651Y-109126142D01*
X74738127Y-109185666D01*
X74619079Y-109245190D01*
X74380984Y-109245190D01*
X74261936Y-109185666D01*
X74202413Y-109126142D01*
X74142889Y-109007094D01*
X74142889Y-108768999D01*
X74202413Y-108649952D01*
X74261936Y-108590428D01*
X74380984Y-108530904D01*
X69114594Y-109245190D02*
X69114594Y-107995190D01*
X68638404Y-107995190D01*
X68519356Y-108054714D01*
X68459833Y-108114237D01*
X68400309Y-108233285D01*
X68400309Y-108411856D01*
X68459833Y-108530904D01*
X68519356Y-108590428D01*
X68638404Y-108649952D01*
X69114594Y-108649952D01*
X67150309Y-109126142D02*
X67209833Y-109185666D01*
X67388404Y-109245190D01*
X67507452Y-109245190D01*
X67686023Y-109185666D01*
X67805071Y-109066618D01*
X67864594Y-108947571D01*
X67924118Y-108709475D01*
X67924118Y-108530904D01*
X67864594Y-108292809D01*
X67805071Y-108173761D01*
X67686023Y-108054714D01*
X67507452Y-107995190D01*
X67388404Y-107995190D01*
X67209833Y-108054714D01*
X67150309Y-108114237D01*
X66197928Y-108590428D02*
X66019356Y-108649952D01*
X65959833Y-108709475D01*
X65900309Y-108828523D01*
X65900309Y-109007094D01*
X65959833Y-109126142D01*
X66019356Y-109185666D01*
X66138404Y-109245190D01*
X66614594Y-109245190D01*
X66614594Y-107995190D01*
X66197928Y-107995190D01*
X66078880Y-108054714D01*
X66019356Y-108114237D01*
X65959833Y-108233285D01*
X65959833Y-108352333D01*
X66019356Y-108471380D01*
X66078880Y-108530904D01*
X66197928Y-108590428D01*
X66614594Y-108590428D01*
X63697928Y-109245190D02*
X64114594Y-108649952D01*
X64412213Y-109245190D02*
X64412213Y-107995190D01*
X63936023Y-107995190D01*
X63816975Y-108054714D01*
X63757452Y-108114237D01*
X63697928Y-108233285D01*
X63697928Y-108411856D01*
X63757452Y-108530904D01*
X63816975Y-108590428D01*
X63936023Y-108649952D01*
X64412213Y-108649952D01*
X62686023Y-109185666D02*
X62805071Y-109245190D01*
X63043166Y-109245190D01*
X63162213Y-109185666D01*
X63221737Y-109066618D01*
X63221737Y-108590428D01*
X63162213Y-108471380D01*
X63043166Y-108411856D01*
X62805071Y-108411856D01*
X62686023Y-108471380D01*
X62626499Y-108590428D01*
X62626499Y-108709475D01*
X63221737Y-108828523D01*
X62209833Y-108411856D02*
X61912213Y-109245190D01*
X61614594Y-108411856D01*
X59531261Y-109245190D02*
X60245547Y-109245190D01*
X59888404Y-109245190D02*
X59888404Y-107995190D01*
X60007452Y-108173761D01*
X60126499Y-108292809D01*
X60245547Y-108352333D01*
X58995547Y-109126142D02*
X58936023Y-109185666D01*
X58995547Y-109245190D01*
X59055071Y-109185666D01*
X58995547Y-109126142D01*
X58995547Y-109245190D01*
X57745547Y-109245190D02*
X58459833Y-109245190D01*
X58102690Y-109245190D02*
X58102690Y-107995190D01*
X58221737Y-108173761D01*
X58340785Y-108292809D01*
X58459833Y-108352333D01*
D11*
X143998000Y-51852800D02*
X143490000Y-52360800D01*
X143490000Y-52360800D02*
X143490000Y-54392800D01*
X143490000Y-54392800D02*
X143998000Y-54900800D01*
X143998000Y-54900800D02*
X158222000Y-54900800D01*
X158222000Y-54900800D02*
X158730000Y-54392800D01*
X158730000Y-54392800D02*
X158730000Y-52360800D01*
X158730000Y-52360800D02*
X158222000Y-51852800D01*
X158222000Y-51852800D02*
X143998000Y-51852800D01*
D12*
X105580000Y-48580000D02*
X105580000Y-43380000D01*
X105580000Y-43380000D02*
X100380000Y-43380000D01*
X100380000Y-43380000D02*
X100380000Y-48580000D01*
X100380000Y-48580000D02*
X105580000Y-48580000D01*
X103980000Y-45980000D02*
G75*
G03X103980000Y-45980000I-1000000J0D01*
G01*
D13*
X95115748Y-74420000D02*
X95638252Y-74420000D01*
X95115748Y-75840000D02*
X95638252Y-75840000D01*
X95115748Y-72315000D02*
X95638252Y-72315000D01*
X95115748Y-73735000D02*
X95638252Y-73735000D01*
X89729000Y-92163748D02*
X89729000Y-92686252D01*
X88309000Y-92163748D02*
X88309000Y-92686252D01*
X86562000Y-92163748D02*
X86562000Y-92686252D01*
X85142000Y-92163748D02*
X85142000Y-92686252D01*
X83006000Y-92163748D02*
X83006000Y-92686252D01*
X81586000Y-92163748D02*
X81586000Y-92686252D01*
X87837679Y-85906802D02*
X84019302Y-89725179D01*
X84655698Y-82724821D02*
X87837679Y-85906802D01*
D14*
G36*
X88010920Y-85587897D02*
G01*
X87480590Y-85057567D01*
X88010920Y-84527237D01*
X88010920Y-85587897D01*
G37*
X88010920Y-85587897D02*
X87480590Y-85057567D01*
X88010920Y-84527237D01*
X88010920Y-85587897D01*
D13*
X83137000Y-63455252D02*
X83137000Y-62932748D01*
X81717000Y-63455252D02*
X81717000Y-62932748D01*
X73176248Y-71680000D02*
X73698752Y-71680000D01*
X73176248Y-73100000D02*
X73698752Y-73100000D01*
X106478000Y-48680002D02*
X106478000Y-48157498D01*
X107898000Y-48680002D02*
X107898000Y-48157498D01*
X79046000Y-51823252D02*
X79046000Y-51300748D01*
X80466000Y-51823252D02*
X80466000Y-51300748D01*
X84380000Y-50204252D02*
X84380000Y-49681748D01*
X85800000Y-50204252D02*
X85800000Y-49681748D01*
X82137000Y-50204252D02*
X82137000Y-49681748D01*
X83557000Y-50204252D02*
X83557000Y-49681748D01*
X91246000Y-40590748D02*
X91246000Y-41113252D01*
X89826000Y-40590748D02*
X89826000Y-41113252D01*
X78165000Y-40590748D02*
X78165000Y-41113252D01*
X76745000Y-40590748D02*
X76745000Y-41113252D01*
X86060500Y-63455252D02*
X86060500Y-62932748D01*
X84640500Y-63455252D02*
X84640500Y-62932748D01*
X73540252Y-79323000D02*
X73017748Y-79323000D01*
X73540252Y-77903000D02*
X73017748Y-77903000D01*
D14*
G36*
X142875000Y-61115575D02*
G01*
X142275000Y-61915575D01*
X143475000Y-61915575D01*
X142875000Y-61115575D01*
G37*
X142875000Y-61115575D02*
X142275000Y-61915575D01*
X143475000Y-61915575D01*
X142875000Y-61115575D01*
D10*
X143775000Y-60401337D02*
X143775000Y-59901375D01*
X143275000Y-60901375D02*
G75*
G03X143775000Y-60401375I0J500000D01*
G01*
X143775000Y-59901375D02*
G75*
G03X143275000Y-59401375I-500000J0D01*
G01*
X142475000Y-59401375D02*
X143275000Y-59401375D01*
X142475000Y-59401375D02*
G75*
G03X141975000Y-59901375I0J-500000D01*
G01*
X141975000Y-59901413D02*
X141975000Y-60401375D01*
X142475000Y-60901375D02*
X143275000Y-60901375D01*
X141975000Y-60401375D02*
G75*
G03X142475000Y-60901375I500000J0D01*
G01*
D14*
G36*
X256540000Y-99215575D02*
G01*
X255940000Y-100015575D01*
X257140000Y-100015575D01*
X256540000Y-99215575D01*
G37*
X256540000Y-99215575D02*
X255940000Y-100015575D01*
X257140000Y-100015575D01*
X256540000Y-99215575D01*
D10*
X257440000Y-98501337D02*
X257440000Y-98001375D01*
X256940000Y-99001375D02*
G75*
G03X257440000Y-98501375I0J500000D01*
G01*
X257440000Y-98001375D02*
G75*
G03X256940000Y-97501375I-500000J0D01*
G01*
X256140000Y-97501375D02*
X256940000Y-97501375D01*
X256140000Y-97501375D02*
G75*
G03X255640000Y-98001375I0J-500000D01*
G01*
X255640000Y-98001413D02*
X255640000Y-98501375D01*
X256140000Y-99001375D02*
X256940000Y-99001375D01*
X255640000Y-98501375D02*
G75*
G03X256140000Y-99001375I500000J0D01*
G01*
D14*
G36*
X253365000Y-99215575D02*
G01*
X252765000Y-100015575D01*
X253965000Y-100015575D01*
X253365000Y-99215575D01*
G37*
X253365000Y-99215575D02*
X252765000Y-100015575D01*
X253965000Y-100015575D01*
X253365000Y-99215575D01*
D10*
X254265000Y-98501337D02*
X254265000Y-98001375D01*
X253765000Y-99001375D02*
G75*
G03X254265000Y-98501375I0J500000D01*
G01*
X254265000Y-98001375D02*
G75*
G03X253765000Y-97501375I-500000J0D01*
G01*
X252965000Y-97501375D02*
X253765000Y-97501375D01*
X252965000Y-97501375D02*
G75*
G03X252465000Y-98001375I0J-500000D01*
G01*
X252465000Y-98001413D02*
X252465000Y-98501375D01*
X252965000Y-99001375D02*
X253765000Y-99001375D01*
X252465000Y-98501375D02*
G75*
G03X252965000Y-99001375I500000J0D01*
G01*
D14*
G36*
X218567000Y-99215575D02*
G01*
X217967000Y-100015575D01*
X219167000Y-100015575D01*
X218567000Y-99215575D01*
G37*
X218567000Y-99215575D02*
X217967000Y-100015575D01*
X219167000Y-100015575D01*
X218567000Y-99215575D01*
D10*
X219467000Y-98501337D02*
X219467000Y-98001375D01*
X218967000Y-99001375D02*
G75*
G03X219467000Y-98501375I0J500000D01*
G01*
X219467000Y-98001375D02*
G75*
G03X218967000Y-97501375I-500000J0D01*
G01*
X218167000Y-97501375D02*
X218967000Y-97501375D01*
X218167000Y-97501375D02*
G75*
G03X217667000Y-98001375I0J-500000D01*
G01*
X217667000Y-98001413D02*
X217667000Y-98501375D01*
X218167000Y-99001375D02*
X218967000Y-99001375D01*
X217667000Y-98501375D02*
G75*
G03X218167000Y-99001375I500000J0D01*
G01*
D14*
G36*
X215392000Y-99215575D02*
G01*
X214792000Y-100015575D01*
X215992000Y-100015575D01*
X215392000Y-99215575D01*
G37*
X215392000Y-99215575D02*
X214792000Y-100015575D01*
X215992000Y-100015575D01*
X215392000Y-99215575D01*
D10*
X216292000Y-98501337D02*
X216292000Y-98001375D01*
X215792000Y-99001375D02*
G75*
G03X216292000Y-98501375I0J500000D01*
G01*
X216292000Y-98001375D02*
G75*
G03X215792000Y-97501375I-500000J0D01*
G01*
X214992000Y-97501375D02*
X215792000Y-97501375D01*
X214992000Y-97501375D02*
G75*
G03X214492000Y-98001375I0J-500000D01*
G01*
X214492000Y-98001413D02*
X214492000Y-98501375D01*
X214992000Y-99001375D02*
X215792000Y-99001375D01*
X214492000Y-98501375D02*
G75*
G03X214992000Y-99001375I500000J0D01*
G01*
D14*
G36*
X180594000Y-99215575D02*
G01*
X179994000Y-100015575D01*
X181194000Y-100015575D01*
X180594000Y-99215575D01*
G37*
X180594000Y-99215575D02*
X179994000Y-100015575D01*
X181194000Y-100015575D01*
X180594000Y-99215575D01*
D10*
X181494000Y-98501337D02*
X181494000Y-98001375D01*
X180994000Y-99001375D02*
G75*
G03X181494000Y-98501375I0J500000D01*
G01*
X181494000Y-98001375D02*
G75*
G03X180994000Y-97501375I-500000J0D01*
G01*
X180194000Y-97501375D02*
X180994000Y-97501375D01*
X180194000Y-97501375D02*
G75*
G03X179694000Y-98001375I0J-500000D01*
G01*
X179694000Y-98001413D02*
X179694000Y-98501375D01*
X180194000Y-99001375D02*
X180994000Y-99001375D01*
X179694000Y-98501375D02*
G75*
G03X180194000Y-99001375I500000J0D01*
G01*
D14*
G36*
X177419000Y-99215575D02*
G01*
X176819000Y-100015575D01*
X178019000Y-100015575D01*
X177419000Y-99215575D01*
G37*
X177419000Y-99215575D02*
X176819000Y-100015575D01*
X178019000Y-100015575D01*
X177419000Y-99215575D01*
D10*
X178319000Y-98501337D02*
X178319000Y-98001375D01*
X177819000Y-99001375D02*
G75*
G03X178319000Y-98501375I0J500000D01*
G01*
X178319000Y-98001375D02*
G75*
G03X177819000Y-97501375I-500000J0D01*
G01*
X177019000Y-97501375D02*
X177819000Y-97501375D01*
X177019000Y-97501375D02*
G75*
G03X176519000Y-98001375I0J-500000D01*
G01*
X176519000Y-98001413D02*
X176519000Y-98501375D01*
X177019000Y-99001375D02*
X177819000Y-99001375D01*
X176519000Y-98501375D02*
G75*
G03X177019000Y-99001375I500000J0D01*
G01*
D14*
G36*
X142494000Y-99215575D02*
G01*
X141894000Y-100015575D01*
X143094000Y-100015575D01*
X142494000Y-99215575D01*
G37*
X142494000Y-99215575D02*
X141894000Y-100015575D01*
X143094000Y-100015575D01*
X142494000Y-99215575D01*
D10*
X143394000Y-98501337D02*
X143394000Y-98001375D01*
X142894000Y-99001375D02*
G75*
G03X143394000Y-98501375I0J500000D01*
G01*
X143394000Y-98001375D02*
G75*
G03X142894000Y-97501375I-500000J0D01*
G01*
X142094000Y-97501375D02*
X142894000Y-97501375D01*
X142094000Y-97501375D02*
G75*
G03X141594000Y-98001375I0J-500000D01*
G01*
X141594000Y-98001413D02*
X141594000Y-98501375D01*
X142094000Y-99001375D02*
X142894000Y-99001375D01*
X141594000Y-98501375D02*
G75*
G03X142094000Y-99001375I500000J0D01*
G01*
D14*
G36*
X139319000Y-99215575D02*
G01*
X138719000Y-100015575D01*
X139919000Y-100015575D01*
X139319000Y-99215575D01*
G37*
X139319000Y-99215575D02*
X138719000Y-100015575D01*
X139919000Y-100015575D01*
X139319000Y-99215575D01*
D10*
X140219000Y-98501337D02*
X140219000Y-98001375D01*
X139719000Y-99001375D02*
G75*
G03X140219000Y-98501375I0J500000D01*
G01*
X140219000Y-98001375D02*
G75*
G03X139719000Y-97501375I-500000J0D01*
G01*
X138919000Y-97501375D02*
X139719000Y-97501375D01*
X138919000Y-97501375D02*
G75*
G03X138419000Y-98001375I0J-500000D01*
G01*
X138419000Y-98001413D02*
X138419000Y-98501375D01*
X138919000Y-99001375D02*
X139719000Y-99001375D01*
X138419000Y-98501375D02*
G75*
G03X138919000Y-99001375I500000J0D01*
G01*
D14*
G36*
X104521000Y-99215575D02*
G01*
X103921000Y-100015575D01*
X105121000Y-100015575D01*
X104521000Y-99215575D01*
G37*
X104521000Y-99215575D02*
X103921000Y-100015575D01*
X105121000Y-100015575D01*
X104521000Y-99215575D01*
D10*
X105421000Y-98501337D02*
X105421000Y-98001375D01*
X104921000Y-99001375D02*
G75*
G03X105421000Y-98501375I0J500000D01*
G01*
X105421000Y-98001375D02*
G75*
G03X104921000Y-97501375I-500000J0D01*
G01*
X104121000Y-97501375D02*
X104921000Y-97501375D01*
X104121000Y-97501375D02*
G75*
G03X103621000Y-98001375I0J-500000D01*
G01*
X103621000Y-98001413D02*
X103621000Y-98501375D01*
X104121000Y-99001375D02*
X104921000Y-99001375D01*
X103621000Y-98501375D02*
G75*
G03X104121000Y-99001375I500000J0D01*
G01*
D14*
G36*
X101346000Y-99215575D02*
G01*
X100746000Y-100015575D01*
X101946000Y-100015575D01*
X101346000Y-99215575D01*
G37*
X101346000Y-99215575D02*
X100746000Y-100015575D01*
X101946000Y-100015575D01*
X101346000Y-99215575D01*
D10*
X102246000Y-98501337D02*
X102246000Y-98001375D01*
X101746000Y-99001375D02*
G75*
G03X102246000Y-98501375I0J500000D01*
G01*
X102246000Y-98001375D02*
G75*
G03X101746000Y-97501375I-500000J0D01*
G01*
X100946000Y-97501375D02*
X101746000Y-97501375D01*
X100946000Y-97501375D02*
G75*
G03X100446000Y-98001375I0J-500000D01*
G01*
X100446000Y-98001413D02*
X100446000Y-98501375D01*
X100946000Y-99001375D02*
X101746000Y-99001375D01*
X100446000Y-98501375D02*
G75*
G03X100946000Y-99001375I500000J0D01*
G01*
D14*
G36*
X66548000Y-99215575D02*
G01*
X65948000Y-100015575D01*
X67148000Y-100015575D01*
X66548000Y-99215575D01*
G37*
X66548000Y-99215575D02*
X65948000Y-100015575D01*
X67148000Y-100015575D01*
X66548000Y-99215575D01*
D10*
X67448000Y-98501337D02*
X67448000Y-98001375D01*
X66948000Y-99001375D02*
G75*
G03X67448000Y-98501375I0J500000D01*
G01*
X67448000Y-98001375D02*
G75*
G03X66948000Y-97501375I-500000J0D01*
G01*
X66148000Y-97501375D02*
X66948000Y-97501375D01*
X66148000Y-97501375D02*
G75*
G03X65648000Y-98001375I0J-500000D01*
G01*
X65648000Y-98001413D02*
X65648000Y-98501375D01*
X66148000Y-99001375D02*
X66948000Y-99001375D01*
X65648000Y-98501375D02*
G75*
G03X66148000Y-99001375I500000J0D01*
G01*
D14*
G36*
X63373805Y-99215575D02*
G01*
X62773805Y-100015575D01*
X63973805Y-100015575D01*
X63373805Y-99215575D01*
G37*
X63373805Y-99215575D02*
X62773805Y-100015575D01*
X63973805Y-100015575D01*
X63373805Y-99215575D01*
D10*
X64273805Y-98501337D02*
X64273805Y-98001375D01*
X63773805Y-99001375D02*
G75*
G03X64273805Y-98501375I0J500000D01*
G01*
X64273805Y-98001375D02*
G75*
G03X63773805Y-97501375I-500000J0D01*
G01*
X62973805Y-97501375D02*
X63773805Y-97501375D01*
X62973805Y-97501375D02*
G75*
G03X62473805Y-98001375I0J-500000D01*
G01*
X62473805Y-98001413D02*
X62473805Y-98501375D01*
X62973805Y-99001375D02*
X63773805Y-99001375D01*
X62473805Y-98501375D02*
G75*
G03X62973805Y-99001375I500000J0D01*
G01*
D14*
G36*
X256540000Y-80165575D02*
G01*
X255940000Y-80965575D01*
X257140000Y-80965575D01*
X256540000Y-80165575D01*
G37*
X256540000Y-80165575D02*
X255940000Y-80965575D01*
X257140000Y-80965575D01*
X256540000Y-80165575D01*
D10*
X257440000Y-79451337D02*
X257440000Y-78951375D01*
X256940000Y-79951375D02*
G75*
G03X257440000Y-79451375I0J500000D01*
G01*
X257440000Y-78951375D02*
G75*
G03X256940000Y-78451375I-500000J0D01*
G01*
X256140000Y-78451375D02*
X256940000Y-78451375D01*
X256140000Y-78451375D02*
G75*
G03X255640000Y-78951375I0J-500000D01*
G01*
X255640000Y-78951413D02*
X255640000Y-79451375D01*
X256140000Y-79951375D02*
X256940000Y-79951375D01*
X255640000Y-79451375D02*
G75*
G03X256140000Y-79951375I500000J0D01*
G01*
D14*
G36*
X253365000Y-80165575D02*
G01*
X252765000Y-80965575D01*
X253965000Y-80965575D01*
X253365000Y-80165575D01*
G37*
X253365000Y-80165575D02*
X252765000Y-80965575D01*
X253965000Y-80965575D01*
X253365000Y-80165575D01*
D10*
X254265000Y-79451337D02*
X254265000Y-78951375D01*
X253765000Y-79951375D02*
G75*
G03X254265000Y-79451375I0J500000D01*
G01*
X254265000Y-78951375D02*
G75*
G03X253765000Y-78451375I-500000J0D01*
G01*
X252965000Y-78451375D02*
X253765000Y-78451375D01*
X252965000Y-78451375D02*
G75*
G03X252465000Y-78951375I0J-500000D01*
G01*
X252465000Y-78951413D02*
X252465000Y-79451375D01*
X252965000Y-79951375D02*
X253765000Y-79951375D01*
X252465000Y-79451375D02*
G75*
G03X252965000Y-79951375I500000J0D01*
G01*
D14*
G36*
X218567000Y-80165575D02*
G01*
X217967000Y-80965575D01*
X219167000Y-80965575D01*
X218567000Y-80165575D01*
G37*
X218567000Y-80165575D02*
X217967000Y-80965575D01*
X219167000Y-80965575D01*
X218567000Y-80165575D01*
D10*
X219467000Y-79451337D02*
X219467000Y-78951375D01*
X218967000Y-79951375D02*
G75*
G03X219467000Y-79451375I0J500000D01*
G01*
X219467000Y-78951375D02*
G75*
G03X218967000Y-78451375I-500000J0D01*
G01*
X218167000Y-78451375D02*
X218967000Y-78451375D01*
X218167000Y-78451375D02*
G75*
G03X217667000Y-78951375I0J-500000D01*
G01*
X217667000Y-78951413D02*
X217667000Y-79451375D01*
X218167000Y-79951375D02*
X218967000Y-79951375D01*
X217667000Y-79451375D02*
G75*
G03X218167000Y-79951375I500000J0D01*
G01*
D14*
G36*
X215392000Y-80165575D02*
G01*
X214792000Y-80965575D01*
X215992000Y-80965575D01*
X215392000Y-80165575D01*
G37*
X215392000Y-80165575D02*
X214792000Y-80965575D01*
X215992000Y-80965575D01*
X215392000Y-80165575D01*
D10*
X216292000Y-79451337D02*
X216292000Y-78951375D01*
X215792000Y-79951375D02*
G75*
G03X216292000Y-79451375I0J500000D01*
G01*
X216292000Y-78951375D02*
G75*
G03X215792000Y-78451375I-500000J0D01*
G01*
X214992000Y-78451375D02*
X215792000Y-78451375D01*
X214992000Y-78451375D02*
G75*
G03X214492000Y-78951375I0J-500000D01*
G01*
X214492000Y-78951413D02*
X214492000Y-79451375D01*
X214992000Y-79951375D02*
X215792000Y-79951375D01*
X214492000Y-79451375D02*
G75*
G03X214992000Y-79951375I500000J0D01*
G01*
D14*
G36*
X180594000Y-80165575D02*
G01*
X179994000Y-80965575D01*
X181194000Y-80965575D01*
X180594000Y-80165575D01*
G37*
X180594000Y-80165575D02*
X179994000Y-80965575D01*
X181194000Y-80965575D01*
X180594000Y-80165575D01*
D10*
X181494000Y-79451337D02*
X181494000Y-78951375D01*
X180994000Y-79951375D02*
G75*
G03X181494000Y-79451375I0J500000D01*
G01*
X181494000Y-78951375D02*
G75*
G03X180994000Y-78451375I-500000J0D01*
G01*
X180194000Y-78451375D02*
X180994000Y-78451375D01*
X180194000Y-78451375D02*
G75*
G03X179694000Y-78951375I0J-500000D01*
G01*
X179694000Y-78951413D02*
X179694000Y-79451375D01*
X180194000Y-79951375D02*
X180994000Y-79951375D01*
X179694000Y-79451375D02*
G75*
G03X180194000Y-79951375I500000J0D01*
G01*
D14*
G36*
X177419000Y-80165575D02*
G01*
X176819000Y-80965575D01*
X178019000Y-80965575D01*
X177419000Y-80165575D01*
G37*
X177419000Y-80165575D02*
X176819000Y-80965575D01*
X178019000Y-80965575D01*
X177419000Y-80165575D01*
D10*
X178319000Y-79451337D02*
X178319000Y-78951375D01*
X177819000Y-79951375D02*
G75*
G03X178319000Y-79451375I0J500000D01*
G01*
X178319000Y-78951375D02*
G75*
G03X177819000Y-78451375I-500000J0D01*
G01*
X177019000Y-78451375D02*
X177819000Y-78451375D01*
X177019000Y-78451375D02*
G75*
G03X176519000Y-78951375I0J-500000D01*
G01*
X176519000Y-78951413D02*
X176519000Y-79451375D01*
X177019000Y-79951375D02*
X177819000Y-79951375D01*
X176519000Y-79451375D02*
G75*
G03X177019000Y-79951375I500000J0D01*
G01*
D14*
G36*
X142621000Y-80165575D02*
G01*
X142021000Y-80965575D01*
X143221000Y-80965575D01*
X142621000Y-80165575D01*
G37*
X142621000Y-80165575D02*
X142021000Y-80965575D01*
X143221000Y-80965575D01*
X142621000Y-80165575D01*
D10*
X143521000Y-79451337D02*
X143521000Y-78951375D01*
X143021000Y-79951375D02*
G75*
G03X143521000Y-79451375I0J500000D01*
G01*
X143521000Y-78951375D02*
G75*
G03X143021000Y-78451375I-500000J0D01*
G01*
X142221000Y-78451375D02*
X143021000Y-78451375D01*
X142221000Y-78451375D02*
G75*
G03X141721000Y-78951375I0J-500000D01*
G01*
X141721000Y-78951413D02*
X141721000Y-79451375D01*
X142221000Y-79951375D02*
X143021000Y-79951375D01*
X141721000Y-79451375D02*
G75*
G03X142221000Y-79951375I500000J0D01*
G01*
D14*
G36*
X139446000Y-80165575D02*
G01*
X138846000Y-80965575D01*
X140046000Y-80965575D01*
X139446000Y-80165575D01*
G37*
X139446000Y-80165575D02*
X138846000Y-80965575D01*
X140046000Y-80965575D01*
X139446000Y-80165575D01*
D10*
X140346000Y-79451337D02*
X140346000Y-78951375D01*
X139846000Y-79951375D02*
G75*
G03X140346000Y-79451375I0J500000D01*
G01*
X140346000Y-78951375D02*
G75*
G03X139846000Y-78451375I-500000J0D01*
G01*
X139046000Y-78451375D02*
X139846000Y-78451375D01*
X139046000Y-78451375D02*
G75*
G03X138546000Y-78951375I0J-500000D01*
G01*
X138546000Y-78951413D02*
X138546000Y-79451375D01*
X139046000Y-79951375D02*
X139846000Y-79951375D01*
X138546000Y-79451375D02*
G75*
G03X139046000Y-79951375I500000J0D01*
G01*
D14*
G36*
X104521000Y-80165575D02*
G01*
X103921000Y-80965575D01*
X105121000Y-80965575D01*
X104521000Y-80165575D01*
G37*
X104521000Y-80165575D02*
X103921000Y-80965575D01*
X105121000Y-80965575D01*
X104521000Y-80165575D01*
D10*
X105421000Y-79451337D02*
X105421000Y-78951375D01*
X104921000Y-79951375D02*
G75*
G03X105421000Y-79451375I0J500000D01*
G01*
X105421000Y-78951375D02*
G75*
G03X104921000Y-78451375I-500000J0D01*
G01*
X104121000Y-78451375D02*
X104921000Y-78451375D01*
X104121000Y-78451375D02*
G75*
G03X103621000Y-78951375I0J-500000D01*
G01*
X103621000Y-78951413D02*
X103621000Y-79451375D01*
X104121000Y-79951375D02*
X104921000Y-79951375D01*
X103621000Y-79451375D02*
G75*
G03X104121000Y-79951375I500000J0D01*
G01*
D14*
G36*
X101346000Y-80165575D02*
G01*
X100746000Y-80965575D01*
X101946000Y-80965575D01*
X101346000Y-80165575D01*
G37*
X101346000Y-80165575D02*
X100746000Y-80965575D01*
X101946000Y-80965575D01*
X101346000Y-80165575D01*
D10*
X102246000Y-79451337D02*
X102246000Y-78951375D01*
X101746000Y-79951375D02*
G75*
G03X102246000Y-79451375I0J500000D01*
G01*
X102246000Y-78951375D02*
G75*
G03X101746000Y-78451375I-500000J0D01*
G01*
X100946000Y-78451375D02*
X101746000Y-78451375D01*
X100946000Y-78451375D02*
G75*
G03X100446000Y-78951375I0J-500000D01*
G01*
X100446000Y-78951413D02*
X100446000Y-79451375D01*
X100946000Y-79951375D02*
X101746000Y-79951375D01*
X100446000Y-79451375D02*
G75*
G03X100946000Y-79951375I500000J0D01*
G01*
D14*
G36*
X66548000Y-80165575D02*
G01*
X65948000Y-80965575D01*
X67148000Y-80965575D01*
X66548000Y-80165575D01*
G37*
X66548000Y-80165575D02*
X65948000Y-80965575D01*
X67148000Y-80965575D01*
X66548000Y-80165575D01*
D10*
X67448000Y-79451337D02*
X67448000Y-78951375D01*
X66948000Y-79951375D02*
G75*
G03X67448000Y-79451375I0J500000D01*
G01*
X67448000Y-78951375D02*
G75*
G03X66948000Y-78451375I-500000J0D01*
G01*
X66148000Y-78451375D02*
X66948000Y-78451375D01*
X66148000Y-78451375D02*
G75*
G03X65648000Y-78951375I0J-500000D01*
G01*
X65648000Y-78951413D02*
X65648000Y-79451375D01*
X66148000Y-79951375D02*
X66948000Y-79951375D01*
X65648000Y-79451375D02*
G75*
G03X66148000Y-79951375I500000J0D01*
G01*
D14*
G36*
X63373000Y-80165575D02*
G01*
X62773000Y-80965575D01*
X63973000Y-80965575D01*
X63373000Y-80165575D01*
G37*
X63373000Y-80165575D02*
X62773000Y-80965575D01*
X63973000Y-80965575D01*
X63373000Y-80165575D01*
D10*
X64273000Y-79451337D02*
X64273000Y-78951375D01*
X63773000Y-79951375D02*
G75*
G03X64273000Y-79451375I0J500000D01*
G01*
X64273000Y-78951375D02*
G75*
G03X63773000Y-78451375I-500000J0D01*
G01*
X62973000Y-78451375D02*
X63773000Y-78451375D01*
X62973000Y-78451375D02*
G75*
G03X62473000Y-78951375I0J-500000D01*
G01*
X62473000Y-78951413D02*
X62473000Y-79451375D01*
X62973000Y-79951375D02*
X63773000Y-79951375D01*
X62473000Y-79451375D02*
G75*
G03X62973000Y-79951375I500000J0D01*
G01*
D14*
G36*
X256540000Y-61115575D02*
G01*
X255940000Y-61915575D01*
X257140000Y-61915575D01*
X256540000Y-61115575D01*
G37*
X256540000Y-61115575D02*
X255940000Y-61915575D01*
X257140000Y-61915575D01*
X256540000Y-61115575D01*
D10*
X257440000Y-60401337D02*
X257440000Y-59901375D01*
X256940000Y-60901375D02*
G75*
G03X257440000Y-60401375I0J500000D01*
G01*
X257440000Y-59901375D02*
G75*
G03X256940000Y-59401375I-500000J0D01*
G01*
X256140000Y-59401375D02*
X256940000Y-59401375D01*
X256140000Y-59401375D02*
G75*
G03X255640000Y-59901375I0J-500000D01*
G01*
X255640000Y-59901413D02*
X255640000Y-60401375D01*
X256140000Y-60901375D02*
X256940000Y-60901375D01*
X255640000Y-60401375D02*
G75*
G03X256140000Y-60901375I500000J0D01*
G01*
D14*
G36*
X253365000Y-61115575D02*
G01*
X252765000Y-61915575D01*
X253965000Y-61915575D01*
X253365000Y-61115575D01*
G37*
X253365000Y-61115575D02*
X252765000Y-61915575D01*
X253965000Y-61915575D01*
X253365000Y-61115575D01*
D10*
X254265000Y-60401337D02*
X254265000Y-59901375D01*
X253765000Y-60901375D02*
G75*
G03X254265000Y-60401375I0J500000D01*
G01*
X254265000Y-59901375D02*
G75*
G03X253765000Y-59401375I-500000J0D01*
G01*
X252965000Y-59401375D02*
X253765000Y-59401375D01*
X252965000Y-59401375D02*
G75*
G03X252465000Y-59901375I0J-500000D01*
G01*
X252465000Y-59901413D02*
X252465000Y-60401375D01*
X252965000Y-60901375D02*
X253765000Y-60901375D01*
X252465000Y-60401375D02*
G75*
G03X252965000Y-60901375I500000J0D01*
G01*
D14*
G36*
X218567000Y-61115575D02*
G01*
X217967000Y-61915575D01*
X219167000Y-61915575D01*
X218567000Y-61115575D01*
G37*
X218567000Y-61115575D02*
X217967000Y-61915575D01*
X219167000Y-61915575D01*
X218567000Y-61115575D01*
D10*
X219467000Y-60401337D02*
X219467000Y-59901375D01*
X218967000Y-60901375D02*
G75*
G03X219467000Y-60401375I0J500000D01*
G01*
X219467000Y-59901375D02*
G75*
G03X218967000Y-59401375I-500000J0D01*
G01*
X218167000Y-59401375D02*
X218967000Y-59401375D01*
X218167000Y-59401375D02*
G75*
G03X217667000Y-59901375I0J-500000D01*
G01*
X217667000Y-59901413D02*
X217667000Y-60401375D01*
X218167000Y-60901375D02*
X218967000Y-60901375D01*
X217667000Y-60401375D02*
G75*
G03X218167000Y-60901375I500000J0D01*
G01*
D14*
G36*
X215392000Y-61115575D02*
G01*
X214792000Y-61915575D01*
X215992000Y-61915575D01*
X215392000Y-61115575D01*
G37*
X215392000Y-61115575D02*
X214792000Y-61915575D01*
X215992000Y-61915575D01*
X215392000Y-61115575D01*
D10*
X216292000Y-60401337D02*
X216292000Y-59901375D01*
X215792000Y-60901375D02*
G75*
G03X216292000Y-60401375I0J500000D01*
G01*
X216292000Y-59901375D02*
G75*
G03X215792000Y-59401375I-500000J0D01*
G01*
X214992000Y-59401375D02*
X215792000Y-59401375D01*
X214992000Y-59401375D02*
G75*
G03X214492000Y-59901375I0J-500000D01*
G01*
X214492000Y-59901413D02*
X214492000Y-60401375D01*
X214992000Y-60901375D02*
X215792000Y-60901375D01*
X214492000Y-60401375D02*
G75*
G03X214992000Y-60901375I500000J0D01*
G01*
D14*
G36*
X180594000Y-61115575D02*
G01*
X179994000Y-61915575D01*
X181194000Y-61915575D01*
X180594000Y-61115575D01*
G37*
X180594000Y-61115575D02*
X179994000Y-61915575D01*
X181194000Y-61915575D01*
X180594000Y-61115575D01*
D10*
X181494000Y-60401337D02*
X181494000Y-59901375D01*
X180994000Y-60901375D02*
G75*
G03X181494000Y-60401375I0J500000D01*
G01*
X181494000Y-59901375D02*
G75*
G03X180994000Y-59401375I-500000J0D01*
G01*
X180194000Y-59401375D02*
X180994000Y-59401375D01*
X180194000Y-59401375D02*
G75*
G03X179694000Y-59901375I0J-500000D01*
G01*
X179694000Y-59901413D02*
X179694000Y-60401375D01*
X180194000Y-60901375D02*
X180994000Y-60901375D01*
X179694000Y-60401375D02*
G75*
G03X180194000Y-60901375I500000J0D01*
G01*
D14*
G36*
X177419000Y-61115575D02*
G01*
X176819000Y-61915575D01*
X178019000Y-61915575D01*
X177419000Y-61115575D01*
G37*
X177419000Y-61115575D02*
X176819000Y-61915575D01*
X178019000Y-61915575D01*
X177419000Y-61115575D01*
D10*
X178319000Y-60401337D02*
X178319000Y-59901375D01*
X177819000Y-60901375D02*
G75*
G03X178319000Y-60401375I0J500000D01*
G01*
X178319000Y-59901375D02*
G75*
G03X177819000Y-59401375I-500000J0D01*
G01*
X177019000Y-59401375D02*
X177819000Y-59401375D01*
X177019000Y-59401375D02*
G75*
G03X176519000Y-59901375I0J-500000D01*
G01*
X176519000Y-59901413D02*
X176519000Y-60401375D01*
X177019000Y-60901375D02*
X177819000Y-60901375D01*
X176519000Y-60401375D02*
G75*
G03X177019000Y-60901375I500000J0D01*
G01*
D14*
G36*
X139700000Y-61115575D02*
G01*
X139100000Y-61915575D01*
X140300000Y-61915575D01*
X139700000Y-61115575D01*
G37*
X139700000Y-61115575D02*
X139100000Y-61915575D01*
X140300000Y-61915575D01*
X139700000Y-61115575D01*
D10*
X140600000Y-60401337D02*
X140600000Y-59901375D01*
X140100000Y-60901375D02*
G75*
G03X140600000Y-60401375I0J500000D01*
G01*
X140600000Y-59901375D02*
G75*
G03X140100000Y-59401375I-500000J0D01*
G01*
X139300000Y-59401375D02*
X140100000Y-59401375D01*
X139300000Y-59401375D02*
G75*
G03X138800000Y-59901375I0J-500000D01*
G01*
X138800000Y-59901413D02*
X138800000Y-60401375D01*
X139300000Y-60901375D02*
X140100000Y-60901375D01*
X138800000Y-60401375D02*
G75*
G03X139300000Y-60901375I500000J0D01*
G01*
D14*
G36*
X104775000Y-61115575D02*
G01*
X104175000Y-61915575D01*
X105375000Y-61915575D01*
X104775000Y-61115575D01*
G37*
X104775000Y-61115575D02*
X104175000Y-61915575D01*
X105375000Y-61915575D01*
X104775000Y-61115575D01*
D10*
X105675000Y-60401337D02*
X105675000Y-59901375D01*
X105175000Y-60901375D02*
G75*
G03X105675000Y-60401375I0J500000D01*
G01*
X105675000Y-59901375D02*
G75*
G03X105175000Y-59401375I-500000J0D01*
G01*
X104375000Y-59401375D02*
X105175000Y-59401375D01*
X104375000Y-59401375D02*
G75*
G03X103875000Y-59901375I0J-500000D01*
G01*
X103875000Y-59901413D02*
X103875000Y-60401375D01*
X104375000Y-60901375D02*
X105175000Y-60901375D01*
X103875000Y-60401375D02*
G75*
G03X104375000Y-60901375I500000J0D01*
G01*
D14*
G36*
X101600000Y-61115575D02*
G01*
X101000000Y-61915575D01*
X102200000Y-61915575D01*
X101600000Y-61115575D01*
G37*
X101600000Y-61115575D02*
X101000000Y-61915575D01*
X102200000Y-61915575D01*
X101600000Y-61115575D01*
D10*
X102500000Y-60401337D02*
X102500000Y-59901375D01*
X102000000Y-60901375D02*
G75*
G03X102500000Y-60401375I0J500000D01*
G01*
X102500000Y-59901375D02*
G75*
G03X102000000Y-59401375I-500000J0D01*
G01*
X101200000Y-59401375D02*
X102000000Y-59401375D01*
X101200000Y-59401375D02*
G75*
G03X100700000Y-59901375I0J-500000D01*
G01*
X100700000Y-59901413D02*
X100700000Y-60401375D01*
X101200000Y-60901375D02*
X102000000Y-60901375D01*
X100700000Y-60401375D02*
G75*
G03X101200000Y-60901375I500000J0D01*
G01*
X65775000Y-60401375D02*
G75*
G03X66275000Y-60901375I500000J0D01*
G01*
X66275000Y-60901375D02*
X67075000Y-60901375D01*
X65775000Y-59901413D02*
X65775000Y-60401375D01*
X66275000Y-59401375D02*
G75*
G03X65775000Y-59901375I0J-500000D01*
G01*
X66275000Y-59401375D02*
X67075000Y-59401375D01*
X67575000Y-59901375D02*
G75*
G03X67075000Y-59401375I-500000J0D01*
G01*
X67075000Y-60901375D02*
G75*
G03X67575000Y-60401375I0J500000D01*
G01*
X67575000Y-60401337D02*
X67575000Y-59901375D01*
D14*
G36*
X66675000Y-61115575D02*
G01*
X66075000Y-61915575D01*
X67275000Y-61915575D01*
X66675000Y-61115575D01*
G37*
X66675000Y-61115575D02*
X66075000Y-61915575D01*
X67275000Y-61915575D01*
X66675000Y-61115575D01*
D10*
X62600000Y-60401375D02*
G75*
G03X63100000Y-60901375I500000J0D01*
G01*
X63100000Y-60901375D02*
X63900000Y-60901375D01*
X62600000Y-59901413D02*
X62600000Y-60401375D01*
X63100000Y-59401375D02*
G75*
G03X62600000Y-59901375I0J-500000D01*
G01*
X63100000Y-59401375D02*
X63900000Y-59401375D01*
X64400000Y-59901375D02*
G75*
G03X63900000Y-59401375I-500000J0D01*
G01*
X63900000Y-60901375D02*
G75*
G03X64400000Y-60401375I0J500000D01*
G01*
X64400000Y-60401337D02*
X64400000Y-59901375D01*
D14*
G36*
X63500000Y-61115575D02*
G01*
X62900000Y-61915575D01*
X64100000Y-61915575D01*
X63500000Y-61115575D01*
G37*
X63500000Y-61115575D02*
X62900000Y-61915575D01*
X64100000Y-61915575D01*
X63500000Y-61115575D01*
G36*
X256540000Y-42065575D02*
G01*
X255940000Y-42865575D01*
X257140000Y-42865575D01*
X256540000Y-42065575D01*
G37*
X256540000Y-42065575D02*
X255940000Y-42865575D01*
X257140000Y-42865575D01*
X256540000Y-42065575D01*
D10*
X257440000Y-41351337D02*
X257440000Y-40851375D01*
X256940000Y-41851375D02*
G75*
G03X257440000Y-41351375I0J500000D01*
G01*
X257440000Y-40851375D02*
G75*
G03X256940000Y-40351375I-500000J0D01*
G01*
X256140000Y-40351375D02*
X256940000Y-40351375D01*
X256140000Y-40351375D02*
G75*
G03X255640000Y-40851375I0J-500000D01*
G01*
X255640000Y-40851413D02*
X255640000Y-41351375D01*
X256140000Y-41851375D02*
X256940000Y-41851375D01*
X255640000Y-41351375D02*
G75*
G03X256140000Y-41851375I500000J0D01*
G01*
D14*
G36*
X253365000Y-42065575D02*
G01*
X252765000Y-42865575D01*
X253965000Y-42865575D01*
X253365000Y-42065575D01*
G37*
X253365000Y-42065575D02*
X252765000Y-42865575D01*
X253965000Y-42865575D01*
X253365000Y-42065575D01*
D10*
X254265000Y-41351337D02*
X254265000Y-40851375D01*
X253765000Y-41851375D02*
G75*
G03X254265000Y-41351375I0J500000D01*
G01*
X254265000Y-40851375D02*
G75*
G03X253765000Y-40351375I-500000J0D01*
G01*
X252965000Y-40351375D02*
X253765000Y-40351375D01*
X252965000Y-40351375D02*
G75*
G03X252465000Y-40851375I0J-500000D01*
G01*
X252465000Y-40851413D02*
X252465000Y-41351375D01*
X252965000Y-41851375D02*
X253765000Y-41851375D01*
X252465000Y-41351375D02*
G75*
G03X252965000Y-41851375I500000J0D01*
G01*
D14*
G36*
X218567000Y-42065575D02*
G01*
X217967000Y-42865575D01*
X219167000Y-42865575D01*
X218567000Y-42065575D01*
G37*
X218567000Y-42065575D02*
X217967000Y-42865575D01*
X219167000Y-42865575D01*
X218567000Y-42065575D01*
D10*
X219467000Y-41351337D02*
X219467000Y-40851375D01*
X218967000Y-41851375D02*
G75*
G03X219467000Y-41351375I0J500000D01*
G01*
X219467000Y-40851375D02*
G75*
G03X218967000Y-40351375I-500000J0D01*
G01*
X218167000Y-40351375D02*
X218967000Y-40351375D01*
X218167000Y-40351375D02*
G75*
G03X217667000Y-40851375I0J-500000D01*
G01*
X217667000Y-40851413D02*
X217667000Y-41351375D01*
X218167000Y-41851375D02*
X218967000Y-41851375D01*
X217667000Y-41351375D02*
G75*
G03X218167000Y-41851375I500000J0D01*
G01*
D14*
G36*
X215392000Y-42065575D02*
G01*
X214792000Y-42865575D01*
X215992000Y-42865575D01*
X215392000Y-42065575D01*
G37*
X215392000Y-42065575D02*
X214792000Y-42865575D01*
X215992000Y-42865575D01*
X215392000Y-42065575D01*
D10*
X216292000Y-41351337D02*
X216292000Y-40851375D01*
X215792000Y-41851375D02*
G75*
G03X216292000Y-41351375I0J500000D01*
G01*
X216292000Y-40851375D02*
G75*
G03X215792000Y-40351375I-500000J0D01*
G01*
X214992000Y-40351375D02*
X215792000Y-40351375D01*
X214992000Y-40351375D02*
G75*
G03X214492000Y-40851375I0J-500000D01*
G01*
X214492000Y-40851413D02*
X214492000Y-41351375D01*
X214992000Y-41851375D02*
X215792000Y-41851375D01*
X214492000Y-41351375D02*
G75*
G03X214992000Y-41851375I500000J0D01*
G01*
D14*
G36*
X180594000Y-42065575D02*
G01*
X179994000Y-42865575D01*
X181194000Y-42865575D01*
X180594000Y-42065575D01*
G37*
X180594000Y-42065575D02*
X179994000Y-42865575D01*
X181194000Y-42865575D01*
X180594000Y-42065575D01*
D10*
X181494000Y-41351337D02*
X181494000Y-40851375D01*
X180994000Y-41851375D02*
G75*
G03X181494000Y-41351375I0J500000D01*
G01*
X181494000Y-40851375D02*
G75*
G03X180994000Y-40351375I-500000J0D01*
G01*
X180194000Y-40351375D02*
X180994000Y-40351375D01*
X180194000Y-40351375D02*
G75*
G03X179694000Y-40851375I0J-500000D01*
G01*
X179694000Y-40851413D02*
X179694000Y-41351375D01*
X180194000Y-41851375D02*
X180994000Y-41851375D01*
X179694000Y-41351375D02*
G75*
G03X180194000Y-41851375I500000J0D01*
G01*
D14*
G36*
X177419000Y-42065575D02*
G01*
X176819000Y-42865575D01*
X178019000Y-42865575D01*
X177419000Y-42065575D01*
G37*
X177419000Y-42065575D02*
X176819000Y-42865575D01*
X178019000Y-42865575D01*
X177419000Y-42065575D01*
D10*
X178319000Y-41351337D02*
X178319000Y-40851375D01*
X177819000Y-41851375D02*
G75*
G03X178319000Y-41351375I0J500000D01*
G01*
X178319000Y-40851375D02*
G75*
G03X177819000Y-40351375I-500000J0D01*
G01*
X177019000Y-40351375D02*
X177819000Y-40351375D01*
X177019000Y-40351375D02*
G75*
G03X176519000Y-40851375I0J-500000D01*
G01*
X176519000Y-40851413D02*
X176519000Y-41351375D01*
X177019000Y-41851375D02*
X177819000Y-41851375D01*
X176519000Y-41351375D02*
G75*
G03X177019000Y-41851375I500000J0D01*
G01*
D14*
G36*
X142621000Y-42065575D02*
G01*
X142021000Y-42865575D01*
X143221000Y-42865575D01*
X142621000Y-42065575D01*
G37*
X142621000Y-42065575D02*
X142021000Y-42865575D01*
X143221000Y-42865575D01*
X142621000Y-42065575D01*
D10*
X143521000Y-41351337D02*
X143521000Y-40851375D01*
X143021000Y-41851375D02*
G75*
G03X143521000Y-41351375I0J500000D01*
G01*
X143521000Y-40851375D02*
G75*
G03X143021000Y-40351375I-500000J0D01*
G01*
X142221000Y-40351375D02*
X143021000Y-40351375D01*
X142221000Y-40351375D02*
G75*
G03X141721000Y-40851375I0J-500000D01*
G01*
X141721000Y-40851413D02*
X141721000Y-41351375D01*
X142221000Y-41851375D02*
X143021000Y-41851375D01*
X141721000Y-41351375D02*
G75*
G03X142221000Y-41851375I500000J0D01*
G01*
D14*
G36*
X139446000Y-42065575D02*
G01*
X138846000Y-42865575D01*
X140046000Y-42865575D01*
X139446000Y-42065575D01*
G37*
X139446000Y-42065575D02*
X138846000Y-42865575D01*
X140046000Y-42865575D01*
X139446000Y-42065575D01*
D10*
X140346000Y-41351337D02*
X140346000Y-40851375D01*
X139846000Y-41851375D02*
G75*
G03X140346000Y-41351375I0J500000D01*
G01*
X140346000Y-40851375D02*
G75*
G03X139846000Y-40351375I-500000J0D01*
G01*
X139046000Y-40351375D02*
X139846000Y-40351375D01*
X139046000Y-40351375D02*
G75*
G03X138546000Y-40851375I0J-500000D01*
G01*
X138546000Y-40851413D02*
X138546000Y-41351375D01*
X139046000Y-41851375D02*
X139846000Y-41851375D01*
X138546000Y-41351375D02*
G75*
G03X139046000Y-41851375I500000J0D01*
G01*
D14*
G36*
X123571000Y-41986200D02*
G01*
X122971000Y-42786200D01*
X124171000Y-42786200D01*
X123571000Y-41986200D01*
G37*
X123571000Y-41986200D02*
X122971000Y-42786200D01*
X124171000Y-42786200D01*
X123571000Y-41986200D01*
D10*
X124471000Y-41271962D02*
X124471000Y-40772000D01*
X123971000Y-41772000D02*
G75*
G03X124471000Y-41272000I0J500000D01*
G01*
X124471000Y-40772000D02*
G75*
G03X123971000Y-40272000I-500000J0D01*
G01*
X123171000Y-40272000D02*
X123971000Y-40272000D01*
X123171000Y-40272000D02*
G75*
G03X122671000Y-40772000I0J-500000D01*
G01*
X122671000Y-40772038D02*
X122671000Y-41272000D01*
X123171000Y-41772000D02*
X123971000Y-41772000D01*
X122671000Y-41272000D02*
G75*
G03X123171000Y-41772000I500000J0D01*
G01*
D14*
G36*
X120396000Y-41986200D02*
G01*
X119796000Y-42786200D01*
X120996000Y-42786200D01*
X120396000Y-41986200D01*
G37*
X120396000Y-41986200D02*
X119796000Y-42786200D01*
X120996000Y-42786200D01*
X120396000Y-41986200D01*
D10*
X121296000Y-41271962D02*
X121296000Y-40772000D01*
X120796000Y-41772000D02*
G75*
G03X121296000Y-41272000I0J500000D01*
G01*
X121296000Y-40772000D02*
G75*
G03X120796000Y-40272000I-500000J0D01*
G01*
X119996000Y-40272000D02*
X120796000Y-40272000D01*
X119996000Y-40272000D02*
G75*
G03X119496000Y-40772000I0J-500000D01*
G01*
X119496000Y-40772038D02*
X119496000Y-41272000D01*
X119996000Y-41772000D02*
X120796000Y-41772000D01*
X119496000Y-41272000D02*
G75*
G03X119996000Y-41772000I500000J0D01*
G01*
D14*
G36*
X66548000Y-42065575D02*
G01*
X65948000Y-42865575D01*
X67148000Y-42865575D01*
X66548000Y-42065575D01*
G37*
X66548000Y-42065575D02*
X65948000Y-42865575D01*
X67148000Y-42865575D01*
X66548000Y-42065575D01*
D10*
X67448000Y-41351337D02*
X67448000Y-40851375D01*
X66948000Y-41851375D02*
G75*
G03X67448000Y-41351375I0J500000D01*
G01*
X67448000Y-40851375D02*
G75*
G03X66948000Y-40351375I-500000J0D01*
G01*
X66148000Y-40351375D02*
X66948000Y-40351375D01*
X66148000Y-40351375D02*
G75*
G03X65648000Y-40851375I0J-500000D01*
G01*
X65648000Y-40851413D02*
X65648000Y-41351375D01*
X66148000Y-41851375D02*
X66948000Y-41851375D01*
X65648000Y-41351375D02*
G75*
G03X66148000Y-41851375I500000J0D01*
G01*
D14*
G36*
X63373000Y-42065575D02*
G01*
X62773000Y-42865575D01*
X63973000Y-42865575D01*
X63373000Y-42065575D01*
G37*
X63373000Y-42065575D02*
X62773000Y-42865575D01*
X63973000Y-42865575D01*
X63373000Y-42065575D01*
D10*
X64273000Y-41351337D02*
X64273000Y-40851375D01*
X63773000Y-41851375D02*
G75*
G03X64273000Y-41351375I0J500000D01*
G01*
X64273000Y-40851375D02*
G75*
G03X63773000Y-40351375I-500000J0D01*
G01*
X62973000Y-40351375D02*
X63773000Y-40351375D01*
X62973000Y-40351375D02*
G75*
G03X62473000Y-40851375I0J-500000D01*
G01*
X62473000Y-40851413D02*
X62473000Y-41351375D01*
X62973000Y-41851375D02*
X63773000Y-41851375D01*
X62473000Y-41351375D02*
G75*
G03X62973000Y-41851375I500000J0D01*
G01*
D15*
G36*
X230590902Y-59196124D02*
G01*
X230312778Y-59469082D01*
X230426787Y-59759325D01*
X230476739Y-59879338D01*
X230531360Y-59970142D01*
X230609011Y-60038283D01*
X230728048Y-60090305D01*
X230906831Y-60132756D01*
X231163717Y-60172179D01*
X231517065Y-60215122D01*
X231792899Y-60246414D01*
X232490353Y-60344629D01*
X233217939Y-60482601D01*
X233950465Y-60653258D01*
X234662737Y-60849529D01*
X235329562Y-61064342D01*
X235925749Y-61290625D01*
X236426104Y-61521308D01*
X236526750Y-61575222D01*
X237203908Y-61908375D01*
X237997630Y-62224153D01*
X238898275Y-62519350D01*
X239896198Y-62790761D01*
X240813000Y-63000213D01*
X241184550Y-63072275D01*
X241574258Y-63134650D01*
X242001074Y-63189317D01*
X242483949Y-63238256D01*
X243041831Y-63283445D01*
X243693671Y-63326862D01*
X244250141Y-63359151D01*
X244956782Y-63398201D01*
X245182799Y-63199756D01*
X245408816Y-63001310D01*
X245276501Y-62777054D01*
X245215096Y-62678294D01*
X245150937Y-62602426D01*
X245063436Y-62539953D01*
X244932008Y-62481377D01*
X244736064Y-62417202D01*
X244455018Y-62337931D01*
X244142357Y-62253863D01*
X243665137Y-62143713D01*
X243104647Y-62047389D01*
X242442624Y-61961925D01*
X242157155Y-61931323D01*
X241676792Y-61879628D01*
X241290924Y-61830487D01*
X240967331Y-61777977D01*
X240673790Y-61716177D01*
X240378080Y-61639167D01*
X240069588Y-61547691D01*
X239695451Y-61425585D01*
X239300895Y-61285394D01*
X238934610Y-61145025D01*
X238661933Y-61029981D01*
X238471147Y-60948537D01*
X238178186Y-60830075D01*
X237800149Y-60681207D01*
X237354131Y-60508546D01*
X236857230Y-60318704D01*
X236326543Y-60118292D01*
X235779166Y-59913922D01*
X235705058Y-59886440D01*
X233327616Y-59005507D01*
X232098321Y-58964337D01*
X230869025Y-58923167D01*
X230590902Y-59196124D01*
X230590902Y-59196124D01*
G37*
X230590902Y-59196124D02*
X230312778Y-59469082D01*
X230426787Y-59759325D01*
X230476739Y-59879338D01*
X230531360Y-59970142D01*
X230609011Y-60038283D01*
X230728048Y-60090305D01*
X230906831Y-60132756D01*
X231163717Y-60172179D01*
X231517065Y-60215122D01*
X231792899Y-60246414D01*
X232490353Y-60344629D01*
X233217939Y-60482601D01*
X233950465Y-60653258D01*
X234662737Y-60849529D01*
X235329562Y-61064342D01*
X235925749Y-61290625D01*
X236426104Y-61521308D01*
X236526750Y-61575222D01*
X237203908Y-61908375D01*
X237997630Y-62224153D01*
X238898275Y-62519350D01*
X239896198Y-62790761D01*
X240813000Y-63000213D01*
X241184550Y-63072275D01*
X241574258Y-63134650D01*
X242001074Y-63189317D01*
X242483949Y-63238256D01*
X243041831Y-63283445D01*
X243693671Y-63326862D01*
X244250141Y-63359151D01*
X244956782Y-63398201D01*
X245182799Y-63199756D01*
X245408816Y-63001310D01*
X245276501Y-62777054D01*
X245215096Y-62678294D01*
X245150937Y-62602426D01*
X245063436Y-62539953D01*
X244932008Y-62481377D01*
X244736064Y-62417202D01*
X244455018Y-62337931D01*
X244142357Y-62253863D01*
X243665137Y-62143713D01*
X243104647Y-62047389D01*
X242442624Y-61961925D01*
X242157155Y-61931323D01*
X241676792Y-61879628D01*
X241290924Y-61830487D01*
X240967331Y-61777977D01*
X240673790Y-61716177D01*
X240378080Y-61639167D01*
X240069588Y-61547691D01*
X239695451Y-61425585D01*
X239300895Y-61285394D01*
X238934610Y-61145025D01*
X238661933Y-61029981D01*
X238471147Y-60948537D01*
X238178186Y-60830075D01*
X237800149Y-60681207D01*
X237354131Y-60508546D01*
X236857230Y-60318704D01*
X236326543Y-60118292D01*
X235779166Y-59913922D01*
X235705058Y-59886440D01*
X233327616Y-59005507D01*
X232098321Y-58964337D01*
X230869025Y-58923167D01*
X230590902Y-59196124D01*
G36*
X236562403Y-41747196D02*
G01*
X236526750Y-41769092D01*
X236512217Y-41835634D01*
X236470495Y-42013825D01*
X236404407Y-42291909D01*
X236316774Y-42658133D01*
X236210416Y-43100742D01*
X236088154Y-43607980D01*
X235952809Y-44168092D01*
X235807202Y-44769325D01*
X235765897Y-44939647D01*
X235005043Y-48076108D01*
X233908522Y-50588508D01*
X233641668Y-51195469D01*
X233401580Y-51732574D01*
X233191888Y-52192108D01*
X233016221Y-52566353D01*
X232878209Y-52847593D01*
X232781483Y-53028114D01*
X232729672Y-53100199D01*
X232726415Y-53101203D01*
X232657708Y-53073237D01*
X232484361Y-52992092D01*
X232214997Y-52862046D01*
X231858237Y-52687373D01*
X231422704Y-52472349D01*
X230917020Y-52221249D01*
X230349806Y-51938348D01*
X229729685Y-51627921D01*
X229065279Y-51294244D01*
X228365210Y-50941593D01*
X228040563Y-50777707D01*
X227201346Y-50354127D01*
X226468426Y-49985061D01*
X225834994Y-49667264D01*
X225294240Y-49397494D01*
X224839355Y-49172506D01*
X224463529Y-48989055D01*
X224159954Y-48843899D01*
X223921820Y-48733792D01*
X223742318Y-48655492D01*
X223614639Y-48605753D01*
X223531973Y-48581332D01*
X223487510Y-48578985D01*
X223474443Y-48595468D01*
X223475439Y-48602832D01*
X223521777Y-48803490D01*
X223589659Y-49103513D01*
X223676674Y-49491900D01*
X223780412Y-49957648D01*
X223898461Y-50489755D01*
X224028410Y-51077219D01*
X224167847Y-51709038D01*
X224314361Y-52374210D01*
X224465541Y-53061732D01*
X224618975Y-53760603D01*
X224772253Y-54459821D01*
X224922964Y-55148383D01*
X225068695Y-55815288D01*
X225207035Y-56449533D01*
X225335575Y-57040116D01*
X225451901Y-57576035D01*
X225553603Y-58046288D01*
X225638270Y-58439873D01*
X225703490Y-58745787D01*
X225746852Y-58953029D01*
X225765945Y-59050597D01*
X225766574Y-59056842D01*
X225701916Y-59070541D01*
X225523876Y-59102373D01*
X225244468Y-59150331D01*
X224875703Y-59212408D01*
X224429593Y-59286598D01*
X223918150Y-59370895D01*
X223353387Y-59463291D01*
X222747315Y-59561780D01*
X222633569Y-59580194D01*
X219520220Y-60083889D01*
X218244485Y-60639468D01*
X217872830Y-60802770D01*
X217543826Y-60950100D01*
X217274173Y-61073751D01*
X217080568Y-61166017D01*
X216979712Y-61219189D01*
X216969017Y-61228149D01*
X217026225Y-61257724D01*
X217188505Y-61326484D01*
X217442041Y-61428956D01*
X217773014Y-61559666D01*
X218167607Y-61713143D01*
X218612003Y-61883914D01*
X218942093Y-62009592D01*
X220914902Y-62757935D01*
X222212076Y-63872514D01*
X222554858Y-64168592D01*
X222863662Y-64438289D01*
X223125995Y-64670453D01*
X223329364Y-64853932D01*
X223461274Y-64977573D01*
X223509233Y-65030225D01*
X223509250Y-65030463D01*
X223455161Y-65070251D01*
X223302211Y-65160895D01*
X223064377Y-65294974D01*
X222755636Y-65465064D01*
X222389966Y-65663741D01*
X221981343Y-65883583D01*
X221543743Y-66117165D01*
X221091145Y-66357066D01*
X220637525Y-66595860D01*
X220196861Y-66826126D01*
X219783128Y-67040440D01*
X219410304Y-67231378D01*
X219092367Y-67391517D01*
X218843292Y-67513434D01*
X218762625Y-67551434D01*
X218503497Y-67675318D01*
X218293308Y-67783342D01*
X218155226Y-67863087D01*
X218111750Y-67900274D01*
X218161836Y-67945738D01*
X218305276Y-68057184D01*
X218531844Y-68227107D01*
X218831316Y-68448004D01*
X219193465Y-68712368D01*
X219608067Y-69012697D01*
X220064896Y-69341485D01*
X220493000Y-69647890D01*
X220978686Y-69996075D01*
X221431074Y-70323189D01*
X221839927Y-70621627D01*
X222195008Y-70883784D01*
X222486081Y-71102058D01*
X222702910Y-71268844D01*
X222835256Y-71376539D01*
X222873710Y-71416321D01*
X222839786Y-71482911D01*
X222743294Y-71643529D01*
X222591783Y-71886316D01*
X222392802Y-72199409D01*
X222153902Y-72570950D01*
X221882630Y-72989076D01*
X221586538Y-73441928D01*
X221516541Y-73548500D01*
X221217012Y-74005463D01*
X220941403Y-74428462D01*
X220697102Y-74805969D01*
X220491494Y-75126454D01*
X220331967Y-75378390D01*
X220225907Y-75550248D01*
X220180700Y-75630501D01*
X220179741Y-75634868D01*
X220244030Y-75653331D01*
X220418691Y-75696199D01*
X220690121Y-75760320D01*
X221044717Y-75842544D01*
X221468876Y-75939720D01*
X221948996Y-76048698D01*
X222471474Y-76166327D01*
X222558928Y-76185927D01*
X223087090Y-76304662D01*
X223575197Y-76415238D01*
X224009628Y-76514504D01*
X224376762Y-76599313D01*
X224662977Y-76666512D01*
X224854652Y-76712953D01*
X224938165Y-76735486D01*
X224940584Y-76736666D01*
X224931237Y-76801648D01*
X224892802Y-76971579D01*
X224829646Y-77228895D01*
X224746134Y-77556030D01*
X224646631Y-77935419D01*
X224588750Y-78152250D01*
X224482170Y-78551615D01*
X224388494Y-78907344D01*
X224312205Y-79202027D01*
X224257783Y-79418256D01*
X224229708Y-79538621D01*
X224227059Y-79557612D01*
X224290135Y-79548810D01*
X224450742Y-79515317D01*
X224683207Y-79463248D01*
X224961853Y-79398721D01*
X225261006Y-79327853D01*
X225554992Y-79256761D01*
X225818135Y-79191562D01*
X226024761Y-79138373D01*
X226149196Y-79103311D01*
X226173382Y-79093898D01*
X226172589Y-79023799D01*
X226132646Y-78886035D01*
X226124545Y-78864201D01*
X226092192Y-78744856D01*
X226043533Y-78520513D01*
X225982512Y-78211548D01*
X225913074Y-77838339D01*
X225839163Y-77421261D01*
X225794038Y-77156816D01*
X225699126Y-76571808D01*
X225629002Y-76088396D01*
X225581097Y-75684157D01*
X225552844Y-75336668D01*
X225541675Y-75023506D01*
X225541250Y-74949373D01*
X225541250Y-74245362D01*
X224684000Y-73609696D01*
X224400844Y-73398646D01*
X224157127Y-73214926D01*
X223969569Y-73071305D01*
X223854886Y-72980555D01*
X223826750Y-72954818D01*
X223818473Y-72888048D01*
X223796059Y-72722096D01*
X223763135Y-72483530D01*
X223731288Y-72255550D01*
X223635825Y-71575494D01*
X224212800Y-70846793D01*
X224457579Y-70543203D01*
X224653769Y-70317594D01*
X224827480Y-70145239D01*
X225004823Y-70001410D01*
X225211908Y-69861379D01*
X225332350Y-69786534D01*
X225569486Y-69632506D01*
X225766170Y-69487786D01*
X225895590Y-69373002D01*
X225929894Y-69326863D01*
X225959669Y-69229491D01*
X226012547Y-69027894D01*
X226083682Y-68741736D01*
X226168228Y-68390677D01*
X226261337Y-67994380D01*
X226305836Y-67801750D01*
X226448539Y-67185631D01*
X226588907Y-66588952D01*
X226723799Y-66024360D01*
X226850075Y-65504504D01*
X226964594Y-65042033D01*
X227064216Y-64649596D01*
X227145800Y-64339840D01*
X227206204Y-64125414D01*
X227242289Y-64018967D01*
X227247178Y-64010670D01*
X227309092Y-64029792D01*
X227439679Y-64119024D01*
X227615194Y-64261369D01*
X227693726Y-64330327D01*
X228099693Y-64694563D01*
X228041658Y-65377653D01*
X227983624Y-66060744D01*
X228360845Y-66885067D01*
X228738066Y-67709391D01*
X230081500Y-68956901D01*
X231370744Y-69112550D01*
X232659987Y-69268199D01*
X233734687Y-68820724D01*
X234809386Y-68373250D01*
X235344229Y-67677958D01*
X235675988Y-67220135D01*
X235922025Y-66817599D01*
X236086837Y-66471458D01*
X236182105Y-66239124D01*
X236258653Y-66056318D01*
X236304533Y-65951410D01*
X236311673Y-65937544D01*
X236377122Y-65939221D01*
X236527055Y-65967817D01*
X236655880Y-65998682D01*
X236983016Y-66082524D01*
X236935232Y-66719887D01*
X236913221Y-67009686D01*
X236900385Y-67224434D01*
X236900524Y-67395774D01*
X236917443Y-67555350D01*
X236954942Y-67734805D01*
X237016824Y-67965781D01*
X237106891Y-68279922D01*
X237134034Y-68374384D01*
X237370431Y-69198750D01*
X237866359Y-69741373D01*
X238362286Y-70283996D01*
X239492393Y-70794432D01*
X240622500Y-71304869D01*
X241638500Y-71233148D01*
X242654500Y-71161428D01*
X243321250Y-70702465D01*
X243628882Y-70484174D01*
X243863988Y-70296180D01*
X244062929Y-70103598D01*
X244262068Y-69871548D01*
X244474568Y-69596063D01*
X244706893Y-69276146D01*
X244876852Y-69010544D01*
X245006751Y-68758913D01*
X245118896Y-68480913D01*
X245167139Y-68343437D01*
X245255426Y-68086922D01*
X245328645Y-67879504D01*
X245377265Y-67747886D01*
X245391323Y-67715414D01*
X245454042Y-67725622D01*
X245591206Y-67777951D01*
X245664722Y-67810664D01*
X245838251Y-67914584D01*
X245897054Y-68009797D01*
X245895101Y-68024000D01*
X245860245Y-68173260D01*
X245805841Y-68425352D01*
X245736295Y-68758385D01*
X245656011Y-69150470D01*
X245569396Y-69579717D01*
X245480854Y-70024236D01*
X245394792Y-70462139D01*
X245315615Y-70871535D01*
X245247728Y-71230535D01*
X245225241Y-71352286D01*
X245148932Y-71764019D01*
X245069070Y-72186322D01*
X244993078Y-72580496D01*
X244928379Y-72907840D01*
X244902444Y-73035036D01*
X244776298Y-73643750D01*
X245311012Y-74151750D01*
X245556517Y-74391291D01*
X245729689Y-74581354D01*
X245854772Y-74754933D01*
X245956013Y-74945018D01*
X246042750Y-75147475D01*
X246239773Y-75635200D01*
X246027314Y-76226975D01*
X245814854Y-76818750D01*
X245147202Y-77306431D01*
X244868844Y-77507573D01*
X244662605Y-77646695D01*
X244498951Y-77737911D01*
X244348349Y-77795332D01*
X244181264Y-77833070D01*
X243981641Y-77863366D01*
X243742516Y-77901465D01*
X243555028Y-77940377D01*
X243452468Y-77972943D01*
X243444261Y-77978934D01*
X243407724Y-78054213D01*
X243338886Y-78222848D01*
X243248150Y-78458588D01*
X243161625Y-78692000D01*
X242947555Y-79232685D01*
X242689657Y-79809335D01*
X242403229Y-80392531D01*
X242103571Y-80952853D01*
X241805981Y-81460884D01*
X241525761Y-81887204D01*
X241436487Y-82009203D01*
X241257163Y-82249304D01*
X241112259Y-82449681D01*
X241015661Y-82590655D01*
X240981257Y-82652548D01*
X240981744Y-82653611D01*
X241041472Y-82691684D01*
X241184441Y-82781730D01*
X241386219Y-82908380D01*
X241526206Y-82996082D01*
X242048911Y-83323345D01*
X242154533Y-82960297D01*
X242213061Y-82757804D01*
X242295596Y-82470518D01*
X242391422Y-82135809D01*
X242489825Y-81791045D01*
X242495323Y-81771750D01*
X242607835Y-81399573D01*
X242703589Y-81129860D01*
X242779496Y-80970581D01*
X242822000Y-80928293D01*
X242903438Y-80943443D01*
X243089129Y-80995036D01*
X243363259Y-81078132D01*
X243710012Y-81187795D01*
X244113573Y-81319086D01*
X244558126Y-81467068D01*
X244688367Y-81511015D01*
X245137430Y-81662180D01*
X245545982Y-81798144D01*
X245899010Y-81914036D01*
X246181503Y-82004985D01*
X246378449Y-82066121D01*
X246474835Y-82092571D01*
X246481936Y-82092981D01*
X246483199Y-82027742D01*
X246477964Y-81853561D01*
X246467160Y-81588278D01*
X246451713Y-81249733D01*
X246432552Y-80855767D01*
X246410603Y-80424220D01*
X246386795Y-79972932D01*
X246362056Y-79519745D01*
X246337312Y-79082497D01*
X246313491Y-78679030D01*
X246291522Y-78327184D01*
X246272331Y-78044799D01*
X246269316Y-78003698D01*
X246229904Y-77474146D01*
X248623500Y-77561832D01*
X250052250Y-77230074D01*
X250461745Y-77133529D01*
X250829907Y-77043947D01*
X251138634Y-76965962D01*
X251369821Y-76904204D01*
X251505363Y-76863308D01*
X251532716Y-76851267D01*
X251499627Y-76801701D01*
X251377354Y-76690579D01*
X251180410Y-76529668D01*
X250923306Y-76330737D01*
X250620553Y-76105554D01*
X250548466Y-76053082D01*
X250049457Y-75691030D01*
X249640675Y-75392630D01*
X249309606Y-75146877D01*
X249043739Y-74942767D01*
X248830560Y-74769296D01*
X248657556Y-74615459D01*
X248512214Y-74470251D01*
X248382021Y-74322669D01*
X248254465Y-74161708D01*
X248117032Y-73976363D01*
X247994156Y-73806720D01*
X247801030Y-73533944D01*
X247639954Y-73295673D01*
X247523491Y-73111360D01*
X247464205Y-73000456D01*
X247459669Y-72979212D01*
X247515891Y-72934004D01*
X247668717Y-72827856D01*
X247907456Y-72667779D01*
X248221418Y-72460785D01*
X248599914Y-72213885D01*
X249032254Y-71934090D01*
X249507749Y-71628411D01*
X249957000Y-71341270D01*
X250617925Y-70921692D01*
X251192756Y-70561165D01*
X251701059Y-70248273D01*
X252162397Y-69971602D01*
X252596337Y-69719735D01*
X253022442Y-69481258D01*
X253460276Y-69244756D01*
X253929405Y-68998812D01*
X254286683Y-68815027D01*
X254730755Y-68587027D01*
X255135386Y-68377476D01*
X255487524Y-68193275D01*
X255774118Y-68041325D01*
X255982117Y-67928526D01*
X256098471Y-67861779D01*
X256118747Y-67846329D01*
X256052300Y-67843215D01*
X255875557Y-67845109D01*
X255605101Y-67851551D01*
X255257518Y-67862084D01*
X254849393Y-67876251D01*
X254397311Y-67893595D01*
X254378600Y-67894346D01*
X252659572Y-67963482D01*
X250879661Y-66744045D01*
X250459200Y-66454830D01*
X250074150Y-66187757D01*
X249736587Y-65951371D01*
X249458584Y-65754223D01*
X249252216Y-65604858D01*
X249129558Y-65511826D01*
X249099750Y-65484008D01*
X249143571Y-65433053D01*
X249269675Y-65300916D01*
X249470026Y-65095699D01*
X249736587Y-64825500D01*
X250061322Y-64498420D01*
X250436193Y-64122560D01*
X250853165Y-63706020D01*
X251304200Y-63256900D01*
X251655686Y-62907828D01*
X252995434Y-61578750D01*
X246068722Y-61578750D01*
X246015422Y-63610750D01*
X246002269Y-64142946D01*
X245990819Y-64666396D01*
X245981449Y-65158949D01*
X245974532Y-65598450D01*
X245970444Y-65962749D01*
X245969558Y-66229692D01*
X245970045Y-66293625D01*
X245971030Y-66563765D01*
X245967434Y-66779144D01*
X245959967Y-66913216D01*
X245952592Y-66944500D01*
X245890112Y-66912973D01*
X245752488Y-66830806D01*
X245591586Y-66729799D01*
X245444298Y-66630224D01*
X245332768Y-66533149D01*
X245238256Y-66412095D01*
X245142021Y-66240585D01*
X245025326Y-65992139D01*
X244950308Y-65823685D01*
X244644661Y-65132272D01*
X243776581Y-64834320D01*
X243174167Y-64640722D01*
X242454074Y-64432556D01*
X241624529Y-64211870D01*
X240693760Y-63980712D01*
X239669997Y-63741131D01*
X238561466Y-63495176D01*
X237473523Y-63264966D01*
X236841191Y-63132211D01*
X236167807Y-62987573D01*
X235482502Y-62837529D01*
X234814407Y-62688556D01*
X234192654Y-62547130D01*
X233646374Y-62419728D01*
X233331208Y-62344002D01*
X232872689Y-62234222D01*
X232443650Y-62135658D01*
X232062757Y-62052271D01*
X231748675Y-61988025D01*
X231520068Y-61946882D01*
X231395602Y-61932805D01*
X231394458Y-61932824D01*
X231243657Y-61944964D01*
X231000003Y-61974644D01*
X230695746Y-62017555D01*
X230363141Y-62069391D01*
X230324720Y-62075699D01*
X229488440Y-62213750D01*
X228999217Y-62769375D01*
X228798299Y-62988668D01*
X228619866Y-63167147D01*
X228484164Y-63285586D01*
X228414069Y-63325000D01*
X228279021Y-63313260D01*
X228088043Y-63283205D01*
X227878441Y-63242580D01*
X227687518Y-63199131D01*
X227552579Y-63160603D01*
X227509750Y-63137235D01*
X227528957Y-63067080D01*
X227582167Y-62897105D01*
X227662766Y-62647818D01*
X227764140Y-62339730D01*
X227852933Y-62073128D01*
X227963912Y-61748622D01*
X228067768Y-61465645D01*
X228175008Y-61202000D01*
X228296140Y-60935490D01*
X228441673Y-60643919D01*
X228622115Y-60305090D01*
X228847973Y-59896805D01*
X229069389Y-59503542D01*
X229302732Y-59092261D01*
X229521129Y-58709889D01*
X229715236Y-58372586D01*
X229875710Y-58096510D01*
X229993207Y-57897819D01*
X230058382Y-57792672D01*
X230060483Y-57789607D01*
X230138559Y-57713316D01*
X230307279Y-57573056D01*
X230553899Y-57378608D01*
X230865674Y-57139759D01*
X231229860Y-56866292D01*
X231633712Y-56567991D01*
X231985457Y-56311769D01*
X233792611Y-55003575D01*
X237857707Y-54240749D01*
X239271854Y-54492110D01*
X240686000Y-54743470D01*
X241580454Y-55208360D01*
X242118897Y-55509395D01*
X242600616Y-55828616D01*
X243051937Y-56187671D01*
X243499185Y-56608204D01*
X243968688Y-57111862D01*
X244153859Y-57324250D01*
X244666610Y-57985561D01*
X245089834Y-58678592D01*
X245436826Y-59429453D01*
X245720881Y-60264251D01*
X245803113Y-60562750D01*
X246068722Y-61578750D01*
X252995434Y-61578750D01*
X254211621Y-60372250D01*
X256037985Y-59140091D01*
X256463788Y-58851672D01*
X256852992Y-58585823D01*
X257193808Y-58350771D01*
X257474444Y-58154742D01*
X257683110Y-58005962D01*
X257808017Y-57912657D01*
X257839549Y-57883131D01*
X257772733Y-57880090D01*
X257592925Y-57882067D01*
X257314017Y-57888647D01*
X256949902Y-57899411D01*
X256514470Y-57913945D01*
X256021614Y-57931830D01*
X255485226Y-57952651D01*
X255378124Y-57956961D01*
X252941500Y-58055593D01*
X250496750Y-57738519D01*
X249822974Y-57651127D01*
X249264347Y-57578406D01*
X248810086Y-57518583D01*
X248449411Y-57469886D01*
X248171539Y-57430539D01*
X247965688Y-57398772D01*
X247821077Y-57372809D01*
X247726924Y-57350878D01*
X247672446Y-57331205D01*
X247646863Y-57312018D01*
X247639391Y-57291542D01*
X247639250Y-57268544D01*
X247660218Y-57195495D01*
X247720610Y-57013730D01*
X247816658Y-56733966D01*
X247944594Y-56366916D01*
X248100649Y-55923295D01*
X248281057Y-55413818D01*
X248482049Y-54849200D01*
X248699856Y-54240156D01*
X248910805Y-53652718D01*
X250182359Y-50118593D01*
X250404823Y-47473731D01*
X250451931Y-46908568D01*
X250494811Y-46384211D01*
X250532447Y-45913829D01*
X250563823Y-45510595D01*
X250587924Y-45187679D01*
X250603733Y-44958253D01*
X250610235Y-44835489D01*
X250609643Y-44818194D01*
X250563232Y-44860044D01*
X250437503Y-44984066D01*
X250241429Y-45181144D01*
X249983982Y-45442162D01*
X249674135Y-45758000D01*
X249320861Y-46119544D01*
X248933132Y-46517674D01*
X248630261Y-46829500D01*
X246668522Y-48851480D01*
X244155643Y-50541529D01*
X243648630Y-50881672D01*
X243171808Y-51199922D01*
X242735899Y-51489240D01*
X242351624Y-51742586D01*
X242029705Y-51952919D01*
X241780864Y-52113199D01*
X241615824Y-52216388D01*
X241545383Y-52255425D01*
X241511053Y-52231925D01*
X241451628Y-52146129D01*
X241364086Y-51991840D01*
X241245404Y-51762856D01*
X241092561Y-51452978D01*
X240902536Y-51056007D01*
X240672306Y-50565743D01*
X240398851Y-49975987D01*
X240079148Y-49280538D01*
X239830784Y-48737511D01*
X239475002Y-47958231D01*
X239166965Y-47282971D01*
X238901651Y-46700234D01*
X238674039Y-46198521D01*
X238479106Y-45766334D01*
X238311832Y-45392174D01*
X238167193Y-45064544D01*
X238040168Y-44771944D01*
X237925735Y-44502878D01*
X237818873Y-44245845D01*
X237714559Y-43989349D01*
X237607772Y-43721890D01*
X237493490Y-43431971D01*
X237366691Y-43108093D01*
X237320198Y-42989124D01*
X237155780Y-42571080D01*
X237028725Y-42257155D01*
X236931517Y-42032666D01*
X236856641Y-41882925D01*
X236796583Y-41793247D01*
X236743828Y-41748945D01*
X236690860Y-41735334D01*
X236678453Y-41735000D01*
X236562403Y-41747196D01*
X236562403Y-41747196D01*
G37*
X236562403Y-41747196D02*
X236526750Y-41769092D01*
X236512217Y-41835634D01*
X236470495Y-42013825D01*
X236404407Y-42291909D01*
X236316774Y-42658133D01*
X236210416Y-43100742D01*
X236088154Y-43607980D01*
X235952809Y-44168092D01*
X235807202Y-44769325D01*
X235765897Y-44939647D01*
X235005043Y-48076108D01*
X233908522Y-50588508D01*
X233641668Y-51195469D01*
X233401580Y-51732574D01*
X233191888Y-52192108D01*
X233016221Y-52566353D01*
X232878209Y-52847593D01*
X232781483Y-53028114D01*
X232729672Y-53100199D01*
X232726415Y-53101203D01*
X232657708Y-53073237D01*
X232484361Y-52992092D01*
X232214997Y-52862046D01*
X231858237Y-52687373D01*
X231422704Y-52472349D01*
X230917020Y-52221249D01*
X230349806Y-51938348D01*
X229729685Y-51627921D01*
X229065279Y-51294244D01*
X228365210Y-50941593D01*
X228040563Y-50777707D01*
X227201346Y-50354127D01*
X226468426Y-49985061D01*
X225834994Y-49667264D01*
X225294240Y-49397494D01*
X224839355Y-49172506D01*
X224463529Y-48989055D01*
X224159954Y-48843899D01*
X223921820Y-48733792D01*
X223742318Y-48655492D01*
X223614639Y-48605753D01*
X223531973Y-48581332D01*
X223487510Y-48578985D01*
X223474443Y-48595468D01*
X223475439Y-48602832D01*
X223521777Y-48803490D01*
X223589659Y-49103513D01*
X223676674Y-49491900D01*
X223780412Y-49957648D01*
X223898461Y-50489755D01*
X224028410Y-51077219D01*
X224167847Y-51709038D01*
X224314361Y-52374210D01*
X224465541Y-53061732D01*
X224618975Y-53760603D01*
X224772253Y-54459821D01*
X224922964Y-55148383D01*
X225068695Y-55815288D01*
X225207035Y-56449533D01*
X225335575Y-57040116D01*
X225451901Y-57576035D01*
X225553603Y-58046288D01*
X225638270Y-58439873D01*
X225703490Y-58745787D01*
X225746852Y-58953029D01*
X225765945Y-59050597D01*
X225766574Y-59056842D01*
X225701916Y-59070541D01*
X225523876Y-59102373D01*
X225244468Y-59150331D01*
X224875703Y-59212408D01*
X224429593Y-59286598D01*
X223918150Y-59370895D01*
X223353387Y-59463291D01*
X222747315Y-59561780D01*
X222633569Y-59580194D01*
X219520220Y-60083889D01*
X218244485Y-60639468D01*
X217872830Y-60802770D01*
X217543826Y-60950100D01*
X217274173Y-61073751D01*
X217080568Y-61166017D01*
X216979712Y-61219189D01*
X216969017Y-61228149D01*
X217026225Y-61257724D01*
X217188505Y-61326484D01*
X217442041Y-61428956D01*
X217773014Y-61559666D01*
X218167607Y-61713143D01*
X218612003Y-61883914D01*
X218942093Y-62009592D01*
X220914902Y-62757935D01*
X222212076Y-63872514D01*
X222554858Y-64168592D01*
X222863662Y-64438289D01*
X223125995Y-64670453D01*
X223329364Y-64853932D01*
X223461274Y-64977573D01*
X223509233Y-65030225D01*
X223509250Y-65030463D01*
X223455161Y-65070251D01*
X223302211Y-65160895D01*
X223064377Y-65294974D01*
X222755636Y-65465064D01*
X222389966Y-65663741D01*
X221981343Y-65883583D01*
X221543743Y-66117165D01*
X221091145Y-66357066D01*
X220637525Y-66595860D01*
X220196861Y-66826126D01*
X219783128Y-67040440D01*
X219410304Y-67231378D01*
X219092367Y-67391517D01*
X218843292Y-67513434D01*
X218762625Y-67551434D01*
X218503497Y-67675318D01*
X218293308Y-67783342D01*
X218155226Y-67863087D01*
X218111750Y-67900274D01*
X218161836Y-67945738D01*
X218305276Y-68057184D01*
X218531844Y-68227107D01*
X218831316Y-68448004D01*
X219193465Y-68712368D01*
X219608067Y-69012697D01*
X220064896Y-69341485D01*
X220493000Y-69647890D01*
X220978686Y-69996075D01*
X221431074Y-70323189D01*
X221839927Y-70621627D01*
X222195008Y-70883784D01*
X222486081Y-71102058D01*
X222702910Y-71268844D01*
X222835256Y-71376539D01*
X222873710Y-71416321D01*
X222839786Y-71482911D01*
X222743294Y-71643529D01*
X222591783Y-71886316D01*
X222392802Y-72199409D01*
X222153902Y-72570950D01*
X221882630Y-72989076D01*
X221586538Y-73441928D01*
X221516541Y-73548500D01*
X221217012Y-74005463D01*
X220941403Y-74428462D01*
X220697102Y-74805969D01*
X220491494Y-75126454D01*
X220331967Y-75378390D01*
X220225907Y-75550248D01*
X220180700Y-75630501D01*
X220179741Y-75634868D01*
X220244030Y-75653331D01*
X220418691Y-75696199D01*
X220690121Y-75760320D01*
X221044717Y-75842544D01*
X221468876Y-75939720D01*
X221948996Y-76048698D01*
X222471474Y-76166327D01*
X222558928Y-76185927D01*
X223087090Y-76304662D01*
X223575197Y-76415238D01*
X224009628Y-76514504D01*
X224376762Y-76599313D01*
X224662977Y-76666512D01*
X224854652Y-76712953D01*
X224938165Y-76735486D01*
X224940584Y-76736666D01*
X224931237Y-76801648D01*
X224892802Y-76971579D01*
X224829646Y-77228895D01*
X224746134Y-77556030D01*
X224646631Y-77935419D01*
X224588750Y-78152250D01*
X224482170Y-78551615D01*
X224388494Y-78907344D01*
X224312205Y-79202027D01*
X224257783Y-79418256D01*
X224229708Y-79538621D01*
X224227059Y-79557612D01*
X224290135Y-79548810D01*
X224450742Y-79515317D01*
X224683207Y-79463248D01*
X224961853Y-79398721D01*
X225261006Y-79327853D01*
X225554992Y-79256761D01*
X225818135Y-79191562D01*
X226024761Y-79138373D01*
X226149196Y-79103311D01*
X226173382Y-79093898D01*
X226172589Y-79023799D01*
X226132646Y-78886035D01*
X226124545Y-78864201D01*
X226092192Y-78744856D01*
X226043533Y-78520513D01*
X225982512Y-78211548D01*
X225913074Y-77838339D01*
X225839163Y-77421261D01*
X225794038Y-77156816D01*
X225699126Y-76571808D01*
X225629002Y-76088396D01*
X225581097Y-75684157D01*
X225552844Y-75336668D01*
X225541675Y-75023506D01*
X225541250Y-74949373D01*
X225541250Y-74245362D01*
X224684000Y-73609696D01*
X224400844Y-73398646D01*
X224157127Y-73214926D01*
X223969569Y-73071305D01*
X223854886Y-72980555D01*
X223826750Y-72954818D01*
X223818473Y-72888048D01*
X223796059Y-72722096D01*
X223763135Y-72483530D01*
X223731288Y-72255550D01*
X223635825Y-71575494D01*
X224212800Y-70846793D01*
X224457579Y-70543203D01*
X224653769Y-70317594D01*
X224827480Y-70145239D01*
X225004823Y-70001410D01*
X225211908Y-69861379D01*
X225332350Y-69786534D01*
X225569486Y-69632506D01*
X225766170Y-69487786D01*
X225895590Y-69373002D01*
X225929894Y-69326863D01*
X225959669Y-69229491D01*
X226012547Y-69027894D01*
X226083682Y-68741736D01*
X226168228Y-68390677D01*
X226261337Y-67994380D01*
X226305836Y-67801750D01*
X226448539Y-67185631D01*
X226588907Y-66588952D01*
X226723799Y-66024360D01*
X226850075Y-65504504D01*
X226964594Y-65042033D01*
X227064216Y-64649596D01*
X227145800Y-64339840D01*
X227206204Y-64125414D01*
X227242289Y-64018967D01*
X227247178Y-64010670D01*
X227309092Y-64029792D01*
X227439679Y-64119024D01*
X227615194Y-64261369D01*
X227693726Y-64330327D01*
X228099693Y-64694563D01*
X228041658Y-65377653D01*
X227983624Y-66060744D01*
X228360845Y-66885067D01*
X228738066Y-67709391D01*
X230081500Y-68956901D01*
X231370744Y-69112550D01*
X232659987Y-69268199D01*
X233734687Y-68820724D01*
X234809386Y-68373250D01*
X235344229Y-67677958D01*
X235675988Y-67220135D01*
X235922025Y-66817599D01*
X236086837Y-66471458D01*
X236182105Y-66239124D01*
X236258653Y-66056318D01*
X236304533Y-65951410D01*
X236311673Y-65937544D01*
X236377122Y-65939221D01*
X236527055Y-65967817D01*
X236655880Y-65998682D01*
X236983016Y-66082524D01*
X236935232Y-66719887D01*
X236913221Y-67009686D01*
X236900385Y-67224434D01*
X236900524Y-67395774D01*
X236917443Y-67555350D01*
X236954942Y-67734805D01*
X237016824Y-67965781D01*
X237106891Y-68279922D01*
X237134034Y-68374384D01*
X237370431Y-69198750D01*
X237866359Y-69741373D01*
X238362286Y-70283996D01*
X239492393Y-70794432D01*
X240622500Y-71304869D01*
X241638500Y-71233148D01*
X242654500Y-71161428D01*
X243321250Y-70702465D01*
X243628882Y-70484174D01*
X243863988Y-70296180D01*
X244062929Y-70103598D01*
X244262068Y-69871548D01*
X244474568Y-69596063D01*
X244706893Y-69276146D01*
X244876852Y-69010544D01*
X245006751Y-68758913D01*
X245118896Y-68480913D01*
X245167139Y-68343437D01*
X245255426Y-68086922D01*
X245328645Y-67879504D01*
X245377265Y-67747886D01*
X245391323Y-67715414D01*
X245454042Y-67725622D01*
X245591206Y-67777951D01*
X245664722Y-67810664D01*
X245838251Y-67914584D01*
X245897054Y-68009797D01*
X245895101Y-68024000D01*
X245860245Y-68173260D01*
X245805841Y-68425352D01*
X245736295Y-68758385D01*
X245656011Y-69150470D01*
X245569396Y-69579717D01*
X245480854Y-70024236D01*
X245394792Y-70462139D01*
X245315615Y-70871535D01*
X245247728Y-71230535D01*
X245225241Y-71352286D01*
X245148932Y-71764019D01*
X245069070Y-72186322D01*
X244993078Y-72580496D01*
X244928379Y-72907840D01*
X244902444Y-73035036D01*
X244776298Y-73643750D01*
X245311012Y-74151750D01*
X245556517Y-74391291D01*
X245729689Y-74581354D01*
X245854772Y-74754933D01*
X245956013Y-74945018D01*
X246042750Y-75147475D01*
X246239773Y-75635200D01*
X246027314Y-76226975D01*
X245814854Y-76818750D01*
X245147202Y-77306431D01*
X244868844Y-77507573D01*
X244662605Y-77646695D01*
X244498951Y-77737911D01*
X244348349Y-77795332D01*
X244181264Y-77833070D01*
X243981641Y-77863366D01*
X243742516Y-77901465D01*
X243555028Y-77940377D01*
X243452468Y-77972943D01*
X243444261Y-77978934D01*
X243407724Y-78054213D01*
X243338886Y-78222848D01*
X243248150Y-78458588D01*
X243161625Y-78692000D01*
X242947555Y-79232685D01*
X242689657Y-79809335D01*
X242403229Y-80392531D01*
X242103571Y-80952853D01*
X241805981Y-81460884D01*
X241525761Y-81887204D01*
X241436487Y-82009203D01*
X241257163Y-82249304D01*
X241112259Y-82449681D01*
X241015661Y-82590655D01*
X240981257Y-82652548D01*
X240981744Y-82653611D01*
X241041472Y-82691684D01*
X241184441Y-82781730D01*
X241386219Y-82908380D01*
X241526206Y-82996082D01*
X242048911Y-83323345D01*
X242154533Y-82960297D01*
X242213061Y-82757804D01*
X242295596Y-82470518D01*
X242391422Y-82135809D01*
X242489825Y-81791045D01*
X242495323Y-81771750D01*
X242607835Y-81399573D01*
X242703589Y-81129860D01*
X242779496Y-80970581D01*
X242822000Y-80928293D01*
X242903438Y-80943443D01*
X243089129Y-80995036D01*
X243363259Y-81078132D01*
X243710012Y-81187795D01*
X244113573Y-81319086D01*
X244558126Y-81467068D01*
X244688367Y-81511015D01*
X245137430Y-81662180D01*
X245545982Y-81798144D01*
X245899010Y-81914036D01*
X246181503Y-82004985D01*
X246378449Y-82066121D01*
X246474835Y-82092571D01*
X246481936Y-82092981D01*
X246483199Y-82027742D01*
X246477964Y-81853561D01*
X246467160Y-81588278D01*
X246451713Y-81249733D01*
X246432552Y-80855767D01*
X246410603Y-80424220D01*
X246386795Y-79972932D01*
X246362056Y-79519745D01*
X246337312Y-79082497D01*
X246313491Y-78679030D01*
X246291522Y-78327184D01*
X246272331Y-78044799D01*
X246269316Y-78003698D01*
X246229904Y-77474146D01*
X248623500Y-77561832D01*
X250052250Y-77230074D01*
X250461745Y-77133529D01*
X250829907Y-77043947D01*
X251138634Y-76965962D01*
X251369821Y-76904204D01*
X251505363Y-76863308D01*
X251532716Y-76851267D01*
X251499627Y-76801701D01*
X251377354Y-76690579D01*
X251180410Y-76529668D01*
X250923306Y-76330737D01*
X250620553Y-76105554D01*
X250548466Y-76053082D01*
X250049457Y-75691030D01*
X249640675Y-75392630D01*
X249309606Y-75146877D01*
X249043739Y-74942767D01*
X248830560Y-74769296D01*
X248657556Y-74615459D01*
X248512214Y-74470251D01*
X248382021Y-74322669D01*
X248254465Y-74161708D01*
X248117032Y-73976363D01*
X247994156Y-73806720D01*
X247801030Y-73533944D01*
X247639954Y-73295673D01*
X247523491Y-73111360D01*
X247464205Y-73000456D01*
X247459669Y-72979212D01*
X247515891Y-72934004D01*
X247668717Y-72827856D01*
X247907456Y-72667779D01*
X248221418Y-72460785D01*
X248599914Y-72213885D01*
X249032254Y-71934090D01*
X249507749Y-71628411D01*
X249957000Y-71341270D01*
X250617925Y-70921692D01*
X251192756Y-70561165D01*
X251701059Y-70248273D01*
X252162397Y-69971602D01*
X252596337Y-69719735D01*
X253022442Y-69481258D01*
X253460276Y-69244756D01*
X253929405Y-68998812D01*
X254286683Y-68815027D01*
X254730755Y-68587027D01*
X255135386Y-68377476D01*
X255487524Y-68193275D01*
X255774118Y-68041325D01*
X255982117Y-67928526D01*
X256098471Y-67861779D01*
X256118747Y-67846329D01*
X256052300Y-67843215D01*
X255875557Y-67845109D01*
X255605101Y-67851551D01*
X255257518Y-67862084D01*
X254849393Y-67876251D01*
X254397311Y-67893595D01*
X254378600Y-67894346D01*
X252659572Y-67963482D01*
X250879661Y-66744045D01*
X250459200Y-66454830D01*
X250074150Y-66187757D01*
X249736587Y-65951371D01*
X249458584Y-65754223D01*
X249252216Y-65604858D01*
X249129558Y-65511826D01*
X249099750Y-65484008D01*
X249143571Y-65433053D01*
X249269675Y-65300916D01*
X249470026Y-65095699D01*
X249736587Y-64825500D01*
X250061322Y-64498420D01*
X250436193Y-64122560D01*
X250853165Y-63706020D01*
X251304200Y-63256900D01*
X251655686Y-62907828D01*
X252995434Y-61578750D01*
X246068722Y-61578750D01*
X246015422Y-63610750D01*
X246002269Y-64142946D01*
X245990819Y-64666396D01*
X245981449Y-65158949D01*
X245974532Y-65598450D01*
X245970444Y-65962749D01*
X245969558Y-66229692D01*
X245970045Y-66293625D01*
X245971030Y-66563765D01*
X245967434Y-66779144D01*
X245959967Y-66913216D01*
X245952592Y-66944500D01*
X245890112Y-66912973D01*
X245752488Y-66830806D01*
X245591586Y-66729799D01*
X245444298Y-66630224D01*
X245332768Y-66533149D01*
X245238256Y-66412095D01*
X245142021Y-66240585D01*
X245025326Y-65992139D01*
X244950308Y-65823685D01*
X244644661Y-65132272D01*
X243776581Y-64834320D01*
X243174167Y-64640722D01*
X242454074Y-64432556D01*
X241624529Y-64211870D01*
X240693760Y-63980712D01*
X239669997Y-63741131D01*
X238561466Y-63495176D01*
X237473523Y-63264966D01*
X236841191Y-63132211D01*
X236167807Y-62987573D01*
X235482502Y-62837529D01*
X234814407Y-62688556D01*
X234192654Y-62547130D01*
X233646374Y-62419728D01*
X233331208Y-62344002D01*
X232872689Y-62234222D01*
X232443650Y-62135658D01*
X232062757Y-62052271D01*
X231748675Y-61988025D01*
X231520068Y-61946882D01*
X231395602Y-61932805D01*
X231394458Y-61932824D01*
X231243657Y-61944964D01*
X231000003Y-61974644D01*
X230695746Y-62017555D01*
X230363141Y-62069391D01*
X230324720Y-62075699D01*
X229488440Y-62213750D01*
X228999217Y-62769375D01*
X228798299Y-62988668D01*
X228619866Y-63167147D01*
X228484164Y-63285586D01*
X228414069Y-63325000D01*
X228279021Y-63313260D01*
X228088043Y-63283205D01*
X227878441Y-63242580D01*
X227687518Y-63199131D01*
X227552579Y-63160603D01*
X227509750Y-63137235D01*
X227528957Y-63067080D01*
X227582167Y-62897105D01*
X227662766Y-62647818D01*
X227764140Y-62339730D01*
X227852933Y-62073128D01*
X227963912Y-61748622D01*
X228067768Y-61465645D01*
X228175008Y-61202000D01*
X228296140Y-60935490D01*
X228441673Y-60643919D01*
X228622115Y-60305090D01*
X228847973Y-59896805D01*
X229069389Y-59503542D01*
X229302732Y-59092261D01*
X229521129Y-58709889D01*
X229715236Y-58372586D01*
X229875710Y-58096510D01*
X229993207Y-57897819D01*
X230058382Y-57792672D01*
X230060483Y-57789607D01*
X230138559Y-57713316D01*
X230307279Y-57573056D01*
X230553899Y-57378608D01*
X230865674Y-57139759D01*
X231229860Y-56866292D01*
X231633712Y-56567991D01*
X231985457Y-56311769D01*
X233792611Y-55003575D01*
X237857707Y-54240749D01*
X239271854Y-54492110D01*
X240686000Y-54743470D01*
X241580454Y-55208360D01*
X242118897Y-55509395D01*
X242600616Y-55828616D01*
X243051937Y-56187671D01*
X243499185Y-56608204D01*
X243968688Y-57111862D01*
X244153859Y-57324250D01*
X244666610Y-57985561D01*
X245089834Y-58678592D01*
X245436826Y-59429453D01*
X245720881Y-60264251D01*
X245803113Y-60562750D01*
X246068722Y-61578750D01*
X252995434Y-61578750D01*
X254211621Y-60372250D01*
X256037985Y-59140091D01*
X256463788Y-58851672D01*
X256852992Y-58585823D01*
X257193808Y-58350771D01*
X257474444Y-58154742D01*
X257683110Y-58005962D01*
X257808017Y-57912657D01*
X257839549Y-57883131D01*
X257772733Y-57880090D01*
X257592925Y-57882067D01*
X257314017Y-57888647D01*
X256949902Y-57899411D01*
X256514470Y-57913945D01*
X256021614Y-57931830D01*
X255485226Y-57952651D01*
X255378124Y-57956961D01*
X252941500Y-58055593D01*
X250496750Y-57738519D01*
X249822974Y-57651127D01*
X249264347Y-57578406D01*
X248810086Y-57518583D01*
X248449411Y-57469886D01*
X248171539Y-57430539D01*
X247965688Y-57398772D01*
X247821077Y-57372809D01*
X247726924Y-57350878D01*
X247672446Y-57331205D01*
X247646863Y-57312018D01*
X247639391Y-57291542D01*
X247639250Y-57268544D01*
X247660218Y-57195495D01*
X247720610Y-57013730D01*
X247816658Y-56733966D01*
X247944594Y-56366916D01*
X248100649Y-55923295D01*
X248281057Y-55413818D01*
X248482049Y-54849200D01*
X248699856Y-54240156D01*
X248910805Y-53652718D01*
X250182359Y-50118593D01*
X250404823Y-47473731D01*
X250451931Y-46908568D01*
X250494811Y-46384211D01*
X250532447Y-45913829D01*
X250563823Y-45510595D01*
X250587924Y-45187679D01*
X250603733Y-44958253D01*
X250610235Y-44835489D01*
X250609643Y-44818194D01*
X250563232Y-44860044D01*
X250437503Y-44984066D01*
X250241429Y-45181144D01*
X249983982Y-45442162D01*
X249674135Y-45758000D01*
X249320861Y-46119544D01*
X248933132Y-46517674D01*
X248630261Y-46829500D01*
X246668522Y-48851480D01*
X244155643Y-50541529D01*
X243648630Y-50881672D01*
X243171808Y-51199922D01*
X242735899Y-51489240D01*
X242351624Y-51742586D01*
X242029705Y-51952919D01*
X241780864Y-52113199D01*
X241615824Y-52216388D01*
X241545383Y-52255425D01*
X241511053Y-52231925D01*
X241451628Y-52146129D01*
X241364086Y-51991840D01*
X241245404Y-51762856D01*
X241092561Y-51452978D01*
X240902536Y-51056007D01*
X240672306Y-50565743D01*
X240398851Y-49975987D01*
X240079148Y-49280538D01*
X239830784Y-48737511D01*
X239475002Y-47958231D01*
X239166965Y-47282971D01*
X238901651Y-46700234D01*
X238674039Y-46198521D01*
X238479106Y-45766334D01*
X238311832Y-45392174D01*
X238167193Y-45064544D01*
X238040168Y-44771944D01*
X237925735Y-44502878D01*
X237818873Y-44245845D01*
X237714559Y-43989349D01*
X237607772Y-43721890D01*
X237493490Y-43431971D01*
X237366691Y-43108093D01*
X237320198Y-42989124D01*
X237155780Y-42571080D01*
X237028725Y-42257155D01*
X236931517Y-42032666D01*
X236856641Y-41882925D01*
X236796583Y-41793247D01*
X236743828Y-41748945D01*
X236690860Y-41735334D01*
X236678453Y-41735000D01*
X236562403Y-41747196D01*
G36*
X237035475Y-86989189D02*
G01*
X237023796Y-87011614D01*
X236959872Y-87047391D01*
X236790756Y-87115142D01*
X236532537Y-87209164D01*
X236201306Y-87323759D01*
X235813154Y-87453224D01*
X235402228Y-87586109D01*
X233802200Y-88095990D01*
X232068850Y-87641289D01*
X231619485Y-87522022D01*
X231211194Y-87411001D01*
X230859865Y-87312759D01*
X230581390Y-87231830D01*
X230391658Y-87172750D01*
X230306560Y-87140051D01*
X230303750Y-87137625D01*
X230238956Y-87147250D01*
X230067275Y-87195209D01*
X229801500Y-87277341D01*
X229454424Y-87389488D01*
X229038841Y-87527490D01*
X228567543Y-87687187D01*
X228053324Y-87864420D01*
X227842451Y-87937904D01*
X225412902Y-88787146D01*
X224127701Y-89591816D01*
X223762737Y-89821204D01*
X223431335Y-90031171D01*
X223149524Y-90211427D01*
X222933328Y-90351684D01*
X222798776Y-90441652D01*
X222763052Y-90467959D01*
X222722053Y-90554500D01*
X222666422Y-90740363D01*
X222602959Y-90999689D01*
X222538467Y-91306623D01*
X222527718Y-91362591D01*
X222433325Y-91863615D01*
X222320134Y-92468794D01*
X222190382Y-93165919D01*
X222046305Y-93942782D01*
X221890139Y-94787175D01*
X221724120Y-95686889D01*
X221550484Y-96629716D01*
X221371467Y-97603446D01*
X221189306Y-98595872D01*
X221006236Y-99594786D01*
X220824495Y-100587977D01*
X220646316Y-101563239D01*
X220473938Y-102508362D01*
X220309596Y-103411139D01*
X220155527Y-104259360D01*
X220013965Y-105040817D01*
X219887149Y-105743302D01*
X219777313Y-106354606D01*
X219686693Y-106862521D01*
X219632073Y-107171750D01*
X219528214Y-107762400D01*
X219430130Y-108318033D01*
X219340183Y-108825418D01*
X219260738Y-109271326D01*
X219194156Y-109642528D01*
X219142800Y-109925792D01*
X219109034Y-110107890D01*
X219096204Y-110172125D01*
X219061831Y-110315000D01*
X222015791Y-110315000D01*
X222614645Y-110314068D01*
X223172812Y-110311399D01*
X223677828Y-110307182D01*
X224117229Y-110301605D01*
X224478550Y-110294859D01*
X224749327Y-110287131D01*
X224917095Y-110278612D01*
X224969750Y-110270193D01*
X224949838Y-110199067D01*
X224894317Y-110026991D01*
X224809516Y-109772889D01*
X224701760Y-109455688D01*
X224577377Y-109094313D01*
X224557001Y-109035517D01*
X224430134Y-108665337D01*
X224319062Y-108332736D01*
X224230186Y-108057588D01*
X224169909Y-107859769D01*
X224144632Y-107759154D01*
X224144251Y-107754105D01*
X224185825Y-107689581D01*
X224304804Y-107541486D01*
X224492570Y-107319680D01*
X224740508Y-107034026D01*
X225040001Y-106694382D01*
X225382433Y-106310610D01*
X225759186Y-105892571D01*
X226065125Y-105555868D01*
X226462179Y-105119755D01*
X226832070Y-104712226D01*
X227166152Y-104342896D01*
X227455781Y-104021382D01*
X227692311Y-103757298D01*
X227867097Y-103560260D01*
X227971493Y-103439885D01*
X227998480Y-103405460D01*
X227953333Y-103357467D01*
X227819308Y-103239679D01*
X227607199Y-103060999D01*
X227327805Y-102830333D01*
X226991920Y-102556587D01*
X226610343Y-102248665D01*
X226193868Y-101915472D01*
X226141105Y-101873455D01*
X225720065Y-101536032D01*
X225332148Y-101220719D01*
X224988281Y-100936737D01*
X224699390Y-100693306D01*
X224476403Y-100499644D01*
X224330246Y-100364972D01*
X224271848Y-100298509D01*
X224271250Y-100295767D01*
X224291409Y-100221809D01*
X224349605Y-100037974D01*
X224442422Y-99754432D01*
X224566444Y-99381349D01*
X224718253Y-98928895D01*
X224894432Y-98407236D01*
X225091564Y-97826541D01*
X225306233Y-97196978D01*
X225535020Y-96528714D01*
X225638326Y-96227811D01*
X227005402Y-92249250D01*
X228416451Y-90127458D01*
X228790903Y-89565020D01*
X229101619Y-89100033D01*
X229354698Y-88723871D01*
X229556238Y-88427908D01*
X229712337Y-88203516D01*
X229829093Y-88042072D01*
X229912604Y-87934948D01*
X229968969Y-87873518D01*
X230004285Y-87849157D01*
X230024389Y-87852971D01*
X230024289Y-87919078D01*
X230014592Y-88098614D01*
X229996245Y-88378450D01*
X229970194Y-88745453D01*
X229937386Y-89186492D01*
X229898768Y-89688437D01*
X229855287Y-90238154D01*
X229828463Y-90570620D01*
X229784748Y-91134561D01*
X229736412Y-91804099D01*
X229684800Y-92557969D01*
X229631256Y-93374909D01*
X229577126Y-94233654D01*
X229523754Y-95112941D01*
X229472486Y-95991507D01*
X229424665Y-96848088D01*
X229388939Y-97519750D01*
X229339015Y-98499267D01*
X229296435Y-99376938D01*
X229260444Y-100177165D01*
X229230290Y-100924356D01*
X229205219Y-101642913D01*
X229184477Y-102357244D01*
X229167312Y-103091752D01*
X229152970Y-103870843D01*
X229140698Y-104718922D01*
X229129742Y-105660395D01*
X229125798Y-106044625D01*
X229083237Y-110315000D01*
X238368250Y-110315000D01*
X238368076Y-109727625D01*
X238366062Y-109543732D01*
X238360363Y-109248522D01*
X238351383Y-108857611D01*
X238339527Y-108386615D01*
X238325201Y-107851150D01*
X238308808Y-107266833D01*
X238290753Y-106649280D01*
X238273859Y-106092250D01*
X238252583Y-105394301D01*
X238228755Y-104598013D01*
X238203206Y-103732002D01*
X238176764Y-102824883D01*
X238150260Y-101905272D01*
X238124525Y-101001785D01*
X238100387Y-100143038D01*
X238081386Y-99456500D01*
X238057024Y-98644962D01*
X238026518Y-97751755D01*
X237991145Y-96807632D01*
X237952180Y-95843344D01*
X237910903Y-94889646D01*
X237868588Y-93977289D01*
X237826515Y-93137027D01*
X237794504Y-92548239D01*
X237606052Y-89227728D01*
X237314512Y-88209670D01*
X237219753Y-87869732D01*
X237142138Y-87573670D01*
X237086741Y-87342350D01*
X237058637Y-87196637D01*
X237058307Y-87156277D01*
X237122372Y-87177437D01*
X237260398Y-87276812D01*
X237457750Y-87441625D01*
X237699790Y-87659098D01*
X237971882Y-87916456D01*
X238259388Y-88200921D01*
X238286226Y-88228135D01*
X238743952Y-88693250D01*
X240873851Y-94359171D01*
X241178611Y-95170766D01*
X241470333Y-95949354D01*
X241745940Y-96686626D01*
X242002355Y-97374270D01*
X242236501Y-98003977D01*
X242445299Y-98567436D01*
X242625672Y-99056338D01*
X242774543Y-99462372D01*
X242888834Y-99777229D01*
X242965468Y-99992597D01*
X243001367Y-100100168D01*
X243003750Y-100110560D01*
X242957480Y-100170641D01*
X242825816Y-100303825D01*
X242619481Y-100500204D01*
X242349197Y-100749870D01*
X242025688Y-101042915D01*
X241659676Y-101369432D01*
X241273375Y-101709463D01*
X240876806Y-102057543D01*
X240512224Y-102379916D01*
X240190313Y-102666953D01*
X239921755Y-102909027D01*
X239717231Y-103096510D01*
X239587425Y-103219774D01*
X239543000Y-103268998D01*
X239589627Y-103323744D01*
X239717461Y-103441764D01*
X239908433Y-103607124D01*
X240144475Y-103803894D01*
X240214477Y-103861062D01*
X240885954Y-104407025D01*
X241087005Y-105059137D01*
X241288056Y-105711250D01*
X242209403Y-106530694D01*
X242510590Y-106804179D01*
X242766326Y-107047405D01*
X242963589Y-107247211D01*
X243089356Y-107390434D01*
X243130750Y-107461901D01*
X243114646Y-107546551D01*
X243070299Y-107731345D01*
X243003659Y-107994116D01*
X242920678Y-108312699D01*
X242827304Y-108664927D01*
X242729490Y-109028634D01*
X242633184Y-109381653D01*
X242544337Y-109701819D01*
X242468900Y-109966964D01*
X242412822Y-110154922D01*
X242387478Y-110230788D01*
X242399050Y-110249964D01*
X242455761Y-110266122D01*
X242566695Y-110279496D01*
X242740940Y-110290323D01*
X242987581Y-110298839D01*
X243315705Y-110305279D01*
X243734397Y-110309879D01*
X244252743Y-110312875D01*
X244879830Y-110314504D01*
X245624745Y-110314999D01*
X245632207Y-110315000D01*
X246372066Y-110314595D01*
X246994565Y-110313201D01*
X247509341Y-110310552D01*
X247926031Y-110306381D01*
X248254272Y-110300418D01*
X248503702Y-110292398D01*
X248683957Y-110282053D01*
X248804677Y-110269115D01*
X248875496Y-110253317D01*
X248906054Y-110234391D01*
X248909250Y-110224076D01*
X248897428Y-110133661D01*
X248863036Y-109928417D01*
X248807685Y-109616684D01*
X248732986Y-109206805D01*
X248640550Y-108707121D01*
X248531988Y-108125973D01*
X248408911Y-107471702D01*
X248272930Y-106752651D01*
X248125656Y-105977160D01*
X247968701Y-105153571D01*
X247803674Y-104290226D01*
X247632187Y-103395466D01*
X247455851Y-102477632D01*
X247276277Y-101545066D01*
X247095076Y-100606109D01*
X246913860Y-99669103D01*
X246734238Y-98742390D01*
X246557822Y-97834310D01*
X246386224Y-96953205D01*
X246221054Y-96107417D01*
X246063922Y-95305286D01*
X245916441Y-94555156D01*
X245780221Y-93865366D01*
X245656873Y-93244259D01*
X245548008Y-92700175D01*
X245455237Y-92241457D01*
X245380171Y-91876446D01*
X245324421Y-91613483D01*
X245289598Y-91460909D01*
X245278362Y-91424067D01*
X245209572Y-91377366D01*
X245042435Y-91271110D01*
X244787189Y-91111616D01*
X244454070Y-90905201D01*
X244053313Y-90658180D01*
X243595155Y-90376869D01*
X243089833Y-90067586D01*
X242547582Y-89736645D01*
X242243721Y-89551585D01*
X241553807Y-89132762D01*
X240960058Y-88774889D01*
X240451010Y-88471493D01*
X240015204Y-88216097D01*
X239641178Y-88002229D01*
X239317472Y-87823415D01*
X239032624Y-87673180D01*
X238775173Y-87545051D01*
X238533658Y-87432552D01*
X238348747Y-87351396D01*
X237894570Y-87164002D01*
X237543852Y-87036058D01*
X237288896Y-86965591D01*
X237122003Y-86950626D01*
X237035475Y-86989189D01*
X237035475Y-86989189D01*
G37*
X237035475Y-86989189D02*
X237023796Y-87011614D01*
X236959872Y-87047391D01*
X236790756Y-87115142D01*
X236532537Y-87209164D01*
X236201306Y-87323759D01*
X235813154Y-87453224D01*
X235402228Y-87586109D01*
X233802200Y-88095990D01*
X232068850Y-87641289D01*
X231619485Y-87522022D01*
X231211194Y-87411001D01*
X230859865Y-87312759D01*
X230581390Y-87231830D01*
X230391658Y-87172750D01*
X230306560Y-87140051D01*
X230303750Y-87137625D01*
X230238956Y-87147250D01*
X230067275Y-87195209D01*
X229801500Y-87277341D01*
X229454424Y-87389488D01*
X229038841Y-87527490D01*
X228567543Y-87687187D01*
X228053324Y-87864420D01*
X227842451Y-87937904D01*
X225412902Y-88787146D01*
X224127701Y-89591816D01*
X223762737Y-89821204D01*
X223431335Y-90031171D01*
X223149524Y-90211427D01*
X222933328Y-90351684D01*
X222798776Y-90441652D01*
X222763052Y-90467959D01*
X222722053Y-90554500D01*
X222666422Y-90740363D01*
X222602959Y-90999689D01*
X222538467Y-91306623D01*
X222527718Y-91362591D01*
X222433325Y-91863615D01*
X222320134Y-92468794D01*
X222190382Y-93165919D01*
X222046305Y-93942782D01*
X221890139Y-94787175D01*
X221724120Y-95686889D01*
X221550484Y-96629716D01*
X221371467Y-97603446D01*
X221189306Y-98595872D01*
X221006236Y-99594786D01*
X220824495Y-100587977D01*
X220646316Y-101563239D01*
X220473938Y-102508362D01*
X220309596Y-103411139D01*
X220155527Y-104259360D01*
X220013965Y-105040817D01*
X219887149Y-105743302D01*
X219777313Y-106354606D01*
X219686693Y-106862521D01*
X219632073Y-107171750D01*
X219528214Y-107762400D01*
X219430130Y-108318033D01*
X219340183Y-108825418D01*
X219260738Y-109271326D01*
X219194156Y-109642528D01*
X219142800Y-109925792D01*
X219109034Y-110107890D01*
X219096204Y-110172125D01*
X219061831Y-110315000D01*
X222015791Y-110315000D01*
X222614645Y-110314068D01*
X223172812Y-110311399D01*
X223677828Y-110307182D01*
X224117229Y-110301605D01*
X224478550Y-110294859D01*
X224749327Y-110287131D01*
X224917095Y-110278612D01*
X224969750Y-110270193D01*
X224949838Y-110199067D01*
X224894317Y-110026991D01*
X224809516Y-109772889D01*
X224701760Y-109455688D01*
X224577377Y-109094313D01*
X224557001Y-109035517D01*
X224430134Y-108665337D01*
X224319062Y-108332736D01*
X224230186Y-108057588D01*
X224169909Y-107859769D01*
X224144632Y-107759154D01*
X224144251Y-107754105D01*
X224185825Y-107689581D01*
X224304804Y-107541486D01*
X224492570Y-107319680D01*
X224740508Y-107034026D01*
X225040001Y-106694382D01*
X225382433Y-106310610D01*
X225759186Y-105892571D01*
X226065125Y-105555868D01*
X226462179Y-105119755D01*
X226832070Y-104712226D01*
X227166152Y-104342896D01*
X227455781Y-104021382D01*
X227692311Y-103757298D01*
X227867097Y-103560260D01*
X227971493Y-103439885D01*
X227998480Y-103405460D01*
X227953333Y-103357467D01*
X227819308Y-103239679D01*
X227607199Y-103060999D01*
X227327805Y-102830333D01*
X226991920Y-102556587D01*
X226610343Y-102248665D01*
X226193868Y-101915472D01*
X226141105Y-101873455D01*
X225720065Y-101536032D01*
X225332148Y-101220719D01*
X224988281Y-100936737D01*
X224699390Y-100693306D01*
X224476403Y-100499644D01*
X224330246Y-100364972D01*
X224271848Y-100298509D01*
X224271250Y-100295767D01*
X224291409Y-100221809D01*
X224349605Y-100037974D01*
X224442422Y-99754432D01*
X224566444Y-99381349D01*
X224718253Y-98928895D01*
X224894432Y-98407236D01*
X225091564Y-97826541D01*
X225306233Y-97196978D01*
X225535020Y-96528714D01*
X225638326Y-96227811D01*
X227005402Y-92249250D01*
X228416451Y-90127458D01*
X228790903Y-89565020D01*
X229101619Y-89100033D01*
X229354698Y-88723871D01*
X229556238Y-88427908D01*
X229712337Y-88203516D01*
X229829093Y-88042072D01*
X229912604Y-87934948D01*
X229968969Y-87873518D01*
X230004285Y-87849157D01*
X230024389Y-87852971D01*
X230024289Y-87919078D01*
X230014592Y-88098614D01*
X229996245Y-88378450D01*
X229970194Y-88745453D01*
X229937386Y-89186492D01*
X229898768Y-89688437D01*
X229855287Y-90238154D01*
X229828463Y-90570620D01*
X229784748Y-91134561D01*
X229736412Y-91804099D01*
X229684800Y-92557969D01*
X229631256Y-93374909D01*
X229577126Y-94233654D01*
X229523754Y-95112941D01*
X229472486Y-95991507D01*
X229424665Y-96848088D01*
X229388939Y-97519750D01*
X229339015Y-98499267D01*
X229296435Y-99376938D01*
X229260444Y-100177165D01*
X229230290Y-100924356D01*
X229205219Y-101642913D01*
X229184477Y-102357244D01*
X229167312Y-103091752D01*
X229152970Y-103870843D01*
X229140698Y-104718922D01*
X229129742Y-105660395D01*
X229125798Y-106044625D01*
X229083237Y-110315000D01*
X238368250Y-110315000D01*
X238368076Y-109727625D01*
X238366062Y-109543732D01*
X238360363Y-109248522D01*
X238351383Y-108857611D01*
X238339527Y-108386615D01*
X238325201Y-107851150D01*
X238308808Y-107266833D01*
X238290753Y-106649280D01*
X238273859Y-106092250D01*
X238252583Y-105394301D01*
X238228755Y-104598013D01*
X238203206Y-103732002D01*
X238176764Y-102824883D01*
X238150260Y-101905272D01*
X238124525Y-101001785D01*
X238100387Y-100143038D01*
X238081386Y-99456500D01*
X238057024Y-98644962D01*
X238026518Y-97751755D01*
X237991145Y-96807632D01*
X237952180Y-95843344D01*
X237910903Y-94889646D01*
X237868588Y-93977289D01*
X237826515Y-93137027D01*
X237794504Y-92548239D01*
X237606052Y-89227728D01*
X237314512Y-88209670D01*
X237219753Y-87869732D01*
X237142138Y-87573670D01*
X237086741Y-87342350D01*
X237058637Y-87196637D01*
X237058307Y-87156277D01*
X237122372Y-87177437D01*
X237260398Y-87276812D01*
X237457750Y-87441625D01*
X237699790Y-87659098D01*
X237971882Y-87916456D01*
X238259388Y-88200921D01*
X238286226Y-88228135D01*
X238743952Y-88693250D01*
X240873851Y-94359171D01*
X241178611Y-95170766D01*
X241470333Y-95949354D01*
X241745940Y-96686626D01*
X242002355Y-97374270D01*
X242236501Y-98003977D01*
X242445299Y-98567436D01*
X242625672Y-99056338D01*
X242774543Y-99462372D01*
X242888834Y-99777229D01*
X242965468Y-99992597D01*
X243001367Y-100100168D01*
X243003750Y-100110560D01*
X242957480Y-100170641D01*
X242825816Y-100303825D01*
X242619481Y-100500204D01*
X242349197Y-100749870D01*
X242025688Y-101042915D01*
X241659676Y-101369432D01*
X241273375Y-101709463D01*
X240876806Y-102057543D01*
X240512224Y-102379916D01*
X240190313Y-102666953D01*
X239921755Y-102909027D01*
X239717231Y-103096510D01*
X239587425Y-103219774D01*
X239543000Y-103268998D01*
X239589627Y-103323744D01*
X239717461Y-103441764D01*
X239908433Y-103607124D01*
X240144475Y-103803894D01*
X240214477Y-103861062D01*
X240885954Y-104407025D01*
X241087005Y-105059137D01*
X241288056Y-105711250D01*
X242209403Y-106530694D01*
X242510590Y-106804179D01*
X242766326Y-107047405D01*
X242963589Y-107247211D01*
X243089356Y-107390434D01*
X243130750Y-107461901D01*
X243114646Y-107546551D01*
X243070299Y-107731345D01*
X243003659Y-107994116D01*
X242920678Y-108312699D01*
X242827304Y-108664927D01*
X242729490Y-109028634D01*
X242633184Y-109381653D01*
X242544337Y-109701819D01*
X242468900Y-109966964D01*
X242412822Y-110154922D01*
X242387478Y-110230788D01*
X242399050Y-110249964D01*
X242455761Y-110266122D01*
X242566695Y-110279496D01*
X242740940Y-110290323D01*
X242987581Y-110298839D01*
X243315705Y-110305279D01*
X243734397Y-110309879D01*
X244252743Y-110312875D01*
X244879830Y-110314504D01*
X245624745Y-110314999D01*
X245632207Y-110315000D01*
X246372066Y-110314595D01*
X246994565Y-110313201D01*
X247509341Y-110310552D01*
X247926031Y-110306381D01*
X248254272Y-110300418D01*
X248503702Y-110292398D01*
X248683957Y-110282053D01*
X248804677Y-110269115D01*
X248875496Y-110253317D01*
X248906054Y-110234391D01*
X248909250Y-110224076D01*
X248897428Y-110133661D01*
X248863036Y-109928417D01*
X248807685Y-109616684D01*
X248732986Y-109206805D01*
X248640550Y-108707121D01*
X248531988Y-108125973D01*
X248408911Y-107471702D01*
X248272930Y-106752651D01*
X248125656Y-105977160D01*
X247968701Y-105153571D01*
X247803674Y-104290226D01*
X247632187Y-103395466D01*
X247455851Y-102477632D01*
X247276277Y-101545066D01*
X247095076Y-100606109D01*
X246913860Y-99669103D01*
X246734238Y-98742390D01*
X246557822Y-97834310D01*
X246386224Y-96953205D01*
X246221054Y-96107417D01*
X246063922Y-95305286D01*
X245916441Y-94555156D01*
X245780221Y-93865366D01*
X245656873Y-93244259D01*
X245548008Y-92700175D01*
X245455237Y-92241457D01*
X245380171Y-91876446D01*
X245324421Y-91613483D01*
X245289598Y-91460909D01*
X245278362Y-91424067D01*
X245209572Y-91377366D01*
X245042435Y-91271110D01*
X244787189Y-91111616D01*
X244454070Y-90905201D01*
X244053313Y-90658180D01*
X243595155Y-90376869D01*
X243089833Y-90067586D01*
X242547582Y-89736645D01*
X242243721Y-89551585D01*
X241553807Y-89132762D01*
X240960058Y-88774889D01*
X240451010Y-88471493D01*
X240015204Y-88216097D01*
X239641178Y-88002229D01*
X239317472Y-87823415D01*
X239032624Y-87673180D01*
X238775173Y-87545051D01*
X238533658Y-87432552D01*
X238348747Y-87351396D01*
X237894570Y-87164002D01*
X237543852Y-87036058D01*
X237288896Y-86965591D01*
X237122003Y-86950626D01*
X237035475Y-86989189D01*
D11*
X88420200Y-70525000D02*
G75*
G03X88420200Y-70525000I-282700J0D01*
G01*
D16*
X88937500Y-79325000D02*
X88937500Y-69725000D01*
X79337500Y-79325000D02*
X88937500Y-79325000D01*
X79337500Y-69725000D02*
X79337500Y-79325000D01*
X88937500Y-69725000D02*
X79337500Y-69725000D01*
D14*
G36*
X82055000Y-43208000D02*
G01*
X82055000Y-43958000D01*
X81305000Y-43958000D01*
X82055000Y-43208000D01*
G37*
X82055000Y-43208000D02*
X82055000Y-43958000D01*
X81305000Y-43958000D01*
X82055000Y-43208000D01*
D12*
X144347300Y-55798333D02*
X144309204Y-55731666D01*
X144309204Y-55631666D01*
X144347300Y-55531666D01*
X144423490Y-55465000D01*
X144499680Y-55431666D01*
X144652061Y-55398333D01*
X144766347Y-55398333D01*
X144918728Y-55431666D01*
X144994919Y-55465000D01*
X145071109Y-55531666D01*
X145109204Y-55631666D01*
X145109204Y-55698333D01*
X145071109Y-55798333D01*
X145033014Y-55831666D01*
X144766347Y-55831666D01*
X144766347Y-55698333D01*
X145109204Y-56131666D02*
X144309204Y-56131666D01*
X145109204Y-56531666D01*
X144309204Y-56531666D01*
X145109204Y-56865000D02*
X144309204Y-56865000D01*
X144309204Y-57031666D01*
X144347300Y-57131666D01*
X144423490Y-57198333D01*
X144499680Y-57231666D01*
X144652061Y-57265000D01*
X144766347Y-57265000D01*
X144918728Y-57231666D01*
X144994919Y-57198333D01*
X145071109Y-57131666D01*
X145109204Y-57031666D01*
X145109204Y-56865000D01*
X146849204Y-55331666D02*
X147649204Y-55565000D01*
X146849204Y-55798333D01*
X147573014Y-56431666D02*
X147611109Y-56398333D01*
X147649204Y-56298333D01*
X147649204Y-56231666D01*
X147611109Y-56131666D01*
X147534919Y-56065000D01*
X147458728Y-56031666D01*
X147306347Y-55998333D01*
X147192061Y-55998333D01*
X147039680Y-56031666D01*
X146963490Y-56065000D01*
X146887300Y-56131666D01*
X146849204Y-56231666D01*
X146849204Y-56298333D01*
X146887300Y-56398333D01*
X146925395Y-56431666D01*
X147573014Y-57131666D02*
X147611109Y-57098333D01*
X147649204Y-56998333D01*
X147649204Y-56931666D01*
X147611109Y-56831666D01*
X147534919Y-56765000D01*
X147458728Y-56731666D01*
X147306347Y-56698333D01*
X147192061Y-56698333D01*
X147039680Y-56731666D01*
X146963490Y-56765000D01*
X146887300Y-56831666D01*
X146849204Y-56931666D01*
X146849204Y-56998333D01*
X146887300Y-57098333D01*
X146925395Y-57131666D01*
X150214604Y-55831666D02*
X149833652Y-55598333D01*
X150214604Y-55431666D02*
X149414604Y-55431666D01*
X149414604Y-55698333D01*
X149452700Y-55765000D01*
X149490795Y-55798333D01*
X149566985Y-55831666D01*
X149681271Y-55831666D01*
X149757461Y-55798333D01*
X149795557Y-55765000D01*
X149833652Y-55698333D01*
X149833652Y-55431666D01*
X149795557Y-56131666D02*
X149795557Y-56365000D01*
X150214604Y-56465000D02*
X150214604Y-56131666D01*
X149414604Y-56131666D01*
X149414604Y-56465000D01*
X150176509Y-56731666D02*
X150214604Y-56831666D01*
X150214604Y-56998333D01*
X150176509Y-57065000D01*
X150138414Y-57098333D01*
X150062223Y-57131666D01*
X149986033Y-57131666D01*
X149909842Y-57098333D01*
X149871747Y-57065000D01*
X149833652Y-56998333D01*
X149795557Y-56865000D01*
X149757461Y-56798333D01*
X149719366Y-56765000D01*
X149643176Y-56731666D01*
X149566985Y-56731666D01*
X149490795Y-56765000D01*
X149452700Y-56798333D01*
X149414604Y-56865000D01*
X149414604Y-57031666D01*
X149452700Y-57131666D01*
X149795557Y-57431666D02*
X149795557Y-57665000D01*
X150214604Y-57765000D02*
X150214604Y-57431666D01*
X149414604Y-57431666D01*
X149414604Y-57765000D01*
X149414604Y-57965000D02*
X149414604Y-58365000D01*
X150214604Y-58165000D02*
X149414604Y-58165000D01*
X152310157Y-55665000D02*
X152348252Y-55765000D01*
X152386347Y-55798333D01*
X152462538Y-55831666D01*
X152576823Y-55831666D01*
X152653014Y-55798333D01*
X152691109Y-55765000D01*
X152729204Y-55698333D01*
X152729204Y-55431666D01*
X151929204Y-55431666D01*
X151929204Y-55665000D01*
X151967300Y-55731666D01*
X152005395Y-55765000D01*
X152081585Y-55798333D01*
X152157776Y-55798333D01*
X152233966Y-55765000D01*
X152272061Y-55731666D01*
X152310157Y-55665000D01*
X152310157Y-55431666D01*
X152729204Y-56498333D02*
X152729204Y-56098333D01*
X152729204Y-56298333D02*
X151929204Y-56298333D01*
X152043490Y-56231666D01*
X152119680Y-56165000D01*
X152157776Y-56098333D01*
X152691109Y-57298333D02*
X152729204Y-57398333D01*
X152729204Y-57565000D01*
X152691109Y-57631666D01*
X152653014Y-57665000D01*
X152576823Y-57698333D01*
X152500633Y-57698333D01*
X152424442Y-57665000D01*
X152386347Y-57631666D01*
X152348252Y-57565000D01*
X152310157Y-57431666D01*
X152272061Y-57365000D01*
X152233966Y-57331666D01*
X152157776Y-57298333D01*
X152081585Y-57298333D01*
X152005395Y-57331666D01*
X151967300Y-57365000D01*
X151929204Y-57431666D01*
X151929204Y-57598333D01*
X151967300Y-57698333D01*
X152653014Y-58398333D02*
X152691109Y-58365000D01*
X152729204Y-58265000D01*
X152729204Y-58198333D01*
X152691109Y-58098333D01*
X152614919Y-58031666D01*
X152538728Y-57998333D01*
X152386347Y-57965000D01*
X152272061Y-57965000D01*
X152119680Y-57998333D01*
X152043490Y-58031666D01*
X151967300Y-58098333D01*
X151929204Y-58198333D01*
X151929204Y-58265000D01*
X151967300Y-58365000D01*
X152005395Y-58398333D01*
X152729204Y-59031666D02*
X152729204Y-58698333D01*
X151929204Y-58698333D01*
X152729204Y-59265000D02*
X151929204Y-59265000D01*
X152729204Y-59665000D02*
X152272061Y-59365000D01*
X151929204Y-59665000D02*
X152386347Y-59265000D01*
X154862857Y-55665000D02*
X154900952Y-55765000D01*
X154939047Y-55798333D01*
X155015238Y-55831666D01*
X155129523Y-55831666D01*
X155205714Y-55798333D01*
X155243809Y-55765000D01*
X155281904Y-55698333D01*
X155281904Y-55431666D01*
X154481904Y-55431666D01*
X154481904Y-55665000D01*
X154520000Y-55731666D01*
X154558095Y-55765000D01*
X154634285Y-55798333D01*
X154710476Y-55798333D01*
X154786666Y-55765000D01*
X154824761Y-55731666D01*
X154862857Y-55665000D01*
X154862857Y-55431666D01*
X154558095Y-56098333D02*
X154520000Y-56131666D01*
X154481904Y-56198333D01*
X154481904Y-56365000D01*
X154520000Y-56431666D01*
X154558095Y-56465000D01*
X154634285Y-56498333D01*
X154710476Y-56498333D01*
X154824761Y-56465000D01*
X155281904Y-56065000D01*
X155281904Y-56498333D01*
X155281904Y-57331666D02*
X154481904Y-57331666D01*
X155053333Y-57565000D01*
X154481904Y-57798333D01*
X155281904Y-57798333D01*
X154481904Y-58265000D02*
X154481904Y-58398333D01*
X154520000Y-58465000D01*
X154596190Y-58531666D01*
X154748571Y-58565000D01*
X155015238Y-58565000D01*
X155167619Y-58531666D01*
X155243809Y-58465000D01*
X155281904Y-58398333D01*
X155281904Y-58265000D01*
X155243809Y-58198333D01*
X155167619Y-58131666D01*
X155015238Y-58098333D01*
X154748571Y-58098333D01*
X154596190Y-58131666D01*
X154520000Y-58198333D01*
X154481904Y-58265000D01*
X155243809Y-58831666D02*
X155281904Y-58931666D01*
X155281904Y-59098333D01*
X155243809Y-59165000D01*
X155205714Y-59198333D01*
X155129523Y-59231666D01*
X155053333Y-59231666D01*
X154977142Y-59198333D01*
X154939047Y-59165000D01*
X154900952Y-59098333D01*
X154862857Y-58965000D01*
X154824761Y-58898333D01*
X154786666Y-58865000D01*
X154710476Y-58831666D01*
X154634285Y-58831666D01*
X154558095Y-58865000D01*
X154520000Y-58898333D01*
X154481904Y-58965000D01*
X154481904Y-59131666D01*
X154520000Y-59231666D01*
X155281904Y-59531666D02*
X154481904Y-59531666D01*
X157402857Y-55652300D02*
X157440952Y-55752300D01*
X157479047Y-55785633D01*
X157555238Y-55818966D01*
X157669523Y-55818966D01*
X157745714Y-55785633D01*
X157783809Y-55752300D01*
X157821904Y-55685633D01*
X157821904Y-55418966D01*
X157021904Y-55418966D01*
X157021904Y-55652300D01*
X157060000Y-55718966D01*
X157098095Y-55752300D01*
X157174285Y-55785633D01*
X157250476Y-55785633D01*
X157326666Y-55752300D01*
X157364761Y-55718966D01*
X157402857Y-55652300D01*
X157402857Y-55418966D01*
X157021904Y-56052300D02*
X157021904Y-56485633D01*
X157326666Y-56252300D01*
X157326666Y-56352300D01*
X157364761Y-56418966D01*
X157402857Y-56452300D01*
X157479047Y-56485633D01*
X157669523Y-56485633D01*
X157745714Y-56452300D01*
X157783809Y-56418966D01*
X157821904Y-56352300D01*
X157821904Y-56152300D01*
X157783809Y-56085633D01*
X157745714Y-56052300D01*
X157821904Y-57318966D02*
X157021904Y-57318966D01*
X157593333Y-57552300D01*
X157021904Y-57785633D01*
X157821904Y-57785633D01*
X157821904Y-58118966D02*
X157021904Y-58118966D01*
X157783809Y-58418966D02*
X157821904Y-58518966D01*
X157821904Y-58685633D01*
X157783809Y-58752300D01*
X157745714Y-58785633D01*
X157669523Y-58818966D01*
X157593333Y-58818966D01*
X157517142Y-58785633D01*
X157479047Y-58752300D01*
X157440952Y-58685633D01*
X157402857Y-58552300D01*
X157364761Y-58485633D01*
X157326666Y-58452300D01*
X157250476Y-58418966D01*
X157174285Y-58418966D01*
X157098095Y-58452300D01*
X157060000Y-58485633D01*
X157021904Y-58552300D01*
X157021904Y-58718966D01*
X157060000Y-58818966D01*
X157021904Y-59252300D02*
X157021904Y-59385633D01*
X157060000Y-59452300D01*
X157136190Y-59518966D01*
X157288571Y-59552300D01*
X157555238Y-59552300D01*
X157707619Y-59518966D01*
X157783809Y-59452300D01*
X157821904Y-59385633D01*
X157821904Y-59252300D01*
X157783809Y-59185633D01*
X157707619Y-59118966D01*
X157555238Y-59085633D01*
X157288571Y-59085633D01*
X157136190Y-59118966D01*
X157060000Y-59185633D01*
X157021904Y-59252300D01*
X101462309Y-45046666D02*
X101500404Y-45146666D01*
X101500404Y-45313333D01*
X101462309Y-45380000D01*
X101424214Y-45413333D01*
X101348023Y-45446666D01*
X101271833Y-45446666D01*
X101195642Y-45413333D01*
X101157547Y-45380000D01*
X101119452Y-45313333D01*
X101081357Y-45180000D01*
X101043261Y-45113333D01*
X101005166Y-45080000D01*
X100928976Y-45046666D01*
X100852785Y-45046666D01*
X100776595Y-45080000D01*
X100738500Y-45113333D01*
X100700404Y-45180000D01*
X100700404Y-45346666D01*
X100738500Y-45446666D01*
X100700404Y-45680000D02*
X101500404Y-45846666D01*
X100928976Y-45980000D01*
X101500404Y-46113333D01*
X100700404Y-46280000D01*
X101500404Y-46913333D02*
X101500404Y-46513333D01*
X101500404Y-46713333D02*
X100700404Y-46713333D01*
X100814690Y-46646666D01*
X100890880Y-46580000D01*
X100928976Y-46513333D01*
X98293666Y-75415714D02*
X98327000Y-75453809D01*
X98427000Y-75491904D01*
X98493666Y-75491904D01*
X98593666Y-75453809D01*
X98660333Y-75377619D01*
X98693666Y-75301428D01*
X98727000Y-75149047D01*
X98727000Y-75034761D01*
X98693666Y-74882380D01*
X98660333Y-74806190D01*
X98593666Y-74730000D01*
X98493666Y-74691904D01*
X98427000Y-74691904D01*
X98327000Y-74730000D01*
X98293666Y-74768095D01*
X97693666Y-74958571D02*
X97693666Y-75491904D01*
X97860333Y-74653809D02*
X98027000Y-75225238D01*
X97593666Y-75225238D01*
X96460333Y-77015904D02*
X96860333Y-77015904D01*
X96660333Y-77015904D02*
X96660333Y-76215904D01*
X96727000Y-76330190D01*
X96793666Y-76406380D01*
X96860333Y-76444476D01*
X96027000Y-76215904D02*
X95960333Y-76215904D01*
X95893666Y-76254000D01*
X95860333Y-76292095D01*
X95827000Y-76368285D01*
X95793666Y-76520666D01*
X95793666Y-76711142D01*
X95827000Y-76863523D01*
X95860333Y-76939714D01*
X95893666Y-76977809D01*
X95960333Y-77015904D01*
X96027000Y-77015904D01*
X96093666Y-76977809D01*
X96127000Y-76939714D01*
X96160333Y-76863523D01*
X96193666Y-76711142D01*
X96193666Y-76520666D01*
X96160333Y-76368285D01*
X96127000Y-76292095D01*
X96093666Y-76254000D01*
X96027000Y-76215904D01*
X95360333Y-76215904D02*
X95293666Y-76215904D01*
X95227000Y-76254000D01*
X95193666Y-76292095D01*
X95160333Y-76368285D01*
X95127000Y-76520666D01*
X95127000Y-76711142D01*
X95160333Y-76863523D01*
X95193666Y-76939714D01*
X95227000Y-76977809D01*
X95293666Y-77015904D01*
X95360333Y-77015904D01*
X95427000Y-76977809D01*
X95460333Y-76939714D01*
X95493666Y-76863523D01*
X95527000Y-76711142D01*
X95527000Y-76520666D01*
X95493666Y-76368285D01*
X95460333Y-76292095D01*
X95427000Y-76254000D01*
X95360333Y-76215904D01*
X94827000Y-76482571D02*
X94827000Y-77015904D01*
X94827000Y-76558761D02*
X94793666Y-76520666D01*
X94727000Y-76482571D01*
X94627000Y-76482571D01*
X94560333Y-76520666D01*
X94527000Y-76596857D01*
X94527000Y-77015904D01*
X93960333Y-76596857D02*
X94193666Y-76596857D01*
X94193666Y-77015904D02*
X94193666Y-76215904D01*
X93860333Y-76215904D01*
X98293666Y-73235714D02*
X98327000Y-73273809D01*
X98427000Y-73311904D01*
X98493666Y-73311904D01*
X98593666Y-73273809D01*
X98660333Y-73197619D01*
X98693666Y-73121428D01*
X98727000Y-72969047D01*
X98727000Y-72854761D01*
X98693666Y-72702380D01*
X98660333Y-72626190D01*
X98593666Y-72550000D01*
X98493666Y-72511904D01*
X98427000Y-72511904D01*
X98327000Y-72550000D01*
X98293666Y-72588095D01*
X97693666Y-72511904D02*
X97827000Y-72511904D01*
X97893666Y-72550000D01*
X97927000Y-72588095D01*
X97993666Y-72702380D01*
X98027000Y-72854761D01*
X98027000Y-73159523D01*
X97993666Y-73235714D01*
X97960333Y-73273809D01*
X97893666Y-73311904D01*
X97760333Y-73311904D01*
X97693666Y-73273809D01*
X97660333Y-73235714D01*
X97627000Y-73159523D01*
X97627000Y-72969047D01*
X97660333Y-72892857D01*
X97693666Y-72854761D01*
X97760333Y-72816666D01*
X97893666Y-72816666D01*
X97960333Y-72854761D01*
X97993666Y-72892857D01*
X98027000Y-72969047D01*
X95793666Y-71862904D02*
X96193666Y-71862904D01*
X95993666Y-71862904D02*
X95993666Y-71062904D01*
X96060333Y-71177190D01*
X96127000Y-71253380D01*
X96193666Y-71291476D01*
X95193666Y-71329571D02*
X95193666Y-71862904D01*
X95493666Y-71329571D02*
X95493666Y-71748619D01*
X95460333Y-71824809D01*
X95393666Y-71862904D01*
X95293666Y-71862904D01*
X95227000Y-71824809D01*
X95193666Y-71786714D01*
X94627000Y-71443857D02*
X94860333Y-71443857D01*
X94860333Y-71862904D02*
X94860333Y-71062904D01*
X94527000Y-71062904D01*
X89312714Y-95108333D02*
X89350809Y-95075000D01*
X89388904Y-94975000D01*
X89388904Y-94908333D01*
X89350809Y-94808333D01*
X89274619Y-94741666D01*
X89198428Y-94708333D01*
X89046047Y-94675000D01*
X88931761Y-94675000D01*
X88779380Y-94708333D01*
X88703190Y-94741666D01*
X88627000Y-94808333D01*
X88588904Y-94908333D01*
X88588904Y-94975000D01*
X88627000Y-95075000D01*
X88665095Y-95108333D01*
X88588904Y-95341666D02*
X88588904Y-95775000D01*
X88893666Y-95541666D01*
X88893666Y-95641666D01*
X88931761Y-95708333D01*
X88969857Y-95741666D01*
X89046047Y-95775000D01*
X89236523Y-95775000D01*
X89312714Y-95741666D01*
X89350809Y-95708333D01*
X89388904Y-95641666D01*
X89388904Y-95441666D01*
X89350809Y-95375000D01*
X89312714Y-95341666D01*
X90102333Y-90246904D02*
X90502333Y-90246904D01*
X90302333Y-90246904D02*
X90302333Y-89446904D01*
X90369000Y-89561190D01*
X90435666Y-89637380D01*
X90502333Y-89675476D01*
X89669000Y-89446904D02*
X89602333Y-89446904D01*
X89535666Y-89485000D01*
X89502333Y-89523095D01*
X89469000Y-89599285D01*
X89435666Y-89751666D01*
X89435666Y-89942142D01*
X89469000Y-90094523D01*
X89502333Y-90170714D01*
X89535666Y-90208809D01*
X89602333Y-90246904D01*
X89669000Y-90246904D01*
X89735666Y-90208809D01*
X89769000Y-90170714D01*
X89802333Y-90094523D01*
X89835666Y-89942142D01*
X89835666Y-89751666D01*
X89802333Y-89599285D01*
X89769000Y-89523095D01*
X89735666Y-89485000D01*
X89669000Y-89446904D01*
X89002333Y-89446904D02*
X88935666Y-89446904D01*
X88869000Y-89485000D01*
X88835666Y-89523095D01*
X88802333Y-89599285D01*
X88769000Y-89751666D01*
X88769000Y-89942142D01*
X88802333Y-90094523D01*
X88835666Y-90170714D01*
X88869000Y-90208809D01*
X88935666Y-90246904D01*
X89002333Y-90246904D01*
X89069000Y-90208809D01*
X89102333Y-90170714D01*
X89135666Y-90094523D01*
X89169000Y-89942142D01*
X89169000Y-89751666D01*
X89135666Y-89599285D01*
X89102333Y-89523095D01*
X89069000Y-89485000D01*
X89002333Y-89446904D01*
X88469000Y-89713571D02*
X88469000Y-90246904D01*
X88469000Y-89789761D02*
X88435666Y-89751666D01*
X88369000Y-89713571D01*
X88269000Y-89713571D01*
X88202333Y-89751666D01*
X88169000Y-89827857D01*
X88169000Y-90246904D01*
X87602333Y-89827857D02*
X87835666Y-89827857D01*
X87835666Y-90246904D02*
X87835666Y-89446904D01*
X87502333Y-89446904D01*
X86137714Y-95054000D02*
X86175809Y-95020666D01*
X86213904Y-94920666D01*
X86213904Y-94854000D01*
X86175809Y-94754000D01*
X86099619Y-94687333D01*
X86023428Y-94654000D01*
X85871047Y-94620666D01*
X85756761Y-94620666D01*
X85604380Y-94654000D01*
X85528190Y-94687333D01*
X85452000Y-94754000D01*
X85413904Y-94854000D01*
X85413904Y-94920666D01*
X85452000Y-95020666D01*
X85490095Y-95054000D01*
X85413904Y-95287333D02*
X86213904Y-95754000D01*
X85413904Y-95754000D02*
X86213904Y-95287333D01*
X86213904Y-96387333D02*
X86213904Y-95987333D01*
X86213904Y-96187333D02*
X85413904Y-96187333D01*
X85528190Y-96120666D01*
X85604380Y-96054000D01*
X85642476Y-95987333D01*
X87002000Y-89523095D02*
X86968666Y-89485000D01*
X86902000Y-89446904D01*
X86735333Y-89446904D01*
X86668666Y-89485000D01*
X86635333Y-89523095D01*
X86602000Y-89599285D01*
X86602000Y-89675476D01*
X86635333Y-89789761D01*
X87035333Y-90246904D01*
X86602000Y-90246904D01*
X86335333Y-89523095D02*
X86302000Y-89485000D01*
X86235333Y-89446904D01*
X86068666Y-89446904D01*
X86002000Y-89485000D01*
X85968666Y-89523095D01*
X85935333Y-89599285D01*
X85935333Y-89675476D01*
X85968666Y-89789761D01*
X86368666Y-90246904D01*
X85935333Y-90246904D01*
X85635333Y-89713571D02*
X85635333Y-90513571D01*
X85635333Y-89751666D02*
X85568666Y-89713571D01*
X85435333Y-89713571D01*
X85368666Y-89751666D01*
X85335333Y-89789761D01*
X85302000Y-89865952D01*
X85302000Y-90094523D01*
X85335333Y-90170714D01*
X85368666Y-90208809D01*
X85435333Y-90246904D01*
X85568666Y-90246904D01*
X85635333Y-90208809D01*
X84768666Y-89827857D02*
X85002000Y-89827857D01*
X85002000Y-90246904D02*
X85002000Y-89446904D01*
X84668666Y-89446904D01*
X82581714Y-95054000D02*
X82619809Y-95020666D01*
X82657904Y-94920666D01*
X82657904Y-94854000D01*
X82619809Y-94754000D01*
X82543619Y-94687333D01*
X82467428Y-94654000D01*
X82315047Y-94620666D01*
X82200761Y-94620666D01*
X82048380Y-94654000D01*
X81972190Y-94687333D01*
X81896000Y-94754000D01*
X81857904Y-94854000D01*
X81857904Y-94920666D01*
X81896000Y-95020666D01*
X81934095Y-95054000D01*
X81857904Y-95287333D02*
X82657904Y-95754000D01*
X81857904Y-95754000D02*
X82657904Y-95287333D01*
X81934095Y-95987333D02*
X81896000Y-96020666D01*
X81857904Y-96087333D01*
X81857904Y-96254000D01*
X81896000Y-96320666D01*
X81934095Y-96354000D01*
X82010285Y-96387333D01*
X82086476Y-96387333D01*
X82200761Y-96354000D01*
X82657904Y-95954000D01*
X82657904Y-96387333D01*
X83446000Y-89523095D02*
X83412666Y-89485000D01*
X83346000Y-89446904D01*
X83179333Y-89446904D01*
X83112666Y-89485000D01*
X83079333Y-89523095D01*
X83046000Y-89599285D01*
X83046000Y-89675476D01*
X83079333Y-89789761D01*
X83479333Y-90246904D01*
X83046000Y-90246904D01*
X82779333Y-89523095D02*
X82746000Y-89485000D01*
X82679333Y-89446904D01*
X82512666Y-89446904D01*
X82446000Y-89485000D01*
X82412666Y-89523095D01*
X82379333Y-89599285D01*
X82379333Y-89675476D01*
X82412666Y-89789761D01*
X82812666Y-90246904D01*
X82379333Y-90246904D01*
X82079333Y-89713571D02*
X82079333Y-90513571D01*
X82079333Y-89751666D02*
X82012666Y-89713571D01*
X81879333Y-89713571D01*
X81812666Y-89751666D01*
X81779333Y-89789761D01*
X81746000Y-89865952D01*
X81746000Y-90094523D01*
X81779333Y-90170714D01*
X81812666Y-90208809D01*
X81879333Y-90246904D01*
X82012666Y-90246904D01*
X82079333Y-90208809D01*
X81212666Y-89827857D02*
X81446000Y-89827857D01*
X81446000Y-90246904D02*
X81446000Y-89446904D01*
X81112666Y-89446904D01*
X89160961Y-85128321D02*
X89160961Y-85509273D01*
X89394294Y-84709273D02*
X89160961Y-85128321D01*
X88927628Y-84709273D01*
X88327628Y-85509273D02*
X88727628Y-85509273D01*
X88527628Y-85509273D02*
X88527628Y-84709273D01*
X88594294Y-84823559D01*
X88660961Y-84899749D01*
X88727628Y-84937845D01*
X83364689Y-83578703D02*
X83647532Y-83295860D01*
X83506110Y-83437281D02*
X82940425Y-82871596D01*
X83068377Y-82905268D01*
X83169393Y-82912002D01*
X83243471Y-82891799D01*
X82374739Y-83437281D02*
X82469020Y-83343001D01*
X82543098Y-83322797D01*
X82593606Y-83326165D01*
X82721558Y-83359836D01*
X82852878Y-83444016D01*
X83068377Y-83659515D01*
X83098682Y-83736960D01*
X83102049Y-83787468D01*
X83081846Y-83861545D01*
X82987565Y-83955826D01*
X82913487Y-83976029D01*
X82862980Y-83972662D01*
X82785535Y-83942358D01*
X82650848Y-83807671D01*
X82620543Y-83730226D01*
X82617176Y-83679718D01*
X82637379Y-83605640D01*
X82731660Y-83511359D01*
X82805738Y-83491156D01*
X82856245Y-83494523D01*
X82933690Y-83524828D01*
X82681152Y-84262239D02*
X82115467Y-83696554D01*
X82354536Y-84265607D01*
X81785484Y-84026537D01*
X82351169Y-84592223D01*
X82115467Y-84827925D02*
X81549781Y-84262239D01*
X81819155Y-84531613D02*
X81536313Y-84814456D01*
X81832624Y-85110767D02*
X81266939Y-84545082D01*
X81266939Y-84922206D02*
X81007666Y-85181478D01*
X81644062Y-85299329D01*
X81384790Y-85558602D01*
X82712714Y-65796333D02*
X82750809Y-65763000D01*
X82788904Y-65663000D01*
X82788904Y-65596333D01*
X82750809Y-65496333D01*
X82674619Y-65429666D01*
X82598428Y-65396333D01*
X82446047Y-65363000D01*
X82331761Y-65363000D01*
X82179380Y-65396333D01*
X82103190Y-65429666D01*
X82027000Y-65496333D01*
X81988904Y-65596333D01*
X81988904Y-65663000D01*
X82027000Y-65763000D01*
X82065095Y-65796333D01*
X81988904Y-66429666D02*
X81988904Y-66096333D01*
X82369857Y-66063000D01*
X82331761Y-66096333D01*
X82293666Y-66163000D01*
X82293666Y-66329666D01*
X82331761Y-66396333D01*
X82369857Y-66429666D01*
X82446047Y-66463000D01*
X82636523Y-66463000D01*
X82712714Y-66429666D01*
X82750809Y-66396333D01*
X82788904Y-66329666D01*
X82788904Y-66163000D01*
X82750809Y-66096333D01*
X82712714Y-66063000D01*
X83046000Y-61194904D02*
X83446000Y-61194904D01*
X83246000Y-61194904D02*
X83246000Y-60394904D01*
X83312666Y-60509190D01*
X83379333Y-60585380D01*
X83446000Y-60623476D01*
X82612666Y-60394904D02*
X82546000Y-60394904D01*
X82479333Y-60433000D01*
X82446000Y-60471095D01*
X82412666Y-60547285D01*
X82379333Y-60699666D01*
X82379333Y-60890142D01*
X82412666Y-61042523D01*
X82446000Y-61118714D01*
X82479333Y-61156809D01*
X82546000Y-61194904D01*
X82612666Y-61194904D01*
X82679333Y-61156809D01*
X82712666Y-61118714D01*
X82746000Y-61042523D01*
X82779333Y-60890142D01*
X82779333Y-60699666D01*
X82746000Y-60547285D01*
X82712666Y-60471095D01*
X82679333Y-60433000D01*
X82612666Y-60394904D01*
X81779333Y-60661571D02*
X81779333Y-61194904D01*
X82079333Y-60661571D02*
X82079333Y-61080619D01*
X82046000Y-61156809D01*
X81979333Y-61194904D01*
X81879333Y-61194904D01*
X81812666Y-61156809D01*
X81779333Y-61118714D01*
X81212666Y-60775857D02*
X81446000Y-60775857D01*
X81446000Y-61194904D02*
X81446000Y-60394904D01*
X81112666Y-60394904D01*
X70754166Y-72751904D02*
X70987500Y-72370952D01*
X71154166Y-72751904D02*
X71154166Y-71951904D01*
X70887500Y-71951904D01*
X70820833Y-71990000D01*
X70787500Y-72028095D01*
X70754166Y-72104285D01*
X70754166Y-72218571D01*
X70787500Y-72294761D01*
X70820833Y-72332857D01*
X70887500Y-72370952D01*
X71154166Y-72370952D01*
X70087500Y-72751904D02*
X70487500Y-72751904D01*
X70287500Y-72751904D02*
X70287500Y-71951904D01*
X70354166Y-72066190D01*
X70420833Y-72142380D01*
X70487500Y-72180476D01*
X73854166Y-71227904D02*
X74254166Y-71227904D01*
X74054166Y-71227904D02*
X74054166Y-70427904D01*
X74120833Y-70542190D01*
X74187500Y-70618380D01*
X74254166Y-70656476D01*
X73420833Y-70427904D02*
X73354166Y-70427904D01*
X73287500Y-70466000D01*
X73254166Y-70504095D01*
X73220833Y-70580285D01*
X73187500Y-70732666D01*
X73187500Y-70923142D01*
X73220833Y-71075523D01*
X73254166Y-71151714D01*
X73287500Y-71189809D01*
X73354166Y-71227904D01*
X73420833Y-71227904D01*
X73487500Y-71189809D01*
X73520833Y-71151714D01*
X73554166Y-71075523D01*
X73587500Y-70923142D01*
X73587500Y-70732666D01*
X73554166Y-70580285D01*
X73520833Y-70504095D01*
X73487500Y-70466000D01*
X73420833Y-70427904D01*
X72887500Y-71227904D02*
X72887500Y-70427904D01*
X72820833Y-70923142D02*
X72620833Y-71227904D01*
X72620833Y-70694571D02*
X72887500Y-70999333D01*
X107549904Y-50997750D02*
X107168952Y-50764416D01*
X107549904Y-50597750D02*
X106749904Y-50597750D01*
X106749904Y-50864416D01*
X106788000Y-50931083D01*
X106826095Y-50964416D01*
X106902285Y-50997750D01*
X107016571Y-50997750D01*
X107092761Y-50964416D01*
X107130857Y-50931083D01*
X107168952Y-50864416D01*
X107168952Y-50597750D01*
X107511809Y-51264416D02*
X107549904Y-51364416D01*
X107549904Y-51531083D01*
X107511809Y-51597750D01*
X107473714Y-51631083D01*
X107397523Y-51664416D01*
X107321333Y-51664416D01*
X107245142Y-51631083D01*
X107207047Y-51597750D01*
X107168952Y-51531083D01*
X107130857Y-51397750D01*
X107092761Y-51331083D01*
X107054666Y-51297750D01*
X106978476Y-51264416D01*
X106902285Y-51264416D01*
X106826095Y-51297750D01*
X106788000Y-51331083D01*
X106749904Y-51397750D01*
X106749904Y-51564416D01*
X106788000Y-51664416D01*
X106749904Y-51897750D02*
X107549904Y-52064416D01*
X106978476Y-52197750D01*
X107549904Y-52331083D01*
X106749904Y-52497750D01*
X107549904Y-53131083D02*
X107549904Y-52731083D01*
X107549904Y-52931083D02*
X106749904Y-52931083D01*
X106864190Y-52864416D01*
X106940380Y-52797750D01*
X106978476Y-52731083D01*
X107604666Y-46367654D02*
X108004666Y-46367654D01*
X107804666Y-46367654D02*
X107804666Y-45567654D01*
X107871333Y-45681940D01*
X107938000Y-45758130D01*
X108004666Y-45796226D01*
X107171333Y-45567654D02*
X107104666Y-45567654D01*
X107038000Y-45605750D01*
X107004666Y-45643845D01*
X106971333Y-45720035D01*
X106938000Y-45872416D01*
X106938000Y-46062892D01*
X106971333Y-46215273D01*
X107004666Y-46291464D01*
X107038000Y-46329559D01*
X107104666Y-46367654D01*
X107171333Y-46367654D01*
X107238000Y-46329559D01*
X107271333Y-46291464D01*
X107304666Y-46215273D01*
X107338000Y-46062892D01*
X107338000Y-45872416D01*
X107304666Y-45720035D01*
X107271333Y-45643845D01*
X107238000Y-45605750D01*
X107171333Y-45567654D01*
X106638000Y-46367654D02*
X106638000Y-45567654D01*
X106571333Y-46062892D02*
X106371333Y-46367654D01*
X106371333Y-45834321D02*
X106638000Y-46139083D01*
X79698857Y-53868666D02*
X79698857Y-53635333D01*
X80117904Y-53635333D02*
X79317904Y-53635333D01*
X79317904Y-53968666D01*
X80117904Y-54602000D02*
X80117904Y-54202000D01*
X80117904Y-54402000D02*
X79317904Y-54402000D01*
X79432190Y-54335333D01*
X79508380Y-54268666D01*
X79546476Y-54202000D01*
X81022666Y-48583904D02*
X81356000Y-48583904D01*
X81389333Y-48964857D01*
X81356000Y-48926761D01*
X81289333Y-48888666D01*
X81122666Y-48888666D01*
X81056000Y-48926761D01*
X81022666Y-48964857D01*
X80989333Y-49041047D01*
X80989333Y-49231523D01*
X81022666Y-49307714D01*
X81056000Y-49345809D01*
X81122666Y-49383904D01*
X81289333Y-49383904D01*
X81356000Y-49345809D01*
X81389333Y-49307714D01*
X80556000Y-48583904D02*
X80489333Y-48583904D01*
X80422666Y-48622000D01*
X80389333Y-48660095D01*
X80356000Y-48736285D01*
X80322666Y-48888666D01*
X80322666Y-49079142D01*
X80356000Y-49231523D01*
X80389333Y-49307714D01*
X80422666Y-49345809D01*
X80489333Y-49383904D01*
X80556000Y-49383904D01*
X80622666Y-49345809D01*
X80656000Y-49307714D01*
X80689333Y-49231523D01*
X80722666Y-49079142D01*
X80722666Y-48888666D01*
X80689333Y-48736285D01*
X80656000Y-48660095D01*
X80622666Y-48622000D01*
X80556000Y-48583904D01*
X79889333Y-48583904D02*
X79822666Y-48583904D01*
X79756000Y-48622000D01*
X79722666Y-48660095D01*
X79689333Y-48736285D01*
X79656000Y-48888666D01*
X79656000Y-49079142D01*
X79689333Y-49231523D01*
X79722666Y-49307714D01*
X79756000Y-49345809D01*
X79822666Y-49383904D01*
X79889333Y-49383904D01*
X79956000Y-49345809D01*
X79989333Y-49307714D01*
X80022666Y-49231523D01*
X80056000Y-49079142D01*
X80056000Y-48888666D01*
X80022666Y-48736285D01*
X79989333Y-48660095D01*
X79956000Y-48622000D01*
X79889333Y-48583904D01*
X79356000Y-49383904D02*
X79356000Y-48850571D01*
X79356000Y-48926761D02*
X79322666Y-48888666D01*
X79256000Y-48850571D01*
X79156000Y-48850571D01*
X79089333Y-48888666D01*
X79056000Y-48964857D01*
X79056000Y-49383904D01*
X79056000Y-48964857D02*
X79022666Y-48888666D01*
X78956000Y-48850571D01*
X78856000Y-48850571D01*
X78789333Y-48888666D01*
X78756000Y-48964857D01*
X78756000Y-49383904D01*
X78456000Y-49155333D02*
X78122666Y-49155333D01*
X78522666Y-49383904D02*
X78289333Y-48583904D01*
X78056000Y-49383904D01*
X85431404Y-52461333D02*
X85050452Y-52228000D01*
X85431404Y-52061333D02*
X84631404Y-52061333D01*
X84631404Y-52328000D01*
X84669500Y-52394666D01*
X84707595Y-52428000D01*
X84783785Y-52461333D01*
X84898071Y-52461333D01*
X84974261Y-52428000D01*
X85012357Y-52394666D01*
X85050452Y-52328000D01*
X85050452Y-52061333D01*
X84631404Y-52694666D02*
X84631404Y-53128000D01*
X84936166Y-52894666D01*
X84936166Y-52994666D01*
X84974261Y-53061333D01*
X85012357Y-53094666D01*
X85088547Y-53128000D01*
X85279023Y-53128000D01*
X85355214Y-53094666D01*
X85393309Y-53061333D01*
X85431404Y-52994666D01*
X85431404Y-52794666D01*
X85393309Y-52728000D01*
X85355214Y-52694666D01*
X85623333Y-47168095D02*
X85590000Y-47130000D01*
X85523333Y-47091904D01*
X85356666Y-47091904D01*
X85290000Y-47130000D01*
X85256666Y-47168095D01*
X85223333Y-47244285D01*
X85223333Y-47320476D01*
X85256666Y-47434761D01*
X85656666Y-47891904D01*
X85223333Y-47891904D01*
X84956666Y-47168095D02*
X84923333Y-47130000D01*
X84856666Y-47091904D01*
X84690000Y-47091904D01*
X84623333Y-47130000D01*
X84590000Y-47168095D01*
X84556666Y-47244285D01*
X84556666Y-47320476D01*
X84590000Y-47434761D01*
X84990000Y-47891904D01*
X84556666Y-47891904D01*
X83208904Y-52461333D02*
X82827952Y-52228000D01*
X83208904Y-52061333D02*
X82408904Y-52061333D01*
X82408904Y-52328000D01*
X82447000Y-52394666D01*
X82485095Y-52428000D01*
X82561285Y-52461333D01*
X82675571Y-52461333D01*
X82751761Y-52428000D01*
X82789857Y-52394666D01*
X82827952Y-52328000D01*
X82827952Y-52061333D01*
X82485095Y-52728000D02*
X82447000Y-52761333D01*
X82408904Y-52828000D01*
X82408904Y-52994666D01*
X82447000Y-53061333D01*
X82485095Y-53094666D01*
X82561285Y-53128000D01*
X82637476Y-53128000D01*
X82751761Y-53094666D01*
X83208904Y-52694666D01*
X83208904Y-53128000D01*
X83380333Y-47168095D02*
X83347000Y-47130000D01*
X83280333Y-47091904D01*
X83113666Y-47091904D01*
X83047000Y-47130000D01*
X83013666Y-47168095D01*
X82980333Y-47244285D01*
X82980333Y-47320476D01*
X83013666Y-47434761D01*
X83413666Y-47891904D01*
X82980333Y-47891904D01*
X82713666Y-47168095D02*
X82680333Y-47130000D01*
X82613666Y-47091904D01*
X82447000Y-47091904D01*
X82380333Y-47130000D01*
X82347000Y-47168095D01*
X82313666Y-47244285D01*
X82313666Y-47320476D01*
X82347000Y-47434761D01*
X82747000Y-47891904D01*
X82313666Y-47891904D01*
X90897904Y-43464333D02*
X90516952Y-43231000D01*
X90897904Y-43064333D02*
X90097904Y-43064333D01*
X90097904Y-43331000D01*
X90136000Y-43397666D01*
X90174095Y-43431000D01*
X90250285Y-43464333D01*
X90364571Y-43464333D01*
X90440761Y-43431000D01*
X90478857Y-43397666D01*
X90516952Y-43331000D01*
X90516952Y-43064333D01*
X90821714Y-44164333D02*
X90859809Y-44131000D01*
X90897904Y-44031000D01*
X90897904Y-43964333D01*
X90859809Y-43864333D01*
X90783619Y-43797666D01*
X90707428Y-43764333D01*
X90555047Y-43731000D01*
X90440761Y-43731000D01*
X90288380Y-43764333D01*
X90212190Y-43797666D01*
X90136000Y-43864333D01*
X90097904Y-43964333D01*
X90097904Y-44031000D01*
X90136000Y-44131000D01*
X90174095Y-44164333D01*
X90821714Y-44864333D02*
X90859809Y-44831000D01*
X90897904Y-44731000D01*
X90897904Y-44664333D01*
X90859809Y-44564333D01*
X90783619Y-44497666D01*
X90707428Y-44464333D01*
X90555047Y-44431000D01*
X90440761Y-44431000D01*
X90288380Y-44464333D01*
X90212190Y-44497666D01*
X90136000Y-44564333D01*
X90097904Y-44664333D01*
X90097904Y-44731000D01*
X90136000Y-44831000D01*
X90174095Y-44864333D01*
X90174095Y-45131000D02*
X90136000Y-45164333D01*
X90097904Y-45231000D01*
X90097904Y-45397666D01*
X90136000Y-45464333D01*
X90174095Y-45497666D01*
X90250285Y-45531000D01*
X90326476Y-45531000D01*
X90440761Y-45497666D01*
X90897904Y-45097666D01*
X90897904Y-45531000D01*
X91219333Y-38000904D02*
X91552666Y-38000904D01*
X91586000Y-38381857D01*
X91552666Y-38343761D01*
X91486000Y-38305666D01*
X91319333Y-38305666D01*
X91252666Y-38343761D01*
X91219333Y-38381857D01*
X91186000Y-38458047D01*
X91186000Y-38648523D01*
X91219333Y-38724714D01*
X91252666Y-38762809D01*
X91319333Y-38800904D01*
X91486000Y-38800904D01*
X91552666Y-38762809D01*
X91586000Y-38724714D01*
X90886000Y-38724714D02*
X90852666Y-38762809D01*
X90886000Y-38800904D01*
X90919333Y-38762809D01*
X90886000Y-38724714D01*
X90886000Y-38800904D01*
X90186000Y-38800904D02*
X90586000Y-38800904D01*
X90386000Y-38800904D02*
X90386000Y-38000904D01*
X90452666Y-38115190D01*
X90519333Y-38191380D01*
X90586000Y-38229476D01*
X89886000Y-38800904D02*
X89886000Y-38000904D01*
X89486000Y-38800904D02*
X89786000Y-38343761D01*
X89486000Y-38000904D02*
X89886000Y-38458047D01*
X77816904Y-43464333D02*
X77435952Y-43231000D01*
X77816904Y-43064333D02*
X77016904Y-43064333D01*
X77016904Y-43331000D01*
X77055000Y-43397666D01*
X77093095Y-43431000D01*
X77169285Y-43464333D01*
X77283571Y-43464333D01*
X77359761Y-43431000D01*
X77397857Y-43397666D01*
X77435952Y-43331000D01*
X77435952Y-43064333D01*
X77740714Y-44164333D02*
X77778809Y-44131000D01*
X77816904Y-44031000D01*
X77816904Y-43964333D01*
X77778809Y-43864333D01*
X77702619Y-43797666D01*
X77626428Y-43764333D01*
X77474047Y-43731000D01*
X77359761Y-43731000D01*
X77207380Y-43764333D01*
X77131190Y-43797666D01*
X77055000Y-43864333D01*
X77016904Y-43964333D01*
X77016904Y-44031000D01*
X77055000Y-44131000D01*
X77093095Y-44164333D01*
X77740714Y-44864333D02*
X77778809Y-44831000D01*
X77816904Y-44731000D01*
X77816904Y-44664333D01*
X77778809Y-44564333D01*
X77702619Y-44497666D01*
X77626428Y-44464333D01*
X77474047Y-44431000D01*
X77359761Y-44431000D01*
X77207380Y-44464333D01*
X77131190Y-44497666D01*
X77055000Y-44564333D01*
X77016904Y-44664333D01*
X77016904Y-44731000D01*
X77055000Y-44831000D01*
X77093095Y-44864333D01*
X77816904Y-45531000D02*
X77816904Y-45131000D01*
X77816904Y-45331000D02*
X77016904Y-45331000D01*
X77131190Y-45264333D01*
X77207380Y-45197666D01*
X77245476Y-45131000D01*
X78138333Y-38000904D02*
X78471666Y-38000904D01*
X78505000Y-38381857D01*
X78471666Y-38343761D01*
X78405000Y-38305666D01*
X78238333Y-38305666D01*
X78171666Y-38343761D01*
X78138333Y-38381857D01*
X78105000Y-38458047D01*
X78105000Y-38648523D01*
X78138333Y-38724714D01*
X78171666Y-38762809D01*
X78238333Y-38800904D01*
X78405000Y-38800904D01*
X78471666Y-38762809D01*
X78505000Y-38724714D01*
X77805000Y-38724714D02*
X77771666Y-38762809D01*
X77805000Y-38800904D01*
X77838333Y-38762809D01*
X77805000Y-38724714D01*
X77805000Y-38800904D01*
X77105000Y-38800904D02*
X77505000Y-38800904D01*
X77305000Y-38800904D02*
X77305000Y-38000904D01*
X77371666Y-38115190D01*
X77438333Y-38191380D01*
X77505000Y-38229476D01*
X76805000Y-38800904D02*
X76805000Y-38000904D01*
X76405000Y-38800904D02*
X76705000Y-38343761D01*
X76405000Y-38000904D02*
X76805000Y-38458047D01*
X85629714Y-65796333D02*
X85667809Y-65763000D01*
X85705904Y-65663000D01*
X85705904Y-65596333D01*
X85667809Y-65496333D01*
X85591619Y-65429666D01*
X85515428Y-65396333D01*
X85363047Y-65363000D01*
X85248761Y-65363000D01*
X85096380Y-65396333D01*
X85020190Y-65429666D01*
X84944000Y-65496333D01*
X84905904Y-65596333D01*
X84905904Y-65663000D01*
X84944000Y-65763000D01*
X84982095Y-65796333D01*
X85705904Y-66463000D02*
X85705904Y-66063000D01*
X85705904Y-66263000D02*
X84905904Y-66263000D01*
X85020190Y-66196333D01*
X85096380Y-66129666D01*
X85134476Y-66063000D01*
X86427333Y-61194904D02*
X86827333Y-61194904D01*
X86627333Y-61194904D02*
X86627333Y-60394904D01*
X86694000Y-60509190D01*
X86760666Y-60585380D01*
X86827333Y-60623476D01*
X85994000Y-60394904D02*
X85927333Y-60394904D01*
X85860666Y-60433000D01*
X85827333Y-60471095D01*
X85794000Y-60547285D01*
X85760666Y-60699666D01*
X85760666Y-60890142D01*
X85794000Y-61042523D01*
X85827333Y-61118714D01*
X85860666Y-61156809D01*
X85927333Y-61194904D01*
X85994000Y-61194904D01*
X86060666Y-61156809D01*
X86094000Y-61118714D01*
X86127333Y-61042523D01*
X86160666Y-60890142D01*
X86160666Y-60699666D01*
X86127333Y-60547285D01*
X86094000Y-60471095D01*
X86060666Y-60433000D01*
X85994000Y-60394904D01*
X85327333Y-60394904D02*
X85260666Y-60394904D01*
X85194000Y-60433000D01*
X85160666Y-60471095D01*
X85127333Y-60547285D01*
X85094000Y-60699666D01*
X85094000Y-60890142D01*
X85127333Y-61042523D01*
X85160666Y-61118714D01*
X85194000Y-61156809D01*
X85260666Y-61194904D01*
X85327333Y-61194904D01*
X85394000Y-61156809D01*
X85427333Y-61118714D01*
X85460666Y-61042523D01*
X85494000Y-60890142D01*
X85494000Y-60699666D01*
X85460666Y-60547285D01*
X85427333Y-60471095D01*
X85394000Y-60433000D01*
X85327333Y-60394904D01*
X84794000Y-60661571D02*
X84794000Y-61194904D01*
X84794000Y-60737761D02*
X84760666Y-60699666D01*
X84694000Y-60661571D01*
X84594000Y-60661571D01*
X84527333Y-60699666D01*
X84494000Y-60775857D01*
X84494000Y-61194904D01*
X83927333Y-60775857D02*
X84160666Y-60775857D01*
X84160666Y-61194904D02*
X84160666Y-60394904D01*
X83827333Y-60394904D01*
X70601666Y-78902714D02*
X70635000Y-78940809D01*
X70735000Y-78978904D01*
X70801666Y-78978904D01*
X70901666Y-78940809D01*
X70968333Y-78864619D01*
X71001666Y-78788428D01*
X71035000Y-78636047D01*
X71035000Y-78521761D01*
X71001666Y-78369380D01*
X70968333Y-78293190D01*
X70901666Y-78217000D01*
X70801666Y-78178904D01*
X70735000Y-78178904D01*
X70635000Y-78217000D01*
X70601666Y-78255095D01*
X70335000Y-78255095D02*
X70301666Y-78217000D01*
X70235000Y-78178904D01*
X70068333Y-78178904D01*
X70001666Y-78217000D01*
X69968333Y-78255095D01*
X69935000Y-78331285D01*
X69935000Y-78407476D01*
X69968333Y-78521761D01*
X70368333Y-78978904D01*
X69935000Y-78978904D01*
X74362333Y-77450904D02*
X74762333Y-77450904D01*
X74562333Y-77450904D02*
X74562333Y-76650904D01*
X74629000Y-76765190D01*
X74695666Y-76841380D01*
X74762333Y-76879476D01*
X73929000Y-76650904D02*
X73862333Y-76650904D01*
X73795666Y-76689000D01*
X73762333Y-76727095D01*
X73729000Y-76803285D01*
X73695666Y-76955666D01*
X73695666Y-77146142D01*
X73729000Y-77298523D01*
X73762333Y-77374714D01*
X73795666Y-77412809D01*
X73862333Y-77450904D01*
X73929000Y-77450904D01*
X73995666Y-77412809D01*
X74029000Y-77374714D01*
X74062333Y-77298523D01*
X74095666Y-77146142D01*
X74095666Y-76955666D01*
X74062333Y-76803285D01*
X74029000Y-76727095D01*
X73995666Y-76689000D01*
X73929000Y-76650904D01*
X73262333Y-76650904D02*
X73195666Y-76650904D01*
X73129000Y-76689000D01*
X73095666Y-76727095D01*
X73062333Y-76803285D01*
X73029000Y-76955666D01*
X73029000Y-77146142D01*
X73062333Y-77298523D01*
X73095666Y-77374714D01*
X73129000Y-77412809D01*
X73195666Y-77450904D01*
X73262333Y-77450904D01*
X73329000Y-77412809D01*
X73362333Y-77374714D01*
X73395666Y-77298523D01*
X73429000Y-77146142D01*
X73429000Y-76955666D01*
X73395666Y-76803285D01*
X73362333Y-76727095D01*
X73329000Y-76689000D01*
X73262333Y-76650904D01*
X72729000Y-76917571D02*
X72729000Y-77450904D01*
X72729000Y-76993761D02*
X72695666Y-76955666D01*
X72629000Y-76917571D01*
X72529000Y-76917571D01*
X72462333Y-76955666D01*
X72429000Y-77031857D01*
X72429000Y-77450904D01*
X71862333Y-77031857D02*
X72095666Y-77031857D01*
X72095666Y-77450904D02*
X72095666Y-76650904D01*
X71762333Y-76650904D01*
X143725000Y-58861279D02*
X143725000Y-58061279D01*
X143558333Y-58061279D01*
X143458333Y-58099375D01*
X143391666Y-58175565D01*
X143358333Y-58251755D01*
X143325000Y-58404136D01*
X143325000Y-58518422D01*
X143358333Y-58670803D01*
X143391666Y-58746994D01*
X143458333Y-58823184D01*
X143558333Y-58861279D01*
X143725000Y-58861279D01*
X142658333Y-58861279D02*
X143058333Y-58861279D01*
X142858333Y-58861279D02*
X142858333Y-58061279D01*
X142925000Y-58175565D01*
X142991666Y-58251755D01*
X143058333Y-58289851D01*
X142258333Y-58404136D02*
X142325000Y-58366041D01*
X142358333Y-58327946D01*
X142391666Y-58251755D01*
X142391666Y-58213660D01*
X142358333Y-58137470D01*
X142325000Y-58099375D01*
X142258333Y-58061279D01*
X142125000Y-58061279D01*
X142058333Y-58099375D01*
X142025000Y-58137470D01*
X141991666Y-58213660D01*
X141991666Y-58251755D01*
X142025000Y-58327946D01*
X142058333Y-58366041D01*
X142125000Y-58404136D01*
X142258333Y-58404136D01*
X142325000Y-58442232D01*
X142358333Y-58480327D01*
X142391666Y-58556517D01*
X142391666Y-58708898D01*
X142358333Y-58785089D01*
X142325000Y-58823184D01*
X142258333Y-58861279D01*
X142125000Y-58861279D01*
X142058333Y-58823184D01*
X142025000Y-58785089D01*
X141991666Y-58708898D01*
X141991666Y-58556517D01*
X142025000Y-58480327D01*
X142058333Y-58442232D01*
X142125000Y-58404136D01*
X87850633Y-36920529D02*
X87450633Y-36920529D01*
X87650633Y-37720529D02*
X87650633Y-36920529D01*
X87083966Y-37339577D02*
X87083966Y-37720529D01*
X87317300Y-36920529D02*
X87083966Y-37339577D01*
X86850633Y-36920529D01*
X86617300Y-37720529D02*
X86617300Y-36920529D01*
X86350633Y-36920529D01*
X86283966Y-36958625D01*
X86250633Y-36996720D01*
X86217300Y-37072910D01*
X86217300Y-37187196D01*
X86250633Y-37263386D01*
X86283966Y-37301482D01*
X86350633Y-37339577D01*
X86617300Y-37339577D01*
X85917300Y-37301482D02*
X85683966Y-37301482D01*
X85583966Y-37720529D02*
X85917300Y-37720529D01*
X85917300Y-36920529D01*
X85583966Y-36920529D01*
X85283966Y-37415767D02*
X84750633Y-37415767D01*
X84017300Y-37644339D02*
X84050633Y-37682434D01*
X84150633Y-37720529D01*
X84217300Y-37720529D01*
X84317300Y-37682434D01*
X84383966Y-37606244D01*
X84417300Y-37530053D01*
X84450633Y-37377672D01*
X84450633Y-37263386D01*
X84417300Y-37111005D01*
X84383966Y-37034815D01*
X84317300Y-36958625D01*
X84217300Y-36920529D01*
X84150633Y-36920529D01*
X84050633Y-36958625D01*
X84017300Y-36996720D01*
X83717300Y-37415767D02*
X83183966Y-37415767D01*
X82850633Y-37720529D02*
X82850633Y-36920529D01*
X82617300Y-37491958D01*
X82383966Y-36920529D01*
X82383966Y-37720529D01*
X82050633Y-37415767D02*
X81517300Y-37415767D01*
X80817300Y-37720529D02*
X81217300Y-37720529D01*
X81017300Y-37720529D02*
X81017300Y-36920529D01*
X81083966Y-37034815D01*
X81150633Y-37111005D01*
X81217300Y-37149101D01*
X80550633Y-36996720D02*
X80517300Y-36958625D01*
X80450633Y-36920529D01*
X80283966Y-36920529D01*
X80217300Y-36958625D01*
X80183966Y-36996720D01*
X80150633Y-37072910D01*
X80150633Y-37149101D01*
X80183966Y-37263386D01*
X80583966Y-37720529D01*
X80150633Y-37720529D01*
X257390000Y-96961279D02*
X257390000Y-96161279D01*
X257223333Y-96161279D01*
X257123333Y-96199375D01*
X257056666Y-96275565D01*
X257023333Y-96351755D01*
X256990000Y-96504136D01*
X256990000Y-96618422D01*
X257023333Y-96770803D01*
X257056666Y-96846994D01*
X257123333Y-96923184D01*
X257223333Y-96961279D01*
X257390000Y-96961279D01*
X256390000Y-96427946D02*
X256390000Y-96961279D01*
X256556666Y-96123184D02*
X256723333Y-96694613D01*
X256290000Y-96694613D01*
X255923333Y-96504136D02*
X255990000Y-96466041D01*
X256023333Y-96427946D01*
X256056666Y-96351755D01*
X256056666Y-96313660D01*
X256023333Y-96237470D01*
X255990000Y-96199375D01*
X255923333Y-96161279D01*
X255790000Y-96161279D01*
X255723333Y-96199375D01*
X255690000Y-96237470D01*
X255656666Y-96313660D01*
X255656666Y-96351755D01*
X255690000Y-96427946D01*
X255723333Y-96466041D01*
X255790000Y-96504136D01*
X255923333Y-96504136D01*
X255990000Y-96542232D01*
X256023333Y-96580327D01*
X256056666Y-96656517D01*
X256056666Y-96808898D01*
X256023333Y-96885089D01*
X255990000Y-96923184D01*
X255923333Y-96961279D01*
X255790000Y-96961279D01*
X255723333Y-96923184D01*
X255690000Y-96885089D01*
X255656666Y-96808898D01*
X255656666Y-96656517D01*
X255690000Y-96580327D01*
X255723333Y-96542232D01*
X255790000Y-96504136D01*
X254215000Y-96961279D02*
X254215000Y-96161279D01*
X254048333Y-96161279D01*
X253948333Y-96199375D01*
X253881666Y-96275565D01*
X253848333Y-96351755D01*
X253815000Y-96504136D01*
X253815000Y-96618422D01*
X253848333Y-96770803D01*
X253881666Y-96846994D01*
X253948333Y-96923184D01*
X254048333Y-96961279D01*
X254215000Y-96961279D01*
X253215000Y-96427946D02*
X253215000Y-96961279D01*
X253381666Y-96123184D02*
X253548333Y-96694613D01*
X253115000Y-96694613D01*
X252915000Y-96161279D02*
X252448333Y-96161279D01*
X252748333Y-96961279D01*
X219417000Y-96961279D02*
X219417000Y-96161279D01*
X219250333Y-96161279D01*
X219150333Y-96199375D01*
X219083666Y-96275565D01*
X219050333Y-96351755D01*
X219017000Y-96504136D01*
X219017000Y-96618422D01*
X219050333Y-96770803D01*
X219083666Y-96846994D01*
X219150333Y-96923184D01*
X219250333Y-96961279D01*
X219417000Y-96961279D01*
X218417000Y-96427946D02*
X218417000Y-96961279D01*
X218583666Y-96123184D02*
X218750333Y-96694613D01*
X218317000Y-96694613D01*
X217750333Y-96161279D02*
X217883666Y-96161279D01*
X217950333Y-96199375D01*
X217983666Y-96237470D01*
X218050333Y-96351755D01*
X218083666Y-96504136D01*
X218083666Y-96808898D01*
X218050333Y-96885089D01*
X218017000Y-96923184D01*
X217950333Y-96961279D01*
X217817000Y-96961279D01*
X217750333Y-96923184D01*
X217717000Y-96885089D01*
X217683666Y-96808898D01*
X217683666Y-96618422D01*
X217717000Y-96542232D01*
X217750333Y-96504136D01*
X217817000Y-96466041D01*
X217950333Y-96466041D01*
X218017000Y-96504136D01*
X218050333Y-96542232D01*
X218083666Y-96618422D01*
X216242000Y-96961279D02*
X216242000Y-96161279D01*
X216075333Y-96161279D01*
X215975333Y-96199375D01*
X215908666Y-96275565D01*
X215875333Y-96351755D01*
X215842000Y-96504136D01*
X215842000Y-96618422D01*
X215875333Y-96770803D01*
X215908666Y-96846994D01*
X215975333Y-96923184D01*
X216075333Y-96961279D01*
X216242000Y-96961279D01*
X215242000Y-96427946D02*
X215242000Y-96961279D01*
X215408666Y-96123184D02*
X215575333Y-96694613D01*
X215142000Y-96694613D01*
X214542000Y-96161279D02*
X214875333Y-96161279D01*
X214908666Y-96542232D01*
X214875333Y-96504136D01*
X214808666Y-96466041D01*
X214642000Y-96466041D01*
X214575333Y-96504136D01*
X214542000Y-96542232D01*
X214508666Y-96618422D01*
X214508666Y-96808898D01*
X214542000Y-96885089D01*
X214575333Y-96923184D01*
X214642000Y-96961279D01*
X214808666Y-96961279D01*
X214875333Y-96923184D01*
X214908666Y-96885089D01*
X181444000Y-96961279D02*
X181444000Y-96161279D01*
X181277333Y-96161279D01*
X181177333Y-96199375D01*
X181110666Y-96275565D01*
X181077333Y-96351755D01*
X181044000Y-96504136D01*
X181044000Y-96618422D01*
X181077333Y-96770803D01*
X181110666Y-96846994D01*
X181177333Y-96923184D01*
X181277333Y-96961279D01*
X181444000Y-96961279D01*
X180444000Y-96427946D02*
X180444000Y-96961279D01*
X180610666Y-96123184D02*
X180777333Y-96694613D01*
X180344000Y-96694613D01*
X179777333Y-96427946D02*
X179777333Y-96961279D01*
X179944000Y-96123184D02*
X180110666Y-96694613D01*
X179677333Y-96694613D01*
X178269000Y-96961279D02*
X178269000Y-96161279D01*
X178102333Y-96161279D01*
X178002333Y-96199375D01*
X177935666Y-96275565D01*
X177902333Y-96351755D01*
X177869000Y-96504136D01*
X177869000Y-96618422D01*
X177902333Y-96770803D01*
X177935666Y-96846994D01*
X178002333Y-96923184D01*
X178102333Y-96961279D01*
X178269000Y-96961279D01*
X177269000Y-96427946D02*
X177269000Y-96961279D01*
X177435666Y-96123184D02*
X177602333Y-96694613D01*
X177169000Y-96694613D01*
X176969000Y-96161279D02*
X176535666Y-96161279D01*
X176769000Y-96466041D01*
X176669000Y-96466041D01*
X176602333Y-96504136D01*
X176569000Y-96542232D01*
X176535666Y-96618422D01*
X176535666Y-96808898D01*
X176569000Y-96885089D01*
X176602333Y-96923184D01*
X176669000Y-96961279D01*
X176869000Y-96961279D01*
X176935666Y-96923184D01*
X176969000Y-96885089D01*
X143344000Y-96961279D02*
X143344000Y-96161279D01*
X143177333Y-96161279D01*
X143077333Y-96199375D01*
X143010666Y-96275565D01*
X142977333Y-96351755D01*
X142944000Y-96504136D01*
X142944000Y-96618422D01*
X142977333Y-96770803D01*
X143010666Y-96846994D01*
X143077333Y-96923184D01*
X143177333Y-96961279D01*
X143344000Y-96961279D01*
X142344000Y-96427946D02*
X142344000Y-96961279D01*
X142510666Y-96123184D02*
X142677333Y-96694613D01*
X142244000Y-96694613D01*
X142010666Y-96237470D02*
X141977333Y-96199375D01*
X141910666Y-96161279D01*
X141744000Y-96161279D01*
X141677333Y-96199375D01*
X141644000Y-96237470D01*
X141610666Y-96313660D01*
X141610666Y-96389851D01*
X141644000Y-96504136D01*
X142044000Y-96961279D01*
X141610666Y-96961279D01*
X140169000Y-96961279D02*
X140169000Y-96161279D01*
X140002333Y-96161279D01*
X139902333Y-96199375D01*
X139835666Y-96275565D01*
X139802333Y-96351755D01*
X139769000Y-96504136D01*
X139769000Y-96618422D01*
X139802333Y-96770803D01*
X139835666Y-96846994D01*
X139902333Y-96923184D01*
X140002333Y-96961279D01*
X140169000Y-96961279D01*
X139169000Y-96427946D02*
X139169000Y-96961279D01*
X139335666Y-96123184D02*
X139502333Y-96694613D01*
X139069000Y-96694613D01*
X138435666Y-96961279D02*
X138835666Y-96961279D01*
X138635666Y-96961279D02*
X138635666Y-96161279D01*
X138702333Y-96275565D01*
X138769000Y-96351755D01*
X138835666Y-96389851D01*
X105371000Y-96961279D02*
X105371000Y-96161279D01*
X105204333Y-96161279D01*
X105104333Y-96199375D01*
X105037666Y-96275565D01*
X105004333Y-96351755D01*
X104971000Y-96504136D01*
X104971000Y-96618422D01*
X105004333Y-96770803D01*
X105037666Y-96846994D01*
X105104333Y-96923184D01*
X105204333Y-96961279D01*
X105371000Y-96961279D01*
X104371000Y-96427946D02*
X104371000Y-96961279D01*
X104537666Y-96123184D02*
X104704333Y-96694613D01*
X104271000Y-96694613D01*
X103871000Y-96161279D02*
X103804333Y-96161279D01*
X103737666Y-96199375D01*
X103704333Y-96237470D01*
X103671000Y-96313660D01*
X103637666Y-96466041D01*
X103637666Y-96656517D01*
X103671000Y-96808898D01*
X103704333Y-96885089D01*
X103737666Y-96923184D01*
X103804333Y-96961279D01*
X103871000Y-96961279D01*
X103937666Y-96923184D01*
X103971000Y-96885089D01*
X104004333Y-96808898D01*
X104037666Y-96656517D01*
X104037666Y-96466041D01*
X104004333Y-96313660D01*
X103971000Y-96237470D01*
X103937666Y-96199375D01*
X103871000Y-96161279D01*
X102196000Y-96961279D02*
X102196000Y-96161279D01*
X102029333Y-96161279D01*
X101929333Y-96199375D01*
X101862666Y-96275565D01*
X101829333Y-96351755D01*
X101796000Y-96504136D01*
X101796000Y-96618422D01*
X101829333Y-96770803D01*
X101862666Y-96846994D01*
X101929333Y-96923184D01*
X102029333Y-96961279D01*
X102196000Y-96961279D01*
X101562666Y-96161279D02*
X101129333Y-96161279D01*
X101362666Y-96466041D01*
X101262666Y-96466041D01*
X101196000Y-96504136D01*
X101162666Y-96542232D01*
X101129333Y-96618422D01*
X101129333Y-96808898D01*
X101162666Y-96885089D01*
X101196000Y-96923184D01*
X101262666Y-96961279D01*
X101462666Y-96961279D01*
X101529333Y-96923184D01*
X101562666Y-96885089D01*
X100796000Y-96961279D02*
X100662666Y-96961279D01*
X100596000Y-96923184D01*
X100562666Y-96885089D01*
X100496000Y-96770803D01*
X100462666Y-96618422D01*
X100462666Y-96313660D01*
X100496000Y-96237470D01*
X100529333Y-96199375D01*
X100596000Y-96161279D01*
X100729333Y-96161279D01*
X100796000Y-96199375D01*
X100829333Y-96237470D01*
X100862666Y-96313660D01*
X100862666Y-96504136D01*
X100829333Y-96580327D01*
X100796000Y-96618422D01*
X100729333Y-96656517D01*
X100596000Y-96656517D01*
X100529333Y-96618422D01*
X100496000Y-96580327D01*
X100462666Y-96504136D01*
X67398000Y-96961279D02*
X67398000Y-96161279D01*
X67231333Y-96161279D01*
X67131333Y-96199375D01*
X67064666Y-96275565D01*
X67031333Y-96351755D01*
X66998000Y-96504136D01*
X66998000Y-96618422D01*
X67031333Y-96770803D01*
X67064666Y-96846994D01*
X67131333Y-96923184D01*
X67231333Y-96961279D01*
X67398000Y-96961279D01*
X66764666Y-96161279D02*
X66331333Y-96161279D01*
X66564666Y-96466041D01*
X66464666Y-96466041D01*
X66398000Y-96504136D01*
X66364666Y-96542232D01*
X66331333Y-96618422D01*
X66331333Y-96808898D01*
X66364666Y-96885089D01*
X66398000Y-96923184D01*
X66464666Y-96961279D01*
X66664666Y-96961279D01*
X66731333Y-96923184D01*
X66764666Y-96885089D01*
X65931333Y-96504136D02*
X65998000Y-96466041D01*
X66031333Y-96427946D01*
X66064666Y-96351755D01*
X66064666Y-96313660D01*
X66031333Y-96237470D01*
X65998000Y-96199375D01*
X65931333Y-96161279D01*
X65798000Y-96161279D01*
X65731333Y-96199375D01*
X65698000Y-96237470D01*
X65664666Y-96313660D01*
X65664666Y-96351755D01*
X65698000Y-96427946D01*
X65731333Y-96466041D01*
X65798000Y-96504136D01*
X65931333Y-96504136D01*
X65998000Y-96542232D01*
X66031333Y-96580327D01*
X66064666Y-96656517D01*
X66064666Y-96808898D01*
X66031333Y-96885089D01*
X65998000Y-96923184D01*
X65931333Y-96961279D01*
X65798000Y-96961279D01*
X65731333Y-96923184D01*
X65698000Y-96885089D01*
X65664666Y-96808898D01*
X65664666Y-96656517D01*
X65698000Y-96580327D01*
X65731333Y-96542232D01*
X65798000Y-96504136D01*
X64223805Y-96961279D02*
X64223805Y-96161279D01*
X64057138Y-96161279D01*
X63957138Y-96199375D01*
X63890471Y-96275565D01*
X63857138Y-96351755D01*
X63823805Y-96504136D01*
X63823805Y-96618422D01*
X63857138Y-96770803D01*
X63890471Y-96846994D01*
X63957138Y-96923184D01*
X64057138Y-96961279D01*
X64223805Y-96961279D01*
X63590471Y-96161279D02*
X63157138Y-96161279D01*
X63390471Y-96466041D01*
X63290471Y-96466041D01*
X63223805Y-96504136D01*
X63190471Y-96542232D01*
X63157138Y-96618422D01*
X63157138Y-96808898D01*
X63190471Y-96885089D01*
X63223805Y-96923184D01*
X63290471Y-96961279D01*
X63490471Y-96961279D01*
X63557138Y-96923184D01*
X63590471Y-96885089D01*
X62923805Y-96161279D02*
X62457138Y-96161279D01*
X62757138Y-96961279D01*
X257390000Y-77911279D02*
X257390000Y-77111279D01*
X257223333Y-77111279D01*
X257123333Y-77149375D01*
X257056666Y-77225565D01*
X257023333Y-77301755D01*
X256990000Y-77454136D01*
X256990000Y-77568422D01*
X257023333Y-77720803D01*
X257056666Y-77796994D01*
X257123333Y-77873184D01*
X257223333Y-77911279D01*
X257390000Y-77911279D01*
X256756666Y-77111279D02*
X256323333Y-77111279D01*
X256556666Y-77416041D01*
X256456666Y-77416041D01*
X256390000Y-77454136D01*
X256356666Y-77492232D01*
X256323333Y-77568422D01*
X256323333Y-77758898D01*
X256356666Y-77835089D01*
X256390000Y-77873184D01*
X256456666Y-77911279D01*
X256656666Y-77911279D01*
X256723333Y-77873184D01*
X256756666Y-77835089D01*
X255723333Y-77111279D02*
X255856666Y-77111279D01*
X255923333Y-77149375D01*
X255956666Y-77187470D01*
X256023333Y-77301755D01*
X256056666Y-77454136D01*
X256056666Y-77758898D01*
X256023333Y-77835089D01*
X255990000Y-77873184D01*
X255923333Y-77911279D01*
X255790000Y-77911279D01*
X255723333Y-77873184D01*
X255690000Y-77835089D01*
X255656666Y-77758898D01*
X255656666Y-77568422D01*
X255690000Y-77492232D01*
X255723333Y-77454136D01*
X255790000Y-77416041D01*
X255923333Y-77416041D01*
X255990000Y-77454136D01*
X256023333Y-77492232D01*
X256056666Y-77568422D01*
X254215000Y-77911279D02*
X254215000Y-77111279D01*
X254048333Y-77111279D01*
X253948333Y-77149375D01*
X253881666Y-77225565D01*
X253848333Y-77301755D01*
X253815000Y-77454136D01*
X253815000Y-77568422D01*
X253848333Y-77720803D01*
X253881666Y-77796994D01*
X253948333Y-77873184D01*
X254048333Y-77911279D01*
X254215000Y-77911279D01*
X253581666Y-77111279D02*
X253148333Y-77111279D01*
X253381666Y-77416041D01*
X253281666Y-77416041D01*
X253215000Y-77454136D01*
X253181666Y-77492232D01*
X253148333Y-77568422D01*
X253148333Y-77758898D01*
X253181666Y-77835089D01*
X253215000Y-77873184D01*
X253281666Y-77911279D01*
X253481666Y-77911279D01*
X253548333Y-77873184D01*
X253581666Y-77835089D01*
X252515000Y-77111279D02*
X252848333Y-77111279D01*
X252881666Y-77492232D01*
X252848333Y-77454136D01*
X252781666Y-77416041D01*
X252615000Y-77416041D01*
X252548333Y-77454136D01*
X252515000Y-77492232D01*
X252481666Y-77568422D01*
X252481666Y-77758898D01*
X252515000Y-77835089D01*
X252548333Y-77873184D01*
X252615000Y-77911279D01*
X252781666Y-77911279D01*
X252848333Y-77873184D01*
X252881666Y-77835089D01*
X219417000Y-77911279D02*
X219417000Y-77111279D01*
X219250333Y-77111279D01*
X219150333Y-77149375D01*
X219083666Y-77225565D01*
X219050333Y-77301755D01*
X219017000Y-77454136D01*
X219017000Y-77568422D01*
X219050333Y-77720803D01*
X219083666Y-77796994D01*
X219150333Y-77873184D01*
X219250333Y-77911279D01*
X219417000Y-77911279D01*
X218783666Y-77111279D02*
X218350333Y-77111279D01*
X218583666Y-77416041D01*
X218483666Y-77416041D01*
X218417000Y-77454136D01*
X218383666Y-77492232D01*
X218350333Y-77568422D01*
X218350333Y-77758898D01*
X218383666Y-77835089D01*
X218417000Y-77873184D01*
X218483666Y-77911279D01*
X218683666Y-77911279D01*
X218750333Y-77873184D01*
X218783666Y-77835089D01*
X217750333Y-77377946D02*
X217750333Y-77911279D01*
X217917000Y-77073184D02*
X218083666Y-77644613D01*
X217650333Y-77644613D01*
X216242000Y-77911279D02*
X216242000Y-77111279D01*
X216075333Y-77111279D01*
X215975333Y-77149375D01*
X215908666Y-77225565D01*
X215875333Y-77301755D01*
X215842000Y-77454136D01*
X215842000Y-77568422D01*
X215875333Y-77720803D01*
X215908666Y-77796994D01*
X215975333Y-77873184D01*
X216075333Y-77911279D01*
X216242000Y-77911279D01*
X215608666Y-77111279D02*
X215175333Y-77111279D01*
X215408666Y-77416041D01*
X215308666Y-77416041D01*
X215242000Y-77454136D01*
X215208666Y-77492232D01*
X215175333Y-77568422D01*
X215175333Y-77758898D01*
X215208666Y-77835089D01*
X215242000Y-77873184D01*
X215308666Y-77911279D01*
X215508666Y-77911279D01*
X215575333Y-77873184D01*
X215608666Y-77835089D01*
X214942000Y-77111279D02*
X214508666Y-77111279D01*
X214742000Y-77416041D01*
X214642000Y-77416041D01*
X214575333Y-77454136D01*
X214542000Y-77492232D01*
X214508666Y-77568422D01*
X214508666Y-77758898D01*
X214542000Y-77835089D01*
X214575333Y-77873184D01*
X214642000Y-77911279D01*
X214842000Y-77911279D01*
X214908666Y-77873184D01*
X214942000Y-77835089D01*
X181444000Y-77911279D02*
X181444000Y-77111279D01*
X181277333Y-77111279D01*
X181177333Y-77149375D01*
X181110666Y-77225565D01*
X181077333Y-77301755D01*
X181044000Y-77454136D01*
X181044000Y-77568422D01*
X181077333Y-77720803D01*
X181110666Y-77796994D01*
X181177333Y-77873184D01*
X181277333Y-77911279D01*
X181444000Y-77911279D01*
X180810666Y-77111279D02*
X180377333Y-77111279D01*
X180610666Y-77416041D01*
X180510666Y-77416041D01*
X180444000Y-77454136D01*
X180410666Y-77492232D01*
X180377333Y-77568422D01*
X180377333Y-77758898D01*
X180410666Y-77835089D01*
X180444000Y-77873184D01*
X180510666Y-77911279D01*
X180710666Y-77911279D01*
X180777333Y-77873184D01*
X180810666Y-77835089D01*
X180110666Y-77187470D02*
X180077333Y-77149375D01*
X180010666Y-77111279D01*
X179844000Y-77111279D01*
X179777333Y-77149375D01*
X179744000Y-77187470D01*
X179710666Y-77263660D01*
X179710666Y-77339851D01*
X179744000Y-77454136D01*
X180144000Y-77911279D01*
X179710666Y-77911279D01*
X178269000Y-77911279D02*
X178269000Y-77111279D01*
X178102333Y-77111279D01*
X178002333Y-77149375D01*
X177935666Y-77225565D01*
X177902333Y-77301755D01*
X177869000Y-77454136D01*
X177869000Y-77568422D01*
X177902333Y-77720803D01*
X177935666Y-77796994D01*
X178002333Y-77873184D01*
X178102333Y-77911279D01*
X178269000Y-77911279D01*
X177635666Y-77111279D02*
X177202333Y-77111279D01*
X177435666Y-77416041D01*
X177335666Y-77416041D01*
X177269000Y-77454136D01*
X177235666Y-77492232D01*
X177202333Y-77568422D01*
X177202333Y-77758898D01*
X177235666Y-77835089D01*
X177269000Y-77873184D01*
X177335666Y-77911279D01*
X177535666Y-77911279D01*
X177602333Y-77873184D01*
X177635666Y-77835089D01*
X176535666Y-77911279D02*
X176935666Y-77911279D01*
X176735666Y-77911279D02*
X176735666Y-77111279D01*
X176802333Y-77225565D01*
X176869000Y-77301755D01*
X176935666Y-77339851D01*
X143471000Y-77911279D02*
X143471000Y-77111279D01*
X143304333Y-77111279D01*
X143204333Y-77149375D01*
X143137666Y-77225565D01*
X143104333Y-77301755D01*
X143071000Y-77454136D01*
X143071000Y-77568422D01*
X143104333Y-77720803D01*
X143137666Y-77796994D01*
X143204333Y-77873184D01*
X143304333Y-77911279D01*
X143471000Y-77911279D01*
X142837666Y-77111279D02*
X142404333Y-77111279D01*
X142637666Y-77416041D01*
X142537666Y-77416041D01*
X142471000Y-77454136D01*
X142437666Y-77492232D01*
X142404333Y-77568422D01*
X142404333Y-77758898D01*
X142437666Y-77835089D01*
X142471000Y-77873184D01*
X142537666Y-77911279D01*
X142737666Y-77911279D01*
X142804333Y-77873184D01*
X142837666Y-77835089D01*
X141971000Y-77111279D02*
X141904333Y-77111279D01*
X141837666Y-77149375D01*
X141804333Y-77187470D01*
X141771000Y-77263660D01*
X141737666Y-77416041D01*
X141737666Y-77606517D01*
X141771000Y-77758898D01*
X141804333Y-77835089D01*
X141837666Y-77873184D01*
X141904333Y-77911279D01*
X141971000Y-77911279D01*
X142037666Y-77873184D01*
X142071000Y-77835089D01*
X142104333Y-77758898D01*
X142137666Y-77606517D01*
X142137666Y-77416041D01*
X142104333Y-77263660D01*
X142071000Y-77187470D01*
X142037666Y-77149375D01*
X141971000Y-77111279D01*
X140296000Y-77911279D02*
X140296000Y-77111279D01*
X140129333Y-77111279D01*
X140029333Y-77149375D01*
X139962666Y-77225565D01*
X139929333Y-77301755D01*
X139896000Y-77454136D01*
X139896000Y-77568422D01*
X139929333Y-77720803D01*
X139962666Y-77796994D01*
X140029333Y-77873184D01*
X140129333Y-77911279D01*
X140296000Y-77911279D01*
X139629333Y-77187470D02*
X139596000Y-77149375D01*
X139529333Y-77111279D01*
X139362666Y-77111279D01*
X139296000Y-77149375D01*
X139262666Y-77187470D01*
X139229333Y-77263660D01*
X139229333Y-77339851D01*
X139262666Y-77454136D01*
X139662666Y-77911279D01*
X139229333Y-77911279D01*
X138896000Y-77911279D02*
X138762666Y-77911279D01*
X138696000Y-77873184D01*
X138662666Y-77835089D01*
X138596000Y-77720803D01*
X138562666Y-77568422D01*
X138562666Y-77263660D01*
X138596000Y-77187470D01*
X138629333Y-77149375D01*
X138696000Y-77111279D01*
X138829333Y-77111279D01*
X138896000Y-77149375D01*
X138929333Y-77187470D01*
X138962666Y-77263660D01*
X138962666Y-77454136D01*
X138929333Y-77530327D01*
X138896000Y-77568422D01*
X138829333Y-77606517D01*
X138696000Y-77606517D01*
X138629333Y-77568422D01*
X138596000Y-77530327D01*
X138562666Y-77454136D01*
X105371000Y-77911279D02*
X105371000Y-77111279D01*
X105204333Y-77111279D01*
X105104333Y-77149375D01*
X105037666Y-77225565D01*
X105004333Y-77301755D01*
X104971000Y-77454136D01*
X104971000Y-77568422D01*
X105004333Y-77720803D01*
X105037666Y-77796994D01*
X105104333Y-77873184D01*
X105204333Y-77911279D01*
X105371000Y-77911279D01*
X104704333Y-77187470D02*
X104671000Y-77149375D01*
X104604333Y-77111279D01*
X104437666Y-77111279D01*
X104371000Y-77149375D01*
X104337666Y-77187470D01*
X104304333Y-77263660D01*
X104304333Y-77339851D01*
X104337666Y-77454136D01*
X104737666Y-77911279D01*
X104304333Y-77911279D01*
X103904333Y-77454136D02*
X103971000Y-77416041D01*
X104004333Y-77377946D01*
X104037666Y-77301755D01*
X104037666Y-77263660D01*
X104004333Y-77187470D01*
X103971000Y-77149375D01*
X103904333Y-77111279D01*
X103771000Y-77111279D01*
X103704333Y-77149375D01*
X103671000Y-77187470D01*
X103637666Y-77263660D01*
X103637666Y-77301755D01*
X103671000Y-77377946D01*
X103704333Y-77416041D01*
X103771000Y-77454136D01*
X103904333Y-77454136D01*
X103971000Y-77492232D01*
X104004333Y-77530327D01*
X104037666Y-77606517D01*
X104037666Y-77758898D01*
X104004333Y-77835089D01*
X103971000Y-77873184D01*
X103904333Y-77911279D01*
X103771000Y-77911279D01*
X103704333Y-77873184D01*
X103671000Y-77835089D01*
X103637666Y-77758898D01*
X103637666Y-77606517D01*
X103671000Y-77530327D01*
X103704333Y-77492232D01*
X103771000Y-77454136D01*
X102196000Y-77911279D02*
X102196000Y-77111279D01*
X102029333Y-77111279D01*
X101929333Y-77149375D01*
X101862666Y-77225565D01*
X101829333Y-77301755D01*
X101796000Y-77454136D01*
X101796000Y-77568422D01*
X101829333Y-77720803D01*
X101862666Y-77796994D01*
X101929333Y-77873184D01*
X102029333Y-77911279D01*
X102196000Y-77911279D01*
X101529333Y-77187470D02*
X101496000Y-77149375D01*
X101429333Y-77111279D01*
X101262666Y-77111279D01*
X101196000Y-77149375D01*
X101162666Y-77187470D01*
X101129333Y-77263660D01*
X101129333Y-77339851D01*
X101162666Y-77454136D01*
X101562666Y-77911279D01*
X101129333Y-77911279D01*
X100896000Y-77111279D02*
X100429333Y-77111279D01*
X100729333Y-77911279D01*
X67398000Y-77911279D02*
X67398000Y-77111279D01*
X67231333Y-77111279D01*
X67131333Y-77149375D01*
X67064666Y-77225565D01*
X67031333Y-77301755D01*
X66998000Y-77454136D01*
X66998000Y-77568422D01*
X67031333Y-77720803D01*
X67064666Y-77796994D01*
X67131333Y-77873184D01*
X67231333Y-77911279D01*
X67398000Y-77911279D01*
X66731333Y-77187470D02*
X66698000Y-77149375D01*
X66631333Y-77111279D01*
X66464666Y-77111279D01*
X66398000Y-77149375D01*
X66364666Y-77187470D01*
X66331333Y-77263660D01*
X66331333Y-77339851D01*
X66364666Y-77454136D01*
X66764666Y-77911279D01*
X66331333Y-77911279D01*
X65731333Y-77111279D02*
X65864666Y-77111279D01*
X65931333Y-77149375D01*
X65964666Y-77187470D01*
X66031333Y-77301755D01*
X66064666Y-77454136D01*
X66064666Y-77758898D01*
X66031333Y-77835089D01*
X65998000Y-77873184D01*
X65931333Y-77911279D01*
X65798000Y-77911279D01*
X65731333Y-77873184D01*
X65698000Y-77835089D01*
X65664666Y-77758898D01*
X65664666Y-77568422D01*
X65698000Y-77492232D01*
X65731333Y-77454136D01*
X65798000Y-77416041D01*
X65931333Y-77416041D01*
X65998000Y-77454136D01*
X66031333Y-77492232D01*
X66064666Y-77568422D01*
X64223000Y-77911279D02*
X64223000Y-77111279D01*
X64056333Y-77111279D01*
X63956333Y-77149375D01*
X63889666Y-77225565D01*
X63856333Y-77301755D01*
X63823000Y-77454136D01*
X63823000Y-77568422D01*
X63856333Y-77720803D01*
X63889666Y-77796994D01*
X63956333Y-77873184D01*
X64056333Y-77911279D01*
X64223000Y-77911279D01*
X63556333Y-77187470D02*
X63523000Y-77149375D01*
X63456333Y-77111279D01*
X63289666Y-77111279D01*
X63223000Y-77149375D01*
X63189666Y-77187470D01*
X63156333Y-77263660D01*
X63156333Y-77339851D01*
X63189666Y-77454136D01*
X63589666Y-77911279D01*
X63156333Y-77911279D01*
X62523000Y-77111279D02*
X62856333Y-77111279D01*
X62889666Y-77492232D01*
X62856333Y-77454136D01*
X62789666Y-77416041D01*
X62623000Y-77416041D01*
X62556333Y-77454136D01*
X62523000Y-77492232D01*
X62489666Y-77568422D01*
X62489666Y-77758898D01*
X62523000Y-77835089D01*
X62556333Y-77873184D01*
X62623000Y-77911279D01*
X62789666Y-77911279D01*
X62856333Y-77873184D01*
X62889666Y-77835089D01*
X257390000Y-58861279D02*
X257390000Y-58061279D01*
X257223333Y-58061279D01*
X257123333Y-58099375D01*
X257056666Y-58175565D01*
X257023333Y-58251755D01*
X256990000Y-58404136D01*
X256990000Y-58518422D01*
X257023333Y-58670803D01*
X257056666Y-58746994D01*
X257123333Y-58823184D01*
X257223333Y-58861279D01*
X257390000Y-58861279D01*
X256723333Y-58137470D02*
X256690000Y-58099375D01*
X256623333Y-58061279D01*
X256456666Y-58061279D01*
X256390000Y-58099375D01*
X256356666Y-58137470D01*
X256323333Y-58213660D01*
X256323333Y-58289851D01*
X256356666Y-58404136D01*
X256756666Y-58861279D01*
X256323333Y-58861279D01*
X255723333Y-58327946D02*
X255723333Y-58861279D01*
X255890000Y-58023184D02*
X256056666Y-58594613D01*
X255623333Y-58594613D01*
X254215000Y-58861279D02*
X254215000Y-58061279D01*
X254048333Y-58061279D01*
X253948333Y-58099375D01*
X253881666Y-58175565D01*
X253848333Y-58251755D01*
X253815000Y-58404136D01*
X253815000Y-58518422D01*
X253848333Y-58670803D01*
X253881666Y-58746994D01*
X253948333Y-58823184D01*
X254048333Y-58861279D01*
X254215000Y-58861279D01*
X253548333Y-58137470D02*
X253515000Y-58099375D01*
X253448333Y-58061279D01*
X253281666Y-58061279D01*
X253215000Y-58099375D01*
X253181666Y-58137470D01*
X253148333Y-58213660D01*
X253148333Y-58289851D01*
X253181666Y-58404136D01*
X253581666Y-58861279D01*
X253148333Y-58861279D01*
X252915000Y-58061279D02*
X252481666Y-58061279D01*
X252715000Y-58366041D01*
X252615000Y-58366041D01*
X252548333Y-58404136D01*
X252515000Y-58442232D01*
X252481666Y-58518422D01*
X252481666Y-58708898D01*
X252515000Y-58785089D01*
X252548333Y-58823184D01*
X252615000Y-58861279D01*
X252815000Y-58861279D01*
X252881666Y-58823184D01*
X252915000Y-58785089D01*
X219417000Y-58861279D02*
X219417000Y-58061279D01*
X219250333Y-58061279D01*
X219150333Y-58099375D01*
X219083666Y-58175565D01*
X219050333Y-58251755D01*
X219017000Y-58404136D01*
X219017000Y-58518422D01*
X219050333Y-58670803D01*
X219083666Y-58746994D01*
X219150333Y-58823184D01*
X219250333Y-58861279D01*
X219417000Y-58861279D01*
X218750333Y-58137470D02*
X218717000Y-58099375D01*
X218650333Y-58061279D01*
X218483666Y-58061279D01*
X218417000Y-58099375D01*
X218383666Y-58137470D01*
X218350333Y-58213660D01*
X218350333Y-58289851D01*
X218383666Y-58404136D01*
X218783666Y-58861279D01*
X218350333Y-58861279D01*
X218083666Y-58137470D02*
X218050333Y-58099375D01*
X217983666Y-58061279D01*
X217817000Y-58061279D01*
X217750333Y-58099375D01*
X217717000Y-58137470D01*
X217683666Y-58213660D01*
X217683666Y-58289851D01*
X217717000Y-58404136D01*
X218117000Y-58861279D01*
X217683666Y-58861279D01*
X216242000Y-58861279D02*
X216242000Y-58061279D01*
X216075333Y-58061279D01*
X215975333Y-58099375D01*
X215908666Y-58175565D01*
X215875333Y-58251755D01*
X215842000Y-58404136D01*
X215842000Y-58518422D01*
X215875333Y-58670803D01*
X215908666Y-58746994D01*
X215975333Y-58823184D01*
X216075333Y-58861279D01*
X216242000Y-58861279D01*
X215575333Y-58137470D02*
X215542000Y-58099375D01*
X215475333Y-58061279D01*
X215308666Y-58061279D01*
X215242000Y-58099375D01*
X215208666Y-58137470D01*
X215175333Y-58213660D01*
X215175333Y-58289851D01*
X215208666Y-58404136D01*
X215608666Y-58861279D01*
X215175333Y-58861279D01*
X214508666Y-58861279D02*
X214908666Y-58861279D01*
X214708666Y-58861279D02*
X214708666Y-58061279D01*
X214775333Y-58175565D01*
X214842000Y-58251755D01*
X214908666Y-58289851D01*
X181444000Y-58861279D02*
X181444000Y-58061279D01*
X181277333Y-58061279D01*
X181177333Y-58099375D01*
X181110666Y-58175565D01*
X181077333Y-58251755D01*
X181044000Y-58404136D01*
X181044000Y-58518422D01*
X181077333Y-58670803D01*
X181110666Y-58746994D01*
X181177333Y-58823184D01*
X181277333Y-58861279D01*
X181444000Y-58861279D01*
X180777333Y-58137470D02*
X180744000Y-58099375D01*
X180677333Y-58061279D01*
X180510666Y-58061279D01*
X180444000Y-58099375D01*
X180410666Y-58137470D01*
X180377333Y-58213660D01*
X180377333Y-58289851D01*
X180410666Y-58404136D01*
X180810666Y-58861279D01*
X180377333Y-58861279D01*
X179944000Y-58061279D02*
X179877333Y-58061279D01*
X179810666Y-58099375D01*
X179777333Y-58137470D01*
X179744000Y-58213660D01*
X179710666Y-58366041D01*
X179710666Y-58556517D01*
X179744000Y-58708898D01*
X179777333Y-58785089D01*
X179810666Y-58823184D01*
X179877333Y-58861279D01*
X179944000Y-58861279D01*
X180010666Y-58823184D01*
X180044000Y-58785089D01*
X180077333Y-58708898D01*
X180110666Y-58556517D01*
X180110666Y-58366041D01*
X180077333Y-58213660D01*
X180044000Y-58137470D01*
X180010666Y-58099375D01*
X179944000Y-58061279D01*
X178269000Y-58861279D02*
X178269000Y-58061279D01*
X178102333Y-58061279D01*
X178002333Y-58099375D01*
X177935666Y-58175565D01*
X177902333Y-58251755D01*
X177869000Y-58404136D01*
X177869000Y-58518422D01*
X177902333Y-58670803D01*
X177935666Y-58746994D01*
X178002333Y-58823184D01*
X178102333Y-58861279D01*
X178269000Y-58861279D01*
X177202333Y-58861279D02*
X177602333Y-58861279D01*
X177402333Y-58861279D02*
X177402333Y-58061279D01*
X177469000Y-58175565D01*
X177535666Y-58251755D01*
X177602333Y-58289851D01*
X176869000Y-58861279D02*
X176735666Y-58861279D01*
X176669000Y-58823184D01*
X176635666Y-58785089D01*
X176569000Y-58670803D01*
X176535666Y-58518422D01*
X176535666Y-58213660D01*
X176569000Y-58137470D01*
X176602333Y-58099375D01*
X176669000Y-58061279D01*
X176802333Y-58061279D01*
X176869000Y-58099375D01*
X176902333Y-58137470D01*
X176935666Y-58213660D01*
X176935666Y-58404136D01*
X176902333Y-58480327D01*
X176869000Y-58518422D01*
X176802333Y-58556517D01*
X176669000Y-58556517D01*
X176602333Y-58518422D01*
X176569000Y-58480327D01*
X176535666Y-58404136D01*
X140550000Y-58861279D02*
X140550000Y-58061279D01*
X140383333Y-58061279D01*
X140283333Y-58099375D01*
X140216666Y-58175565D01*
X140183333Y-58251755D01*
X140150000Y-58404136D01*
X140150000Y-58518422D01*
X140183333Y-58670803D01*
X140216666Y-58746994D01*
X140283333Y-58823184D01*
X140383333Y-58861279D01*
X140550000Y-58861279D01*
X139483333Y-58861279D02*
X139883333Y-58861279D01*
X139683333Y-58861279D02*
X139683333Y-58061279D01*
X139750000Y-58175565D01*
X139816666Y-58251755D01*
X139883333Y-58289851D01*
X139250000Y-58061279D02*
X138783333Y-58061279D01*
X139083333Y-58861279D01*
X105625000Y-58861279D02*
X105625000Y-58061279D01*
X105458333Y-58061279D01*
X105358333Y-58099375D01*
X105291666Y-58175565D01*
X105258333Y-58251755D01*
X105225000Y-58404136D01*
X105225000Y-58518422D01*
X105258333Y-58670803D01*
X105291666Y-58746994D01*
X105358333Y-58823184D01*
X105458333Y-58861279D01*
X105625000Y-58861279D01*
X104558333Y-58861279D02*
X104958333Y-58861279D01*
X104758333Y-58861279D02*
X104758333Y-58061279D01*
X104825000Y-58175565D01*
X104891666Y-58251755D01*
X104958333Y-58289851D01*
X103958333Y-58061279D02*
X104091666Y-58061279D01*
X104158333Y-58099375D01*
X104191666Y-58137470D01*
X104258333Y-58251755D01*
X104291666Y-58404136D01*
X104291666Y-58708898D01*
X104258333Y-58785089D01*
X104225000Y-58823184D01*
X104158333Y-58861279D01*
X104025000Y-58861279D01*
X103958333Y-58823184D01*
X103925000Y-58785089D01*
X103891666Y-58708898D01*
X103891666Y-58518422D01*
X103925000Y-58442232D01*
X103958333Y-58404136D01*
X104025000Y-58366041D01*
X104158333Y-58366041D01*
X104225000Y-58404136D01*
X104258333Y-58442232D01*
X104291666Y-58518422D01*
X102450000Y-58861279D02*
X102450000Y-58061279D01*
X102283333Y-58061279D01*
X102183333Y-58099375D01*
X102116666Y-58175565D01*
X102083333Y-58251755D01*
X102050000Y-58404136D01*
X102050000Y-58518422D01*
X102083333Y-58670803D01*
X102116666Y-58746994D01*
X102183333Y-58823184D01*
X102283333Y-58861279D01*
X102450000Y-58861279D01*
X101383333Y-58861279D02*
X101783333Y-58861279D01*
X101583333Y-58861279D02*
X101583333Y-58061279D01*
X101650000Y-58175565D01*
X101716666Y-58251755D01*
X101783333Y-58289851D01*
X100750000Y-58061279D02*
X101083333Y-58061279D01*
X101116666Y-58442232D01*
X101083333Y-58404136D01*
X101016666Y-58366041D01*
X100850000Y-58366041D01*
X100783333Y-58404136D01*
X100750000Y-58442232D01*
X100716666Y-58518422D01*
X100716666Y-58708898D01*
X100750000Y-58785089D01*
X100783333Y-58823184D01*
X100850000Y-58861279D01*
X101016666Y-58861279D01*
X101083333Y-58823184D01*
X101116666Y-58785089D01*
X67525000Y-58861279D02*
X67525000Y-58061279D01*
X67358333Y-58061279D01*
X67258333Y-58099375D01*
X67191666Y-58175565D01*
X67158333Y-58251755D01*
X67125000Y-58404136D01*
X67125000Y-58518422D01*
X67158333Y-58670803D01*
X67191666Y-58746994D01*
X67258333Y-58823184D01*
X67358333Y-58861279D01*
X67525000Y-58861279D01*
X66458333Y-58861279D02*
X66858333Y-58861279D01*
X66658333Y-58861279D02*
X66658333Y-58061279D01*
X66725000Y-58175565D01*
X66791666Y-58251755D01*
X66858333Y-58289851D01*
X65858333Y-58327946D02*
X65858333Y-58861279D01*
X66025000Y-58023184D02*
X66191666Y-58594613D01*
X65758333Y-58594613D01*
X64350000Y-58861279D02*
X64350000Y-58061279D01*
X64183333Y-58061279D01*
X64083333Y-58099375D01*
X64016666Y-58175565D01*
X63983333Y-58251755D01*
X63950000Y-58404136D01*
X63950000Y-58518422D01*
X63983333Y-58670803D01*
X64016666Y-58746994D01*
X64083333Y-58823184D01*
X64183333Y-58861279D01*
X64350000Y-58861279D01*
X63283333Y-58861279D02*
X63683333Y-58861279D01*
X63483333Y-58861279D02*
X63483333Y-58061279D01*
X63550000Y-58175565D01*
X63616666Y-58251755D01*
X63683333Y-58289851D01*
X63050000Y-58061279D02*
X62616666Y-58061279D01*
X62850000Y-58366041D01*
X62750000Y-58366041D01*
X62683333Y-58404136D01*
X62650000Y-58442232D01*
X62616666Y-58518422D01*
X62616666Y-58708898D01*
X62650000Y-58785089D01*
X62683333Y-58823184D01*
X62750000Y-58861279D01*
X62950000Y-58861279D01*
X63016666Y-58823184D01*
X63050000Y-58785089D01*
X257390000Y-39811279D02*
X257390000Y-39011279D01*
X257223333Y-39011279D01*
X257123333Y-39049375D01*
X257056666Y-39125565D01*
X257023333Y-39201755D01*
X256990000Y-39354136D01*
X256990000Y-39468422D01*
X257023333Y-39620803D01*
X257056666Y-39696994D01*
X257123333Y-39773184D01*
X257223333Y-39811279D01*
X257390000Y-39811279D01*
X256323333Y-39811279D02*
X256723333Y-39811279D01*
X256523333Y-39811279D02*
X256523333Y-39011279D01*
X256590000Y-39125565D01*
X256656666Y-39201755D01*
X256723333Y-39239851D01*
X256056666Y-39087470D02*
X256023333Y-39049375D01*
X255956666Y-39011279D01*
X255790000Y-39011279D01*
X255723333Y-39049375D01*
X255690000Y-39087470D01*
X255656666Y-39163660D01*
X255656666Y-39239851D01*
X255690000Y-39354136D01*
X256090000Y-39811279D01*
X255656666Y-39811279D01*
X254215000Y-39811279D02*
X254215000Y-39011279D01*
X254048333Y-39011279D01*
X253948333Y-39049375D01*
X253881666Y-39125565D01*
X253848333Y-39201755D01*
X253815000Y-39354136D01*
X253815000Y-39468422D01*
X253848333Y-39620803D01*
X253881666Y-39696994D01*
X253948333Y-39773184D01*
X254048333Y-39811279D01*
X254215000Y-39811279D01*
X253148333Y-39811279D02*
X253548333Y-39811279D01*
X253348333Y-39811279D02*
X253348333Y-39011279D01*
X253415000Y-39125565D01*
X253481666Y-39201755D01*
X253548333Y-39239851D01*
X252481666Y-39811279D02*
X252881666Y-39811279D01*
X252681666Y-39811279D02*
X252681666Y-39011279D01*
X252748333Y-39125565D01*
X252815000Y-39201755D01*
X252881666Y-39239851D01*
X219417000Y-39811279D02*
X219417000Y-39011279D01*
X219250333Y-39011279D01*
X219150333Y-39049375D01*
X219083666Y-39125565D01*
X219050333Y-39201755D01*
X219017000Y-39354136D01*
X219017000Y-39468422D01*
X219050333Y-39620803D01*
X219083666Y-39696994D01*
X219150333Y-39773184D01*
X219250333Y-39811279D01*
X219417000Y-39811279D01*
X218350333Y-39811279D02*
X218750333Y-39811279D01*
X218550333Y-39811279D02*
X218550333Y-39011279D01*
X218617000Y-39125565D01*
X218683666Y-39201755D01*
X218750333Y-39239851D01*
X217917000Y-39011279D02*
X217850333Y-39011279D01*
X217783666Y-39049375D01*
X217750333Y-39087470D01*
X217717000Y-39163660D01*
X217683666Y-39316041D01*
X217683666Y-39506517D01*
X217717000Y-39658898D01*
X217750333Y-39735089D01*
X217783666Y-39773184D01*
X217850333Y-39811279D01*
X217917000Y-39811279D01*
X217983666Y-39773184D01*
X218017000Y-39735089D01*
X218050333Y-39658898D01*
X218083666Y-39506517D01*
X218083666Y-39316041D01*
X218050333Y-39163660D01*
X218017000Y-39087470D01*
X217983666Y-39049375D01*
X217917000Y-39011279D01*
X215908666Y-39811279D02*
X215908666Y-39011279D01*
X215742000Y-39011279D01*
X215642000Y-39049375D01*
X215575333Y-39125565D01*
X215542000Y-39201755D01*
X215508666Y-39354136D01*
X215508666Y-39468422D01*
X215542000Y-39620803D01*
X215575333Y-39696994D01*
X215642000Y-39773184D01*
X215742000Y-39811279D01*
X215908666Y-39811279D01*
X215175333Y-39811279D02*
X215042000Y-39811279D01*
X214975333Y-39773184D01*
X214942000Y-39735089D01*
X214875333Y-39620803D01*
X214842000Y-39468422D01*
X214842000Y-39163660D01*
X214875333Y-39087470D01*
X214908666Y-39049375D01*
X214975333Y-39011279D01*
X215108666Y-39011279D01*
X215175333Y-39049375D01*
X215208666Y-39087470D01*
X215242000Y-39163660D01*
X215242000Y-39354136D01*
X215208666Y-39430327D01*
X215175333Y-39468422D01*
X215108666Y-39506517D01*
X214975333Y-39506517D01*
X214908666Y-39468422D01*
X214875333Y-39430327D01*
X214842000Y-39354136D01*
X181110666Y-39811279D02*
X181110666Y-39011279D01*
X180944000Y-39011279D01*
X180844000Y-39049375D01*
X180777333Y-39125565D01*
X180744000Y-39201755D01*
X180710666Y-39354136D01*
X180710666Y-39468422D01*
X180744000Y-39620803D01*
X180777333Y-39696994D01*
X180844000Y-39773184D01*
X180944000Y-39811279D01*
X181110666Y-39811279D01*
X180310666Y-39354136D02*
X180377333Y-39316041D01*
X180410666Y-39277946D01*
X180444000Y-39201755D01*
X180444000Y-39163660D01*
X180410666Y-39087470D01*
X180377333Y-39049375D01*
X180310666Y-39011279D01*
X180177333Y-39011279D01*
X180110666Y-39049375D01*
X180077333Y-39087470D01*
X180044000Y-39163660D01*
X180044000Y-39201755D01*
X180077333Y-39277946D01*
X180110666Y-39316041D01*
X180177333Y-39354136D01*
X180310666Y-39354136D01*
X180377333Y-39392232D01*
X180410666Y-39430327D01*
X180444000Y-39506517D01*
X180444000Y-39658898D01*
X180410666Y-39735089D01*
X180377333Y-39773184D01*
X180310666Y-39811279D01*
X180177333Y-39811279D01*
X180110666Y-39773184D01*
X180077333Y-39735089D01*
X180044000Y-39658898D01*
X180044000Y-39506517D01*
X180077333Y-39430327D01*
X180110666Y-39392232D01*
X180177333Y-39354136D01*
X177935666Y-39811279D02*
X177935666Y-39011279D01*
X177769000Y-39011279D01*
X177669000Y-39049375D01*
X177602333Y-39125565D01*
X177569000Y-39201755D01*
X177535666Y-39354136D01*
X177535666Y-39468422D01*
X177569000Y-39620803D01*
X177602333Y-39696994D01*
X177669000Y-39773184D01*
X177769000Y-39811279D01*
X177935666Y-39811279D01*
X177302333Y-39011279D02*
X176835666Y-39011279D01*
X177135666Y-39811279D01*
X143137666Y-39811279D02*
X143137666Y-39011279D01*
X142971000Y-39011279D01*
X142871000Y-39049375D01*
X142804333Y-39125565D01*
X142771000Y-39201755D01*
X142737666Y-39354136D01*
X142737666Y-39468422D01*
X142771000Y-39620803D01*
X142804333Y-39696994D01*
X142871000Y-39773184D01*
X142971000Y-39811279D01*
X143137666Y-39811279D01*
X142137666Y-39011279D02*
X142271000Y-39011279D01*
X142337666Y-39049375D01*
X142371000Y-39087470D01*
X142437666Y-39201755D01*
X142471000Y-39354136D01*
X142471000Y-39658898D01*
X142437666Y-39735089D01*
X142404333Y-39773184D01*
X142337666Y-39811279D01*
X142204333Y-39811279D01*
X142137666Y-39773184D01*
X142104333Y-39735089D01*
X142071000Y-39658898D01*
X142071000Y-39468422D01*
X142104333Y-39392232D01*
X142137666Y-39354136D01*
X142204333Y-39316041D01*
X142337666Y-39316041D01*
X142404333Y-39354136D01*
X142437666Y-39392232D01*
X142471000Y-39468422D01*
X139962666Y-39811279D02*
X139962666Y-39011279D01*
X139796000Y-39011279D01*
X139696000Y-39049375D01*
X139629333Y-39125565D01*
X139596000Y-39201755D01*
X139562666Y-39354136D01*
X139562666Y-39468422D01*
X139596000Y-39620803D01*
X139629333Y-39696994D01*
X139696000Y-39773184D01*
X139796000Y-39811279D01*
X139962666Y-39811279D01*
X138929333Y-39011279D02*
X139262666Y-39011279D01*
X139296000Y-39392232D01*
X139262666Y-39354136D01*
X139196000Y-39316041D01*
X139029333Y-39316041D01*
X138962666Y-39354136D01*
X138929333Y-39392232D01*
X138896000Y-39468422D01*
X138896000Y-39658898D01*
X138929333Y-39735089D01*
X138962666Y-39773184D01*
X139029333Y-39811279D01*
X139196000Y-39811279D01*
X139262666Y-39773184D01*
X139296000Y-39735089D01*
X124087666Y-39731904D02*
X124087666Y-38931904D01*
X123921000Y-38931904D01*
X123821000Y-38970000D01*
X123754333Y-39046190D01*
X123721000Y-39122380D01*
X123687666Y-39274761D01*
X123687666Y-39389047D01*
X123721000Y-39541428D01*
X123754333Y-39617619D01*
X123821000Y-39693809D01*
X123921000Y-39731904D01*
X124087666Y-39731904D01*
X123087666Y-39198571D02*
X123087666Y-39731904D01*
X123254333Y-38893809D02*
X123421000Y-39465238D01*
X122987666Y-39465238D01*
X120912666Y-39731904D02*
X120912666Y-38931904D01*
X120746000Y-38931904D01*
X120646000Y-38970000D01*
X120579333Y-39046190D01*
X120546000Y-39122380D01*
X120512666Y-39274761D01*
X120512666Y-39389047D01*
X120546000Y-39541428D01*
X120579333Y-39617619D01*
X120646000Y-39693809D01*
X120746000Y-39731904D01*
X120912666Y-39731904D01*
X120279333Y-38931904D02*
X119846000Y-38931904D01*
X120079333Y-39236666D01*
X119979333Y-39236666D01*
X119912666Y-39274761D01*
X119879333Y-39312857D01*
X119846000Y-39389047D01*
X119846000Y-39579523D01*
X119879333Y-39655714D01*
X119912666Y-39693809D01*
X119979333Y-39731904D01*
X120179333Y-39731904D01*
X120246000Y-39693809D01*
X120279333Y-39655714D01*
X67064666Y-39811279D02*
X67064666Y-39011279D01*
X66898000Y-39011279D01*
X66798000Y-39049375D01*
X66731333Y-39125565D01*
X66698000Y-39201755D01*
X66664666Y-39354136D01*
X66664666Y-39468422D01*
X66698000Y-39620803D01*
X66731333Y-39696994D01*
X66798000Y-39773184D01*
X66898000Y-39811279D01*
X67064666Y-39811279D01*
X66398000Y-39087470D02*
X66364666Y-39049375D01*
X66298000Y-39011279D01*
X66131333Y-39011279D01*
X66064666Y-39049375D01*
X66031333Y-39087470D01*
X65998000Y-39163660D01*
X65998000Y-39239851D01*
X66031333Y-39354136D01*
X66431333Y-39811279D01*
X65998000Y-39811279D01*
X63889666Y-39811279D02*
X63889666Y-39011279D01*
X63723000Y-39011279D01*
X63623000Y-39049375D01*
X63556333Y-39125565D01*
X63523000Y-39201755D01*
X63489666Y-39354136D01*
X63489666Y-39468422D01*
X63523000Y-39620803D01*
X63556333Y-39696994D01*
X63623000Y-39773184D01*
X63723000Y-39811279D01*
X63889666Y-39811279D01*
X62823000Y-39811279D02*
X63223000Y-39811279D01*
X63023000Y-39811279D02*
X63023000Y-39011279D01*
X63089666Y-39125565D01*
X63156333Y-39201755D01*
X63223000Y-39239851D01*
X87304166Y-74678833D02*
X86970833Y-74678833D01*
X87370833Y-74907404D02*
X87137500Y-74107404D01*
X86904166Y-74907404D01*
X86770833Y-74107404D02*
X86370833Y-74107404D01*
X86570833Y-74907404D02*
X86570833Y-74107404D01*
X86137500Y-74907404D02*
X86137500Y-74107404D01*
X85904166Y-74678833D01*
X85670833Y-74107404D01*
X85670833Y-74907404D01*
X85337500Y-74488357D02*
X85104166Y-74488357D01*
X85004166Y-74907404D02*
X85337500Y-74907404D01*
X85337500Y-74107404D01*
X85004166Y-74107404D01*
X84337500Y-74145500D02*
X84404166Y-74107404D01*
X84504166Y-74107404D01*
X84604166Y-74145500D01*
X84670833Y-74221690D01*
X84704166Y-74297880D01*
X84737500Y-74450261D01*
X84737500Y-74564547D01*
X84704166Y-74716928D01*
X84670833Y-74793119D01*
X84604166Y-74869309D01*
X84504166Y-74907404D01*
X84437500Y-74907404D01*
X84337500Y-74869309D01*
X84304166Y-74831214D01*
X84304166Y-74564547D01*
X84437500Y-74564547D01*
X84037500Y-74678833D02*
X83704166Y-74678833D01*
X84104166Y-74907404D02*
X83870833Y-74107404D01*
X83637500Y-74907404D01*
X83470833Y-74107404D02*
X83037500Y-74107404D01*
X83270833Y-74412166D01*
X83170833Y-74412166D01*
X83104166Y-74450261D01*
X83070833Y-74488357D01*
X83037500Y-74564547D01*
X83037500Y-74755023D01*
X83070833Y-74831214D01*
X83104166Y-74869309D01*
X83170833Y-74907404D01*
X83370833Y-74907404D01*
X83437500Y-74869309D01*
X83470833Y-74831214D01*
X82770833Y-74183595D02*
X82737500Y-74145500D01*
X82670833Y-74107404D01*
X82504166Y-74107404D01*
X82437500Y-74145500D01*
X82404166Y-74183595D01*
X82370833Y-74259785D01*
X82370833Y-74335976D01*
X82404166Y-74450261D01*
X82804166Y-74907404D01*
X82370833Y-74907404D01*
X82070833Y-74107404D02*
X82070833Y-74755023D01*
X82037500Y-74831214D01*
X82004166Y-74869309D01*
X81937500Y-74907404D01*
X81804166Y-74907404D01*
X81737500Y-74869309D01*
X81704166Y-74831214D01*
X81670833Y-74755023D01*
X81670833Y-74107404D01*
X81037500Y-74374071D02*
X81037500Y-74907404D01*
X81204166Y-74069309D02*
X81370833Y-74640738D01*
X80937500Y-74640738D01*
X81268843Y-42493096D02*
X81726779Y-42951032D01*
X81757083Y-43028477D01*
X81760451Y-43078984D01*
X81740248Y-43153062D01*
X81645967Y-43247343D01*
X81571889Y-43267546D01*
X81521381Y-43264179D01*
X81443936Y-43233874D01*
X80986000Y-42775938D01*
X80797438Y-42964500D02*
X80491026Y-43270913D01*
X80871516Y-43321421D01*
X80800806Y-43392132D01*
X80780603Y-43466209D01*
X80783970Y-43516717D01*
X80814274Y-43594162D01*
X80948961Y-43728849D01*
X81026406Y-43759154D01*
X81076914Y-43762521D01*
X81150992Y-43742318D01*
X81292413Y-43600896D01*
X81312616Y-43526819D01*
X81309249Y-43476311D01*
M02*
