M48
METRIC
T1C0.650
T2C1.702
T3C3.988
%
G90
G05
T1
X81.09Y-39.118
X86.87Y-39.118
T2
X50.4Y-44.46
X60.56Y-44.46
X69.4Y-82.46
X79.56Y-82.46
X126.4Y-63.46
X136.56Y-63.46
X240.4Y-44.463
X250.56Y-44.463
X69.4Y-101.46
X79.56Y-101.46
X88.4Y-63.46
X98.56Y-63.46
X221.4Y-82.46
X231.56Y-82.46
X221.4Y-101.46
X231.56Y-101.46
X107.4Y-63.46
X117.56Y-63.46
X164.4Y-63.46
X174.56Y-63.46
X107.4Y-44.46
X117.56Y-44.46
X126.4Y-82.46
X136.56Y-82.46
X126.4Y-101.46
X136.56Y-101.46
X145.4Y-44.46
X155.56Y-44.46
X221.4Y-63.46
X231.56Y-63.46
X221.4Y-44.463
X231.56Y-44.463
X50.4Y-101.46
X60.56Y-101.46
X69.4Y-63.46
X79.56Y-63.46
X107.4Y-101.46
X117.56Y-101.46
X50.4Y-82.46
X60.56Y-82.46
X183.4Y-82.46
X193.56Y-82.46
X183.4Y-101.46
X193.56Y-101.46
X202.4Y-44.46
X212.56Y-44.46
X88.4Y-44.46
X98.56Y-44.46
X107.4Y-82.46
X117.56Y-82.46
X259.4Y-101.46
X269.56Y-101.46
X50.4Y-63.46
X60.56Y-63.46
X202.4Y-101.46
X212.56Y-101.46
X259.4Y-82.46
X269.56Y-82.46
X259.4Y-63.46
X269.56Y-63.46
X202.4Y-63.46
X212.56Y-63.46
X164.4Y-82.46
X174.56Y-82.46
X164.4Y-101.46
X174.56Y-101.46
X183.4Y-44.46
X193.56Y-44.46
X69.4Y-44.46
X79.56Y-44.46
X88.4Y-82.46
X98.56Y-82.46
X240.4Y-82.46
X250.56Y-82.46
X240.4Y-101.46
X250.56Y-101.46
X259.4Y-44.46
X269.56Y-44.46
X88.4Y-101.46
X98.56Y-101.46
X145.4Y-82.46
X155.56Y-82.46
X202.4Y-82.46
X212.56Y-82.46
X145.4Y-63.46
X155.56Y-63.46
X240.4Y-63.46
X250.56Y-63.46
X183.4Y-63.46
X193.56Y-63.46
X126.4Y-44.46
X136.56Y-44.46
X145.4Y-101.46
X155.56Y-101.46
X164.4Y-44.46
X174.56Y-44.46
T3
X169.48Y-63.46
X112.48Y-44.46
X131.48Y-82.46
X131.48Y-101.46
X150.48Y-44.46
X226.48Y-63.46
X226.48Y-44.463
X55.48Y-101.46
X74.48Y-63.46
X112.48Y-101.46
X55.48Y-82.46
X188.48Y-82.46
X188.48Y-101.46
X207.48Y-44.46
X93.48Y-44.46
X112.48Y-82.46
X264.48Y-101.46
X55.48Y-63.46
X207.48Y-101.46
X264.48Y-82.46
X264.48Y-63.46
X207.48Y-63.46
X169.48Y-82.46
X169.48Y-101.46
X188.48Y-44.46
X74.48Y-44.46
X93.48Y-82.46
X245.48Y-82.46
X245.48Y-101.46
X264.48Y-44.46
X93.48Y-101.46
X150.48Y-82.46
X207.48Y-82.46
X150.48Y-63.46
X245.48Y-63.46
X188.48Y-63.46
X131.48Y-44.46
X150.48Y-101.46
X169.48Y-44.46
X55.48Y-44.46
X74.48Y-82.46
X131.48Y-63.46
X245.48Y-44.463
X74.48Y-101.46
X93.48Y-63.46
X226.48Y-82.46
X226.48Y-101.46
X112.48Y-63.46
T0
M30
