M48
METRIC
T1C0.250
T2C0.400
T3C0.600
T4C1.067
T5C1.525
T6C2.200
%
G90
G05
T1
X75.575Y-41.101
X78.947Y-60.151
X79.36Y-41.868
X80.391Y-61.595
X81.737Y-66.929
X82.408Y-41.868
X82.537Y-66.929
X83.331Y-66.898
X84.131Y-66.898
X84.931Y-66.898
X85.731Y-66.898
X86.091Y-41.868
X88.011Y-61.595
X89.139Y-41.868
X91.837Y-70.525
X92.583Y-41.021
X94.234Y-68.834
X96.313Y-60.659
X96.71Y-51.371
X98.737Y-70.025
X98.737Y-70.825
X98.737Y-71.625
X98.737Y-72.425
X98.737Y-73.225
X103.124Y-74.803
X107.95Y-51.435
T2
X76.199Y-77.725
X80.772Y-66.929
X89.027Y-85.217
X92.442Y-75.325
T4
X121.574Y-51.42
X121.574Y-56.5
X121.574Y-61.58
X121.98Y-48.88
X121.98Y-53.96
X121.98Y-59.04
T5
X71.94Y-68.54
X78.29Y-66.0
X223.94Y-49.543
X230.29Y-47.003
X261.94Y-87.54
X268.29Y-85.0
X128.94Y-87.54
X135.29Y-85.0
X147.94Y-68.54
X154.29Y-66.0
X109.94Y-106.54
X116.29Y-104.0
X261.94Y-49.54
X268.29Y-47.0
X223.94Y-106.54
X230.29Y-104.0
X90.94Y-49.54
X97.29Y-47.0
X52.94Y-87.54
X59.29Y-85.0
X128.94Y-68.54
X135.29Y-66.0
X185.94Y-87.54
X192.29Y-85.0
X204.94Y-106.54
X211.29Y-104.0
X147.94Y-49.54
X154.29Y-47.0
X90.94Y-106.54
X97.29Y-104.0
X242.94Y-49.543
X249.29Y-47.003
X261.94Y-68.54
X268.29Y-66.0
X185.94Y-106.54
X192.29Y-104.0
X242.94Y-87.54
X249.29Y-85.0
X109.94Y-87.54
X116.29Y-85.0
X185.94Y-68.54
X192.29Y-66.0
X71.94Y-49.54
X78.29Y-47.0
X261.94Y-106.54
X268.29Y-104.0
X204.94Y-49.54
X211.29Y-47.0
X109.94Y-68.54
X116.29Y-66.0
X166.94Y-87.54
X173.29Y-85.0
X166.94Y-106.54
X173.29Y-104.0
X128.94Y-49.54
X135.29Y-47.0
X71.94Y-106.54
X78.29Y-104.0
X242.94Y-68.54
X249.29Y-66.0
X223.94Y-87.54
X230.29Y-85.0
X90.94Y-87.54
X97.29Y-85.0
X166.94Y-68.54
X173.29Y-66.0
X147.94Y-106.54
X154.29Y-104.0
X52.94Y-49.54
X59.29Y-47.0
X52.94Y-68.54
X59.29Y-66.0
X185.94Y-49.54
X192.29Y-47.0
X90.94Y-68.54
X97.29Y-66.0
X52.94Y-106.54
X59.29Y-104.0
X147.94Y-87.54
X154.29Y-85.0
X128.94Y-106.54
X135.29Y-104.0
X204.94Y-68.54
X211.29Y-66.0
X166.94Y-49.54
X173.29Y-47.0
X223.94Y-68.54
X230.29Y-66.0
X109.94Y-49.54
X116.29Y-47.0
X71.94Y-87.54
X78.29Y-85.0
X242.94Y-106.54
X249.29Y-104.0
X204.94Y-87.54
X211.29Y-85.0
T6
X255.005Y-72.985
X217.005Y-91.985
X216.98Y-53.96
X103.005Y-91.985
X102.98Y-53.96
X64.98Y-72.96
T3
G00X79.68Y-35.169
M15
G01X79.68Y-35.769
M16
G05
G00X79.68Y-39.119
M15
G01X79.68Y-40.219
M16
G05
G00X88.28Y-35.169
M15
G01X88.28Y-35.769
M16
G05
G00X88.28Y-39.119
M15
G01X88.28Y-40.219
M16
G05
T0
M30
