G04 #@! TF.GenerationSoftware,KiCad,Pcbnew,(5.1.2-1)-1*
G04 #@! TF.CreationDate,2020-05-31T10:51:49-05:00*
G04 #@! TF.ProjectId,therick48_bottom_plate,74686572-6963-46b3-9438-5f626f74746f,rev?*
G04 #@! TF.SameCoordinates,Original*
G04 #@! TF.FileFunction,Legend,Top*
G04 #@! TF.FilePolarity,Positive*
%FSLAX46Y46*%
G04 Gerber Fmt 4.6, Leading zero omitted, Abs format (unit mm)*
G04 Created by KiCad (PCBNEW (5.1.2-1)-1) date 2020-05-31 10:51:49*
%MOMM*%
%LPD*%
G04 APERTURE LIST*
%ADD10C,0.200000*%
%ADD11C,0.150000*%
%ADD12C,0.010000*%
G04 APERTURE END LIST*
D10*
X110966820Y-37298472D02*
X110966820Y-38512758D01*
X110895392Y-38655615D01*
X110823963Y-38727043D01*
X110681106Y-38798472D01*
X110466820Y-38798472D01*
X110323963Y-38727043D01*
X110966820Y-38227043D02*
X110823963Y-38298472D01*
X110538249Y-38298472D01*
X110395392Y-38227043D01*
X110323963Y-38155615D01*
X110252535Y-38012758D01*
X110252535Y-37584186D01*
X110323963Y-37441329D01*
X110395392Y-37369901D01*
X110538249Y-37298472D01*
X110823963Y-37298472D01*
X110966820Y-37369901D01*
X111681106Y-38298472D02*
X111681106Y-37298472D01*
X111681106Y-36798472D02*
X111609678Y-36869901D01*
X111681106Y-36941329D01*
X111752535Y-36869901D01*
X111681106Y-36798472D01*
X111681106Y-36941329D01*
X112181106Y-37298472D02*
X112752535Y-37298472D01*
X112395392Y-36798472D02*
X112395392Y-38084186D01*
X112466820Y-38227043D01*
X112609678Y-38298472D01*
X112752535Y-38298472D01*
X113252535Y-38298472D02*
X113252535Y-36798472D01*
X113895392Y-38298472D02*
X113895392Y-37512758D01*
X113823963Y-37369901D01*
X113681106Y-37298472D01*
X113466820Y-37298472D01*
X113323963Y-37369901D01*
X113252535Y-37441329D01*
X115252535Y-37298472D02*
X115252535Y-38298472D01*
X114609678Y-37298472D02*
X114609678Y-38084186D01*
X114681106Y-38227043D01*
X114823963Y-38298472D01*
X115038249Y-38298472D01*
X115181106Y-38227043D01*
X115252535Y-38155615D01*
X115966820Y-38298472D02*
X115966820Y-36798472D01*
X115966820Y-37369901D02*
X116109678Y-37298472D01*
X116395392Y-37298472D01*
X116538249Y-37369901D01*
X116609678Y-37441329D01*
X116681106Y-37584186D01*
X116681106Y-38012758D01*
X116609678Y-38155615D01*
X116538249Y-38227043D01*
X116395392Y-38298472D01*
X116109678Y-38298472D01*
X115966820Y-38227043D01*
X117323963Y-38155615D02*
X117395392Y-38227043D01*
X117323963Y-38298472D01*
X117252535Y-38227043D01*
X117323963Y-38155615D01*
X117323963Y-38298472D01*
X118681106Y-38227043D02*
X118538249Y-38298472D01*
X118252535Y-38298472D01*
X118109678Y-38227043D01*
X118038249Y-38155615D01*
X117966820Y-38012758D01*
X117966820Y-37584186D01*
X118038249Y-37441329D01*
X118109678Y-37369901D01*
X118252535Y-37298472D01*
X118538249Y-37298472D01*
X118681106Y-37369901D01*
X119538249Y-38298472D02*
X119395392Y-38227043D01*
X119323963Y-38155615D01*
X119252535Y-38012758D01*
X119252535Y-37584186D01*
X119323963Y-37441329D01*
X119395392Y-37369901D01*
X119538249Y-37298472D01*
X119752535Y-37298472D01*
X119895392Y-37369901D01*
X119966820Y-37441329D01*
X120038249Y-37584186D01*
X120038249Y-38012758D01*
X119966820Y-38155615D01*
X119895392Y-38227043D01*
X119752535Y-38298472D01*
X119538249Y-38298472D01*
X120681106Y-38298472D02*
X120681106Y-37298472D01*
X120681106Y-37441329D02*
X120752535Y-37369901D01*
X120895392Y-37298472D01*
X121109678Y-37298472D01*
X121252535Y-37369901D01*
X121323963Y-37512758D01*
X121323963Y-38298472D01*
X121323963Y-37512758D02*
X121395392Y-37369901D01*
X121538249Y-37298472D01*
X121752535Y-37298472D01*
X121895392Y-37369901D01*
X121966820Y-37512758D01*
X121966820Y-38298472D01*
X123752535Y-36727043D02*
X122466820Y-38655615D01*
X124895392Y-38298472D02*
X124895392Y-36798472D01*
X124895392Y-38227043D02*
X124752535Y-38298472D01*
X124466820Y-38298472D01*
X124323963Y-38227043D01*
X124252535Y-38155615D01*
X124181106Y-38012758D01*
X124181106Y-37584186D01*
X124252535Y-37441329D01*
X124323963Y-37369901D01*
X124466820Y-37298472D01*
X124752535Y-37298472D01*
X124895392Y-37369901D01*
X125609677Y-38298472D02*
X125609677Y-37298472D01*
X125609677Y-36798472D02*
X125538249Y-36869901D01*
X125609677Y-36941329D01*
X125681106Y-36869901D01*
X125609677Y-36798472D01*
X125609677Y-36941329D01*
X126895392Y-38227043D02*
X126752535Y-38298472D01*
X126466820Y-38298472D01*
X126323963Y-38227043D01*
X126252535Y-38084186D01*
X126252535Y-37512758D01*
X126323963Y-37369901D01*
X126466820Y-37298472D01*
X126752535Y-37298472D01*
X126895392Y-37369901D01*
X126966820Y-37512758D01*
X126966820Y-37655615D01*
X126252535Y-37798472D01*
X127609678Y-38298472D02*
X127609678Y-37298472D01*
X127609678Y-37584186D02*
X127681106Y-37441329D01*
X127752535Y-37369901D01*
X127895392Y-37298472D01*
X128038249Y-37298472D01*
X128538249Y-38298472D02*
X128538249Y-37298472D01*
X128538249Y-36798472D02*
X128466820Y-36869901D01*
X128538249Y-36941329D01*
X128609678Y-36869901D01*
X128538249Y-36798472D01*
X128538249Y-36941329D01*
X129895392Y-38227043D02*
X129752535Y-38298472D01*
X129466820Y-38298472D01*
X129323963Y-38227043D01*
X129252535Y-38155615D01*
X129181106Y-38012758D01*
X129181106Y-37584186D01*
X129252535Y-37441329D01*
X129323963Y-37369901D01*
X129466820Y-37298472D01*
X129752535Y-37298472D01*
X129895392Y-37369901D01*
X130538249Y-38298472D02*
X130538249Y-36798472D01*
X130681106Y-37727043D02*
X131109678Y-38298472D01*
X131109678Y-37298472D02*
X130538249Y-37869901D01*
X132395392Y-38298472D02*
X132395392Y-36798472D01*
X132395392Y-38227043D02*
X132252535Y-38298472D01*
X131966820Y-38298472D01*
X131823963Y-38227043D01*
X131752535Y-38155615D01*
X131681106Y-38012758D01*
X131681106Y-37584186D01*
X131752535Y-37441329D01*
X131823963Y-37369901D01*
X131966820Y-37298472D01*
X132252535Y-37298472D01*
X132395392Y-37369901D01*
X133109678Y-38298472D02*
X133109678Y-37298472D01*
X133109678Y-36798472D02*
X133038249Y-36869901D01*
X133109678Y-36941329D01*
X133181106Y-36869901D01*
X133109678Y-36798472D01*
X133109678Y-36941329D01*
X134395392Y-38227043D02*
X134252535Y-38298472D01*
X133966820Y-38298472D01*
X133823963Y-38227043D01*
X133752535Y-38084186D01*
X133752535Y-37512758D01*
X133823963Y-37369901D01*
X133966820Y-37298472D01*
X134252535Y-37298472D01*
X134395392Y-37369901D01*
X134466820Y-37512758D01*
X134466820Y-37655615D01*
X133752535Y-37798472D01*
X150359578Y-37298472D02*
X150931006Y-37298472D01*
X150573863Y-36798472D02*
X150573863Y-38084186D01*
X150645292Y-38227043D01*
X150788149Y-38298472D01*
X150931006Y-38298472D01*
X151431006Y-38298472D02*
X151431006Y-36798472D01*
X152073863Y-38298472D02*
X152073863Y-37512758D01*
X152002435Y-37369901D01*
X151859578Y-37298472D01*
X151645292Y-37298472D01*
X151502435Y-37369901D01*
X151431006Y-37441329D01*
X153359578Y-38227043D02*
X153216720Y-38298472D01*
X152931006Y-38298472D01*
X152788149Y-38227043D01*
X152716720Y-38084186D01*
X152716720Y-37512758D01*
X152788149Y-37369901D01*
X152931006Y-37298472D01*
X153216720Y-37298472D01*
X153359578Y-37369901D01*
X153431006Y-37512758D01*
X153431006Y-37655615D01*
X152716720Y-37798472D01*
X154073863Y-38298472D02*
X154073863Y-37298472D01*
X154073863Y-37584186D02*
X154145292Y-37441329D01*
X154216720Y-37369901D01*
X154359578Y-37298472D01*
X154502435Y-37298472D01*
X155002435Y-38298472D02*
X155002435Y-37298472D01*
X155002435Y-36798472D02*
X154931006Y-36869901D01*
X155002435Y-36941329D01*
X155073863Y-36869901D01*
X155002435Y-36798472D01*
X155002435Y-36941329D01*
X156359578Y-38227043D02*
X156216720Y-38298472D01*
X155931006Y-38298472D01*
X155788149Y-38227043D01*
X155716720Y-38155615D01*
X155645292Y-38012758D01*
X155645292Y-37584186D01*
X155716720Y-37441329D01*
X155788149Y-37369901D01*
X155931006Y-37298472D01*
X156216720Y-37298472D01*
X156359578Y-37369901D01*
X157002435Y-38298472D02*
X157002435Y-36798472D01*
X157145292Y-37727043D02*
X157573863Y-38298472D01*
X157573863Y-37298472D02*
X157002435Y-37869901D01*
X158859578Y-37298472D02*
X158859578Y-38298472D01*
X158502435Y-36727043D02*
X158145292Y-37798472D01*
X159073863Y-37798472D01*
X159859578Y-37441329D02*
X159716720Y-37369901D01*
X159645292Y-37298472D01*
X159573863Y-37155615D01*
X159573863Y-37084186D01*
X159645292Y-36941329D01*
X159716720Y-36869901D01*
X159859578Y-36798472D01*
X160145292Y-36798472D01*
X160288149Y-36869901D01*
X160359578Y-36941329D01*
X160431006Y-37084186D01*
X160431006Y-37155615D01*
X160359578Y-37298472D01*
X160288149Y-37369901D01*
X160145292Y-37441329D01*
X159859578Y-37441329D01*
X159716720Y-37512758D01*
X159645292Y-37584186D01*
X159573863Y-37727043D01*
X159573863Y-38012758D01*
X159645292Y-38155615D01*
X159716720Y-38227043D01*
X159859578Y-38298472D01*
X160145292Y-38298472D01*
X160288149Y-38227043D01*
X160359578Y-38155615D01*
X160431006Y-38012758D01*
X160431006Y-37727043D01*
X160359578Y-37584186D01*
X160288149Y-37512758D01*
X160145292Y-37441329D01*
X163073863Y-38298472D02*
X162573863Y-37584186D01*
X162216720Y-38298472D02*
X162216720Y-36798472D01*
X162788149Y-36798472D01*
X162931006Y-36869901D01*
X163002435Y-36941329D01*
X163073863Y-37084186D01*
X163073863Y-37298472D01*
X163002435Y-37441329D01*
X162931006Y-37512758D01*
X162788149Y-37584186D01*
X162216720Y-37584186D01*
X164288149Y-38227043D02*
X164145292Y-38298472D01*
X163859578Y-38298472D01*
X163716720Y-38227043D01*
X163645292Y-38084186D01*
X163645292Y-37512758D01*
X163716720Y-37369901D01*
X163859578Y-37298472D01*
X164145292Y-37298472D01*
X164288149Y-37369901D01*
X164359578Y-37512758D01*
X164359578Y-37655615D01*
X163645292Y-37798472D01*
X164859578Y-37298472D02*
X165216720Y-38298472D01*
X165573863Y-37298472D01*
X168073863Y-38298472D02*
X167216720Y-38298472D01*
X167645292Y-38298472D02*
X167645292Y-36798472D01*
X167502435Y-37012758D01*
X167359578Y-37155615D01*
X167216720Y-37227043D01*
X168716720Y-38155615D02*
X168788149Y-38227043D01*
X168716720Y-38298472D01*
X168645292Y-38227043D01*
X168716720Y-38155615D01*
X168716720Y-38298472D01*
X170216720Y-38298472D02*
X169359578Y-38298472D01*
X169788149Y-38298472D02*
X169788149Y-36798472D01*
X169645292Y-37012758D01*
X169502435Y-37155615D01*
X169359578Y-37227043D01*
D11*
X48852250Y-87078830D02*
X49566536Y-87078830D01*
X49709393Y-87126449D01*
X49804631Y-87221687D01*
X49852250Y-87364544D01*
X49852250Y-87459783D01*
X49852250Y-86126449D02*
X49852250Y-86602640D01*
X48852250Y-86602640D01*
X49757012Y-85221687D02*
X49804631Y-85269306D01*
X49852250Y-85412163D01*
X49852250Y-85507402D01*
X49804631Y-85650259D01*
X49709393Y-85745497D01*
X49614155Y-85793116D01*
X49423679Y-85840735D01*
X49280822Y-85840735D01*
X49090346Y-85793116D01*
X48995108Y-85745497D01*
X48899870Y-85650259D01*
X48852250Y-85507402D01*
X48852250Y-85412163D01*
X48899870Y-85269306D01*
X48947489Y-85221687D01*
X48852250Y-84507402D02*
X49566536Y-84507402D01*
X49709393Y-84555021D01*
X49804631Y-84650259D01*
X49852250Y-84793116D01*
X49852250Y-84888354D01*
X49852250Y-83555021D02*
X49852250Y-84031211D01*
X48852250Y-84031211D01*
X49757012Y-82650259D02*
X49804631Y-82697878D01*
X49852250Y-82840735D01*
X49852250Y-82935973D01*
X49804631Y-83078830D01*
X49709393Y-83174068D01*
X49614155Y-83221687D01*
X49423679Y-83269306D01*
X49280822Y-83269306D01*
X49090346Y-83221687D01*
X48995108Y-83174068D01*
X48899870Y-83078830D01*
X48852250Y-82935973D01*
X48852250Y-82840735D01*
X48899870Y-82697878D01*
X48947489Y-82650259D01*
X48852250Y-81935973D02*
X49566536Y-81935973D01*
X49709393Y-81983592D01*
X49804631Y-82078830D01*
X49852250Y-82221687D01*
X49852250Y-82316925D01*
X49852250Y-80983592D02*
X49852250Y-81459783D01*
X48852250Y-81459783D01*
X49757012Y-80078830D02*
X49804631Y-80126449D01*
X49852250Y-80269306D01*
X49852250Y-80364544D01*
X49804631Y-80507402D01*
X49709393Y-80602640D01*
X49614155Y-80650259D01*
X49423679Y-80697878D01*
X49280822Y-80697878D01*
X49090346Y-80650259D01*
X48995108Y-80602640D01*
X48899870Y-80507402D01*
X48852250Y-80364544D01*
X48852250Y-80269306D01*
X48899870Y-80126449D01*
X48947489Y-80078830D01*
X48852250Y-79364544D02*
X49566536Y-79364544D01*
X49709393Y-79412163D01*
X49804631Y-79507402D01*
X49852250Y-79650259D01*
X49852250Y-79745497D01*
X49852250Y-78412163D02*
X49852250Y-78888354D01*
X48852250Y-78888354D01*
X49757012Y-77507402D02*
X49804631Y-77555021D01*
X49852250Y-77697878D01*
X49852250Y-77793116D01*
X49804631Y-77935973D01*
X49709393Y-78031211D01*
X49614155Y-78078830D01*
X49423679Y-78126449D01*
X49280822Y-78126449D01*
X49090346Y-78078830D01*
X48995108Y-78031211D01*
X48899870Y-77935973D01*
X48852250Y-77793116D01*
X48852250Y-77697878D01*
X48899870Y-77555021D01*
X48947489Y-77507402D01*
D12*
G36*
X246901429Y-59806428D02*
G01*
X246904383Y-61478072D01*
X246912837Y-63032105D01*
X246926177Y-64432210D01*
X246943790Y-65642067D01*
X246965064Y-66625357D01*
X246989383Y-67345760D01*
X247016136Y-67766957D01*
X247037500Y-67864645D01*
X247184557Y-67735144D01*
X247561854Y-67367063D01*
X248147423Y-66782698D01*
X248919299Y-66004348D01*
X249855516Y-65054310D01*
X250934106Y-63954882D01*
X252133104Y-62728361D01*
X253430542Y-61397045D01*
X254804456Y-59983231D01*
X254975000Y-59807461D01*
X262776429Y-51765632D01*
X266948619Y-51749244D01*
X271120809Y-51732857D01*
X261881567Y-60973431D01*
X260113816Y-62742420D01*
X258586687Y-64273443D01*
X257283440Y-65584331D01*
X256187337Y-66692913D01*
X255281638Y-67617019D01*
X254549605Y-68374478D01*
X253974499Y-68983120D01*
X253539580Y-69460775D01*
X253228110Y-69825271D01*
X253023350Y-70094440D01*
X252908561Y-70286109D01*
X252867003Y-70418109D01*
X252881938Y-70508270D01*
X252901520Y-70538564D01*
X253056489Y-70727180D01*
X253424894Y-71172760D01*
X253988341Y-71853126D01*
X254728438Y-72746099D01*
X255626789Y-73829502D01*
X256665002Y-75081157D01*
X257824682Y-76478884D01*
X259087436Y-78000507D01*
X260434870Y-79623848D01*
X261848591Y-81326727D01*
X262070637Y-81594161D01*
X263489267Y-83303415D01*
X264841451Y-84933908D01*
X266109138Y-86463793D01*
X267274276Y-87871226D01*
X268318814Y-89134360D01*
X269224700Y-90231349D01*
X269973883Y-91140346D01*
X270548310Y-91839507D01*
X270929931Y-92306985D01*
X271100694Y-92520934D01*
X271107416Y-92530456D01*
X271044449Y-92601034D01*
X270740363Y-92655196D01*
X270169268Y-92694258D01*
X269305277Y-92719539D01*
X268122501Y-92732356D01*
X267096065Y-92734619D01*
X262957857Y-92733523D01*
X255619568Y-83663190D01*
X254346099Y-82091205D01*
X253139362Y-80605585D01*
X252018732Y-79229925D01*
X251003586Y-77987819D01*
X250113298Y-76902863D01*
X249367244Y-75998651D01*
X248784799Y-75298777D01*
X248385338Y-74826836D01*
X248188238Y-74606423D01*
X248171230Y-74592857D01*
X247990246Y-74711834D01*
X247659160Y-75012818D01*
X247481305Y-75191137D01*
X246901429Y-75789417D01*
X246901429Y-92735714D01*
X240732857Y-92735714D01*
X240732857Y-51732857D01*
X246901429Y-51732857D01*
X246901429Y-59806428D01*
X246901429Y-59806428D01*
G37*
X246901429Y-59806428D02*
X246904383Y-61478072D01*
X246912837Y-63032105D01*
X246926177Y-64432210D01*
X246943790Y-65642067D01*
X246965064Y-66625357D01*
X246989383Y-67345760D01*
X247016136Y-67766957D01*
X247037500Y-67864645D01*
X247184557Y-67735144D01*
X247561854Y-67367063D01*
X248147423Y-66782698D01*
X248919299Y-66004348D01*
X249855516Y-65054310D01*
X250934106Y-63954882D01*
X252133104Y-62728361D01*
X253430542Y-61397045D01*
X254804456Y-59983231D01*
X254975000Y-59807461D01*
X262776429Y-51765632D01*
X266948619Y-51749244D01*
X271120809Y-51732857D01*
X261881567Y-60973431D01*
X260113816Y-62742420D01*
X258586687Y-64273443D01*
X257283440Y-65584331D01*
X256187337Y-66692913D01*
X255281638Y-67617019D01*
X254549605Y-68374478D01*
X253974499Y-68983120D01*
X253539580Y-69460775D01*
X253228110Y-69825271D01*
X253023350Y-70094440D01*
X252908561Y-70286109D01*
X252867003Y-70418109D01*
X252881938Y-70508270D01*
X252901520Y-70538564D01*
X253056489Y-70727180D01*
X253424894Y-71172760D01*
X253988341Y-71853126D01*
X254728438Y-72746099D01*
X255626789Y-73829502D01*
X256665002Y-75081157D01*
X257824682Y-76478884D01*
X259087436Y-78000507D01*
X260434870Y-79623848D01*
X261848591Y-81326727D01*
X262070637Y-81594161D01*
X263489267Y-83303415D01*
X264841451Y-84933908D01*
X266109138Y-86463793D01*
X267274276Y-87871226D01*
X268318814Y-89134360D01*
X269224700Y-90231349D01*
X269973883Y-91140346D01*
X270548310Y-91839507D01*
X270929931Y-92306985D01*
X271100694Y-92520934D01*
X271107416Y-92530456D01*
X271044449Y-92601034D01*
X270740363Y-92655196D01*
X270169268Y-92694258D01*
X269305277Y-92719539D01*
X268122501Y-92732356D01*
X267096065Y-92734619D01*
X262957857Y-92733523D01*
X255619568Y-83663190D01*
X254346099Y-82091205D01*
X253139362Y-80605585D01*
X252018732Y-79229925D01*
X251003586Y-77987819D01*
X250113298Y-76902863D01*
X249367244Y-75998651D01*
X248784799Y-75298777D01*
X248385338Y-74826836D01*
X248188238Y-74606423D01*
X248171230Y-74592857D01*
X247990246Y-74711834D01*
X247659160Y-75012818D01*
X247481305Y-75191137D01*
X246901429Y-75789417D01*
X246901429Y-92735714D01*
X240732857Y-92735714D01*
X240732857Y-51732857D01*
X246901429Y-51732857D01*
X246901429Y-59806428D01*
G36*
X191565714Y-92735714D02*
G01*
X185397143Y-92735714D01*
X185397143Y-51732857D01*
X191565714Y-51732857D01*
X191565714Y-92735714D01*
X191565714Y-92735714D01*
G37*
X191565714Y-92735714D02*
X185397143Y-92735714D01*
X185397143Y-51732857D01*
X191565714Y-51732857D01*
X191565714Y-92735714D01*
G36*
X157502500Y-51733368D02*
G01*
X159491420Y-51743496D01*
X161170534Y-51776475D01*
X162592432Y-51836871D01*
X163809703Y-51929249D01*
X164874938Y-52058172D01*
X165840726Y-52228207D01*
X166759657Y-52443917D01*
X167249408Y-52579405D01*
X169242546Y-53324894D01*
X170982015Y-54326749D01*
X172457926Y-55572572D01*
X173660389Y-57049960D01*
X174579516Y-58746512D01*
X175205416Y-60649828D01*
X175528200Y-62747505D01*
X175544266Y-62981156D01*
X175507829Y-65083491D01*
X175148165Y-67077798D01*
X174482034Y-68934212D01*
X173526193Y-70622868D01*
X172297404Y-72113898D01*
X170812426Y-73377438D01*
X169166709Y-74346127D01*
X168466551Y-74660047D01*
X167810292Y-74915484D01*
X167332174Y-75060505D01*
X167307066Y-75065515D01*
X166903507Y-75187169D01*
X166712377Y-75335195D01*
X166710000Y-75351142D01*
X166813811Y-75525574D01*
X167112762Y-75966838D01*
X167588126Y-76648631D01*
X168221178Y-77544653D01*
X168993193Y-78628600D01*
X169885445Y-79874172D01*
X170879208Y-81255066D01*
X171955758Y-82744980D01*
X172960244Y-84130237D01*
X179210489Y-92735714D01*
X175364173Y-92726417D01*
X171517857Y-92717119D01*
X165725321Y-84380702D01*
X164483640Y-82594461D01*
X163431038Y-81083419D01*
X162549863Y-79824566D01*
X161822464Y-78794894D01*
X161231190Y-77971394D01*
X160758388Y-77331057D01*
X160386408Y-76850874D01*
X160097598Y-76507836D01*
X159874306Y-76278933D01*
X159698880Y-76141158D01*
X159553670Y-76071501D01*
X159421024Y-76046953D01*
X159329964Y-76044286D01*
X158727143Y-76044286D01*
X158727143Y-92735714D01*
X152558572Y-92735714D01*
X152558572Y-63949047D01*
X158727143Y-63949047D01*
X158730867Y-65440646D01*
X158741457Y-66817056D01*
X158758038Y-68036229D01*
X158779738Y-69056115D01*
X158805683Y-69834667D01*
X158834998Y-70329835D01*
X158863214Y-70498125D01*
X159105184Y-70552914D01*
X159629783Y-70568276D01*
X160359533Y-70549359D01*
X161216954Y-70501313D01*
X162124568Y-70429288D01*
X163004896Y-70338432D01*
X163780458Y-70233895D01*
X164307692Y-70136276D01*
X165882941Y-69630647D01*
X167190792Y-68886237D01*
X168226184Y-67906686D01*
X168927093Y-66814521D01*
X169112644Y-66390784D01*
X169233658Y-65959714D01*
X169303241Y-65428615D01*
X169334495Y-64704793D01*
X169340714Y-63888571D01*
X169333839Y-62960644D01*
X169303020Y-62301379D01*
X169232966Y-61816686D01*
X169108387Y-61412475D01*
X168913993Y-60994654D01*
X168850705Y-60873276D01*
X168105203Y-59819015D01*
X167084784Y-58968558D01*
X165782313Y-58319032D01*
X164190659Y-57867565D01*
X162302686Y-57611283D01*
X160586786Y-57544901D01*
X158727143Y-57538571D01*
X158727143Y-63949047D01*
X152558572Y-63949047D01*
X152558572Y-51732857D01*
X157502500Y-51733368D01*
X157502500Y-51733368D01*
G37*
X157502500Y-51733368D02*
X159491420Y-51743496D01*
X161170534Y-51776475D01*
X162592432Y-51836871D01*
X163809703Y-51929249D01*
X164874938Y-52058172D01*
X165840726Y-52228207D01*
X166759657Y-52443917D01*
X167249408Y-52579405D01*
X169242546Y-53324894D01*
X170982015Y-54326749D01*
X172457926Y-55572572D01*
X173660389Y-57049960D01*
X174579516Y-58746512D01*
X175205416Y-60649828D01*
X175528200Y-62747505D01*
X175544266Y-62981156D01*
X175507829Y-65083491D01*
X175148165Y-67077798D01*
X174482034Y-68934212D01*
X173526193Y-70622868D01*
X172297404Y-72113898D01*
X170812426Y-73377438D01*
X169166709Y-74346127D01*
X168466551Y-74660047D01*
X167810292Y-74915484D01*
X167332174Y-75060505D01*
X167307066Y-75065515D01*
X166903507Y-75187169D01*
X166712377Y-75335195D01*
X166710000Y-75351142D01*
X166813811Y-75525574D01*
X167112762Y-75966838D01*
X167588126Y-76648631D01*
X168221178Y-77544653D01*
X168993193Y-78628600D01*
X169885445Y-79874172D01*
X170879208Y-81255066D01*
X171955758Y-82744980D01*
X172960244Y-84130237D01*
X179210489Y-92735714D01*
X175364173Y-92726417D01*
X171517857Y-92717119D01*
X165725321Y-84380702D01*
X164483640Y-82594461D01*
X163431038Y-81083419D01*
X162549863Y-79824566D01*
X161822464Y-78794894D01*
X161231190Y-77971394D01*
X160758388Y-77331057D01*
X160386408Y-76850874D01*
X160097598Y-76507836D01*
X159874306Y-76278933D01*
X159698880Y-76141158D01*
X159553670Y-76071501D01*
X159421024Y-76046953D01*
X159329964Y-76044286D01*
X158727143Y-76044286D01*
X158727143Y-92735714D01*
X152558572Y-92735714D01*
X152558572Y-63949047D01*
X158727143Y-63949047D01*
X158730867Y-65440646D01*
X158741457Y-66817056D01*
X158758038Y-68036229D01*
X158779738Y-69056115D01*
X158805683Y-69834667D01*
X158834998Y-70329835D01*
X158863214Y-70498125D01*
X159105184Y-70552914D01*
X159629783Y-70568276D01*
X160359533Y-70549359D01*
X161216954Y-70501313D01*
X162124568Y-70429288D01*
X163004896Y-70338432D01*
X163780458Y-70233895D01*
X164307692Y-70136276D01*
X165882941Y-69630647D01*
X167190792Y-68886237D01*
X168226184Y-67906686D01*
X168927093Y-66814521D01*
X169112644Y-66390784D01*
X169233658Y-65959714D01*
X169303241Y-65428615D01*
X169334495Y-64704793D01*
X169340714Y-63888571D01*
X169333839Y-62960644D01*
X169303020Y-62301379D01*
X169232966Y-61816686D01*
X169108387Y-61412475D01*
X168913993Y-60994654D01*
X168850705Y-60873276D01*
X168105203Y-59819015D01*
X167084784Y-58968558D01*
X165782313Y-58319032D01*
X164190659Y-57867565D01*
X162302686Y-57611283D01*
X160586786Y-57544901D01*
X158727143Y-57538571D01*
X158727143Y-63949047D01*
X152558572Y-63949047D01*
X152558572Y-51732857D01*
X157502500Y-51733368D01*
G36*
X144575714Y-57538571D02*
G01*
X128065714Y-57538571D01*
X128065714Y-67335714D01*
X144031429Y-67335714D01*
X144031429Y-73137614D01*
X136093929Y-73184878D01*
X128156429Y-73232143D01*
X128108890Y-80081071D01*
X128061351Y-86930000D01*
X144575714Y-86930000D01*
X144575714Y-92735714D01*
X121897143Y-92735714D01*
X121897143Y-51732857D01*
X144575714Y-51732857D01*
X144575714Y-57538571D01*
X144575714Y-57538571D01*
G37*
X144575714Y-57538571D02*
X128065714Y-57538571D01*
X128065714Y-67335714D01*
X144031429Y-67335714D01*
X144031429Y-73137614D01*
X136093929Y-73184878D01*
X128156429Y-73232143D01*
X128108890Y-80081071D01*
X128061351Y-86930000D01*
X144575714Y-86930000D01*
X144575714Y-92735714D01*
X121897143Y-92735714D01*
X121897143Y-51732857D01*
X144575714Y-51732857D01*
X144575714Y-57538571D01*
G36*
X88151429Y-67698571D02*
G01*
X105931429Y-67698571D01*
X105931429Y-51732857D01*
X112100000Y-51732857D01*
X112100000Y-92735714D01*
X105931429Y-92735714D01*
X105931429Y-73685714D01*
X88151429Y-73685714D01*
X88151429Y-92735714D01*
X81982857Y-92735714D01*
X81982857Y-51732857D01*
X88151429Y-51732857D01*
X88151429Y-67698571D01*
X88151429Y-67698571D01*
G37*
X88151429Y-67698571D02*
X105931429Y-67698571D01*
X105931429Y-51732857D01*
X112100000Y-51732857D01*
X112100000Y-92735714D01*
X105931429Y-92735714D01*
X105931429Y-73685714D01*
X88151429Y-73685714D01*
X88151429Y-92735714D01*
X81982857Y-92735714D01*
X81982857Y-51732857D01*
X88151429Y-51732857D01*
X88151429Y-67698571D01*
G36*
X76358572Y-57538571D02*
G01*
X67105714Y-57538571D01*
X67105714Y-92735714D01*
X60755714Y-92735714D01*
X60755714Y-57538571D01*
X51321429Y-57538571D01*
X51321429Y-51732857D01*
X76358572Y-51732857D01*
X76358572Y-57538571D01*
X76358572Y-57538571D01*
G37*
X76358572Y-57538571D02*
X67105714Y-57538571D01*
X67105714Y-92735714D01*
X60755714Y-92735714D01*
X60755714Y-57538571D01*
X51321429Y-57538571D01*
X51321429Y-51732857D01*
X76358572Y-51732857D01*
X76358572Y-57538571D01*
G36*
X224322095Y-51134986D02*
G01*
X226878146Y-51690919D01*
X227397857Y-51848559D01*
X227956927Y-52051896D01*
X228722120Y-52363197D01*
X229572931Y-52732384D01*
X230073929Y-52960637D01*
X231842857Y-53783317D01*
X231842857Y-61201908D01*
X230981072Y-60551043D01*
X228851907Y-59136255D01*
X226662874Y-58052660D01*
X224437020Y-57302484D01*
X222197395Y-56887953D01*
X219967048Y-56811292D01*
X217769029Y-57074727D01*
X215626387Y-57680482D01*
X213562172Y-58630784D01*
X213206880Y-58834949D01*
X211875120Y-59772582D01*
X210544707Y-60979887D01*
X209292844Y-62371695D01*
X208196738Y-63862841D01*
X207392218Y-65249286D01*
X206606289Y-67193891D01*
X206084895Y-69314256D01*
X205834187Y-71531379D01*
X205860317Y-73766261D01*
X206169435Y-75939900D01*
X206469253Y-77103607D01*
X207253011Y-79089148D01*
X208346788Y-80976141D01*
X209704306Y-82710948D01*
X211279284Y-84239932D01*
X213025441Y-85509454D01*
X214335000Y-86219797D01*
X215487526Y-86728710D01*
X216506615Y-87093244D01*
X217498750Y-87335393D01*
X218570416Y-87477148D01*
X219828094Y-87540504D01*
X220775714Y-87550065D01*
X222155621Y-87521868D01*
X223374037Y-87422424D01*
X224487531Y-87229453D01*
X225552670Y-86920677D01*
X226626022Y-86473817D01*
X227764153Y-85866594D01*
X229023632Y-85076729D01*
X230461026Y-84081943D01*
X231504250Y-83324656D01*
X231617479Y-83255330D01*
X231702181Y-83265341D01*
X231762489Y-83397472D01*
X231802537Y-83694505D01*
X231826460Y-84199221D01*
X231838392Y-84954403D01*
X231842465Y-86002833D01*
X231842857Y-86828925D01*
X231842857Y-90582109D01*
X230346072Y-91283291D01*
X227709545Y-92324294D01*
X224968863Y-93036038D01*
X222170333Y-93412061D01*
X219360262Y-93445899D01*
X216818626Y-93171609D01*
X214244965Y-92557764D01*
X211781177Y-91600603D01*
X209438218Y-90305923D01*
X207227046Y-88679523D01*
X205709170Y-87292857D01*
X203945845Y-85346523D01*
X202507019Y-83322462D01*
X201354532Y-81154971D01*
X200450226Y-78778350D01*
X200132152Y-77690527D01*
X199964268Y-77036090D01*
X199841464Y-76452591D01*
X199756576Y-75862316D01*
X199702441Y-75187552D01*
X199671895Y-74350583D01*
X199657774Y-73273697D01*
X199654280Y-72506428D01*
X199669993Y-70868251D01*
X199737840Y-69499903D01*
X199873188Y-68310225D01*
X200091400Y-67208057D01*
X200407841Y-66102239D01*
X200837878Y-64901613D01*
X201010189Y-64461902D01*
X202022083Y-62332171D01*
X203327155Y-60237255D01*
X204865564Y-58251207D01*
X206577466Y-56448079D01*
X208403018Y-54901926D01*
X209178214Y-54354312D01*
X211426376Y-53072193D01*
X213852308Y-52079024D01*
X216405429Y-51381762D01*
X219035155Y-50987364D01*
X221690904Y-50902787D01*
X224322095Y-51134986D01*
X224322095Y-51134986D01*
G37*
X224322095Y-51134986D02*
X226878146Y-51690919D01*
X227397857Y-51848559D01*
X227956927Y-52051896D01*
X228722120Y-52363197D01*
X229572931Y-52732384D01*
X230073929Y-52960637D01*
X231842857Y-53783317D01*
X231842857Y-61201908D01*
X230981072Y-60551043D01*
X228851907Y-59136255D01*
X226662874Y-58052660D01*
X224437020Y-57302484D01*
X222197395Y-56887953D01*
X219967048Y-56811292D01*
X217769029Y-57074727D01*
X215626387Y-57680482D01*
X213562172Y-58630784D01*
X213206880Y-58834949D01*
X211875120Y-59772582D01*
X210544707Y-60979887D01*
X209292844Y-62371695D01*
X208196738Y-63862841D01*
X207392218Y-65249286D01*
X206606289Y-67193891D01*
X206084895Y-69314256D01*
X205834187Y-71531379D01*
X205860317Y-73766261D01*
X206169435Y-75939900D01*
X206469253Y-77103607D01*
X207253011Y-79089148D01*
X208346788Y-80976141D01*
X209704306Y-82710948D01*
X211279284Y-84239932D01*
X213025441Y-85509454D01*
X214335000Y-86219797D01*
X215487526Y-86728710D01*
X216506615Y-87093244D01*
X217498750Y-87335393D01*
X218570416Y-87477148D01*
X219828094Y-87540504D01*
X220775714Y-87550065D01*
X222155621Y-87521868D01*
X223374037Y-87422424D01*
X224487531Y-87229453D01*
X225552670Y-86920677D01*
X226626022Y-86473817D01*
X227764153Y-85866594D01*
X229023632Y-85076729D01*
X230461026Y-84081943D01*
X231504250Y-83324656D01*
X231617479Y-83255330D01*
X231702181Y-83265341D01*
X231762489Y-83397472D01*
X231802537Y-83694505D01*
X231826460Y-84199221D01*
X231838392Y-84954403D01*
X231842465Y-86002833D01*
X231842857Y-86828925D01*
X231842857Y-90582109D01*
X230346072Y-91283291D01*
X227709545Y-92324294D01*
X224968863Y-93036038D01*
X222170333Y-93412061D01*
X219360262Y-93445899D01*
X216818626Y-93171609D01*
X214244965Y-92557764D01*
X211781177Y-91600603D01*
X209438218Y-90305923D01*
X207227046Y-88679523D01*
X205709170Y-87292857D01*
X203945845Y-85346523D01*
X202507019Y-83322462D01*
X201354532Y-81154971D01*
X200450226Y-78778350D01*
X200132152Y-77690527D01*
X199964268Y-77036090D01*
X199841464Y-76452591D01*
X199756576Y-75862316D01*
X199702441Y-75187552D01*
X199671895Y-74350583D01*
X199657774Y-73273697D01*
X199654280Y-72506428D01*
X199669993Y-70868251D01*
X199737840Y-69499903D01*
X199873188Y-68310225D01*
X200091400Y-67208057D01*
X200407841Y-66102239D01*
X200837878Y-64901613D01*
X201010189Y-64461902D01*
X202022083Y-62332171D01*
X203327155Y-60237255D01*
X204865564Y-58251207D01*
X206577466Y-56448079D01*
X208403018Y-54901926D01*
X209178214Y-54354312D01*
X211426376Y-53072193D01*
X213852308Y-52079024D01*
X216405429Y-51381762D01*
X219035155Y-50987364D01*
X221690904Y-50902787D01*
X224322095Y-51134986D01*
M02*
