G04 #@! TF.GenerationSoftware,KiCad,Pcbnew,(5.1.2-1)-1*
G04 #@! TF.CreationDate,2020-05-17T12:09:32-05:00*
G04 #@! TF.ProjectId,therick48_bottom_plate,74686572-6963-46b3-9438-5f626f74746f,rev?*
G04 #@! TF.SameCoordinates,Original*
G04 #@! TF.FileFunction,Legend,Top*
G04 #@! TF.FilePolarity,Positive*
%FSLAX46Y46*%
G04 Gerber Fmt 4.6, Leading zero omitted, Abs format (unit mm)*
G04 Created by KiCad (PCBNEW (5.1.2-1)-1) date 2020-05-17 12:09:32*
%MOMM*%
%LPD*%
G04 APERTURE LIST*
%ADD10C,0.200000*%
%ADD11C,0.150000*%
%ADD12C,0.010000*%
G04 APERTURE END LIST*
D10*
X48318443Y-82959808D02*
X48318443Y-82388379D01*
X47818443Y-82745522D02*
X49104157Y-82745522D01*
X49247014Y-82674093D01*
X49318443Y-82531236D01*
X49318443Y-82388379D01*
X49318443Y-81888379D02*
X47818443Y-81888379D01*
X49318443Y-81245522D02*
X48532729Y-81245522D01*
X48389872Y-81316950D01*
X48318443Y-81459808D01*
X48318443Y-81674093D01*
X48389872Y-81816950D01*
X48461300Y-81888379D01*
X49247014Y-79959808D02*
X49318443Y-80102665D01*
X49318443Y-80388379D01*
X49247014Y-80531236D01*
X49104157Y-80602665D01*
X48532729Y-80602665D01*
X48389872Y-80531236D01*
X48318443Y-80388379D01*
X48318443Y-80102665D01*
X48389872Y-79959808D01*
X48532729Y-79888379D01*
X48675586Y-79888379D01*
X48818443Y-80602665D01*
X49318443Y-79245522D02*
X48318443Y-79245522D01*
X48604157Y-79245522D02*
X48461300Y-79174093D01*
X48389872Y-79102665D01*
X48318443Y-78959808D01*
X48318443Y-78816950D01*
X49318443Y-78316950D02*
X48318443Y-78316950D01*
X47818443Y-78316950D02*
X47889872Y-78388379D01*
X47961300Y-78316950D01*
X47889872Y-78245522D01*
X47818443Y-78316950D01*
X47961300Y-78316950D01*
X49247014Y-76959808D02*
X49318443Y-77102665D01*
X49318443Y-77388379D01*
X49247014Y-77531236D01*
X49175586Y-77602665D01*
X49032729Y-77674093D01*
X48604157Y-77674093D01*
X48461300Y-77602665D01*
X48389872Y-77531236D01*
X48318443Y-77388379D01*
X48318443Y-77102665D01*
X48389872Y-76959808D01*
X49318443Y-76316950D02*
X47818443Y-76316950D01*
X48747014Y-76174093D02*
X49318443Y-75745522D01*
X48318443Y-75745522D02*
X48889872Y-76316950D01*
X48318443Y-74459808D02*
X49318443Y-74459808D01*
X47747014Y-74816950D02*
X48818443Y-75174093D01*
X48818443Y-74245522D01*
X48461300Y-73459808D02*
X48389872Y-73602665D01*
X48318443Y-73674093D01*
X48175586Y-73745522D01*
X48104157Y-73745522D01*
X47961300Y-73674093D01*
X47889872Y-73602665D01*
X47818443Y-73459808D01*
X47818443Y-73174093D01*
X47889872Y-73031236D01*
X47961300Y-72959808D01*
X48104157Y-72888379D01*
X48175586Y-72888379D01*
X48318443Y-72959808D01*
X48389872Y-73031236D01*
X48461300Y-73174093D01*
X48461300Y-73459808D01*
X48532729Y-73602665D01*
X48604157Y-73674093D01*
X48747014Y-73745522D01*
X49032729Y-73745522D01*
X49175586Y-73674093D01*
X49247014Y-73602665D01*
X49318443Y-73459808D01*
X49318443Y-73174093D01*
X49247014Y-73031236D01*
X49175586Y-72959808D01*
X49032729Y-72888379D01*
X48747014Y-72888379D01*
X48604157Y-72959808D01*
X48532729Y-73031236D01*
X48461300Y-73174093D01*
X49318443Y-70245522D02*
X48604157Y-70745522D01*
X49318443Y-71102665D02*
X47818443Y-71102665D01*
X47818443Y-70531236D01*
X47889872Y-70388379D01*
X47961300Y-70316950D01*
X48104157Y-70245522D01*
X48318443Y-70245522D01*
X48461300Y-70316950D01*
X48532729Y-70388379D01*
X48604157Y-70531236D01*
X48604157Y-71102665D01*
X49247014Y-69031236D02*
X49318443Y-69174093D01*
X49318443Y-69459808D01*
X49247014Y-69602665D01*
X49104157Y-69674093D01*
X48532729Y-69674093D01*
X48389872Y-69602665D01*
X48318443Y-69459808D01*
X48318443Y-69174093D01*
X48389872Y-69031236D01*
X48532729Y-68959808D01*
X48675586Y-68959808D01*
X48818443Y-69674093D01*
X48318443Y-68459808D02*
X49318443Y-68102665D01*
X48318443Y-67745522D01*
X49318443Y-65245522D02*
X49318443Y-66102665D01*
X49318443Y-65674093D02*
X47818443Y-65674093D01*
X48032729Y-65816950D01*
X48175586Y-65959808D01*
X48247014Y-66102665D01*
X49175586Y-64602665D02*
X49247014Y-64531236D01*
X49318443Y-64602665D01*
X49247014Y-64674093D01*
X49175586Y-64602665D01*
X49318443Y-64602665D01*
X49318443Y-63102665D02*
X49318443Y-63959808D01*
X49318443Y-63531236D02*
X47818443Y-63531236D01*
X48032729Y-63674093D01*
X48175586Y-63816950D01*
X48247014Y-63959808D01*
D11*
X48092380Y-105778690D02*
X48806666Y-105778690D01*
X48949523Y-105826309D01*
X49044761Y-105921547D01*
X49092380Y-106064404D01*
X49092380Y-106159642D01*
X49092380Y-104826309D02*
X49092380Y-105302500D01*
X48092380Y-105302500D01*
X48997142Y-103921547D02*
X49044761Y-103969166D01*
X49092380Y-104112023D01*
X49092380Y-104207261D01*
X49044761Y-104350119D01*
X48949523Y-104445357D01*
X48854285Y-104492976D01*
X48663809Y-104540595D01*
X48520952Y-104540595D01*
X48330476Y-104492976D01*
X48235238Y-104445357D01*
X48140000Y-104350119D01*
X48092380Y-104207261D01*
X48092380Y-104112023D01*
X48140000Y-103969166D01*
X48187619Y-103921547D01*
X48092380Y-103207261D02*
X48806666Y-103207261D01*
X48949523Y-103254880D01*
X49044761Y-103350119D01*
X49092380Y-103492976D01*
X49092380Y-103588214D01*
X49092380Y-102254880D02*
X49092380Y-102731071D01*
X48092380Y-102731071D01*
X48997142Y-101350119D02*
X49044761Y-101397738D01*
X49092380Y-101540595D01*
X49092380Y-101635833D01*
X49044761Y-101778690D01*
X48949523Y-101873928D01*
X48854285Y-101921547D01*
X48663809Y-101969166D01*
X48520952Y-101969166D01*
X48330476Y-101921547D01*
X48235238Y-101873928D01*
X48140000Y-101778690D01*
X48092380Y-101635833D01*
X48092380Y-101540595D01*
X48140000Y-101397738D01*
X48187619Y-101350119D01*
X48092380Y-100635833D02*
X48806666Y-100635833D01*
X48949523Y-100683452D01*
X49044761Y-100778690D01*
X49092380Y-100921547D01*
X49092380Y-101016785D01*
X49092380Y-99683452D02*
X49092380Y-100159642D01*
X48092380Y-100159642D01*
X48997142Y-98778690D02*
X49044761Y-98826309D01*
X49092380Y-98969166D01*
X49092380Y-99064404D01*
X49044761Y-99207261D01*
X48949523Y-99302500D01*
X48854285Y-99350119D01*
X48663809Y-99397738D01*
X48520952Y-99397738D01*
X48330476Y-99350119D01*
X48235238Y-99302500D01*
X48140000Y-99207261D01*
X48092380Y-99064404D01*
X48092380Y-98969166D01*
X48140000Y-98826309D01*
X48187619Y-98778690D01*
X48092380Y-98064404D02*
X48806666Y-98064404D01*
X48949523Y-98112023D01*
X49044761Y-98207261D01*
X49092380Y-98350119D01*
X49092380Y-98445357D01*
X49092380Y-97112023D02*
X49092380Y-97588214D01*
X48092380Y-97588214D01*
X48997142Y-96207261D02*
X49044761Y-96254880D01*
X49092380Y-96397738D01*
X49092380Y-96492976D01*
X49044761Y-96635833D01*
X48949523Y-96731071D01*
X48854285Y-96778690D01*
X48663809Y-96826309D01*
X48520952Y-96826309D01*
X48330476Y-96778690D01*
X48235238Y-96731071D01*
X48140000Y-96635833D01*
X48092380Y-96492976D01*
X48092380Y-96397738D01*
X48140000Y-96254880D01*
X48187619Y-96207261D01*
D12*
G36*
X246901429Y-59806428D02*
G01*
X246904383Y-61478072D01*
X246912837Y-63032105D01*
X246926177Y-64432210D01*
X246943790Y-65642067D01*
X246965064Y-66625357D01*
X246989383Y-67345760D01*
X247016136Y-67766957D01*
X247037500Y-67864645D01*
X247184557Y-67735144D01*
X247561854Y-67367063D01*
X248147423Y-66782698D01*
X248919299Y-66004348D01*
X249855516Y-65054310D01*
X250934106Y-63954882D01*
X252133104Y-62728361D01*
X253430542Y-61397045D01*
X254804456Y-59983231D01*
X254975000Y-59807461D01*
X262776429Y-51765632D01*
X266948619Y-51749244D01*
X271120809Y-51732857D01*
X261881567Y-60973431D01*
X260113816Y-62742420D01*
X258586687Y-64273443D01*
X257283440Y-65584331D01*
X256187337Y-66692913D01*
X255281638Y-67617019D01*
X254549605Y-68374478D01*
X253974499Y-68983120D01*
X253539580Y-69460775D01*
X253228110Y-69825271D01*
X253023350Y-70094440D01*
X252908561Y-70286109D01*
X252867003Y-70418109D01*
X252881938Y-70508270D01*
X252901520Y-70538564D01*
X253056489Y-70727180D01*
X253424894Y-71172760D01*
X253988341Y-71853126D01*
X254728438Y-72746099D01*
X255626789Y-73829502D01*
X256665002Y-75081157D01*
X257824682Y-76478884D01*
X259087436Y-78000507D01*
X260434870Y-79623848D01*
X261848591Y-81326727D01*
X262070637Y-81594161D01*
X263489267Y-83303415D01*
X264841451Y-84933908D01*
X266109138Y-86463793D01*
X267274276Y-87871226D01*
X268318814Y-89134360D01*
X269224700Y-90231349D01*
X269973883Y-91140346D01*
X270548310Y-91839507D01*
X270929931Y-92306985D01*
X271100694Y-92520934D01*
X271107416Y-92530456D01*
X271044449Y-92601034D01*
X270740363Y-92655196D01*
X270169268Y-92694258D01*
X269305277Y-92719539D01*
X268122501Y-92732356D01*
X267096065Y-92734619D01*
X262957857Y-92733523D01*
X255619568Y-83663190D01*
X254346099Y-82091205D01*
X253139362Y-80605585D01*
X252018732Y-79229925D01*
X251003586Y-77987819D01*
X250113298Y-76902863D01*
X249367244Y-75998651D01*
X248784799Y-75298777D01*
X248385338Y-74826836D01*
X248188238Y-74606423D01*
X248171230Y-74592857D01*
X247990246Y-74711834D01*
X247659160Y-75012818D01*
X247481305Y-75191137D01*
X246901429Y-75789417D01*
X246901429Y-92735714D01*
X240732857Y-92735714D01*
X240732857Y-51732857D01*
X246901429Y-51732857D01*
X246901429Y-59806428D01*
X246901429Y-59806428D01*
G37*
X246901429Y-59806428D02*
X246904383Y-61478072D01*
X246912837Y-63032105D01*
X246926177Y-64432210D01*
X246943790Y-65642067D01*
X246965064Y-66625357D01*
X246989383Y-67345760D01*
X247016136Y-67766957D01*
X247037500Y-67864645D01*
X247184557Y-67735144D01*
X247561854Y-67367063D01*
X248147423Y-66782698D01*
X248919299Y-66004348D01*
X249855516Y-65054310D01*
X250934106Y-63954882D01*
X252133104Y-62728361D01*
X253430542Y-61397045D01*
X254804456Y-59983231D01*
X254975000Y-59807461D01*
X262776429Y-51765632D01*
X266948619Y-51749244D01*
X271120809Y-51732857D01*
X261881567Y-60973431D01*
X260113816Y-62742420D01*
X258586687Y-64273443D01*
X257283440Y-65584331D01*
X256187337Y-66692913D01*
X255281638Y-67617019D01*
X254549605Y-68374478D01*
X253974499Y-68983120D01*
X253539580Y-69460775D01*
X253228110Y-69825271D01*
X253023350Y-70094440D01*
X252908561Y-70286109D01*
X252867003Y-70418109D01*
X252881938Y-70508270D01*
X252901520Y-70538564D01*
X253056489Y-70727180D01*
X253424894Y-71172760D01*
X253988341Y-71853126D01*
X254728438Y-72746099D01*
X255626789Y-73829502D01*
X256665002Y-75081157D01*
X257824682Y-76478884D01*
X259087436Y-78000507D01*
X260434870Y-79623848D01*
X261848591Y-81326727D01*
X262070637Y-81594161D01*
X263489267Y-83303415D01*
X264841451Y-84933908D01*
X266109138Y-86463793D01*
X267274276Y-87871226D01*
X268318814Y-89134360D01*
X269224700Y-90231349D01*
X269973883Y-91140346D01*
X270548310Y-91839507D01*
X270929931Y-92306985D01*
X271100694Y-92520934D01*
X271107416Y-92530456D01*
X271044449Y-92601034D01*
X270740363Y-92655196D01*
X270169268Y-92694258D01*
X269305277Y-92719539D01*
X268122501Y-92732356D01*
X267096065Y-92734619D01*
X262957857Y-92733523D01*
X255619568Y-83663190D01*
X254346099Y-82091205D01*
X253139362Y-80605585D01*
X252018732Y-79229925D01*
X251003586Y-77987819D01*
X250113298Y-76902863D01*
X249367244Y-75998651D01*
X248784799Y-75298777D01*
X248385338Y-74826836D01*
X248188238Y-74606423D01*
X248171230Y-74592857D01*
X247990246Y-74711834D01*
X247659160Y-75012818D01*
X247481305Y-75191137D01*
X246901429Y-75789417D01*
X246901429Y-92735714D01*
X240732857Y-92735714D01*
X240732857Y-51732857D01*
X246901429Y-51732857D01*
X246901429Y-59806428D01*
G36*
X191565714Y-92735714D02*
G01*
X185397143Y-92735714D01*
X185397143Y-51732857D01*
X191565714Y-51732857D01*
X191565714Y-92735714D01*
X191565714Y-92735714D01*
G37*
X191565714Y-92735714D02*
X185397143Y-92735714D01*
X185397143Y-51732857D01*
X191565714Y-51732857D01*
X191565714Y-92735714D01*
G36*
X157502500Y-51733368D02*
G01*
X159491420Y-51743496D01*
X161170534Y-51776475D01*
X162592432Y-51836871D01*
X163809703Y-51929249D01*
X164874938Y-52058172D01*
X165840726Y-52228207D01*
X166759657Y-52443917D01*
X167249408Y-52579405D01*
X169242546Y-53324894D01*
X170982015Y-54326749D01*
X172457926Y-55572572D01*
X173660389Y-57049960D01*
X174579516Y-58746512D01*
X175205416Y-60649828D01*
X175528200Y-62747505D01*
X175544266Y-62981156D01*
X175507829Y-65083491D01*
X175148165Y-67077798D01*
X174482034Y-68934212D01*
X173526193Y-70622868D01*
X172297404Y-72113898D01*
X170812426Y-73377438D01*
X169166709Y-74346127D01*
X168466551Y-74660047D01*
X167810292Y-74915484D01*
X167332174Y-75060505D01*
X167307066Y-75065515D01*
X166903507Y-75187169D01*
X166712377Y-75335195D01*
X166710000Y-75351142D01*
X166813811Y-75525574D01*
X167112762Y-75966838D01*
X167588126Y-76648631D01*
X168221178Y-77544653D01*
X168993193Y-78628600D01*
X169885445Y-79874172D01*
X170879208Y-81255066D01*
X171955758Y-82744980D01*
X172960244Y-84130237D01*
X179210489Y-92735714D01*
X175364173Y-92726417D01*
X171517857Y-92717119D01*
X165725321Y-84380702D01*
X164483640Y-82594461D01*
X163431038Y-81083419D01*
X162549863Y-79824566D01*
X161822464Y-78794894D01*
X161231190Y-77971394D01*
X160758388Y-77331057D01*
X160386408Y-76850874D01*
X160097598Y-76507836D01*
X159874306Y-76278933D01*
X159698880Y-76141158D01*
X159553670Y-76071501D01*
X159421024Y-76046953D01*
X159329964Y-76044286D01*
X158727143Y-76044286D01*
X158727143Y-92735714D01*
X152558572Y-92735714D01*
X152558572Y-63949047D01*
X158727143Y-63949047D01*
X158730867Y-65440646D01*
X158741457Y-66817056D01*
X158758038Y-68036229D01*
X158779738Y-69056115D01*
X158805683Y-69834667D01*
X158834998Y-70329835D01*
X158863214Y-70498125D01*
X159105184Y-70552914D01*
X159629783Y-70568276D01*
X160359533Y-70549359D01*
X161216954Y-70501313D01*
X162124568Y-70429288D01*
X163004896Y-70338432D01*
X163780458Y-70233895D01*
X164307692Y-70136276D01*
X165882941Y-69630647D01*
X167190792Y-68886237D01*
X168226184Y-67906686D01*
X168927093Y-66814521D01*
X169112644Y-66390784D01*
X169233658Y-65959714D01*
X169303241Y-65428615D01*
X169334495Y-64704793D01*
X169340714Y-63888571D01*
X169333839Y-62960644D01*
X169303020Y-62301379D01*
X169232966Y-61816686D01*
X169108387Y-61412475D01*
X168913993Y-60994654D01*
X168850705Y-60873276D01*
X168105203Y-59819015D01*
X167084784Y-58968558D01*
X165782313Y-58319032D01*
X164190659Y-57867565D01*
X162302686Y-57611283D01*
X160586786Y-57544901D01*
X158727143Y-57538571D01*
X158727143Y-63949047D01*
X152558572Y-63949047D01*
X152558572Y-51732857D01*
X157502500Y-51733368D01*
X157502500Y-51733368D01*
G37*
X157502500Y-51733368D02*
X159491420Y-51743496D01*
X161170534Y-51776475D01*
X162592432Y-51836871D01*
X163809703Y-51929249D01*
X164874938Y-52058172D01*
X165840726Y-52228207D01*
X166759657Y-52443917D01*
X167249408Y-52579405D01*
X169242546Y-53324894D01*
X170982015Y-54326749D01*
X172457926Y-55572572D01*
X173660389Y-57049960D01*
X174579516Y-58746512D01*
X175205416Y-60649828D01*
X175528200Y-62747505D01*
X175544266Y-62981156D01*
X175507829Y-65083491D01*
X175148165Y-67077798D01*
X174482034Y-68934212D01*
X173526193Y-70622868D01*
X172297404Y-72113898D01*
X170812426Y-73377438D01*
X169166709Y-74346127D01*
X168466551Y-74660047D01*
X167810292Y-74915484D01*
X167332174Y-75060505D01*
X167307066Y-75065515D01*
X166903507Y-75187169D01*
X166712377Y-75335195D01*
X166710000Y-75351142D01*
X166813811Y-75525574D01*
X167112762Y-75966838D01*
X167588126Y-76648631D01*
X168221178Y-77544653D01*
X168993193Y-78628600D01*
X169885445Y-79874172D01*
X170879208Y-81255066D01*
X171955758Y-82744980D01*
X172960244Y-84130237D01*
X179210489Y-92735714D01*
X175364173Y-92726417D01*
X171517857Y-92717119D01*
X165725321Y-84380702D01*
X164483640Y-82594461D01*
X163431038Y-81083419D01*
X162549863Y-79824566D01*
X161822464Y-78794894D01*
X161231190Y-77971394D01*
X160758388Y-77331057D01*
X160386408Y-76850874D01*
X160097598Y-76507836D01*
X159874306Y-76278933D01*
X159698880Y-76141158D01*
X159553670Y-76071501D01*
X159421024Y-76046953D01*
X159329964Y-76044286D01*
X158727143Y-76044286D01*
X158727143Y-92735714D01*
X152558572Y-92735714D01*
X152558572Y-63949047D01*
X158727143Y-63949047D01*
X158730867Y-65440646D01*
X158741457Y-66817056D01*
X158758038Y-68036229D01*
X158779738Y-69056115D01*
X158805683Y-69834667D01*
X158834998Y-70329835D01*
X158863214Y-70498125D01*
X159105184Y-70552914D01*
X159629783Y-70568276D01*
X160359533Y-70549359D01*
X161216954Y-70501313D01*
X162124568Y-70429288D01*
X163004896Y-70338432D01*
X163780458Y-70233895D01*
X164307692Y-70136276D01*
X165882941Y-69630647D01*
X167190792Y-68886237D01*
X168226184Y-67906686D01*
X168927093Y-66814521D01*
X169112644Y-66390784D01*
X169233658Y-65959714D01*
X169303241Y-65428615D01*
X169334495Y-64704793D01*
X169340714Y-63888571D01*
X169333839Y-62960644D01*
X169303020Y-62301379D01*
X169232966Y-61816686D01*
X169108387Y-61412475D01*
X168913993Y-60994654D01*
X168850705Y-60873276D01*
X168105203Y-59819015D01*
X167084784Y-58968558D01*
X165782313Y-58319032D01*
X164190659Y-57867565D01*
X162302686Y-57611283D01*
X160586786Y-57544901D01*
X158727143Y-57538571D01*
X158727143Y-63949047D01*
X152558572Y-63949047D01*
X152558572Y-51732857D01*
X157502500Y-51733368D01*
G36*
X144575714Y-57538571D02*
G01*
X128065714Y-57538571D01*
X128065714Y-67335714D01*
X144031429Y-67335714D01*
X144031429Y-73137614D01*
X136093929Y-73184878D01*
X128156429Y-73232143D01*
X128108890Y-80081071D01*
X128061351Y-86930000D01*
X144575714Y-86930000D01*
X144575714Y-92735714D01*
X121897143Y-92735714D01*
X121897143Y-51732857D01*
X144575714Y-51732857D01*
X144575714Y-57538571D01*
X144575714Y-57538571D01*
G37*
X144575714Y-57538571D02*
X128065714Y-57538571D01*
X128065714Y-67335714D01*
X144031429Y-67335714D01*
X144031429Y-73137614D01*
X136093929Y-73184878D01*
X128156429Y-73232143D01*
X128108890Y-80081071D01*
X128061351Y-86930000D01*
X144575714Y-86930000D01*
X144575714Y-92735714D01*
X121897143Y-92735714D01*
X121897143Y-51732857D01*
X144575714Y-51732857D01*
X144575714Y-57538571D01*
G36*
X88151429Y-67698571D02*
G01*
X105931429Y-67698571D01*
X105931429Y-51732857D01*
X112100000Y-51732857D01*
X112100000Y-92735714D01*
X105931429Y-92735714D01*
X105931429Y-73685714D01*
X88151429Y-73685714D01*
X88151429Y-92735714D01*
X81982857Y-92735714D01*
X81982857Y-51732857D01*
X88151429Y-51732857D01*
X88151429Y-67698571D01*
X88151429Y-67698571D01*
G37*
X88151429Y-67698571D02*
X105931429Y-67698571D01*
X105931429Y-51732857D01*
X112100000Y-51732857D01*
X112100000Y-92735714D01*
X105931429Y-92735714D01*
X105931429Y-73685714D01*
X88151429Y-73685714D01*
X88151429Y-92735714D01*
X81982857Y-92735714D01*
X81982857Y-51732857D01*
X88151429Y-51732857D01*
X88151429Y-67698571D01*
G36*
X76358572Y-57538571D02*
G01*
X67105714Y-57538571D01*
X67105714Y-92735714D01*
X60755714Y-92735714D01*
X60755714Y-57538571D01*
X51321429Y-57538571D01*
X51321429Y-51732857D01*
X76358572Y-51732857D01*
X76358572Y-57538571D01*
X76358572Y-57538571D01*
G37*
X76358572Y-57538571D02*
X67105714Y-57538571D01*
X67105714Y-92735714D01*
X60755714Y-92735714D01*
X60755714Y-57538571D01*
X51321429Y-57538571D01*
X51321429Y-51732857D01*
X76358572Y-51732857D01*
X76358572Y-57538571D01*
G36*
X224322095Y-51134986D02*
G01*
X226878146Y-51690919D01*
X227397857Y-51848559D01*
X227956927Y-52051896D01*
X228722120Y-52363197D01*
X229572931Y-52732384D01*
X230073929Y-52960637D01*
X231842857Y-53783317D01*
X231842857Y-61201908D01*
X230981072Y-60551043D01*
X228851907Y-59136255D01*
X226662874Y-58052660D01*
X224437020Y-57302484D01*
X222197395Y-56887953D01*
X219967048Y-56811292D01*
X217769029Y-57074727D01*
X215626387Y-57680482D01*
X213562172Y-58630784D01*
X213206880Y-58834949D01*
X211875120Y-59772582D01*
X210544707Y-60979887D01*
X209292844Y-62371695D01*
X208196738Y-63862841D01*
X207392218Y-65249286D01*
X206606289Y-67193891D01*
X206084895Y-69314256D01*
X205834187Y-71531379D01*
X205860317Y-73766261D01*
X206169435Y-75939900D01*
X206469253Y-77103607D01*
X207253011Y-79089148D01*
X208346788Y-80976141D01*
X209704306Y-82710948D01*
X211279284Y-84239932D01*
X213025441Y-85509454D01*
X214335000Y-86219797D01*
X215487526Y-86728710D01*
X216506615Y-87093244D01*
X217498750Y-87335393D01*
X218570416Y-87477148D01*
X219828094Y-87540504D01*
X220775714Y-87550065D01*
X222155621Y-87521868D01*
X223374037Y-87422424D01*
X224487531Y-87229453D01*
X225552670Y-86920677D01*
X226626022Y-86473817D01*
X227764153Y-85866594D01*
X229023632Y-85076729D01*
X230461026Y-84081943D01*
X231504250Y-83324656D01*
X231617479Y-83255330D01*
X231702181Y-83265341D01*
X231762489Y-83397472D01*
X231802537Y-83694505D01*
X231826460Y-84199221D01*
X231838392Y-84954403D01*
X231842465Y-86002833D01*
X231842857Y-86828925D01*
X231842857Y-90582109D01*
X230346072Y-91283291D01*
X227709545Y-92324294D01*
X224968863Y-93036038D01*
X222170333Y-93412061D01*
X219360262Y-93445899D01*
X216818626Y-93171609D01*
X214244965Y-92557764D01*
X211781177Y-91600603D01*
X209438218Y-90305923D01*
X207227046Y-88679523D01*
X205709170Y-87292857D01*
X203945845Y-85346523D01*
X202507019Y-83322462D01*
X201354532Y-81154971D01*
X200450226Y-78778350D01*
X200132152Y-77690527D01*
X199964268Y-77036090D01*
X199841464Y-76452591D01*
X199756576Y-75862316D01*
X199702441Y-75187552D01*
X199671895Y-74350583D01*
X199657774Y-73273697D01*
X199654280Y-72506428D01*
X199669993Y-70868251D01*
X199737840Y-69499903D01*
X199873188Y-68310225D01*
X200091400Y-67208057D01*
X200407841Y-66102239D01*
X200837878Y-64901613D01*
X201010189Y-64461902D01*
X202022083Y-62332171D01*
X203327155Y-60237255D01*
X204865564Y-58251207D01*
X206577466Y-56448079D01*
X208403018Y-54901926D01*
X209178214Y-54354312D01*
X211426376Y-53072193D01*
X213852308Y-52079024D01*
X216405429Y-51381762D01*
X219035155Y-50987364D01*
X221690904Y-50902787D01*
X224322095Y-51134986D01*
X224322095Y-51134986D01*
G37*
X224322095Y-51134986D02*
X226878146Y-51690919D01*
X227397857Y-51848559D01*
X227956927Y-52051896D01*
X228722120Y-52363197D01*
X229572931Y-52732384D01*
X230073929Y-52960637D01*
X231842857Y-53783317D01*
X231842857Y-61201908D01*
X230981072Y-60551043D01*
X228851907Y-59136255D01*
X226662874Y-58052660D01*
X224437020Y-57302484D01*
X222197395Y-56887953D01*
X219967048Y-56811292D01*
X217769029Y-57074727D01*
X215626387Y-57680482D01*
X213562172Y-58630784D01*
X213206880Y-58834949D01*
X211875120Y-59772582D01*
X210544707Y-60979887D01*
X209292844Y-62371695D01*
X208196738Y-63862841D01*
X207392218Y-65249286D01*
X206606289Y-67193891D01*
X206084895Y-69314256D01*
X205834187Y-71531379D01*
X205860317Y-73766261D01*
X206169435Y-75939900D01*
X206469253Y-77103607D01*
X207253011Y-79089148D01*
X208346788Y-80976141D01*
X209704306Y-82710948D01*
X211279284Y-84239932D01*
X213025441Y-85509454D01*
X214335000Y-86219797D01*
X215487526Y-86728710D01*
X216506615Y-87093244D01*
X217498750Y-87335393D01*
X218570416Y-87477148D01*
X219828094Y-87540504D01*
X220775714Y-87550065D01*
X222155621Y-87521868D01*
X223374037Y-87422424D01*
X224487531Y-87229453D01*
X225552670Y-86920677D01*
X226626022Y-86473817D01*
X227764153Y-85866594D01*
X229023632Y-85076729D01*
X230461026Y-84081943D01*
X231504250Y-83324656D01*
X231617479Y-83255330D01*
X231702181Y-83265341D01*
X231762489Y-83397472D01*
X231802537Y-83694505D01*
X231826460Y-84199221D01*
X231838392Y-84954403D01*
X231842465Y-86002833D01*
X231842857Y-86828925D01*
X231842857Y-90582109D01*
X230346072Y-91283291D01*
X227709545Y-92324294D01*
X224968863Y-93036038D01*
X222170333Y-93412061D01*
X219360262Y-93445899D01*
X216818626Y-93171609D01*
X214244965Y-92557764D01*
X211781177Y-91600603D01*
X209438218Y-90305923D01*
X207227046Y-88679523D01*
X205709170Y-87292857D01*
X203945845Y-85346523D01*
X202507019Y-83322462D01*
X201354532Y-81154971D01*
X200450226Y-78778350D01*
X200132152Y-77690527D01*
X199964268Y-77036090D01*
X199841464Y-76452591D01*
X199756576Y-75862316D01*
X199702441Y-75187552D01*
X199671895Y-74350583D01*
X199657774Y-73273697D01*
X199654280Y-72506428D01*
X199669993Y-70868251D01*
X199737840Y-69499903D01*
X199873188Y-68310225D01*
X200091400Y-67208057D01*
X200407841Y-66102239D01*
X200837878Y-64901613D01*
X201010189Y-64461902D01*
X202022083Y-62332171D01*
X203327155Y-60237255D01*
X204865564Y-58251207D01*
X206577466Y-56448079D01*
X208403018Y-54901926D01*
X209178214Y-54354312D01*
X211426376Y-53072193D01*
X213852308Y-52079024D01*
X216405429Y-51381762D01*
X219035155Y-50987364D01*
X221690904Y-50902787D01*
X224322095Y-51134986D01*
M02*
